<?xml version="1.0" encoding="UTF-8"?>
<!DOCTYPE svg PUBLIC "-//W3C//DTD SVG 1.1//EN" "http://www.w3.org/Graphics/SVG/1.1/DTD/svg11.dtd">
<svg xmlns="http://www.w3.org/2000/svg" version="1.1" width="1024px" height="1030px" style="shape-rendering:geometricPrecision; text-rendering:geometricPrecision; image-rendering:optimizeQuality; fill-rule:evenodd; clip-rule:evenodd" xmlns:xlink="http://www.w3.org/1999/xlink">
<g><path style="opacity:1" fill="#f9f9f9" d="M -0.5,-0.5 C 340.833,-0.5 682.167,-0.5 1023.5,-0.5C 1023.5,342.833 1023.5,686.167 1023.5,1029.5C 682.167,1029.5 340.833,1029.5 -0.5,1029.5C -0.5,686.167 -0.5,342.833 -0.5,-0.5 Z"/></g>
<g><path style="opacity:1" fill="#030303" d="M 617.5,610.5 C 601.563,613.267 586.23,611.434 571.5,605C 565.742,601.094 564.075,595.76 566.5,589C 565.804,587.107 564.97,585.274 564,583.5C 563.87,575.735 563.037,568.068 561.5,560.5C 561.752,557.41 562.419,554.41 563.5,551.5C 559.81,544.93 559.643,538.263 563,531.5C 564.731,529.383 566.898,527.883 569.5,527C 578.494,526.5 587.494,526.334 596.5,526.5C 595.738,517.407 597.238,508.74 601,500.5C 607.035,490.893 615.202,488.393 625.5,493C 628.194,495.653 629.027,498.82 628,502.5C 626.333,508.5 624.667,514.5 623,520.5C 622.333,523.833 622.333,527.167 623,530.5C 639.641,548.417 643.974,569.084 636,592.5C 634.741,598.457 632.241,603.791 628.5,608.5C 630.266,613.216 633.599,615.049 638.5,614C 641.751,610.581 644.418,606.747 646.5,602.5C 645.635,601.417 644.635,601.251 643.5,602C 641.919,603.828 640.585,605.828 639.5,608C 638.552,608.483 637.552,608.649 636.5,608.5C 635.717,598.95 640.05,594.95 649.5,596.5C 655.577,576.925 653.077,558.591 642,541.5C 638.5,537.333 635,533.167 631.5,529C 637.862,524.817 643.862,520.15 649.5,515C 642.63,515.34 635.963,516.84 629.5,519.5C 629.167,519 628.833,518.5 628.5,518C 630.608,511.961 632.275,505.794 633.5,499.5C 632.837,492.672 629.171,488.505 622.5,487C 611.364,484.984 602.864,488.818 597,498.5C 592.962,505.629 591.462,513.296 592.5,521.5C 584.439,521.179 576.439,521.679 568.5,523C 559.901,525.931 555.568,531.931 555.5,541C 555.392,545.166 556.392,549 558.5,552.5C 557.664,562.486 557.83,572.486 559,582.5C 561.064,588.283 562.064,594.283 562,600.5C 563.031,603.539 564.865,606.039 567.5,608C 583.279,616.193 599.945,618.693 617.5,615.5C 617.19,618.713 617.523,621.713 618.5,624.5C 619.376,632.011 620.376,639.511 621.5,647C 621.464,649.094 621.131,651.094 620.5,653C 595.448,653.601 570.448,653.268 545.5,652C 554.537,655.475 563.87,657.808 573.5,659C 590.021,661.132 606.521,662.965 623,664.5C 628.806,703.786 628.973,743.119 623.5,782.5C 622.475,785.974 621.808,789.64 621.5,793.5C 619.098,806.771 615.932,819.771 612,832.5C 621.045,840.944 631.212,847.777 642.5,853C 654.408,857.414 666.408,861.414 678.5,865C 684.084,869.149 684.751,873.816 680.5,879C 655.21,881.277 629.877,881.944 604.5,881C 593.282,876.113 581.616,872.946 569.5,871.5C 569.451,874.099 568.451,876.266 566.5,878C 557.5,878.667 548.5,878.667 539.5,878C 539,877.5 538.5,877 538,876.5C 539.17,841.804 538.503,807.137 536,772.5C 532.762,744.721 526.928,717.554 518.5,691C 517.517,690.409 516.85,690.743 516.5,692C 500.042,729.213 489.375,768.047 484.5,808.5C 483.111,813.269 482.444,818.269 482.5,823.5C 480.981,840.121 480.148,856.788 480,873.5C 479.097,874.701 477.931,875.535 476.5,876C 468.167,876.667 459.833,876.667 451.5,876C 450.034,874.448 449.034,872.614 448.5,870.5C 447.5,870.167 446.5,869.833 445.5,869.5C 433.635,872.288 421.968,875.788 410.5,880C 389.167,880.667 367.833,880.667 346.5,880C 341.548,879.612 336.715,878.779 332,877.5C 330.639,870.723 333.139,865.89 339.5,863C 354.899,857.533 370.233,851.867 385.5,846C 393.199,842.291 400.366,837.791 407,832.5C 396.657,773.816 397.157,715.149 408.5,656.5C 432.663,655.646 456.663,653.312 480.5,649.5C 482.854,649.162 485.187,648.662 487.5,648C 471.837,647.5 456.17,647.333 440.5,647.5C 430.873,647.878 421.373,647.211 412,645.5C 414.5,633.495 417.334,621.495 420.5,609.5C 432.448,610.343 443.781,608.176 454.5,603C 456,601.5 457.5,600 459,598.5C 462.238,586.669 464.905,574.669 467,562.5C 467.717,557.78 467.55,553.114 466.5,548.5C 468.984,546.88 470.484,544.547 471,541.5C 473.395,527.55 467.562,519.383 453.5,517C 448.511,516.501 443.511,516.334 438.5,516.5C 440.331,503.154 436.331,491.987 426.5,483C 417.268,477.619 408.768,478.453 401,485.5C 399.953,488.039 399.453,490.705 399.5,493.5C 400.181,499.048 401.181,504.548 402.5,510C 402.167,510.5 401.833,511 401.5,511.5C 394.333,509.465 387.333,507.298 380.5,505C 386.009,509.677 391.342,514.51 396.5,519.5C 384.678,531.477 376.178,545.477 371,561.5C 370.104,569.246 370.437,576.913 372,584.5C 381.563,584.394 385.896,589.061 385,598.5C 384.282,599.451 383.449,599.617 382.5,599C 381.649,594.319 378.983,591.486 374.5,590.5C 376.062,595.907 378.729,600.741 382.5,605C 387.383,606.453 390.717,604.786 392.5,600C 383.521,579.865 383.354,559.698 392,539.5C 396.285,533.214 401.285,527.548 407,522.5C 407.667,518.167 407.667,513.833 407,509.5C 405.34,502.88 404.34,496.213 404,489.5C 410.093,483.771 416.926,482.938 424.5,487C 432.812,495.11 435.812,504.943 433.5,516.5C 432.549,517.919 432.216,519.585 432.5,521.5C 438.5,521.5 444.5,521.5 450.5,521.5C 463.93,522.35 469.096,529.35 466,542.5C 465.385,544.116 464.385,545.449 463,546.5C 462.211,548.712 462.378,550.712 463.5,552.5C 464.007,557.121 463.174,561.454 461,565.5C 460.297,573.94 458.963,582.274 457,590.5C 456.681,593.973 455.181,596.806 452.5,599C 435.48,606.43 418.146,607.263 400.5,601.5C 397.763,603.731 395.096,606.231 392.5,609C 389.845,610.441 387.012,611.274 384,611.5C 356.407,605.87 334.74,591.537 319,568.5C 311.156,555.208 310.489,541.541 317,527.5C 332.584,488.157 355.751,453.99 386.5,425C 397.641,415.582 410.308,412.916 424.5,417C 430.61,419.402 436.61,421.735 442.5,424C 435.592,415.024 430.092,405.19 426,394.5C 407.684,383.592 401.017,367.592 406,346.5C 406.767,341.695 408.6,337.361 411.5,333.5C 413.061,338.801 414.561,344.134 416,349.5C 417.012,352.202 418.512,354.535 420.5,356.5C 420.56,357.043 420.893,357.376 421.5,357.5C 422.494,352.544 422.827,347.544 422.5,342.5C 423.067,334.229 424.901,326.229 428,318.5C 432.744,308.673 438.244,299.339 444.5,290.5C 438.835,285.674 433.002,281.007 427,276.5C 420.549,269.934 415.883,262.268 413,253.5C 409.961,239.892 415.294,232.559 429,231.5C 442.066,233.3 454.899,236.134 467.5,240C 469.902,240.814 472.235,240.647 474.5,239.5C 484.54,218.213 491.04,195.879 494,172.5C 498.797,168.183 504.297,165.016 510.5,163C 555.385,150.269 596.718,157.603 634.5,185C 647.376,194.509 658.543,205.675 668,218.5C 670.174,221.546 670.841,224.88 670,228.5C 659.533,241.093 651.366,255.093 645.5,270.5C 645.608,271.442 645.941,272.275 646.5,273C 655.607,279.107 663.773,286.274 671,294.5C 679.866,308.338 679.533,322.005 670,335.5C 665.103,340.07 659.936,344.237 654.5,348C 658.586,365.345 652.086,376.178 635,380.5C 630.234,396.203 622.734,410.37 612.5,423C 619.128,422.505 625.795,422.505 632.5,423C 635.376,423.438 638.043,424.438 640.5,426C 675.436,460.355 698.603,501.522 710,549.5C 712.855,564.756 709.189,578.09 699,589.5C 681.77,606.448 661.104,616.782 637,620.5C 629.932,620.1 625.098,616.6 622.5,610C 620.613,609.22 618.946,609.387 617.5,610.5 Z"/></g>
<g><path style="opacity:1" fill="#f4f4f4" d="M 526.5,227.5 C 519.183,226.882 511.849,226.549 504.5,226.5C 509.584,207.424 513.917,188.091 517.5,168.5C 526.997,165.973 536.663,164.64 546.5,164.5C 540.235,185.628 533.569,206.628 526.5,227.5 Z"/></g>
<g><path style="opacity:1" fill="#f4f4f4" d="M 646.5,206.5 C 649.394,207.882 651.894,209.882 654,212.5C 657.079,216.324 659.912,220.324 662.5,224.5C 651.599,237.728 643.266,252.394 637.5,268.5C 630.94,266.057 624.94,262.891 619.5,259C 626.815,240.533 635.815,223.033 646.5,206.5 Z"/></g>
<g><path style="opacity:1" fill="#9c9c9c" d="M 491.5,227.5 C 495.226,227.177 498.893,227.511 502.5,228.5C 498.205,229.661 493.871,229.828 489.5,229C 490.416,228.722 491.082,228.222 491.5,227.5 Z"/></g>
<g><path style="opacity:1" fill="#f1f1f1" d="M 502.5,230.5 C 509.916,230.301 517.249,230.968 524.5,232.5C 522.399,236.976 520.399,241.476 518.5,246C 511.486,246.499 504.486,246.332 497.5,245.5C 498.314,240.208 499.98,235.208 502.5,230.5 Z"/></g>
<g><path style="opacity:1" fill="#e1e1e0" d="M 526.5,227.5 C 555.297,230.881 582.63,238.881 608.5,251.5C 581.807,242.262 554.474,235.762 526.5,232C 525.272,230.51 525.272,229.01 526.5,227.5 Z"/></g>
<g><path style="opacity:1" fill="#ededed" d="M 558.5,264.5 C 553.056,263.116 547.389,262.45 541.5,262.5C 503.519,260.392 466.186,254.392 429.5,244.5C 426.185,243.984 424.018,245.317 423,248.5C 422.697,253.276 423.03,257.943 424,262.5C 419.686,257.22 417.686,251.22 418,244.5C 420.207,239.481 424.04,237.147 429.5,237.5C 447.716,241.803 466.049,245.637 484.5,249C 514.445,252.861 544.445,256.194 574.5,259C 599.639,261.714 623.306,269.047 645.5,281C 656.15,287.981 664.316,297.148 670,308.5C 671.248,315.215 670.248,321.548 667,327.5C 667.749,314.166 662.916,303.333 652.5,295C 634.046,281.286 613.379,272.62 590.5,269C 579.838,267.39 569.171,265.89 558.5,264.5 Z"/></g>
<g><path style="opacity:1" fill="#80807e" d="M 608.5,251.5 C 610.103,251.312 611.437,251.812 612.5,253C 610.86,253.348 609.527,252.848 608.5,251.5 Z"/></g>
<g><path style="opacity:1" fill="#a9a9a9" d="M 541.5,262.5 C 547.389,262.45 553.056,263.116 558.5,264.5C 552.611,264.55 546.944,263.884 541.5,262.5 Z"/></g>
<g><path style="opacity:1" fill="#f7f7f7" d="M 551.5,285.5 C 551.5,286.167 551.5,286.833 551.5,287.5C 543.918,287.576 540.418,291.242 541,298.5C 541.725,299.059 542.558,299.392 543.5,299.5C 561.358,292.185 571.525,298.185 574,317.5C 577.221,305.829 574.054,296.329 564.5,289C 586.593,293.031 606.926,301.365 625.5,314C 627.5,316 629.5,318 631.5,320C 625.552,319.474 619.552,319.474 613.5,320C 611.714,320.196 610.381,321.029 609.5,322.5C 616.537,324.176 623.537,326.009 630.5,328C 633.483,329.08 634.817,330.913 634.5,333.5C 630.384,330.351 625.717,329.018 620.5,329.5C 616.966,329.32 613.632,329.987 610.5,331.5C 609.479,332.002 609.312,332.668 610,333.5C 617.333,334.568 624.5,336.402 631.5,339C 631.957,339.414 632.291,339.914 632.5,340.5C 629.901,341.899 628.401,343.899 628,346.5C 642.411,341.898 648.744,347.231 647,362.5C 645.939,365.562 644.106,368.062 641.5,370C 635.638,371.448 629.805,371.948 624,371.5C 623.333,372.5 623.333,373.5 624,374.5C 627.668,376.484 628.335,379.15 626,382.5C 604.723,429.408 568.223,452.242 516.5,451C 479.726,447.286 453.392,428.786 437.5,395.5C 445.412,393.906 453.079,391.573 460.5,388.5C 470.467,395.575 481.467,398.075 493.5,396C 513.642,424.228 538.642,429.561 568.5,412C 579.758,403.978 586.258,393.144 588,379.5C 582.949,384.274 577.449,388.44 571.5,392C 560.841,397.024 552.008,394.857 545,385.5C 538.414,374.663 532.081,363.663 526,352.5C 520.271,345.219 512.771,341.552 503.5,341.5C 503.5,340.5 503.5,339.5 503.5,338.5C 497.842,341.215 491.842,342.048 485.5,341C 481.412,338.656 479.578,335.156 480,330.5C 482.055,325.112 485.555,320.946 490.5,318C 481.723,318.612 476.057,323.112 473.5,331.5C 472.833,333.167 472.167,334.833 471.5,336.5C 466.258,336.023 461.258,336.856 456.5,339C 450.542,343.289 444.876,347.956 439.5,353C 436.995,354.753 434.329,356.253 431.5,357.5C 430.364,327.102 440.864,301.435 463,280.5C 462.805,282.126 462.805,283.793 463,285.5C 470.588,275.593 478.921,274.927 488,283.5C 492.478,280.356 492.644,276.856 488.5,273C 509.463,276.987 530.463,281.154 551.5,285.5 Z"/></g>
<g><path style="opacity:1" fill="#989898" d="M 551.5,285.5 C 557.966,286.623 557.966,287.29 551.5,287.5C 551.5,286.833 551.5,286.167 551.5,285.5 Z"/></g>
<g><path style="opacity:1" fill="#090909" d="M 469.5,295.5 C 479.538,296.56 482.704,301.893 479,311.5C 471.021,318.935 465.854,317.268 463.5,306.5C 463.706,301.747 465.706,298.081 469.5,295.5 Z"/></g>
<g><path style="opacity:1" fill="#080809" d="M 543.5,315.5 C 555.403,315.958 558.57,321.625 553,332.5C 546.819,337.237 541.819,336.237 538,329.5C 536.814,323.553 538.647,318.887 543.5,315.5 Z"/></g>
<g><path style="opacity:1" fill="#6c6d6d" d="M 473.5,331.5 C 473.799,333.604 473.466,335.604 472.5,337.5C 471.893,337.376 471.56,337.043 471.5,336.5C 472.167,334.833 472.833,333.167 473.5,331.5 Z"/></g>
<g><path style="opacity:1" fill="#181818" d="M 617.5,338.5 C 618.75,338.577 619.583,339.244 620,340.5C 621.771,347.828 620.104,354.161 615,359.5C 616.299,352.609 617.133,345.609 617.5,338.5 Z"/></g>
<g><path style="opacity:1" fill="#545454" d="M 422.5,342.5 C 422.827,347.544 422.494,352.544 421.5,357.5C 420.893,357.376 420.56,357.043 420.5,356.5C 421.167,351.833 421.833,347.167 422.5,342.5 Z"/></g>
<g><path style="opacity:1" fill="#181818" d="M 636.5,350.5 C 639.908,349.828 642.575,350.828 644.5,353.5C 639.182,354.657 634.182,356.657 629.5,359.5C 628.479,358.998 628.312,358.332 629,357.5C 631.396,354.933 633.896,352.6 636.5,350.5 Z"/></g>
<g><path style="opacity:1" fill="#efefef" d="M 479.5,374.5 C 480.496,374.414 481.329,374.748 482,375.5C 483.973,380.779 486.473,385.779 489.5,390.5C 481.45,392.026 474.45,390.026 468.5,384.5C 472.808,381.85 476.474,378.517 479.5,374.5 Z"/></g>
<g><path style="opacity:1" fill="#181818" d="M 465.5,402.5 C 472.755,407.198 480.755,410.031 489.5,411C 480.904,415.138 473.404,413.638 467,406.5C 466.209,405.255 465.709,403.922 465.5,402.5 Z"/></g>
<g><path style="opacity:1" fill="#f1f2f1" d="M 464.5,444.5 C 468.981,447.242 473.647,449.742 478.5,452C 473.782,455.688 468.782,458.855 463.5,461.5C 463.178,455.642 463.511,449.975 464.5,444.5 Z"/></g>
<g><path style="opacity:1" fill="#e7e8e8" d="M 589.5,443.5 C 590.496,443.414 591.329,443.748 592,444.5C 596.723,456.053 598.889,468.053 598.5,480.5C 582.754,477.679 580.254,481.346 591,491.5C 591.667,492.5 591.667,493.5 591,494.5C 582.464,504.703 572.964,513.87 562.5,522C 561.833,522.667 561.167,522.667 560.5,522C 569.344,512.469 577.344,502.302 584.5,491.5C 580.833,486.833 577.167,482.167 573.5,477.5C 579.671,475.427 586.005,474.094 592.5,473.5C 592.803,463.354 591.803,453.354 589.5,443.5 Z"/></g>
<g><path style="opacity:1" fill="#b0b0b0" d="M 464.5,444.5 C 463.511,449.975 463.178,455.642 463.5,461.5C 462.183,455.654 462.183,449.654 463.5,443.5C 464.107,443.624 464.44,443.957 464.5,444.5 Z"/></g>
<g><path style="opacity:1" fill="#eeeeee" d="M 575.5,450.5 C 574.773,457.833 572.273,464.833 568,471.5C 562.705,468.036 557.871,464.036 553.5,459.5C 561.073,456.87 568.407,453.87 575.5,450.5 Z"/></g>
<g><path style="opacity:1" fill="#f5f5f5" d="M 487.5,455.5 C 492.498,456.935 497.498,458.435 502.5,460C 505.541,463.912 508.208,468.079 510.5,472.5C 509.451,474.112 507.951,475.112 506,475.5C 501.655,473.826 497.321,472.159 493,470.5C 491.289,470.439 489.956,471.106 489,472.5C 487.44,477.24 486.273,482.073 485.5,487C 486.65,491.697 487.983,496.363 489.5,501C 496.424,500.212 502.757,497.712 508.5,493.5C 511.167,495.5 513.5,497.833 515.5,500.5C 518.151,498.35 520.651,496.017 523,493.5C 529.011,497.601 535.511,500.101 542.5,501C 546.639,491.134 546.472,481.301 542,471.5C 540.274,470.424 538.441,470.257 536.5,471C 532.381,472.559 528.381,474.393 524.5,476.5C 523.167,475.5 521.833,474.5 520.5,473.5C 522.582,469.253 525.249,465.419 528.5,462C 533.864,461.171 539.198,461.337 544.5,462.5C 548.197,467.698 551.697,473.031 555,478.5C 555.667,480.167 555.667,481.833 555,483.5C 545.945,510.862 534.111,536.862 519.5,561.5C 497.35,533.532 481.85,502.199 473,467.5C 477.732,463.258 482.565,459.258 487.5,455.5 Z"/></g>
<g><path style="opacity:1" fill="#e5e5e5" d="M 509.5,462.5 C 513.351,461.191 517.351,461.191 521.5,462.5C 520.002,466.168 518.002,469.502 515.5,472.5C 513.474,469.103 511.474,465.77 509.5,462.5 Z"/></g>
<g><path style="opacity:1" fill="#e5e5e5" d="M 447.5,432.5 C 448.097,432.735 448.43,433.235 448.5,434C 443.855,445.075 441.355,456.575 441,468.5C 446.629,470.761 452.462,472.428 458.5,473.5C 454.515,476.984 450.682,480.651 447,484.5C 446.333,485.833 446.333,487.167 447,488.5C 454.175,500.677 462.508,512.01 472,522.5C 472.667,523.167 472.667,523.833 472,524.5C 459.465,513.642 448.798,501.309 440,487.5C 439.251,486.365 439.417,485.365 440.5,484.5C 445.188,481.822 449.521,478.656 453.5,475C 447.331,473.946 441.164,473.113 435,472.5C 434.837,457.822 439.004,444.489 447.5,432.5 Z"/></g>
<g><path style="opacity:1" fill="#efefef" d="M 466.5,548.5 C 465.603,547.402 464.77,547.402 464,548.5C 463.51,549.793 463.343,551.127 463.5,552.5C 462.378,550.712 462.211,548.712 463,546.5C 464.385,545.449 465.385,544.116 466,542.5C 469.096,529.35 463.93,522.35 450.5,521.5C 445.349,520.673 440.016,520.173 434.5,520C 433.663,518.989 433.33,517.822 433.5,516.5C 435.812,504.943 432.812,495.11 424.5,487C 416.926,482.938 410.093,483.771 404,489.5C 404.34,496.213 405.34,502.88 407,509.5C 407.667,513.833 407.667,518.167 407,522.5C 401.285,527.548 396.285,533.214 392,539.5C 383.354,559.698 383.521,579.865 392.5,600C 390.717,604.786 387.383,606.453 382.5,605C 378.729,600.741 376.062,595.907 374.5,590.5C 378.983,591.486 381.649,594.319 382.5,599C 383.449,599.617 384.282,599.451 385,598.5C 385.896,589.061 381.563,584.394 372,584.5C 370.437,576.913 370.104,569.246 371,561.5C 376.178,545.477 384.678,531.477 396.5,519.5C 391.342,514.51 386.009,509.677 380.5,505C 387.333,507.298 394.333,509.465 401.5,511.5C 401.833,511 402.167,510.5 402.5,510C 401.181,504.548 400.181,499.048 399.5,493.5C 399.453,490.705 399.953,488.039 401,485.5C 408.768,478.453 417.268,477.619 426.5,483C 436.331,491.987 440.331,503.154 438.5,516.5C 443.511,516.334 448.511,516.501 453.5,517C 467.562,519.383 473.395,527.55 471,541.5C 470.484,544.547 468.984,546.88 466.5,548.5 Z"/></g>
<g><path style="opacity:1" fill="#f6f6f6" d="M 411.5,489.5 C 418.005,489.168 422.838,491.835 426,497.5C 428.025,507.198 427.858,516.864 425.5,526.5C 435.55,526.169 445.55,526.669 455.5,528C 457.492,528.574 458.992,529.741 460,531.5C 460.667,534.5 460.667,537.5 460,540.5C 459.612,541.428 458.945,542.095 458,542.5C 450.874,544.185 443.708,545.685 436.5,547C 443.385,548.566 450.218,550.066 457,551.5C 457.667,554.5 457.667,557.5 457,560.5C 456.692,561.308 456.192,561.975 455.5,562.5C 448.685,564.201 442.018,566.201 435.5,568.5C 441.524,569.791 447.524,569.791 453.5,568.5C 454.855,572.49 454.522,576.323 452.5,580C 446.958,582.069 441.291,583.736 435.5,585C 435.043,585.414 434.709,585.914 434.5,586.5C 440.15,587.473 445.816,587.473 451.5,586.5C 451.287,589.475 450.287,592.142 448.5,594.5C 431.109,601.262 413.776,601.095 396.5,594C 394.312,589.757 392.812,585.257 392,580.5C 387.246,558.08 393.912,540.08 412,526.5C 412.918,523.402 413.418,520.235 413.5,517C 413.002,509.182 411.669,501.516 409.5,494C 409.519,492.167 410.185,490.667 411.5,489.5 Z"/></g>
<g><path style="opacity:1" fill="#ececec" d="M 617.5,610.5 C 618.153,611.807 618.82,613.14 619.5,614.5C 618.583,617.758 618.249,621.091 618.5,624.5C 617.523,621.713 617.19,618.713 617.5,615.5C 599.945,618.693 583.279,616.193 567.5,608C 564.865,606.039 563.031,603.539 562,600.5C 562.064,594.283 561.064,588.283 559,582.5C 557.83,572.486 557.664,562.486 558.5,552.5C 556.392,549 555.392,545.166 555.5,541C 555.568,531.931 559.901,525.931 568.5,523C 576.439,521.679 584.439,521.179 592.5,521.5C 591.462,513.296 592.962,505.629 597,498.5C 602.864,488.818 611.364,484.984 622.5,487C 629.171,488.505 632.837,492.672 633.5,499.5C 632.275,505.794 630.608,511.961 628.5,518C 628.833,518.5 629.167,519 629.5,519.5C 635.963,516.84 642.63,515.34 649.5,515C 643.862,520.15 637.862,524.817 631.5,529C 635,533.167 638.5,537.333 642,541.5C 653.077,558.591 655.577,576.925 649.5,596.5C 640.05,594.95 635.717,598.95 636.5,608.5C 637.552,608.649 638.552,608.483 639.5,608C 640.585,605.828 641.919,603.828 643.5,602C 644.635,601.251 645.635,601.417 646.5,602.5C 644.418,606.747 641.751,610.581 638.5,614C 633.599,615.049 630.266,613.216 628.5,608.5C 632.241,603.791 634.741,598.457 636,592.5C 643.974,569.084 639.641,548.417 623,530.5C 622.333,527.167 622.333,523.833 623,520.5C 624.667,514.5 626.333,508.5 628,502.5C 629.027,498.82 628.194,495.653 625.5,493C 615.202,488.393 607.035,490.893 601,500.5C 597.238,508.74 595.738,517.407 596.5,526.5C 587.494,526.334 578.494,526.5 569.5,527C 566.898,527.883 564.731,529.383 563,531.5C 559.643,538.263 559.81,544.93 563.5,551.5C 562.419,554.41 561.752,557.41 561.5,560.5C 563.037,568.068 563.87,575.735 564,583.5C 564.97,585.274 565.804,587.107 566.5,589C 564.075,595.76 565.742,601.094 571.5,605C 586.23,611.434 601.563,613.267 617.5,610.5 Z"/></g>
<g><path style="opacity:1" fill="#f5f5f5" d="M 576.5,574.5 C 580.683,575.811 585.016,575.811 589.5,574.5C 589.376,573.893 589.043,573.56 588.5,573.5C 581.817,571.661 575.317,569.328 569,566.5C 566.899,562.549 567.066,558.716 569.5,555C 575.5,554.667 581.5,554.333 587.5,554C 588.308,553.692 588.975,553.192 589.5,552.5C 581.889,551.19 574.555,549.023 567.5,546C 563.723,538.885 565.723,534.218 573.5,532C 583.508,531.553 593.508,531.72 603.5,532.5C 602.668,525.514 602.501,518.514 603,511.5C 605.264,500.862 611.597,496.195 622,497.5C 622.667,499.5 622.667,501.5 622,503.5C 618.263,512.845 616.597,522.511 617,532.5C 631.984,546.38 637.318,563.38 633,583.5C 631.307,589.608 629.307,595.608 627,601.5C 610.142,608.271 593.309,608.105 576.5,601C 571.689,598.877 570.356,595.377 572.5,590.5C 577.71,592.601 583.043,592.934 588.5,591.5C 582.476,589.986 576.809,587.653 571.5,584.5C 570.808,583.975 570.308,583.308 570,582.5C 569.502,579.518 569.335,576.518 569.5,573.5C 571.806,573.993 574.139,574.326 576.5,574.5 Z"/></g>
<g><path style="opacity:1" fill="#9e9f9f" d="M 433.5,516.5 C 433.33,517.822 433.663,518.989 434.5,520C 440.016,520.173 445.349,520.673 450.5,521.5C 444.5,521.5 438.5,521.5 432.5,521.5C 432.216,519.585 432.549,517.919 433.5,516.5 Z"/></g>
<g><path style="opacity:1" fill="#727272" d="M 588.5,573.5 C 589.043,573.56 589.376,573.893 589.5,574.5C 585.016,575.811 580.683,575.811 576.5,574.5C 580.702,574.817 584.702,574.483 588.5,573.5 Z"/></g>
<g><path style="opacity:1" fill="#d4d5d4" d="M 521.5,574.5 C 522.376,574.369 523.043,574.702 523.5,575.5C 520.626,577.577 518.459,580.244 517,583.5C 516.053,579.279 517.553,576.279 521.5,574.5 Z"/></g>
<g><path style="opacity:1" fill="#c4c4c4" d="M 440.5,647.5 C 456.17,647.333 471.837,647.5 487.5,648C 485.187,648.662 482.854,649.162 480.5,649.5C 467.167,648.833 453.833,648.167 440.5,647.5 Z"/></g>
<g><path style="opacity:1" fill="#a2a2a2" d="M 623.5,782.5 C 623.884,786.489 623.217,790.155 621.5,793.5C 621.808,789.64 622.475,785.974 623.5,782.5 Z"/></g>
<g><path style="opacity:1" fill="#a8a8a7" d="M 484.5,808.5 C 484.556,813.731 483.889,818.731 482.5,823.5C 482.444,818.269 483.111,813.269 484.5,808.5 Z"/></g>
<g><path style="opacity:1" fill="#eeeeee" d="M 383.5,869.5 C 370.989,869.829 358.655,869.495 346.5,868.5C 372.053,865.649 396.053,857.982 418.5,845.5C 421.273,845.773 422.939,847.273 423.5,850C 421.553,852.951 419.219,855.618 416.5,858C 409.338,860.306 402.005,861.973 394.5,863C 390.929,865.421 387.262,867.587 383.5,869.5 Z"/></g>
<g><path style="opacity:1" fill="#ededed" d="M 673.5,869.5 C 664.167,870.167 654.833,870.833 645.5,871.5C 640.821,871.666 636.155,871.499 631.5,871C 624.274,865.028 615.94,861.361 606.5,860C 599.557,858.055 594.89,853.722 592.5,847C 593.044,845.053 594.377,844.22 596.5,844.5C 608.236,851.366 620.569,857.199 633.5,862C 646.497,866.309 659.83,868.809 673.5,869.5 Z"/></g>
<g><path style="opacity:1" fill="#424342" d="M 346.5,868.5 C 358.655,869.495 370.989,869.829 383.5,869.5C 369.339,870.661 355.006,870.827 340.5,870C 342.345,868.872 344.345,868.372 346.5,868.5 Z"/></g>
<g><path style="opacity:1" fill="#343434" d="M 673.5,869.5 C 674.376,869.369 675.043,869.702 675.5,870.5C 665.522,871.499 655.522,871.832 645.5,871.5C 654.833,870.833 664.167,870.167 673.5,869.5 Z"/></g>
</svg>
