<?xml version="1.0" encoding="UTF-8" standalone="no"?>
<svg
   version="1.1"
   width="398.36703"
   height="724.47321"
   style="clip-rule:evenodd;fill-rule:evenodd;image-rendering:optimizeQuality;shape-rendering:geometricPrecision;text-rendering:geometricPrecision"
   id="svg38"
   sodipodi:docname="figure2.svg"
   inkscape:version="1.4.2 (ebf0e940d0, 2025-05-08)"
   xmlns:inkscape="http://www.inkscape.org/namespaces/inkscape"
   xmlns:sodipodi="http://sodipodi.sourceforge.net/DTD/sodipodi-0.dtd"
   xmlns="http://www.w3.org/2000/svg"
   xmlns:svg="http://www.w3.org/2000/svg">
  <defs
     id="defs38" />
  <sodipodi:namedview
     id="namedview38"
     pagecolor="#ffffff"
     bordercolor="#000000"
     borderopacity="0.25"
     inkscape:showpageshadow="2"
     inkscape:pageopacity="0.0"
     inkscape:pagecheckerboard="0"
     inkscape:deskcolor="#d1d1d1"
     inkscape:zoom="1.1262136"
     inkscape:cx="199.78448"
     inkscape:cy="357.83621"
     inkscape:window-width="2560"
     inkscape:window-height="1371"
     inkscape:window-x="0"
     inkscape:window-y="0"
     inkscape:window-maximized="1"
     inkscape:current-layer="svg38" />
  <g
     id="g1"
     transform="translate(-312.57042,-156.94169)">
    <path
       style="opacity:1"
       fill="#030303"
       d="m 617.5,610.5 c -15.937,2.767 -31.27,0.934 -46,-5.5 -5.758,-3.906 -7.425,-9.24 -5,-16 -0.696,-1.893 -1.53,-3.726 -2.5,-5.5 -0.13,-7.765 -0.963,-15.432 -2.5,-23 0.252,-3.09 0.919,-6.09 2,-9 -3.69,-6.57 -3.857,-13.237 -0.5,-20 1.731,-2.117 3.898,-3.617 6.5,-4.5 8.994,-0.5 17.994,-0.666 27,-0.5 -0.762,-9.093 0.738,-17.76 4.5,-26 6.035,-9.607 14.202,-12.107 24.5,-7.5 2.694,2.653 3.527,5.82 2.5,9.5 -1.667,6 -3.333,12 -5,18 -0.667,3.333 -0.667,6.667 0,10 16.641,17.917 20.974,38.584 13,62 -1.259,5.957 -3.759,11.291 -7.5,16 1.766,4.716 5.099,6.549 10,5.5 3.251,-3.419 5.918,-7.253 8,-11.5 -0.865,-1.083 -1.865,-1.249 -3,-0.5 -1.581,1.828 -2.915,3.828 -4,6 -0.948,0.483 -1.948,0.649 -3,0.5 -0.783,-9.55 3.55,-13.55 13,-12 6.077,-19.575 3.577,-37.909 -7.5,-55 -3.5,-4.167 -7,-8.333 -10.5,-12.5 6.362,-4.183 12.362,-8.85 18,-14 -6.87,0.34 -13.537,1.84 -20,4.5 -0.333,-0.5 -0.667,-1 -1,-1.5 2.108,-6.039 3.775,-12.206 5,-18.5 -0.663,-6.828 -4.329,-10.995 -11,-12.5 -11.136,-2.016 -19.636,1.818 -25.5,11.5 -4.038,7.129 -5.538,14.796 -4.5,23 -8.061,-0.321 -16.061,0.179 -24,1.5 -8.599,2.931 -12.932,8.931 -13,18 -0.108,4.166 0.892,8 3,11.5 -0.836,9.986 -0.67,19.986 0.5,30 2.064,5.783 3.064,11.783 3,18 1.031,3.039 2.865,5.539 5.5,7.5 15.779,8.193 32.445,10.693 50,7.5 -0.31,3.213 0.023,6.213 1,9 0.876,7.511 1.876,15.011 3,22.5 -0.036,2.094 -0.369,4.094 -1,6 -25.052,0.601 -50.052,0.268 -75,-1 9.037,3.475 18.37,5.808 28,7 16.521,2.132 33.021,3.965 49.5,5.5 5.806,39.286 5.973,78.619 0.5,118 -1.025,3.474 -1.692,7.14 -2,11 -2.402,13.271 -5.568,26.271 -9.5,39 9.045,8.444 19.212,15.277 30.5,20.5 11.908,4.414 23.908,8.414 36,12 5.584,4.149 6.251,8.816 2,14 -25.29,2.277 -50.623,2.944 -76,2 -11.218,-4.887 -22.884,-8.054 -35,-9.5 -0.049,2.599 -1.049,4.766 -3,6.5 -9,0.667 -18,0.667 -27,0 -0.5,-0.5 -1,-1 -1.5,-1.5 1.17,-34.696 0.503,-69.363 -2,-104 -3.238,-27.779 -9.072,-54.946 -17.5,-81.5 -0.983,-0.591 -1.65,-0.257 -2,1 -16.458,37.213 -27.125,76.047 -32,116.5 -1.389,4.769 -2.056,9.769 -2,15 -1.519,16.621 -2.352,33.288 -2.5,50 -0.903,1.201 -2.069,2.035 -3.5,2.5 -8.333,0.667 -16.667,0.667 -25,0 -1.466,-1.552 -2.466,-3.386 -3,-5.5 -1,-0.333 -2,-0.667 -3,-1 -11.865,2.788 -23.532,6.288 -35,10.5 -21.333,0.667 -42.667,0.667 -64,0 -4.952,-0.388 -9.785,-1.221 -14.5,-2.5 -1.361,-6.777 1.139,-11.61 7.5,-14.5 15.399,-5.467 30.733,-11.133 46,-17 7.699,-3.709 14.866,-8.209 21.5,-13.5 -10.343,-58.684 -9.843,-117.351 1.5,-176 24.163,-0.854 48.163,-3.188 72,-7 2.354,-0.338 4.687,-0.838 7,-1.5 -15.663,-0.5 -31.33,-0.667 -47,-0.5 -9.627,0.378 -19.127,-0.289 -28.5,-2 2.5,-12.005 5.334,-24.005 8.5,-36 11.948,0.843 23.281,-1.324 34,-6.5 1.5,-1.5 3,-3 4.5,-4.5 3.238,-11.831 5.905,-23.831 8,-36 0.717,-4.72 0.55,-9.386 -0.5,-14 2.484,-1.62 3.984,-3.953 4.5,-7 2.395,-13.95 -3.438,-22.117 -17.5,-24.5 -4.989,-0.499 -9.989,-0.666 -15,-0.5 1.831,-13.346 -2.169,-24.513 -12,-33.5 -9.232,-5.381 -17.732,-4.547 -25.5,2.5 -1.047,2.539 -1.547,5.205 -1.5,8 0.681,5.548 1.681,11.048 3,16.5 -0.333,0.5 -0.667,1 -1,1.5 -7.167,-2.035 -14.167,-4.202 -21,-6.5 5.509,4.677 10.842,9.51 16,14.5 -11.822,11.977 -20.322,25.977 -25.5,42 -0.896,7.746 -0.563,15.413 1,23 9.563,-0.106 13.896,4.561 13,14 -0.718,0.951 -1.551,1.117 -2.5,0.5 -0.851,-4.681 -3.517,-7.514 -8,-8.5 1.562,5.407 4.229,10.241 8,14.5 4.883,1.453 8.217,-0.214 10,-5 -8.979,-20.135 -9.146,-40.302 -0.5,-60.5 4.285,-6.286 9.285,-11.952 15,-17 0.667,-4.333 0.667,-8.667 0,-13 -1.66,-6.62 -2.66,-13.287 -3,-20 6.093,-5.729 12.926,-6.562 20.5,-2.5 8.312,8.11 11.312,17.943 9,29.5 -0.951,1.419 -1.284,3.085 -1,5 6,0 12,0 18,0 13.43,0.85 18.596,7.85 15.5,21 -0.615,1.616 -1.615,2.949 -3,4 -0.789,2.212 -0.622,4.212 0.5,6 0.507,4.621 -0.326,8.954 -2.5,13 -0.703,8.44 -2.037,16.774 -4,25 -0.319,3.473 -1.819,6.306 -4.5,8.5 -17.02,7.43 -34.354,8.263 -52,2.5 -2.737,2.231 -5.404,4.731 -8,7.5 -2.655,1.441 -5.488,2.274 -8.5,2.5 -27.593,-5.63 -49.26,-19.963 -65,-43 -7.844,-13.292 -8.511,-26.959 -2,-41 15.584,-39.343 38.751,-73.51 69.5,-102.5 11.141,-9.418 23.808,-12.084 38,-8 6.11,2.402 12.11,4.735 18,7 -6.908,-8.976 -12.408,-18.81 -16.5,-29.5 -18.316,-10.908 -24.983,-26.908 -20,-48 0.767,-4.805 2.6,-9.139 5.5,-13 1.561,5.301 3.061,10.634 4.5,16 1.012,2.702 2.512,5.035 4.5,7 0.06,0.543 0.393,0.876 1,1 0.994,-4.956 1.327,-9.956 1,-15 0.567,-8.271 2.401,-16.271 5.5,-24 4.744,-9.827 10.244,-19.161 16.5,-28 -5.665,-4.826 -11.498,-9.493 -17.5,-14 -6.451,-6.566 -11.117,-14.232 -14,-23 -3.039,-13.608 2.294,-20.941 16,-22 13.066,1.8 25.899,4.634 38.5,8.5 2.402,0.814 4.735,0.647 7,-0.5 10.04,-21.287 16.54,-43.621 19.5,-67 4.797,-4.317 10.297,-7.484 16.5,-9.5 44.885,-12.731 86.218,-5.397 124,22 12.876,9.509 24.043,20.675 33.5,33.5 2.174,3.046 2.841,6.38 2,10 -10.467,12.593 -18.634,26.593 -24.5,42 0.108,0.942 0.441,1.775 1,2.5 9.107,6.107 17.273,13.274 24.5,21.5 8.866,13.838 8.533,27.505 -1,41 -4.897,4.57 -10.064,8.737 -15.5,12.5 4.086,17.345 -2.414,28.178 -19.5,32.5 -4.766,15.703 -12.266,29.87 -22.5,42.5 6.628,-0.495 13.295,-0.495 20,0 2.876,0.438 5.543,1.438 8,3 34.936,34.355 58.103,75.522 69.5,123.5 2.855,15.256 -0.811,28.59 -11,40 -17.23,16.948 -37.896,27.282 -62,31 -7.068,-0.4 -11.902,-3.9 -14.5,-10.5 -1.887,-0.78 -3.554,-0.613 -5,0.5 z"
       id="path1" />
  </g>
  <g
     id="g2"
     transform="translate(-312.57042,-156.94169)">
    <path
       style="opacity:1"
       fill="#9c9c9c"
       d="m 491.5,227.5 c 3.726,-0.323 7.393,0.011 11,1 -4.295,1.161 -8.629,1.328 -13,0.5 0.916,-0.278 1.582,-0.778 2,-1.5 z"
       id="path2" />
  </g>
  <g
     id="g3"
     transform="translate(-312.57042,-156.94169)">
    <path
       style="opacity:1"
       fill="#f1f1f1"
       d="m 502.5,230.5 c 7.416,-0.199 14.749,0.468 22,2 -2.101,4.476 -4.101,8.976 -6,13.5 -7.014,0.499 -14.014,0.332 -21,-0.5 0.814,-5.292 2.48,-10.292 5,-15 z"
       id="path3" />
  </g>
  <g
     id="g4"
     transform="translate(-312.57042,-156.94169)">
    <path
       style="opacity:1"
       fill="#e1e1e0"
       d="m 526.5,227.5 c 28.797,3.381 56.13,11.381 82,24 -26.693,-9.238 -54.026,-15.738 -82,-19.5 -1.228,-1.49 -1.228,-2.99 0,-4.5 z"
       id="path4" />
  </g>
  <g
     id="g5"
     transform="translate(-312.57042,-156.94169)">
    <path
       style="opacity:1"
       fill="#ededed"
       d="m 558.5,264.5 c -5.444,-1.384 -11.111,-2.05 -17,-2 -37.981,-2.108 -75.314,-8.108 -112,-18 -3.315,-0.516 -5.482,0.817 -6.5,4 -0.303,4.776 0.03,9.443 1,14 -4.314,-5.28 -6.314,-11.28 -6,-18 2.207,-5.019 6.04,-7.353 11.5,-7 18.216,4.303 36.549,8.137 55,11.5 29.945,3.861 59.945,7.194 90,10 25.139,2.714 48.806,10.047 71,22 10.65,6.981 18.816,16.148 24.5,27.5 1.248,6.715 0.248,13.048 -3,19 0.749,-13.334 -4.084,-24.167 -14.5,-32.5 -18.454,-13.714 -39.121,-22.38 -62,-26 -10.662,-1.61 -21.329,-3.11 -32,-4.5 z"
       id="path5" />
  </g>
  <g
     id="g6"
     transform="translate(-312.57042,-156.94169)">
    <path
       style="opacity:1"
       fill="#80807e"
       d="m 608.5,251.5 c 1.603,-0.188 2.937,0.312 4,1.5 -1.64,0.348 -2.973,-0.152 -4,-1.5 z"
       id="path6" />
  </g>
  <g
     id="g7"
     transform="translate(-312.57042,-156.94169)">
    <path
       style="opacity:1"
       fill="#a9a9a9"
       d="m 541.5,262.5 c 5.889,-0.05 11.556,0.616 17,2 -5.889,0.05 -11.556,-0.616 -17,-2 z"
       id="path7" />
  </g>
  <g
     id="g8"
     transform="translate(-312.57042,-156.94169)">
    <path
       style="opacity:1"
       fill="#f7f7f7"
       d="m 551.5,285.5 c 0,0.667 0,1.333 0,2 -7.582,0.076 -11.082,3.742 -10.5,11 0.725,0.559 1.558,0.892 2.5,1 17.858,-7.315 28.025,-1.315 30.5,18 3.221,-11.671 0.054,-21.171 -9.5,-28.5 22.093,4.031 42.426,12.365 61,25 2,2 4,4 6,6 -5.948,-0.526 -11.948,-0.526 -18,0 -1.786,0.196 -3.119,1.029 -4,2.5 7.037,1.676 14.037,3.509 21,5.5 2.983,1.08 4.317,2.913 4,5.5 -4.116,-3.149 -8.783,-4.482 -14,-4 -3.534,-0.18 -6.868,0.487 -10,2 -1.021,0.502 -1.188,1.168 -0.5,2 7.333,1.068 14.5,2.902 21.5,5.5 0.457,0.414 0.791,0.914 1,1.5 -2.599,1.399 -4.099,3.399 -4.5,6 14.411,-4.602 20.744,0.731 19,16 -1.061,3.062 -2.894,5.562 -5.5,7.5 -5.862,1.448 -11.695,1.948 -17.5,1.5 -0.667,1 -0.667,2 0,3 3.668,1.984 4.335,4.65 2,8 -21.277,46.908 -57.777,69.742 -109.5,68.5 -36.774,-3.714 -63.108,-22.214 -79,-55.5 7.912,-1.594 15.579,-3.927 23,-7 9.967,7.075 20.967,9.575 33,7.5 20.142,28.228 45.142,33.561 75,16 11.258,-8.022 17.758,-18.856 19.5,-32.5 -5.051,4.774 -10.551,8.94 -16.5,12.5 -10.659,5.024 -19.492,2.857 -26.5,-6.5 -6.586,-10.837 -12.919,-21.837 -19,-33 -5.729,-7.281 -13.229,-10.948 -22.5,-11 0,-1 0,-2 0,-3 -5.658,2.715 -11.658,3.548 -18,2.5 -4.088,-2.344 -5.922,-5.844 -5.5,-10.5 2.055,-5.388 5.555,-9.554 10.5,-12.5 -8.777,0.612 -14.443,5.112 -17,13.5 -0.667,1.667 -1.333,3.333 -2,5 -5.242,-0.477 -10.242,0.356 -15,2.5 -5.958,4.289 -11.624,8.956 -17,14 -2.505,1.753 -5.171,3.253 -8,4.5 -1.136,-30.398 9.364,-56.065 31.5,-77 -0.195,1.626 -0.195,3.293 0,5 7.588,-9.907 15.921,-10.573 25,-2 4.478,-3.144 4.644,-6.644 0.5,-10.5 20.963,3.987 41.963,8.154 63,12.5 z"
       id="path8" />
  </g>
  <g
     id="g9"
     transform="translate(-312.57042,-156.94169)">
    <path
       style="opacity:1"
       fill="#989898"
       d="m 551.5,285.5 c 6.466,1.123 6.466,1.79 0,2 0,-0.667 0,-1.333 0,-2 z"
       id="path9" />
  </g>
  <g
     id="g10"
     transform="translate(-312.57042,-156.94169)">
    <path
       style="opacity:1"
       fill="#090909"
       d="m 469.5,295.5 c 10.038,1.06 13.204,6.393 9.5,16 -7.979,7.435 -13.146,5.768 -15.5,-5 0.206,-4.753 2.206,-8.419 6,-11 z"
       id="path10" />
  </g>
  <g
     id="g11"
     transform="translate(-312.57042,-156.94169)">
    <path
       style="opacity:1"
       fill="#080809"
       d="m 543.5,315.5 c 11.903,0.458 15.07,6.125 9.5,17 -6.181,4.737 -11.181,3.737 -15,-3 -1.186,-5.947 0.647,-10.613 5.5,-14 z"
       id="path11" />
  </g>
  <g
     id="g12"
     transform="translate(-312.57042,-156.94169)">
    <path
       style="opacity:1"
       fill="#6c6d6d"
       d="m 473.5,331.5 c 0.299,2.104 -0.034,4.104 -1,6 -0.607,-0.124 -0.94,-0.457 -1,-1 0.667,-1.667 1.333,-3.333 2,-5 z"
       id="path12" />
  </g>
  <g
     id="g13"
     transform="translate(-312.57042,-156.94169)">
    <path
       style="opacity:1"
       fill="#181818"
       d="m 617.5,338.5 c 1.25,0.077 2.083,0.744 2.5,2 1.771,7.328 0.104,13.661 -5,19 1.299,-6.891 2.133,-13.891 2.5,-21 z"
       id="path13" />
  </g>
  <g
     id="g14"
     transform="translate(-312.57042,-156.94169)">
    <path
       style="opacity:1"
       fill="#545454"
       d="m 422.5,342.5 c 0.327,5.044 -0.006,10.044 -1,15 -0.607,-0.124 -0.94,-0.457 -1,-1 0.667,-4.667 1.333,-9.333 2,-14 z"
       id="path14" />
  </g>
  <g
     id="g15"
     transform="translate(-312.57042,-156.94169)">
    <path
       style="opacity:1"
       fill="#181818"
       d="m 636.5,350.5 c 3.408,-0.672 6.075,0.328 8,3 -5.318,1.157 -10.318,3.157 -15,6 -1.021,-0.502 -1.188,-1.168 -0.5,-2 2.396,-2.567 4.896,-4.9 7.5,-7 z"
       id="path15" />
  </g>
  <g
     id="g16"
     transform="translate(-312.57042,-156.94169)">
    <path
       style="opacity:1"
       fill="#efefef"
       d="m 479.5,374.5 c 0.996,-0.086 1.829,0.248 2.5,1 1.973,5.279 4.473,10.279 7.5,15 -8.05,1.526 -15.05,-0.474 -21,-6 4.308,-2.65 7.974,-5.983 11,-10 z"
       id="path16" />
  </g>
  <g
     id="g17"
     transform="translate(-312.57042,-156.94169)">
    <path
       style="opacity:1"
       fill="#181818"
       d="m 465.5,402.5 c 7.255,4.698 15.255,7.531 24,8.5 -8.596,4.138 -16.096,2.638 -22.5,-4.5 -0.791,-1.245 -1.291,-2.578 -1.5,-4 z"
       id="path17" />
  </g>
  <g
     id="g18"
     transform="translate(-312.57042,-156.94169)">
    <path
       style="opacity:1"
       fill="#f1f2f1"
       d="m 464.5,444.5 c 4.481,2.742 9.147,5.242 14,7.5 -4.718,3.688 -9.718,6.855 -15,9.5 -0.322,-5.858 0.011,-11.525 1,-17 z"
       id="path18" />
  </g>
  <g
     id="g19"
     transform="translate(-312.57042,-156.94169)">
    <path
       style="opacity:1"
       fill="#e7e8e8"
       d="m 589.5,443.5 c 0.996,-0.086 1.829,0.248 2.5,1 4.723,11.553 6.889,23.553 6.5,36 -15.746,-2.821 -18.246,0.846 -7.5,11 0.667,1 0.667,2 0,3 -8.536,10.203 -18.036,19.37 -28.5,27.5 -0.667,0.667 -1.333,0.667 -2,0 8.844,-9.531 16.844,-19.698 24,-30.5 -3.667,-4.667 -7.333,-9.333 -11,-14 6.171,-2.073 12.505,-3.406 19,-4 0.303,-10.146 -0.697,-20.146 -3,-30 z"
       id="path19" />
  </g>
  <g
     id="g20"
     transform="translate(-312.57042,-156.94169)">
    <path
       style="opacity:1"
       fill="#b0b0b0"
       d="m 464.5,444.5 c -0.989,5.475 -1.322,11.142 -1,17 -1.317,-5.846 -1.317,-11.846 0,-18 0.607,0.124 0.94,0.457 1,1 z"
       id="path20" />
  </g>
  <g
     id="g21"
     transform="translate(-312.57042,-156.94169)">
    <path
       style="opacity:1"
       fill="#eeeeee"
       d="m 575.5,450.5 c -0.727,7.333 -3.227,14.333 -7.5,21 -5.295,-3.464 -10.129,-7.464 -14.5,-12 7.573,-2.63 14.907,-5.63 22,-9 z"
       id="path21" />
  </g>
  <g
     id="g22"
     transform="translate(-312.57042,-156.94169)">
    <path
       style="opacity:1"
       fill="#f5f5f5"
       d="m 487.5,455.5 c 4.998,1.435 9.998,2.935 15,4.5 3.041,3.912 5.708,8.079 8,12.5 -1.049,1.612 -2.549,2.612 -4.5,3 -4.345,-1.674 -8.679,-3.341 -13,-5 -1.711,-0.061 -3.044,0.606 -4,2 -1.56,4.74 -2.727,9.573 -3.5,14.5 1.15,4.697 2.483,9.363 4,14 6.924,-0.788 13.257,-3.288 19,-7.5 2.667,2 5,4.333 7,7 2.651,-2.15 5.151,-4.483 7.5,-7 6.011,4.101 12.511,6.601 19.5,7.5 4.139,-9.866 3.972,-19.699 -0.5,-29.5 -1.726,-1.076 -3.559,-1.243 -5.5,-0.5 -4.119,1.559 -8.119,3.393 -12,5.5 -1.333,-1 -2.667,-2 -4,-3 2.082,-4.247 4.749,-8.081 8,-11.5 5.364,-0.829 10.698,-0.663 16,0.5 3.697,5.198 7.197,10.531 10.5,16 0.667,1.667 0.667,3.333 0,5 -9.055,27.362 -20.889,53.362 -35.5,78 -22.15,-27.968 -37.65,-59.301 -46.5,-94 4.732,-4.242 9.565,-8.242 14.5,-12 z"
       id="path22" />
  </g>
  <g
     id="g23"
     transform="translate(-312.57042,-156.94169)">
    <path
       style="opacity:1"
       fill="#e5e5e5"
       d="m 509.5,462.5 c 3.851,-1.309 7.851,-1.309 12,0 -1.498,3.668 -3.498,7.002 -6,10 -2.026,-3.397 -4.026,-6.73 -6,-10 z"
       id="path23" />
  </g>
  <g
     id="g24"
     transform="translate(-312.57042,-156.94169)">
    <path
       style="opacity:1"
       fill="#e5e5e5"
       d="m 447.5,432.5 c 0.597,0.235 0.93,0.735 1,1.5 -4.645,11.075 -7.145,22.575 -7.5,34.5 5.629,2.261 11.462,3.928 17.5,5 -3.985,3.484 -7.818,7.151 -11.5,11 -0.667,1.333 -0.667,2.667 0,4 7.175,12.177 15.508,23.51 25,34 0.667,0.667 0.667,1.333 0,2 -12.535,-10.858 -23.202,-23.191 -32,-37 -0.749,-1.135 -0.583,-2.135 0.5,-3 4.688,-2.678 9.021,-5.844 13,-9.5 -6.169,-1.054 -12.336,-1.887 -18.5,-2.5 -0.163,-14.678 4.004,-28.011 12.5,-40 z"
       id="path24" />
  </g>
  <g
     id="g25"
     transform="translate(-312.57042,-156.94169)">
    <path
       style="opacity:1"
       fill="#efefef"
       d="m 466.5,548.5 c -0.897,-1.098 -1.73,-1.098 -2.5,0 -0.49,1.293 -0.657,2.627 -0.5,4 -1.122,-1.788 -1.289,-3.788 -0.5,-6 1.385,-1.051 2.385,-2.384 3,-4 3.096,-13.15 -2.07,-20.15 -15.5,-21 -5.151,-0.827 -10.484,-1.327 -16,-1.5 -0.837,-1.011 -1.17,-2.178 -1,-3.5 2.312,-11.557 -0.688,-21.39 -9,-29.5 -7.574,-4.062 -14.407,-3.229 -20.5,2.5 0.34,6.713 1.34,13.38 3,20 0.667,4.333 0.667,8.667 0,13 -5.715,5.048 -10.715,10.714 -15,17 -8.646,20.198 -8.479,40.365 0.5,60.5 -1.783,4.786 -5.117,6.453 -10,5 -3.771,-4.259 -6.438,-9.093 -8,-14.5 4.483,0.986 7.149,3.819 8,8.5 0.949,0.617 1.782,0.451 2.5,-0.5 0.896,-9.439 -3.437,-14.106 -13,-14 -1.563,-7.587 -1.896,-15.254 -1,-23 5.178,-16.023 13.678,-30.023 25.5,-42 -5.158,-4.99 -10.491,-9.823 -16,-14.5 6.833,2.298 13.833,4.465 21,6.5 0.333,-0.5 0.667,-1 1,-1.5 -1.319,-5.452 -2.319,-10.952 -3,-16.5 -0.047,-2.795 0.453,-5.461 1.5,-8 7.768,-7.047 16.268,-7.881 25.5,-2.5 9.831,8.987 13.831,20.154 12,33.5 5.011,-0.166 10.011,10e-4 15,0.5 14.062,2.383 19.895,10.55 17.5,24.5 -0.516,3.047 -2.016,5.38 -4.5,7 z"
       id="path25" />
  </g>
  <g
     id="g26"
     transform="translate(-312.57042,-156.94169)">
    <path
       style="opacity:1"
       fill="#f6f6f6"
       d="m 411.5,489.5 c 6.505,-0.332 11.338,2.335 14.5,8 2.025,9.698 1.858,19.364 -0.5,29 10.05,-0.331 20.05,0.169 30,1.5 1.992,0.574 3.492,1.741 4.5,3.5 0.667,3 0.667,6 0,9 -0.388,0.928 -1.055,1.595 -2,2 -7.126,1.685 -14.292,3.185 -21.5,4.5 6.885,1.566 13.718,3.066 20.5,4.5 0.667,3 0.667,6 0,9 -0.308,0.808 -0.808,1.475 -1.5,2 -6.815,1.701 -13.482,3.701 -20,6 6.024,1.291 12.024,1.291 18,0 1.355,3.99 1.022,7.823 -1,11.5 -5.542,2.069 -11.209,3.736 -17,5 -0.457,0.414 -0.791,0.914 -1,1.5 5.65,0.973 11.316,0.973 17,0 -0.213,2.975 -1.213,5.642 -3,8 -17.391,6.762 -34.724,6.595 -52,-0.5 -2.188,-4.243 -3.688,-8.743 -4.5,-13.5 -4.754,-22.42 1.912,-40.42 20,-54 0.918,-3.098 1.418,-6.265 1.5,-9.5 -0.498,-7.818 -1.831,-15.484 -4,-23 0.019,-1.833 0.685,-3.333 2,-4.5 z"
       id="path26" />
  </g>
  <g
     id="g27"
     transform="translate(-312.57042,-156.94169)">
    <path
       style="opacity:1"
       fill="#ececec"
       d="m 617.5,610.5 c 0.653,1.307 1.32,2.64 2,4 -0.917,3.258 -1.251,6.591 -1,10 -0.977,-2.787 -1.31,-5.787 -1,-9 -17.555,3.193 -34.221,0.693 -50,-7.5 -2.635,-1.961 -4.469,-4.461 -5.5,-7.5 0.064,-6.217 -0.936,-12.217 -3,-18 -1.17,-10.014 -1.336,-20.014 -0.5,-30 -2.108,-3.5 -3.108,-7.334 -3,-11.5 0.068,-9.069 4.401,-15.069 13,-18 7.939,-1.321 15.939,-1.821 24,-1.5 -1.038,-8.204 0.462,-15.871 4.5,-23 5.864,-9.682 14.364,-13.516 25.5,-11.5 6.671,1.505 10.337,5.672 11,12.5 -1.225,6.294 -2.892,12.461 -5,18.5 0.333,0.5 0.667,1 1,1.5 6.463,-2.66 13.13,-4.16 20,-4.5 -5.638,5.15 -11.638,9.817 -18,14 3.5,4.167 7,8.333 10.5,12.5 11.077,17.091 13.577,35.425 7.5,55 -9.45,-1.55 -13.783,2.45 -13,12 1.052,0.149 2.052,-0.017 3,-0.5 1.085,-2.172 2.419,-4.172 4,-6 1.135,-0.749 2.135,-0.583 3,0.5 -2.082,4.247 -4.749,8.081 -8,11.5 -4.901,1.049 -8.234,-0.784 -10,-5.5 3.741,-4.709 6.241,-10.043 7.5,-16 7.974,-23.416 3.641,-44.083 -13,-62 -0.667,-3.333 -0.667,-6.667 0,-10 1.667,-6 3.333,-12 5,-18 1.027,-3.68 0.194,-6.847 -2.5,-9.5 -10.298,-4.607 -18.465,-2.107 -24.5,7.5 -3.762,8.24 -5.262,16.907 -4.5,26 -9.006,-0.166 -18.006,0 -27,0.5 -2.602,0.883 -4.769,2.383 -6.5,4.5 -3.357,6.763 -3.19,13.43 0.5,20 -1.081,2.91 -1.748,5.91 -2,9 1.537,7.568 2.37,15.235 2.5,23 0.97,1.774 1.804,3.607 2.5,5.5 -2.425,6.76 -0.758,12.094 5,16 14.73,6.434 30.063,8.267 46,5.5 z"
       id="path27" />
  </g>
  <g
     id="g28"
     transform="translate(-312.57042,-156.94169)">
    <path
       style="opacity:1"
       fill="#f5f5f5"
       d="m 576.5,574.5 c 4.183,1.311 8.516,1.311 13,0 -0.124,-0.607 -0.457,-0.94 -1,-1 -6.683,-1.839 -13.183,-4.172 -19.5,-7 -2.101,-3.951 -1.934,-7.784 0.5,-11.5 6,-0.333 12,-0.667 18,-1 0.808,-0.308 1.475,-0.808 2,-1.5 -7.611,-1.31 -14.945,-3.477 -22,-6.5 -3.777,-7.115 -1.777,-11.782 6,-14 10.008,-0.447 20.008,-0.28 30,0.5 -0.832,-6.986 -0.999,-13.986 -0.5,-21 2.264,-10.638 8.597,-15.305 19,-14 0.667,2 0.667,4 0,6 -3.737,9.345 -5.403,19.011 -5,29 14.984,13.88 20.318,30.88 16,51 -1.693,6.108 -3.693,12.108 -6,18 -16.858,6.771 -33.691,6.605 -50.5,-0.5 -4.811,-2.123 -6.144,-5.623 -4,-10.5 5.21,2.101 10.543,2.434 16,1 -6.024,-1.514 -11.691,-3.847 -17,-7 -0.692,-0.525 -1.192,-1.192 -1.5,-2 -0.498,-2.982 -0.665,-5.982 -0.5,-9 2.306,0.493 4.639,0.826 7,1 z"
       id="path28" />
  </g>
  <g
     id="g29"
     transform="translate(-312.57042,-156.94169)">
    <path
       style="opacity:1"
       fill="#9e9f9f"
       d="m 433.5,516.5 c -0.17,1.322 0.163,2.489 1,3.5 5.516,0.173 10.849,0.673 16,1.5 -6,0 -12,0 -18,0 -0.284,-1.915 0.049,-3.581 1,-5 z"
       id="path29" />
  </g>
  <g
     id="g30"
     transform="translate(-312.57042,-156.94169)">
    <path
       style="opacity:1"
       fill="#727272"
       d="m 588.5,573.5 c 0.543,0.06 0.876,0.393 1,1 -4.484,1.311 -8.817,1.311 -13,0 4.202,0.317 8.202,-0.017 12,-1 z"
       id="path30" />
  </g>
  <g
     id="g31"
     transform="translate(-312.57042,-156.94169)">
    <path
       style="opacity:1"
       fill="#d4d5d4"
       d="m 521.5,574.5 c 0.876,-0.131 1.543,0.202 2,1 -2.874,2.077 -5.041,4.744 -6.5,8 -0.947,-4.221 0.553,-7.221 4.5,-9 z"
       id="path31" />
  </g>
  <g
     id="g32"
     transform="translate(-312.57042,-156.94169)">
    <path
       style="opacity:1"
       fill="#c4c4c4"
       d="m 440.5,647.5 c 15.67,-0.167 31.337,0 47,0.5 -2.313,0.662 -4.646,1.162 -7,1.5 -13.333,-0.667 -26.667,-1.333 -40,-2 z"
       id="path32" />
  </g>
  <g
     id="g33"
     transform="translate(-312.57042,-156.94169)">
    <path
       style="opacity:1"
       fill="#a2a2a2"
       d="m 623.5,782.5 c 0.384,3.989 -0.283,7.655 -2,11 0.308,-3.86 0.975,-7.526 2,-11 z"
       id="path33" />
  </g>
  <g
     id="g34"
     transform="translate(-312.57042,-156.94169)">
    <path
       style="opacity:1"
       fill="#a8a8a7"
       d="m 484.5,808.5 c 0.056,5.231 -0.611,10.231 -2,15 -0.056,-5.231 0.611,-10.231 2,-15 z"
       id="path34" />
  </g>
  <g
     id="g35"
     transform="translate(-312.57042,-156.94169)">
    <path
       style="opacity:1"
       fill="#eeeeee"
       d="m 383.5,869.5 c -12.511,0.329 -24.845,-0.005 -37,-1 25.553,-2.851 49.553,-10.518 72,-23 2.773,0.273 4.439,1.773 5,4.5 -1.947,2.951 -4.281,5.618 -7,8 -7.162,2.306 -14.495,3.973 -22,5 -3.571,2.421 -7.238,4.587 -11,6.5 z"
       id="path35" />
  </g>
  <g
     id="g36"
     transform="translate(-312.57042,-156.94169)">
    <path
       style="opacity:1"
       fill="#ededed"
       d="m 673.5,869.5 c -9.333,0.667 -18.667,1.333 -28,2 -4.679,0.166 -9.345,-10e-4 -14,-0.5 -7.226,-5.972 -15.56,-9.639 -25,-11 -6.943,-1.945 -11.61,-6.278 -14,-13 0.544,-1.947 1.877,-2.78 4,-2.5 11.736,6.866 24.069,12.699 37,17.5 12.997,4.309 26.33,6.809 40,7.5 z"
       id="path36" />
  </g>
  <g
     id="g37"
     transform="translate(-312.57042,-156.94169)">
    <path
       style="opacity:1"
       fill="#424342"
       d="m 346.5,868.5 c 12.155,0.995 24.489,1.329 37,1 -14.161,1.161 -28.494,1.327 -43,0.5 1.845,-1.128 3.845,-1.628 6,-1.5 z"
       id="path37" />
  </g>
  <g
     id="g38"
     transform="translate(-312.57042,-156.94169)">
    <path
       style="opacity:1"
       fill="#343434"
       d="m 673.5,869.5 c 0.876,-0.131 1.543,0.202 2,1 -9.978,0.999 -19.978,1.332 -30,1 9.333,-0.667 18.667,-1.333 28,-2 z"
       id="path38" />
  </g>
</svg>
