<?xml version="1.0" encoding="utf-8"?>
<!DOCTYPE svg PUBLIC "-//W3C//DTD SVG 1.0//EN" "http://www.w3.org/TR/2001/REC-SVG-20010904/DTD/svg10.dtd">
<svg version="1.0" xmlns="http://www.w3.org/2000/svg" width="1140px" height="1297px" viewBox="0 0 1140 1297" preserveAspectRatio="xMidYMid meet">
 <g fill="#000000">
  <path d="M373 978 c-18.4 -2.6 -31.7 -8.3 -46.9 -20.2 -5.7 -4.4 -6.1 -5.1 -6.1 -8.8 0 -3.7 0.2 -4 2.7 -4 1.4 0 7.2 2.2 12.7 4.9 16.7 8.1 36.1 12.1 59.2 12.1 19.5 0 43.6 -4.5 50.8 -9.6 1.1 -0.8 3.5 -1.4 5.3 -1.4 3.2 0 3.3 0.1 3.3 4 0 3.6 -0.5 4.3 -4.7 7.5 -7 5.2 -19.8 11.2 -28.9 13.5 -9.1 2.4 -36.3 3.5 -47.4 2z"/>
  <path d="M455.7 969.9 c-0.4 -1.3 -0.7 -4.8 -0.7 -7.6 l0 -5.3 6.3 0 c6.6 0 21.7 -1.5 24.8 -2.5 1.7 -0.6 1.9 -1.7 1.9 -10.4 l0 -9.7 -8.5 1.7 c-18.1 3.7 -42.4 4.8 -63.5 2.9 -10.8 -1 -27.8 -4.5 -34.4 -6.9 l-2.9 -1.1 0.6 -28.3 c0.3 -15.5 1.1 -31.8 1.7 -36.2 4.2 -30.8 12.1 -57.7 23.5 -80.5 11.4 -22.7 12.4 -24 19.2 -24.1 2.6 0 7.1 -0.4 9.8 -0.9 3.6 -0.5 0.2 -0.8 -12.5 -1 -9.6 -0.1 -20 -0.7 -23 -1.3 l-5.5 -1.2 -0.3 -4.2 c-0.3 -3.6 1.2 -7 11.3 -26.6 10.6 -20.7 15 -30.5 14.2 -31.3 -0.2 -0.2 -1.7 -0.7 -3.4 -1 -2.5 -0.5 -3.1 -0.2 -3.6 1.7 -0.6 2.1 -0.9 2.2 -7.9 1.6 -22.6 -1.9 -46.5 -13.7 -65.3 -32.2 -13.5 -13.3 -20.6 -24.6 -25.9 -41.2 -4.7 -15.2 -5.6 -40.8 -1.9 -59.2 2.6 -13.1 9.2 -27.8 19.1 -42.7 17.1 -25.5 40.5 -43.1 82.2 -61.6 22.6 -10.1 28.1 -11.8 38.7 -11.8 4.8 0 11.9 0.5 15.7 1 3.8 0.6 7.1 0.8 7.3 0.6 0.3 -0.2 -1.2 -4.1 -3.2 -8.6 -2 -4.4 -4.7 -11.3 -6.1 -15.3 -2 -5.9 -3.5 -8.3 -8.4 -13.2 -9.9 -10 -13 -18.5 -12.9 -34.5 0.2 -13.8 0.7 -15.4 4.7 -15.8 1.9 -0.2 5.4 0.4 7.9 1.2 2.5 0.9 4.9 1.3 5.4 1 0.5 -0.3 0.9 -2 0.9 -3.8 0 -5.2 2.8 -18.6 5.5 -26.6 4.5 -13.2 13 -27.1 23.2 -38.1 l4.3 -4.6 -9.3 -9.4 c-5 -5.2 -10.5 -11.9 -12.2 -14.9 -2.7 -5 -3 -6.4 -3 -14.7 0 -7.8 0.3 -9.6 2.1 -12 1.9 -2.5 2.8 -2.8 8.3 -3.1 7.1 -0.3 10.5 1.2 26.6 12.3 10.1 6.9 17.7 11.5 19.1 11.5 1.6 0 14.7 -20.5 23.1 -36.1 4.3 -8 10.7 -21.2 14.3 -29.4 3.5 -8.3 8.5 -19 11 -24 6.1 -12.2 7.4 -12.8 23.5 -12.2 17.9 0.8 34.5 5.7 65.8 19.6 37.8 16.7 63.1 35.4 81.4 60.1 7.2 9.7 9.3 15 9.3 23.2 -0.1 11.1 -2.9 16.3 -20.5 37.3 -5.5 6.6 -11.7 14.1 -13.8 16.6 l-3.7 4.6 8.5 9.8 c16.5 19.1 19.6 25.3 20.3 41.1 0.6 15 -0.9 20.3 -8.2 28.2 -3 3.2 -7.8 7.1 -10.8 8.7 -4.6 2.5 -6.6 3 -15 3.3 l-9.6 0.4 1.5 3.6 c1 2.5 1.4 6.1 1.1 12.1 -0.4 10.4 -3.1 16.6 -10.8 25.3 l-5 5.7 5.7 1.1 c29.5 5.8 55.1 16.7 75.5 32 18.5 13.9 33 31.5 43.8 53 10.9 21.8 13.4 33.3 12.8 59.9 -0.4 16.2 -0.8 19.4 -2.8 25 -8.4 23.3 -42.7 51.7 -71.5 59.1 -9.9 2.6 -28.5 3.9 -28.5 2.1 0 -0.9 -1 -1.1 -3.2 -0.6 -1.8 0.4 -3.4 0.8 -3.5 0.9 -0.1 0.1 0.5 3.1 1.3 6.6 3.1 13.4 13.9 31.7 27.2 46.1 4.5 4.9 5.3 6.3 5 9.1 -0.3 3.2 -0.4 3.3 -6.8 4.4 -3.6 0.7 -9.2 1.2 -12.6 1.3 -3.3 0.1 -6.3 0.3 -6.6 0.6 -0.3 0.3 2.3 5.6 5.8 11.8 15.4 27 24 54.9 27.9 90.7 1.5 13.6 1.8 40.9 0.6 53 l-0.6 6.5 -12.8 4.3 c-23.4 7.7 -42.2 10.5 -80.9 11.8 l-16.8 0.6 0 7.3 c0 5.2 0.4 7.6 1.5 8.5 2.1 1.8 21.2 0.8 30.7 -1.6 6.8 -1.7 7.8 -2.2 7.8 -4.1 0 -2.1 0.5 -2.3 4.8 -2.3 2.6 0 8.2 0.7 12.4 1.5 14.5 2.7 35.1 3.9 46.1 2.6 17 -2.1 33.9 -8 45.7 -16 3 -2.1 5.7 -3.1 8.3 -3.1 3.5 0 3.7 0.2 3.7 3.3 0 6 -16.7 20 -32.4 27.2 -12.4 5.7 -19.3 7 -36.1 7 -18.6 0 -24.8 -1.3 -38.2 -8 l-10.3 -5.2 0 5.9 c0 5.4 -0.2 5.9 -2.7 7 -4.7 2 -39.2 1.7 -48.4 -0.5 l-7.6 -1.8 -0.6 -19.2 c-0.8 -26.5 -3.6 -43.6 -11.8 -72.2 -7.3 -25.4 -19 -53.1 -30 -71.2 -7.5 -12.3 -18.6 -28.6 -22.9 -33.6 -0.9 -1 -14.3 18.2 -22.1 31.8 -16.8 29.3 -32.7 74.2 -39.1 110 -1.3 7.5 -2.1 18 -2.5 32.6 -0.3 12 -0.9 22.2 -1.3 22.8 -1.1 1.9 -10.3 3 -28.6 3.7 l-17.1 0.7 -0.6 -2.4z m199.9 -277.8 c5.4 -2.5 18.7 -12.5 23.7 -18 2.9 -3.2 3.7 -4.9 3.7 -7.9 0 -6.3 -4.5 -21 -12.9 -42 -10.2 -25.4 -11.4 -30.3 -11.5 -46.4 l0 -12.6 -3.8 1.9 c-6 3.1 -10.5 7.6 -13.4 13.5 -2.6 5.3 -2.7 6 -2.1 16.9 0.4 6.5 0.2 11.7 -0.3 12 -0.5 0.3 -6.4 1.2 -13.2 2 -22.6 2.6 -33.9 5.8 -39.5 11.1 -3.3 3.2 -3.5 3.5 -2.1 5.6 0.8 1.3 4.6 4.5 8.4 7.1 3.8 2.6 7.3 5.5 7.8 6.5 0.6 0.9 1.3 4.7 1.7 8.4 0.6 6.3 0.9 7.1 6.2 13.2 3.2 3.8 6.2 8.6 7.1 11.4 2.1 6.4 6.3 11.2 12.6 14.6 10.7 5.8 18.7 6.6 27.6 2.7z m-160 -3.1 c5.1 -2.2 8.1 -5.2 13.6 -13.6 2.4 -3.6 5.7 -7.2 8 -8.5 7.7 -4.7 7.9 -4.9 8.9 -12.9 1.3 -10.7 1.9 -11.5 11.1 -14.6 9 -3 10.9 -5.1 8.3 -9.1 -2.1 -3.1 -9.7 -6.6 -20 -9.1 -4.4 -1.1 -11.9 -2.9 -16.8 -4.1 -4.8 -1.1 -10.4 -2.8 -12.3 -3.6 l-3.6 -1.5 0.6 -5.7 c0.3 -3.2 0.9 -7.8 1.4 -10.3 1.4 -8.1 -1.6 -17.9 -7.6 -24.3 -2.6 -2.8 -7.2 -5.7 -9 -5.7 -0.5 0 -1.2 6.4 -1.5 14.3 -0.7 17.3 -2.5 24.7 -8.2 35.2 -8 14.8 -14.1 32.6 -17.5 51.8 -1.8 9.9 -1.8 10.2 0 12.8 2.6 3.5 12.6 8.7 20.3 10.4 7.7 1.8 18.5 1.1 24.3 -1.5z m-79.7 -9.2 c-0.2 -2.4 -1.7 -6.3 -1.8 -4.8 -0.1 0.8 -0.4 2.5 -0.7 3.8 -0.5 1.6 -0.2 2.2 1 2.2 0.9 0 1.6 -0.6 1.5 -1.2z m21.5 -13.3 c3 -17.5 8.9 -37.3 14.5 -48.3 1.5 -3 1.8 -4.2 0.9 -4.2 -0.7 0 -2.9 -0.3 -4.9 -0.6 -3.6 -0.6 -3.8 -0.5 -9.1 6.7 -6.5 8.8 -14.2 23.8 -19.2 37.1 -3.5 9.4 -4.6 14.2 -2.5 10.6 0.8 -1.4 2.4 -1.8 7.3 -1.8 5.7 0 6.5 0.3 8 2.5 0.9 1.3 1.6 4.4 1.6 6.7 0.1 6.5 1.5 2.8 3.4 -8.7z m282 11.9 c2.2 -0.8 2 -2.6 -1.3 -15.6 -3.6 -13.6 -8.6 -26.4 -14.7 -37.3 -6.8 -12.1 -5.9 -11.4 -14 -10.7 l-7.1 0.7 3.8 10 c5.6 15 10.8 34.5 10.9 41.5 l0.1 3.5 2.4 -2.9 c2 -2.5 3.2 -3 8.3 -3.4 5.6 -0.4 6.1 -0.2 7.7 2.2 1.2 1.8 1.6 4.1 1.3 7.6 -0.3 5.1 -0.1 5.4 2.6 4.4z m-13.7 -89.2 c3.1 -2.9 7.3 -10 7.3 -12.4 0 -1.8 -5.2 -6.8 -7.1 -6.8 -4.5 0 -8.5 10.1 -7.4 18.7 0.7 5.9 1.3 6 7.2 0.5z m-266.5 -0.9 c0.2 -6.4 -0.2 -9.6 -1.8 -14.1 -2 -5.4 -4.4 -6.8 -8.3 -4.7 -3.8 1.9 -4.6 4.5 -2.7 8.9 1.5 3.6 10.1 13.6 11.7 13.6 0.5 0 1 -1.7 1.1 -3.7z m98.3 -29.3 c0.9 -5.9 5 -22.4 6.9 -27.7 l1.5 -4.2 -4.5 -6.6 c-4.5 -6.9 -5.6 -11.5 -3.4 -15.6 0.6 -1.1 0.7 -1.9 0.1 -1.9 -2.5 0 -19.1 -7.8 -25.6 -12.1 l-7.4 -4.8 6.9 20.3 c3.8 11.1 10.1 27.8 14 37.2 4 9.3 7.7 18.1 8.3 19.6 1.3 3.3 2.2 2.2 3.2 -4.2z m52 -18.5 c5.8 -13 14.5 -36.3 14.5 -38.7 0 -0.5 -0.7 -0.8 -1.4 -0.5 -1.5 0.6 -12.6 2.9 -19.8 4.1 -3.6 0.7 -3.8 0.9 -3.8 4.6 0 3.2 -0.8 4.8 -5.1 9.7 -5.6 6.4 -5.6 5.4 -1 18.3 1.7 4.7 3.8 12 4.8 16.3 l1.7 7.9 1.9 -3.9 c1.1 -2.1 4.8 -10.1 8.2 -17.8z m12.7 -52.1 c16.2 -5.6 26.6 -12.3 40 -25.6 l10.8 -10.8 7.8 0 c6 0 8.8 -0.5 12.7 -2.4 6.3 -3 14.6 -11.7 16.9 -17.8 1.7 -4.4 1.7 -4.8 0.1 -7.6 -2.7 -4.4 -6.4 -6.2 -13.4 -6.2 l-6.1 0 0 -3.6 c0 -3.3 0.3 -3.6 5 -5.6 2.8 -1.1 5 -2.5 5 -2.9 0 -1.3 -7.9 -6.9 -12.2 -8.6 -3.5 -1.4 -3.8 -1.9 -3.8 -5.4 l0 -3.8 6.8 -0.3 6.7 -0.3 -5.8 -3.4 c-5.5 -3.2 -5.8 -3.5 -5.5 -7 l0.3 -3.6 5.9 0.2 c3.3 0.1 7.2 0.7 8.8 1.2 3.9 1.4 3.7 -0.3 -1 -10.9 -5.9 -13.2 -12.5 -22.5 -23.6 -33.6 -19.6 -19.4 -43.4 -32.2 -72.1 -38.5 -9.1 -2 -40.9 -3.8 -35.4 -2 7.7 2.5 10.9 7.2 10.9 15.6 l0 5.5 -3.8 0 c-2.7 0 -4.1 -0.6 -5 -2.1 -0.7 -1.1 -3.8 -3.2 -6.8 -4.6 -6.3 -2.9 -13.7 -3.2 -20.4 -0.9 -2.5 0.9 -6.2 1.6 -8.2 1.6 -3.8 0 -3.8 0 -3.8 -4.1 l0 -4 -4.6 3.3 c-12.8 9.1 -25.4 28.7 -30.5 47.3 -2.1 7.7 -3.8 16.5 -3.3 16.5 0.2 0 2.7 -1.5 5.6 -3.3 5 -3 6 -3.2 16 -3.5 11.2 -0.4 12.4 -0.1 20.2 4.8 l3.4 2 2.7 -5.6 c1.7 -3.5 4.2 -6.6 6.8 -8.5 3.5 -2.5 4.9 -2.9 10.9 -2.9 l6.8 0 0 3.4 c0 3 -0.4 3.5 -3 4.1 -3.7 0.8 -9 6.8 -9 10.1 0 3.4 2.7 7.2 6.3 9.1 2.4 1.2 5.9 1.5 15.7 1.4 19 -0.2 24.5 2.6 33.2 17.2 8.1 13.6 15.9 19.7 25 19.7 2.5 0 2.8 0.3 2.8 3.5 0 2.4 0.5 3.5 1.5 3.5 1.1 0 1.5 1.1 1.5 3.6 0 4.3 -4.7 10.4 -13.6 17.4 -11.4 9 -20.4 12 -35.5 12 -21.8 -0.1 -37.8 -7.5 -48.7 -22.5 l-4.5 -6.2 -6.1 2 c-4.4 1.5 -9.8 2.1 -19.8 2.5 -7.6 0.2 -13.8 0.7 -13.8 0.9 0 0.3 1.8 4.2 4 8.6 12.1 24.1 31.8 41 58.5 50.2 13 4.4 19.7 5.4 35 5.2 13.4 -0.3 14.5 -0.5 25.7 -4.3z m-4.5 -57.6 c5.1 -2.8 10 -5.9 10.9 -6.9 1.6 -1.8 1.5 -1.9 -4.4 -1.9 -3.3 0 -7.1 -0.4 -8.4 -0.9 -3.4 -1.3 -9.9 -8.4 -16.6 -18.1 -3.2 -4.7 -7.7 -10 -10.1 -11.7 -6.4 -4.9 -15.6 -7.4 -28.6 -7.7 -13.1 -0.2 -16.8 -1.7 -19.3 -7.6 -1.6 -3.5 -2 -3.8 -6.7 -4.3 -2.7 -0.3 -7 -1 -9.5 -1.6 -5.5 -1.2 -9.1 -0.4 -21.6 5 -7.7 3.3 -10.2 3.9 -16 3.9 -4.7 0 -8.3 -0.7 -11.3 -2 -2.4 -1.1 -4.6 -1.9 -4.7 -1.7 -0.7 0.7 2.6 11.8 4.7 15.9 3.4 6.7 12.6 15.6 19.9 19.3 12.9 6.5 24.5 7 36.5 1.6 9.6 -4.4 11.5 -4.2 15.9 1.8 4.7 6.4 10.8 11.2 19.2 15.4 12.1 6.1 21.5 8 34.4 7.1 5.5 -0.4 8 -1.3 15.7 -5.6z m116.2 -132.3 c3.3 -4.9 9.5 -13 13.7 -18 8.2 -9.7 12.9 -18.2 11.9 -21.5 -0.3 -1.1 -1 -2 -1.4 -2 -0.9 0 -11.4 14.8 -24.5 34.6 -6 9 -8.5 13.6 -8 14.8 0.3 0.9 1 1.6 1.4 1.4 0.4 -0.2 3.5 -4.3 6.9 -9.3z m-85.7 -28.3 l2.7 -5.2 -8.7 -4.1 c-9.2 -4.3 -30.8 -12.9 -32.3 -12.9 -0.5 0 -0.9 0.4 -0.9 1 0 0.8 -8.1 14.8 -12.3 21.1 l-1.8 2.7 4.8 0.6 c2.6 0.3 9.5 1.1 15.3 1.7 5.8 0.6 14.8 1.8 20 2.7 9.4 1.7 9.5 1.7 10 -0.3 0.3 -1.1 1.7 -4.4 3.2 -7.3z m28 -47.4 c6.8 -11.8 11.6 -21.2 11.2 -21.9 -0.9 -1.6 -25 -13 -34.1 -16.3 l-7.3 -2.6 -2.1 4.3 c-5.3 10.5 -18.6 35.8 -22 41.7 -2 3.6 -3.5 6.8 -3.3 7.2 0.2 0.3 1.8 1 3.6 1.3 3.4 0.8 20.8 8.3 30.3 13.2 l6 3.1 2.9 -4.7 c1.6 -2.5 8.3 -13.9 14.8 -25.3z"/>
  <path d="M524.5 453.9 c-10.9 -7.9 -14.5 -11.7 -14.5 -15.6 0 -3.2 0.1 -3.3 4 -3.3 5.7 0 9.4 2.1 17.3 9.8 5.9 5.9 6.7 7.1 6.7 10.4 0 3.6 -0.2 3.8 -3.3 3.8 -2.3 0 -5.2 -1.4 -10.2 -5.1z"/>
  <path d="M592.1 373.1 c-7.3 -1.9 -12.6 -8.3 -13.6 -16.5 -1.1 -8.6 -0.6 -10.1 3.8 -10.4 3.3 -0.3 3.8 0 4.8 2.5 1.4 3.8 6.6 9 11.1 11.4 3.1 1.6 4.9 1.8 10.8 1.3 l7 -0.7 0 4 c0 3.5 -0.4 4.2 -3.9 6.1 -4.5 2.5 -14.5 3.6 -20 2.3z"/>
  <path d="M508.7 336.9 c-5.2 -2.7 -7.7 -7.2 -7.7 -13.6 0 -5.3 0 -5.3 3.1 -5.3 2.3 0 4.1 1 6.5 3.4 4.4 4.5 12.2 7.2 16.6 5.7 1.7 -0.6 4.6 -1.1 6.5 -1.1 3.4 0 3.4 0 3.1 4.3 -0.3 3.9 -0.6 4.4 -4.8 6.5 -6 3 -17.7 3.1 -23.3 0.1z"/>
  <path d="M627.8 335 c-5.8 -8.4 -17.4 -13.9 -25.3 -12 -2.2 0.5 -5.2 1 -6.7 1 -2.6 0 -2.8 -0.3 -2.8 -3.9 0 -3.3 0.5 -4.4 3.3 -6.5 5.9 -4.5 16 -5.7 24.1 -3 9.4 3.2 17.6 14.9 17.6 24.9 0 3.4 -0.1 3.5 -3.7 3.5 -3.3 -0.1 -4.2 -0.6 -6.5 -4z"/>
  <path d="M858.5 469.1 c-6.7 -2.5 -42.1 -18.1 -60.3 -26.7 -4 -1.9 -7.7 -3.4 -8.2 -3.4 -0.6 0 -1 -1.6 -1 -3.5 0 -3.3 0.2 -3.5 3.2 -3.5 1.7 0 6.1 0.9 9.7 2 3.6 1 11.6 3.1 17.6 4.5 15.9 3.7 30.6 8.2 42 12.8 15.4 6.2 19.5 9.2 19.5 14.2 0 1.7 -0.5 3.6 -1.2 4.3 -1.9 1.9 -15.5 1.4 -21.3 -0.7z"/>
  <path d="M286.3 427.9 c-2.1 -2.1 -1.5 -7.4 1.1 -10.2 1.3 -1.4 4.8 -3.3 7.7 -4.2 6.7 -1.9 36.7 -7.7 55.4 -10.5 7.7 -1.1 15.8 -2.5 18 -3 2.2 -0.5 6.1 -1 8.8 -1 l4.7 0 0 3.4 0 3.5 -18.7 6.1 c-39.6 13 -51.7 16.1 -64.3 16.7 -8.6 0.4 -11.8 0.2 -12.7 -0.8z"/>
  <path d="M796 315.3 c0 -3.6 0.3 -4 3.8 -5.2 2 -0.8 9.3 -4 16.2 -7.3 17.4 -8.3 46.3 -21.1 53.5 -23.7 4.6 -1.7 7.8 -2.1 13.5 -1.9 l7.5 0.3 0.3 3.8 c0.3 3.3 -0.2 4.3 -3.5 7.6 -3.5 3.5 -6.4 4.6 -42.8 16.6 -21.4 7.1 -41.1 13 -43.7 13.3 l-4.8 0.5 0 -4z"/>
  <path d="M390.3 280.5 c-1.2 -0.9 -12.7 -7.2 -25.5 -14.1 -31.8 -17.2 -36.1 -19.8 -39.7 -23.9 -3.3 -3.8 -4.2 -9 -1.9 -11.3 0.7 -0.7 3.9 -1.2 7.3 -1.2 5.6 0 6.9 0.4 14.4 4.9 4.5 2.7 15.1 10.3 23.7 16.8 8.6 6.5 19 14.3 23.2 17.4 6.9 5 7.7 5.9 8 9.2 0.3 3.7 0.3 3.7 -3.5 3.7 -2.1 0 -4.8 -0.7 -6 -1.5z"/>
 </g>
 <g fill="#ffffff">
  <path d="M0 648.5 l0 -648.5 570 0 570 0 0 648.5 0 648.5 -570 0 -570 0 0 -648.5z m417.4 324.5 c12.2 -3.1 33.6 -14.6 33.6 -18 0 -0.5 -2.1 0.2 -4.7 1.5 -10.9 5.4 -29.7 8.5 -51.8 8.5 -26 0 -45.7 -3.8 -62.2 -12.1 -5.1 -2.5 -9.3 -4.2 -9.3 -3.8 0 0.5 2.7 3 6.1 5.7 15.2 11.9 28.5 17.6 46.9 20.2 10.3 1.4 32.3 0.4 41.4 -2z m75 -5.9 c3.3 -0.6 6.3 -1.6 6.6 -2.2 0.4 -0.6 1 -10.8 1.3 -22.8 0.8 -28.3 3.9 -46.3 13.3 -75.5 12 -37.3 24.3 -63.4 42.1 -88.8 10.9 -15.5 10.2 -15.2 15.8 -8.1 16.5 20.9 31.6 47.8 41.8 74.3 13.8 35.9 20.4 66.9 21.4 100.7 l0.6 19.2 7.6 1.8 c9 2.1 37.7 2.5 42.4 0.5 2.4 -1 2.7 -1.7 2.7 -5.6 0 -2.5 -0.4 -4.7 -0.9 -5 -0.5 -0.3 -3.1 0.1 -5.7 1 -6.6 2.1 -33.7 3.2 -35.9 1.4 -1.2 -1 -1.5 -3.6 -1.5 -11.5 l0 -10.3 16.8 -0.6 c38.7 -1.3 57.5 -4.1 80.9 -11.8 l12.8 -4.3 0.6 -6.5 c3 -30 -1.7 -69.4 -11.7 -100 -4.3 -13 -14.3 -34.7 -20.7 -44.7 l-2.7 -4.3 -12.3 0 c-32.3 0 -61.8 -8 -88 -23.7 -3.2 -1.9 -5.6 -3.7 -5.4 -3.9 0.2 -0.2 4.2 1.3 8.8 3.5 9.3 4.4 30.3 10.9 44.9 14 12.2 2.5 39.6 4.5 52.5 3.7 10.4 -0.7 24.4 -2.5 25.8 -3.3 0.4 -0.2 -1.6 -3.1 -4.6 -6.2 -16.5 -17.9 -28.6 -41.4 -28.7 -55.7 0 -3 0.2 -3.2 5.8 -4.3 5 -1 5.8 -0.9 6.9 0.5 2.5 3.4 24.7 -0.7 38.3 -7.2 18 -8.5 39.7 -26.2 48.8 -39.9 7.8 -11.6 9.4 -17.2 9.9 -35.5 0.7 -23.2 -2.1 -35.8 -12.7 -57 -15.3 -30.6 -37.8 -52.8 -68.5 -68 -19 -9.3 -28.9 -12.5 -59.3 -18.6 -2.2 -0.4 -1.7 -1.1 5.2 -8.4 14.9 -16 17.9 -30.3 8 -39.3 -6.7 -6.1 -5.8 -8.7 2.1 -6.1 3.3 1.2 6.9 1.5 12.4 1.2 9.7 -0.6 16 -3.8 23.7 -12 6.9 -7.5 8.9 -13.7 8.1 -25.2 -0.8 -12.8 -4.9 -20.4 -20.7 -38.7 -4.9 -5.7 -9 -11.2 -9 -12.1 0 -1 3.7 -6.3 8.3 -11.8 4.5 -5.6 11.9 -14.7 16.5 -20.3 9.8 -12 14.2 -20.2 14.2 -26.4 0 -7.2 -6 -17.3 -18.9 -32.2 -18.7 -21.3 -52.3 -41.8 -95.8 -58.1 -23.1 -8.7 -44 -12.1 -51.3 -8.3 -4 2.1 -8.1 9.5 -19 34.8 -12.2 28 -33.7 64.9 -38.6 66.1 -3.2 0.8 -9.3 -2.2 -21.9 -10.8 -21.8 -14.8 -26.5 -16.4 -30.9 -10.5 -1.6 2.2 -2.1 4.2 -2 9.1 0.1 8.9 3.6 14.8 16.1 27.4 5.7 5.6 10.3 10.7 10.3 11.2 0 0.6 -2.5 3.7 -5.5 7 -16.2 17.6 -25.6 36.7 -28.5 58 -2.1 15.1 -1.4 14.5 -11.5 11 -3.5 -1.2 -6.2 -1.7 -6.8 -1.1 -0.5 0.5 -1.1 4.4 -1.4 8.8 -1 14.3 2.8 24.7 12.7 34.8 5 5.1 6.4 7.3 8.9 14.5 1.6 4.7 5 12.9 7.5 18.3 5.3 11.3 5.3 11.3 -5.2 10.3 -21.7 -2 -24.3 -2 -32.2 0.7 -17.9 6 -50.9 22.2 -65.5 32 -24.3 16.4 -42.1 37.7 -53.1 63.8 -4.6 11 -6.4 18.3 -7.4 31.2 -2.1 25.9 3.9 49.4 17.3 67.6 5.9 8.1 19.1 20.8 28 26.9 13.9 9.6 30.7 16.4 46 18.6 4.4 0.7 4.8 0.6 5.7 -1.8 1.1 -3 0.9 -3 8.3 -1.5 4.3 0.9 5.7 1.6 5.7 2.9 0 3.8 -4.5 14.3 -15.5 35.6 -6.4 12.4 -11.4 23.1 -11.2 23.7 0.6 2 10.5 3.5 22.9 3.6 15.3 0.1 40.4 -1.6 49.8 -3.5 9.9 -2 29.8 -7.9 37.3 -11 9.9 -4.2 7.6 -1.9 -3.4 3.4 -12.9 6.2 -25.2 10.4 -39.4 13.6 -12.9 2.9 -30.5 5.6 -36.4 5.6 -6.1 0 -7.4 1.7 -18.6 24 -11.4 22.9 -19.4 50 -23.5 80.5 -0.6 4.4 -1.4 19.4 -1.7 33.2 l-0.6 25.2 2.9 1.1 c7.8 3 24.3 6.1 38 7.2 17.7 1.4 38.2 0.1 54.8 -3.3 5.6 -1.2 10.8 -2.2 11.6 -2.3 1.3 -0.1 1.5 2.1 1.8 13.1 0.2 12.2 0.1 13.2 -1.7 13.8 -3.1 0.9 -18.1 2.5 -24.8 2.5 -5.9 0 -6.3 0.2 -6.3 2.3 0 1.2 0.3 3.3 0.7 4.6 l0.6 2.4 13.6 -0.6 c7.5 -0.4 16.3 -1.1 19.5 -1.6z m268 -3 c14.4 -4.2 29.6 -13.3 39.6 -23.5 5.3 -5.4 5.8 -7.5 0.9 -3.8 -9.5 7.3 -27.8 14.3 -44.1 16.8 -12 1.9 -33.1 1.3 -49.3 -1.2 -17 -2.6 -18.1 -2.7 -17 -1.6 0.6 0.5 5.3 3.3 10.5 6 15.9 8.5 23.8 10.3 41 9.7 7.6 -0.3 13.9 -1.1 18.4 -2.4z m116.5 -497.4 c2.1 -2.6 -3.9 -6.6 -18.4 -12.4 -14.6 -5.9 -21.9 -8 -56 -16.2 -2.2 -0.5 -4.9 -1.2 -6 -1.6 -2.9 -0.9 6.8 4 15.5 7.9 4.1 1.8 15.8 7.1 26 11.6 10.2 4.6 20.8 9.1 23.5 10.1 5.9 2.2 13.8 2.5 15.4 0.6z m-554.4 -46 c22.5 -6.4 57.2 -17.9 55.8 -18.4 -0.7 -0.3 -4.7 0.2 -9 1.1 -4.3 0.8 -12.7 2.2 -18.8 3.1 -15.7 2.4 -46.1 8.2 -52.4 10 -6.4 2 -10.8 6 -8.9 8.3 2.2 2.6 15.4 1 33.3 -4.1z m519.5 -118.4 c36 -11.8 38.7 -12.9 42.3 -16.4 2.1 -2.1 3.6 -4.3 3.2 -4.9 -1.1 -1.8 -9.3 -1.1 -16 1.5 -8.9 3.3 -26.5 11.1 -47.5 21 -9.6 4.5 -19.2 8.8 -21.2 9.6 -4 1.4 -5.3 3.5 -1.5 2.4 1.2 -0.4 19.5 -6.3 40.7 -13.2z m-446 -24.7 c-0.8 -0.8 -4.5 -3.7 -8.2 -6.3 -3.7 -2.6 -13.7 -10.1 -22.2 -16.6 -25.3 -19.3 -35.9 -24.7 -39.5 -20.3 -1 1.1 -0.5 2.2 2 5 3.6 4.2 7.8 6.7 39.7 24 12.8 6.9 24.3 13.2 25.5 14.1 2.7 1.9 4.6 2 2.7 0.1z"/>
  <path d="M634.9 696.6 c-11.7 -3.4 -19.5 -10 -22.5 -18.8 -0.9 -2.8 -3.9 -7.6 -7.2 -11.4 -5.1 -6 -5.6 -7 -5.9 -12.2 -0.6 -8.6 -1.8 -10.6 -8.9 -15.3 -8 -5.2 -10.4 -8.1 -10.4 -12.7 0 -8.9 12.8 -14.2 42.9 -17.7 6.8 -0.8 12.6 -1.7 12.9 -1.9 0.2 -0.3 0.4 -5.8 0.3 -12.2 -0.2 -10.7 0 -12.1 2.4 -17 1.4 -2.9 4.2 -6.7 6.2 -8.5 4.5 -3.9 16.1 -9.5 17.3 -8.3 0.5 0.5 0.4 4.9 -0.1 9.7 -0.9 8.7 -0.1 18.5 2.2 27.2 0.6 2.2 4.7 13 9.1 23.9 10.8 27 15 43.4 12.9 49.9 -1.9 5.6 -18.2 19.6 -27.8 23.9 -5.9 2.6 -17 3.3 -23.4 1.4z"/>
  <path d="M468.3 693.6 c-8 -1.9 -17.8 -7.1 -20.5 -10.9 -2.1 -2.9 -2.1 -3.4 -0.9 -12.1 2.8 -19.7 10 -42.2 18.6 -58 5.7 -10.6 7.5 -17.9 8.2 -35.3 0.3 -7.8 0.9 -14.7 1.4 -15.4 0.6 -1 1.8 -0.8 5.5 0.6 9.3 3.5 15.4 11.5 17.5 23 1 5.3 0.5 10.9 -1.7 20.8 -0.6 2.4 -0.2 2.9 2.9 4.2 3.4 1.4 11.8 3.6 26.7 7 17.1 3.9 24 8.2 24 15 0 5.8 -1.3 7.1 -9.8 9.9 -9.2 3.1 -9.8 3.9 -11.1 14.6 -1 8 -1.2 8.2 -8.9 12.9 -2.3 1.3 -5.6 4.9 -8 8.5 -5.6 8.5 -8.5 11.4 -13.8 13.8 -6.1 2.6 -21.4 3.4 -30.1 1.4z"/>
  <path d="M429.6 684.5 l-2.7 -2.5 2 -2.6 c2.5 -3.2 2.6 -4.7 0.5 -7.9 -2.4 -3.7 -7.8 -3.5 -9.8 0.3 -1.1 2.3 -1.1 3.4 0 7.2 1.6 5.4 0.8 6.3 -5.6 5.4 -2.5 -0.4 -4.6 -0.8 -4.8 -0.9 -0.6 -0.5 3.2 -16.6 5.9 -25 4.2 -12.7 13.9 -32.2 20.6 -41.2 l5.6 -7.6 8.5 0.7 c4.7 0.3 8.7 0.8 8.9 1 0.3 0.2 -1 3.5 -2.7 7.2 -7.4 16.1 -12.4 32.5 -15.5 50.4 -3 17.7 -5.2 20.8 -10.9 15.5z"/>
  <path d="M703.6 683.1 c-0.3 -0.5 1.4 -1.8 3.9 -3 5.7 -2.7 7.6 -6.1 5.4 -9.9 -2.8 -5 -8.7 -3.6 -11.5 2.7 -1 2.3 -2.1 4.1 -2.4 4.1 -1.9 0 -5 -4.4 -5 -7.3 -0.1 -6.9 -5.3 -26 -11.7 -43.3 -2.7 -7.4 -4.2 -12.8 -3.7 -13.3 0.5 -0.5 5.4 -1.2 10.9 -1.6 l10 -0.7 4.7 7.9 c5.8 9.8 9.9 18.7 13.8 30.4 3.9 11.8 7.6 29.7 6.3 31 -2.7 2.7 -19.4 5.1 -20.7 3z"/>
  <path d="M696.5 597.3 c-1.3 -3.5 -1.7 -16.8 -0.6 -21 1.8 -6.6 4.9 -9.6 10 -9.6 9.5 0 13.1 9.5 7.3 19.5 -2.6 4.6 -12.1 12.8 -14.7 12.8 -0.7 0 -1.6 -0.8 -2 -1.7z"/>
  <path d="M432.1 592.5 c-8.4 -7.9 -12 -16.4 -9.5 -23 1.4 -3.6 10.1 -5.8 14.4 -3.5 1 0.5 2.6 3.1 3.6 5.7 3 7.7 2.2 26.3 -1.1 26.3 -0.8 0 -4.1 -2.5 -7.4 -5.5z"/>
  <path d="M529.5 561.8 c-3.7 -8.4 -9.1 -21.4 -12 -28.8 -6.4 -16.6 -18.8 -53.6 -18.3 -55 0.2 -0.6 4.6 2 9.8 5.6 10.1 7 16.8 10.6 26.5 14.4 3.3 1.3 6.4 2.7 6.9 3.1 0.6 0.5 0.3 2.5 -0.7 5 -1.9 4.7 -1.8 5 4.6 14.2 l4 5.8 -2.6 7.7 c-3.9 11.5 -5.9 20.1 -9.2 39.5 -0.3 2 -1 3.7 -1.4 3.7 -0.5 0 -3.9 -6.9 -7.6 -15.2z"/>
  <path d="M576.6 567 c-1 -7.7 -5.3 -23.3 -8.8 -32.1 -1.9 -4.9 -2.8 -8.7 -2.4 -10.2 0.3 -1.3 2.8 -4.9 5.6 -8.1 3.5 -4 4.9 -6.4 4.4 -7.5 -2.3 -5.5 -2.1 -5.7 6.3 -7 8.9 -1.4 22.9 -4.8 25.4 -6.2 1 -0.5 2 -0.5 2.3 -0.1 2.1 3.4 -27.8 76.2 -31.3 76.2 -0.5 0 -1.1 -2.3 -1.5 -5z"/>
  <path d="M553 494.6 c-13.7 -2.9 -28.7 -9.1 -40 -16.5 -7.5 -4.9 -19.4 -16.3 -24.6 -23.7 -6.5 -9.1 -16.6 -30.5 -15.1 -32 0.2 -0.2 2.8 0.3 5.8 1.2 7.8 2.4 22 1.5 32.2 -2 4.2 -1.4 8.1 -2.6 8.6 -2.6 0.5 0 3.1 3.1 5.8 6.8 5.6 7.6 14.6 15.1 22 18.3 14.8 6.4 33.7 6.3 46.6 -0.3 8.4 -4.3 25.1 -19.7 23.3 -21.5 -0.3 -0.3 -2.5 1.2 -4.9 3.4 -2.4 2.2 -8.3 6.2 -13.3 8.9 l-8.9 4.9 -13.5 -0.1 c-15.2 -0.1 -21.2 -1.4 -32.4 -7 -8.4 -4.3 -14.5 -9.2 -19.1 -15.5 l-3.6 -4.7 -6.7 3 c-12.2 5.6 -29 5 -42.2 -1.7 -7.3 -3.7 -16.5 -12.6 -19.9 -19.3 -4.5 -8.7 -6.8 -24.2 -3.7 -24.2 0.8 0 4.3 1.3 7.8 3 8.4 4 12.1 3.8 23.5 -1 15.7 -6.8 16.9 -6.9 34.8 -3.4 l3 0.5 -2.9 -2.4 c-6.1 -5.3 -11.1 -6.9 -19.4 -6.5 -7.1 0.3 -8.4 0.8 -15.7 5.1 -4.4 2.6 -8.4 4.7 -8.9 4.7 -1.5 0 0.2 -13.7 2.8 -23.5 3 -11 7.1 -20.4 12.9 -29.3 9.6 -14.7 19.9 -23.1 34 -27.9 8 -2.7 8.7 -2.8 32.2 -2.8 26.4 0 32.4 0.8 50.5 6.7 20.8 6.7 39.3 17.6 54.5 31.9 11 10.4 17.3 19 23.4 31.4 4.5 9 9.7 25.2 8.6 26.4 -0.3 0.2 -2.7 -0.8 -5.4 -2.3 -5.3 -2.8 -13.8 -4.9 -14.7 -3.5 -0.2 0.4 1 1.6 2.8 2.5 6.3 3.2 12.6 8.4 14.2 11.8 3.1 6.5 2 7.1 -5.1 2.6 -3.5 -2.3 -5.9 -3 -9.5 -3 -2.6 0 -4.8 0.4 -4.8 0.8 0 0.5 2.2 1.8 4.8 3 2.7 1.2 6.7 3.8 9.1 5.8 5.6 4.8 5.3 7.1 -1.6 10.4 -2.9 1.4 -5.4 2.8 -5.7 3.1 -0.3 0.2 2.1 0.4 5.2 0.4 17.1 0.1 20.5 15.9 6.4 30.7 -7.1 7.4 -13.2 10.1 -23 10 l-7.3 -0.1 -10.7 10.7 c-13.4 13.3 -23.8 20 -40 25.6 l-11.7 4 -17 0.3 c-11.3 0.1 -19.2 -0.2 -23.5 -1.1z m-24.1 -46.2 c-6 -6.1 -12.2 -10.4 -15 -10.4 -0.7 0 0 1.4 1.7 3.1 3.7 4 18.6 15 19.3 14.4 0.3 -0.3 -2.4 -3.5 -6 -7.1z m83.4 -31.1 l3.2 -1.8 -3 -0.3 c-10.6 -1.1 -17.1 -6.3 -25.3 -19.9 -7.7 -13 -14.7 -17.4 -27.1 -17.2 -11.6 0.2 -13.9 1.9 -4.7 3.4 6.3 1 13.8 4.2 17.7 7.4 2 1.7 6.3 7 9.7 11.8 6.1 9 12.7 16.2 15.9 17.5 3.3 1.3 10.4 0.8 13.6 -0.9z m-67.8 -38.4 c0.5 -0.5 0.1 -0.9 -1.3 -0.9 -3.2 0 -7.6 -2.5 -9.5 -5.3 -1.5 -2.3 -2 -5.5 -1.8 -10.9 0.1 -3.5 5.1 -9.2 9.3 -10.5 l3.3 -1.1 -4.1 -0.1 c-5.6 -0.1 -11.3 4.1 -14.8 11 -3 6.1 -3.2 8.8 -1.1 12.9 2.4 4.6 8.5 7.2 15 6.4 2.2 -0.3 4.4 -0.9 5 -1.5z m64.8 -11.2 c2 -1.1 3.7 -2.4 3.7 -2.8 0 -0.3 -3.1 -0.4 -6.8 -0.1 -5.5 0.3 -7.5 0.1 -10.8 -1.6 -4.8 -2.5 -9.9 -7.7 -11.4 -11.6 -1.6 -4.2 -3.2 -2 -2.4 3.3 2.1 13.2 15.6 19.4 27.7 12.8z m-80.3 -33.9 c4.4 -2.3 7.3 -6 3.4 -4.3 -7.6 3.1 -19.2 0.7 -24.9 -5.2 -3.4 -3.5 -3.5 -3.5 -3.5 -1.2 0 3.7 3.5 8.6 7.7 10.8 5.1 2.7 11.8 2.7 17.3 -0.1z m105.5 0 c-4.6 -15.1 -15.4 -23.4 -27.1 -20.8 -4.6 1 -11.4 5.2 -11.4 6.9 0 0.4 2.5 0.3 5.5 -0.2 10.6 -2 22.4 3 29 12 3.3 4.6 5 5.5 4 2.1z m-76.5 -28.3 c0 -4 -2.6 -8.1 -6.7 -10.7 -3.2 -1.9 -5.1 -2.3 -12.4 -2.3 -7.9 0 -9.2 0.3 -15.4 3.5 -6.8 3.5 -10.3 7.1 -5.4 5.6 7.9 -2.5 14.9 -3.6 19.9 -3 6.6 0.7 15.4 4.4 17.2 7.3 1.7 2.8 2.8 2.6 2.8 -0.4z"/>
  <path d="M703.5 310.6 l-3.6 -4.5 1.7 -3.3 c4.5 -8.7 35 -52.8 36.5 -52.8 1.8 0 4.9 6.6 4.9 10.5 0 5.9 -3.8 12.9 -12.4 23 -4.3 5 -11.1 14.1 -15.2 20.3 -4.2 6.1 -7.7 11.2 -7.9 11.2 -0.2 0 -2 -2 -4 -4.4z"/>
  <path d="M693.5 310.9 c-23.4 -14.1 -54.6 -25.5 -83 -30.3 -4.9 -0.9 -17.5 -2.5 -28 -3.6 -23.4 -2.4 -40.5 -5.1 -40.5 -6.3 0 -0.4 0.8 -0.6 1.8 -0.3 0.9 0.3 7.2 0.8 13.9 1.2 l12.2 0.6 3.3 -4.6 c1.8 -2.6 5.4 -8.3 8 -12.7 l4.7 -7.9 -3.7 -1.8 c-2 -1 -6.4 -2.9 -9.7 -4.2 -15.7 -6.1 -5.3 -5.3 12.2 0.9 39.6 14.1 60.2 24.2 81.8 40.4 10.9 8.1 25.6 21.5 30.5 27.7 3.8 4.7 3.2 4.9 -3.5 0.9z m-18.5 -17 c-3 -2.8 -9.2 -7.5 -13.6 -10.5 -10.2 -6.8 -27.1 -15.7 -27.7 -14.7 -0.3 0.4 -1.7 3 -3.1 5.8 -2.7 5 -2.8 7.5 -0.2 7.5 2.2 0 24 7.5 36.1 12.4 6.1 2.5 11.7 4.5 12.5 4.5 0.8 0 -1 -2.3 -4 -5z"/>
  <path d="M631.5 253.9 c-8.5 -4.7 -26.2 -12.6 -32.8 -14.6 -2.6 -0.8 -5 -2 -5.3 -2.7 -0.2 -0.6 1.7 -5 4.4 -9.7 2.7 -4.6 9.5 -17.4 15.2 -28.4 5.7 -11 10.5 -20.2 10.7 -20.5 1.8 -2.1 48.5 18.8 49.1 22 0.1 0.9 -5.5 11.7 -12.6 24 -18.2 31.7 -19.6 34 -20.7 33.9 -0.5 0 -4.1 -1.8 -8 -4z"/>
 </g>
</svg>