<?xml version="1.0" encoding="UTF-8" standalone="no"?>
<svg
   version="1.1"
   id="Layer_1"
   x="0px"
   y="0px"
   viewBox="0 0 80.000002 132.00001"
   xml:space="preserve"
   sodipodi:docname="question-mark.svg"
   inkscape:version="1.4.2 (ebf0e940d0, 2025-05-08)"
   width="80"
   height="132"
   xmlns:inkscape="http://www.inkscape.org/namespaces/inkscape"
   xmlns:sodipodi="http://sodipodi.sourceforge.net/DTD/sodipodi-0.dtd"
   xmlns="http://www.w3.org/2000/svg"
   xmlns:svg="http://www.w3.org/2000/svg"><defs
     id="defs1" /><sodipodi:namedview
     id="namedview1"
     pagecolor="#ffffff"
     bordercolor="#000000"
     borderopacity="0.25"
     inkscape:showpageshadow="2"
     inkscape:pageopacity="0.0"
     inkscape:pagecheckerboard="0"
     inkscape:deskcolor="#d1d1d1"
     inkscape:zoom="7.1451825"
     inkscape:cx="40.306878"
     inkscape:cy="68.017857"
     inkscape:window-width="2560"
     inkscape:window-height="1371"
     inkscape:window-x="0"
     inkscape:window-y="0"
     inkscape:window-maximized="1"
     inkscape:current-layer="Layer_1" /><g
     id="g1"
     transform="translate(4.4781995,4.7584509)"
     style="opacity:0.45;fill:#b3b3b3"><path
       d="M 43.858256,122.88 H 23.062641 c -1.401249,0 -2.677547,-0.64 -3.596838,-1.67 -0.919291,-1.03 -1.490501,-2.46 -1.490501,-4.03 V 98.47 c 0,-1.57 0.57121,-3 1.490501,-4.03 0.919291,-1.03 2.195589,-1.67 3.596838,-1.67 h 20.795615 c 1.401249,0 2.677547,0.64 3.596838,1.67 0.919291,1.03 1.490501,2.46 1.490501,4.03 v 18.71 c 0,1.57 -0.57121,3 -1.490501,4.03 -0.919291,1.03 -2.195589,1.67 -3.596838,1.67 z M 17.939601,78.75 c 0.01785,-1.73 0.107102,-3.35 0.25883,-4.83 0.151727,-1.55 0.383782,-3.04 0.687237,-4.46 0.339156,-1.57 0.749713,-3.01 1.249522,-4.3 0.517659,-1.36 1.124569,-2.59 1.820732,-3.69 l 0.04462,-0.07 v 0 l 0.116027,-0.17 0.0357,-0.05 c 0.615836,-0.95 1.311998,-1.91 2.106337,-2.87 0.821114,-0.99 1.73148,-2 2.731098,-3.01 0.946066,-0.96 2.052786,-1.99 3.311233,-3.09 1.178121,-1.04 2.490119,-2.12 3.918144,-3.24 0.06248,-0.06 0.124952,-0.12 0.196353,-0.17 0.0714,-0.06 0.151728,-0.11 0.232054,-0.15 0.464108,-0.34 0.919291,-0.7 1.365549,-1.08 0.455183,-0.4 0.892516,-0.83 1.311998,-1.28 0.401632,-0.44 0.776489,-0.91 1.12457,-1.39 0.339156,-0.47 0.633686,-0.94 0.901441,-1.41 0.01785,-0.04 0.0357,-0.07 0.06248,-0.11 v 0 c 0.267754,-0.48 0.499808,-0.96 0.687237,-1.46 0.187428,-0.48 0.348081,-1.02 0.490883,-1.62 0.133878,-0.56 0.24098,-1.16 0.303456,-1.8 0.0714,-0.64 0.107102,-1.31 0.107102,-2.02 0,-0.71 -0.0357,-1.34 -0.107102,-1.91 -0.0714,-0.57 -0.178503,-1.07 -0.312381,-1.52 -0.124952,-0.41 -0.267755,-0.79 -0.446258,-1.13 -0.169578,-0.34 -0.374856,-0.65 -0.60691,-0.94 l -0.04463,-0.05 v 0 l -0.06248,-0.08 C 39.24395,30.65 39.056521,30.48 38.860168,30.34 38.637039,30.18 38.37821,30.03 38.074754,29.9 l -0.04463,-0.02 v 0 l -0.04462,-0.02 c -0.348081,-0.14 -0.722938,-0.25 -1.115645,-0.32 -0.419482,-0.07 -0.910366,-0.11 -1.490501,-0.11 -0.437333,0 -0.821114,0.03 -1.14242,0.09 -0.321306,0.06 -0.633686,0.15 -0.919291,0.27 -0.25883,0.11 -0.508734,0.24 -0.749713,0.41 -0.24098,0.16 -0.473034,0.36 -0.696163,0.59 -0.169577,0.18 -0.321305,0.37 -0.446257,0.58 -0.142803,0.23 -0.25883,0.5 -0.365932,0.79 -0.124952,0.36 -0.223129,0.79 -0.303455,1.29 -0.08925,0.55 -0.133877,1.12 -0.151728,1.71 v 0.03 c -0.04463,1.53 -0.615836,2.91 -1.526201,3.9 -0.856816,0.93 -1.99031,1.53 -3.248757,1.61 -0.09818,0.01 -0.187429,0.02 -0.285605,0.02 H 5.203403 C 4.060983,40.72 2.9988894,40.29 2.1420744,39.57 1.2852593,38.84 0.63372293,37.81 0.32134245,36.61 L 0.28564182,36.5 C 0.16961479,36.14 0.08928838,35.77 0.0446626,35.42 3.6818349e-5,35.04 -0.00888834,34.68 0.00896197,34.31 -0.00888834,31.6 0.16961479,29.06 0.54447136,26.7 0.93717825,24.25 1.5351637,21.94 2.3562781,19.77 3.2130931,17.5 4.2930371,15.42 5.5961099,13.54 6.8991827,11.65 8.4253845,9.95 10.16579,8.45 11.834794,7.01 13.619826,5.76 15.511959,4.7 17.386242,3.65 19.412252,2.77 21.57214,2.06 23.660627,1.38 25.86514,0.86 28.167831,0.52 30.506222,0.17 32.907089,0 35.370432,0 c 2.686472,0 5.256917,0.2 7.72026,0.59 2.454418,0.39 4.783884,0.99 6.997323,1.78 2.249139,0.81 4.355476,1.83 6.319011,3.06 1.901058,1.19 3.668239,2.58 5.301542,4.17 0.09818,0.08 0.187429,0.17 0.27668,0.26 l 0.02678,0.03 c 1.651154,1.64 3.088104,3.41 4.328701,5.32 1.267372,1.96 2.338391,4.08 3.195206,6.37 0.84789,2.25 1.481576,4.62 1.892133,7.1 0.419482,2.49 0.624761,5.09 0.624761,7.79 0,1.69 -0.116027,3.39 -0.357006,5.1 -0.232055,1.69 -0.580136,3.33 -1.044244,4.94 -0.464108,1.62 -1.044243,3.19 -1.740405,4.71 -0.687237,1.52 -1.490501,3 -2.400867,4.43 v 0 c -0.0357,0.06 -0.08033,0.13 -0.133878,0.2 v 0 c -0.838964,1.32 -1.776106,2.61 -2.793574,3.88 -0.990692,1.23 -2.034935,2.38 -3.114879,3.44 -1.133495,1.11 -2.311616,2.13 -3.525437,3.06 -1.16027,0.89 -2.383017,1.72 -3.68609,2.49 -0.473033,0.36 -0.90144,0.7 -1.267372,1.04 -0.374856,0.34 -0.714012,0.69 -1.008543,1.03 -0.0357,0.04 -0.06248,0.07 -0.09818,0.11 -0.196354,0.24 -0.374857,0.49 -0.55336,0.77 -0.160653,0.26 -0.29453,0.52 -0.401632,0.77 l -0.0357,0.08 -0.0089,0.02 c -0.01785,0.03 -0.02678,0.07 -0.04463,0.1 -0.107101,0.29 -0.214203,0.61 -0.303455,0.97 -0.09818,0.4 -0.196353,0.87 -0.27668,1.42 -0.08925,0.58 -0.160653,1.22 -0.205278,1.9 -0.04463,0.68 -0.0714,1.44 -0.0714,2.29 0,1.57 -0.57121,3 -1.490501,4.03 -0.919291,1.03 -2.195588,1.67 -3.596838,1.67 H 23.000165 c -1.40125,0 -2.677547,-0.64 -3.596838,-1.67 -0.05355,-0.06 -0.107102,-0.12 -0.151728,-0.19 -0.830039,-1.01 -1.338773,-2.36 -1.338773,-3.84 0,-0.01 0,-0.08 0.0089,-0.27 0.0089,-0.07 0.01785,-0.13 0.01785,-0.2 z m 4.801734,-4.27 c -0.142802,1.4 -0.214203,2.85 -0.240979,4.35 0,0.11 0,0.22 -0.0089,0.33 v 0.02 c 0,0.09 0.0089,-0.08 0.0089,0.03 0,0.13 0.0357,0.25 0.09818,0.35 l 0.04463,0.05 c 0.08925,0.1 0.214203,0.16 0.357006,0.16 h 20.920567 c 0.142802,0 0.267754,-0.06 0.357006,-0.16 0.08925,-0.1 0.142802,-0.24 0.142802,-0.4 0,-0.91 0.02678,-1.79 0.08925,-2.65 0.05355,-0.86 0.142803,-1.66 0.25883,-2.4 0.107101,-0.67 0.240979,-1.33 0.401632,-1.98 0.151727,-0.58 0.321305,-1.12 0.517659,-1.62 0.01785,-0.05 0.0357,-0.11 0.06248,-0.16 l 0.01785,-0.03 0.0089,-0.03 c 0.223129,-0.55 0.499809,-1.08 0.83004,-1.61 0.267754,-0.42 0.58906,-0.87 0.972842,-1.32 0.0357,-0.05 0.08033,-0.11 0.124952,-0.16 0.419482,-0.49 0.892516,-0.97 1.4191,-1.45 0.517659,-0.48 1.079944,-0.94 1.677929,-1.38 v 0 c 0.06248,-0.05 0.133878,-0.09 0.205279,-0.13 1.14242,-0.67 2.26699,-1.43 3.373709,-2.28 1.088869,-0.84 2.124187,-1.73 3.097029,-2.68 0.972842,-0.95 1.883208,-1.96 2.740023,-3.02 0.838965,-1.03 1.651154,-2.18 2.454418,-3.43 v 0 c 0.02678,-0.03 0.04463,-0.07 0.0714,-0.1 v 0 0 l 0.0089,-0.01 c 0,0 0,0 0.01785,-0.03 v 0 l 0.01785,-0.02 c 0.785414,-1.23 1.472651,-2.5 2.061712,-3.79 0.58906,-1.3 1.079943,-2.63 1.463725,-3.97 0.392707,-1.37 0.687237,-2.76 0.883591,-4.16 0.187428,-1.37 0.285605,-2.81 0.285605,-4.32 0,-2.42 -0.178503,-4.71 -0.53551,-6.85 -0.357006,-2.15 -0.90144,-4.17 -1.606528,-6.06 -0.714012,-1.89 -1.606528,-3.68 -2.695397,-5.35 -1.079944,-1.66 -2.329466,-3.19 -3.748566,-4.59 l -0.0357,-0.04 C 57.442344,12.18 55.880441,10.95 54.193587,9.9 52.497807,8.84 50.659225,7.95 48.69569,7.25 46.750006,6.55 44.670445,6.02 42.448081,5.67 40.234642,5.32 37.878401,5.14 35.379357,5.14 c -2.347316,0 -4.55183,0.15 -6.604616,0.46 -2.088486,0.3 -4.060946,0.76 -5.926304,1.37 -1.856432,0.61 -3.623613,1.38 -5.292617,2.32 -1.66008,0.93 -3.186281,2 -4.596456,3.21 -1.43695,1.24 -2.686472,2.63 -3.7485657,4.17 -1.0710188,1.55 -1.9456841,3.24 -2.6507715,5.09 -0.6693867,1.78 -1.1781206,3.72 -1.5083514,5.83 -0.339156,2.11 -0.4998088,4.34 -0.4819585,6.69 0.00893,0.1 0.00893,0.2 0,0.3 0,0.03 0,0.07 0.00893,0.11 0.00893,0.05 0.01785,0.09 0.026775,0.12 l 0.026776,0.1 c 0.026776,0.09 0.053551,0.17 0.080326,0.27 0.026776,0.12 0.098177,0.22 0.1785031,0.29 0.080326,0.07 0.1874283,0.11 0.3034554,0.11 H 25.31178 c 0.0714,-0.01 0.142803,-0.01 0.214204,-0.01 0.142803,0 0.267755,-0.06 0.348081,-0.16 0.08925,-0.1 0.142803,-0.22 0.151728,-0.36 v -0.02 c 0.01785,-0.91 0.08925,-1.74 0.205279,-2.47 0.124952,-0.79 0.31238,-1.54 0.553359,-2.25 0.223129,-0.65 0.499809,-1.25 0.83004,-1.79 0.339156,-0.57 0.731863,-1.08 1.169195,-1.52 0.437333,-0.44 0.901441,-0.83 1.392325,-1.17 0.490883,-0.34 1.017468,-0.62 1.570827,-0.85 0.544435,-0.22 1.133495,-0.39 1.758256,-0.51 0.624761,-0.11 1.240597,-0.17 1.865358,-0.17 0.740788,0 1.472651,0.06 2.195588,0.19 0.740788,0.13 1.410175,0.32 2.017086,0.57 v 0 c 0.02678,0.01 0.06248,0.03 0.08925,0.04 l 0.08925,0.04 c 0.553359,0.24 1.088869,0.56 1.588678,0.93 0.490883,0.36 0.946066,0.77 1.338773,1.23 0.05355,0.06 0.107102,0.12 0.160653,0.19 l 0.107102,0.14 v 0 c 0.428407,0.54 0.803264,1.12 1.124569,1.75 0.330231,0.65 0.606911,1.33 0.821115,2.05 0.232054,0.76 0.401632,1.57 0.508734,2.42 0.107102,0.85 0.160653,1.72 0.160653,2.63 0,0.9 -0.04463,1.78 -0.142803,2.64 -0.09818,0.85 -0.240979,1.69 -0.428407,2.5 -0.187429,0.77 -0.428408,1.54 -0.722938,2.32 -0.29453,0.76 -0.624761,1.47 -0.999618,2.14 l -0.0089,0.02 c -0.392707,0.71 -0.812189,1.38 -1.258447,2 -0.455183,0.63 -0.946066,1.25 -1.481576,1.83 -0.517659,0.57 -1.088869,1.13 -1.704705,1.67 -0.526584,0.46 -1.088869,0.91 -1.704705,1.34 -0.05355,0.05 -0.107101,0.09 -0.160652,0.13 l -0.124953,0.09 v 0 c -1.338773,1.06 -2.588295,2.08 -3.72179,3.08 -1.097794,0.96 -2.115262,1.92 -3.061328,2.87 -0.910366,0.92 -1.722556,1.81 -2.427643,2.67 -0.678312,0.83 -1.267372,1.62 -1.758256,2.39 -0.02678,0.05 -0.06248,0.1 -0.09818,0.15 l -0.107101,0.16 c -0.499809,0.8 -0.937142,1.7 -1.320924,2.69 -0.410557,1.07 -0.749713,2.24 -1.017467,3.48 -0.24098,1.15 -0.437333,2.43 -0.580136,3.83 z m 0.321306,43.27 h 20.795615 c 0.142802,0 0.267754,-0.06 0.357006,-0.16 0.08925,-0.1 0.142802,-0.24 0.142802,-0.4 V 98.47 c 0,-0.16 -0.05355,-0.3 -0.142802,-0.4 -0.08925,-0.1 -0.214204,-0.16 -0.357006,-0.16 H 23.062641 c -0.142802,0 -0.267755,0.06 -0.357006,0.16 -0.08925,0.1 -0.142803,0.24 -0.142803,0.4 v 18.71 c 0,0.16 0.05355,0.3 0.142803,0.4 0.09818,0.1 0.223129,0.17 0.357006,0.17 z"
       id="path1"
       style="fill:#b3b3b3;stroke-width:0.94473" /></g></svg>
