<?xml version="1.0" encoding="utf-8"?>
<!DOCTYPE svg PUBLIC "-//W3C//DTD SVG 1.0//EN" "http://www.w3.org/TR/2001/REC-SVG-20010904/DTD/svg10.dtd">
<svg version="1.0" xmlns="http://www.w3.org/2000/svg" width="1600px" height="1596px" viewBox="0 0 1600 1596" preserveAspectRatio="xMidYMid meet">
 <g fill="#000000">
  <path d="M603 1365.6 c-17.3 -2.8 -28.7 -6.3 -45.4 -14 -28.6 -13.3 -52.2 -35.1 -69.2 -63.9 -3 -5 -6.1 -11.1 -7.1 -13.6 -0.9 -2.5 -2 -5.1 -2.4 -5.6 -3 -4 -9.1 -28.4 -11 -43.9 -2.1 -17.6 0.9 -47.3 6.7 -64.3 13.8 -40.6 43 -74.6 79.8 -93 l3.9 -2 -79.2 -0.7 -79.2 -0.7 -5.2 2.9 c-3.3 1.8 -6.9 5.1 -9.9 9 -5.1 6.6 -6.6 10.8 -17.7 49.2 -3.2 11.3 -8 27.7 -10.6 36.5 -2.6 8.8 -6.7 22.5 -9 30.5 -2.4 8 -6.6 22.4 -9.5 32 -2.8 9.6 -7.3 24.9 -10 34 -2.6 9.1 -7.4 25.3 -10.5 36 -3.2 10.7 -6.5 22.2 -7.5 25.5 l-1.7 6 -103.9 0.3 c-57.1 0.1 -104.5 0 -105.2 -0.3 -1 -0.4 -0.3 -2 2.4 -5.8 2.1 -2.8 11.1 -15.3 19.9 -27.7 8.8 -12.4 21 -29.4 27 -37.8 6.1 -8.4 11.7 -16.3 12.5 -17.5 3.5 -5 15 -21.3 15.8 -22.2 0.4 -0.5 2.7 -3.7 5 -7 6.3 -9 24 -33.9 24.9 -35 0.5 -0.5 2.9 -3.9 5.3 -7.5 2.5 -3.6 4.7 -6.7 5 -7 0.3 -0.3 1.7 -2.1 3 -4 1.3 -1.9 4.7 -6.6 7.5 -10.5 2.9 -3.8 7.6 -10.5 10.6 -14.7 3 -4.3 8.7 -12.4 12.7 -18 12.9 -18.1 15.1 -21.8 16.3 -27.4 3.3 -14.7 -7.2 -23.7 -29.5 -25.2 l-10 -0.7 -7 -8.1 c-19.7 -22.6 -37.8 -51.4 -52.9 -84.4 -7.8 -17 -14.8 -39.9 -18.8 -61.5 -2.6 -14 -3.7 -43.3 -2 -56 2 -14.9 7.3 -36.6 11.1 -45 1 -2.2 3.2 -7.2 4.8 -11.1 1.6 -3.9 4.2 -8.9 5.6 -11.2 1.4 -2.3 2.6 -4.4 2.6 -4.7 0 -1.4 12.1 -18.8 19.1 -27.5 7 -8.7 27 -29.2 34.5 -35.3 l3 -2.6 38.8 -0.7 c43.6 -0.8 43.4 -0.8 47.4 -8.2 4.1 -7.5 3.8 -24.6 -0.8 -40.7 -1.8 -6.4 -23.6 -74.8 -35 -110 -4.1 -12.6 -11.8 -36.7 -21.5 -67 -3.2 -9.9 -7.9 -24.5 -10.5 -32.5 -2.6 -8 -7.3 -22.6 -10.5 -32.5 -3.1 -9.9 -6.7 -21.1 -8 -25 -1.3 -3.8 -5.4 -16.4 -9 -28 -3.7 -11.5 -8.7 -27.1 -11.2 -34.5 -2.5 -7.4 -4.5 -14.4 -4.5 -15.5 0 -1.1 3.6 -9.6 8.1 -18.9 4.5 -9.2 8.1 -16.9 8.1 -17.1 0 -0.2 5.7 -12.3 15.6 -33.3 2.4 -5.1 4.7 -9.1 5.2 -8.8 0.4 0.2 20.3 0 44.2 -0.4 23.9 -0.5 56.1 -1.1 71.5 -1.4 15.4 -0.3 44.9 -0.8 65.5 -1.1 20.6 -0.3 42 -0.8 47.5 -1.1 7.4 -0.4 10.4 -0.2 11.6 0.8 0.9 0.7 6.7 9.4 12.9 19.3 14.3 22.6 25 39.3 30.2 46.9 l4.1 5.8 -3.1 10.7 c-1.6 5.8 -5.1 17.8 -7.7 26.6 -2.7 8.8 -6.2 21.2 -8 27.5 -1.8 6.3 -6.3 21.9 -10 34.5 -11.6 39.6 -16.6 56.9 -17 58.5 -0.2 0.8 -2.2 7.6 -4.4 15 -8.1 27.8 -15.4 52.8 -18.2 62.8 -1.6 5.6 -4.5 15.5 -6.5 22 -2 6.4 -4.2 14.2 -5 17.2 -0.8 3 -3.2 11.4 -5.4 18.5 -2.1 7.2 -5.7 19.5 -8 27.5 -2.3 8 -6.3 21.5 -8.8 30 -4.2 13.7 -4.7 16.6 -4.7 25 0 7.9 0.4 10.2 2.2 13.5 3.1 5.7 6.6 9.1 12.1 11.7 l4.7 2.3 83 0.5 c45.7 0.3 193.3 0.6 328 0.5 238.4 0 245.1 -0.1 250 -1.9 15.4 -5.9 20.3 -15.6 15.5 -30.4 -2.5 -7.8 -5 -12.2 -16.6 -28.4 -6.9 -9.6 -17.3 -25.3 -20.9 -31.5 -0.6 -1 -2.7 -4.6 -4.7 -7.9 -10.9 -18.5 -26.4 -53.7 -31.4 -71.4 -1.4 -4.7 -3.3 -11.4 -4.3 -15 -7 -23.8 -8.9 -58.5 -4.6 -82 3.8 -20.4 14.3 -44.7 26.2 -60.5 7.2 -9.5 21.5 -24.4 29.8 -31.1 5.3 -4.3 22.3 -16.4 22.9 -16.4 0.2 0 3.3 -1.7 6.7 -3.9 3.5 -2.1 11.2 -6.1 17 -9 l10.7 -5.1 105.3 0.1 c58 0.1 137.8 0.4 177.4 0.8 l72 0.6 0.3 39 0.2 39 -5.3 6 c-4.8 5.4 -25.4 32.4 -33.2 43.6 -17.2 24.6 -26.7 38.9 -29.5 44.4 -0.3 0.6 -2.6 4.2 -5.1 8 -6.2 9.4 -23.3 39.6 -30.4 53.6 -3.2 6.3 -6.1 11.9 -6.5 12.4 -1.2 1.5 -15.6 32.6 -20.6 44.2 -15.2 35.6 -28.2 75.2 -35.9 109.8 -7.9 35.7 -10.9 61.8 -10.9 97.5 0 35.3 2.7 58.7 10.6 89.5 10.9 42.7 31.5 85.2 58.4 120 l8.4 10.9 -0.2 15.6 -0.3 15.5 -101.7 0 c-55.9 0 -101.4 0.3 -101.1 0.8 0.2 0.4 0.9 0.7 1.5 0.7 2.4 0 20.1 11.5 28.9 18.8 29 24.1 48.6 58.2 55.6 96.6 2 11.1 2.2 35.7 0.4 47.1 -1.4 9.2 -5.2 23.7 -8.8 34.2 -2.3 6.7 -12.7 27.5 -15.2 30.5 -0.6 0.7 -3.5 4.5 -6.4 8.4 -22.2 30.5 -56.6 52.2 -95.7 60.6 -13.9 2.9 -44.3 3.2 -59 0.5 -13.6 -2.5 -29.7 -8.2 -43.7 -15.3 -47.8 -24.3 -79.9 -71.4 -85.4 -125.4 -2.8 -28.2 2.9 -59.3 15.8 -85.5 13.5 -27.5 37.3 -52.6 63.8 -67.4 l9 -5.1 -79 0 c-43.4 0 -126.2 -0.3 -184 -0.6 l-105 -0.7 7.7 4 c28.1 14.7 53.1 40.1 67.2 68 13 26.1 19.2 57.4 16.7 84 -1.9 20.1 -8.7 45.1 -15.9 58.3 -1.3 2.5 -3.9 7.2 -5.7 10.5 -10.7 19.4 -34.6 43.3 -55 55.1 -15.9 9.2 -30.9 15.1 -48 19 -13.7 3.2 -41.8 4.1 -55.5 2z"/>
 </g>
 <g fill="#ffffff">
  <path d="M607 1366.1 c-2.5 -0.4 3.4 -0.5 13 -0.3 9.6 0.2 18 0.5 18.5 0.7 1.8 0.6 -26.9 0.2 -31.5 -0.4z"/>
  <path d="M1121.8 1366.3 c3.9 -0.2 10.5 -0.2 14.5 0 3.9 0.1 0.7 0.3 -7.3 0.3 -8 0 -11.2 -0.2 -7.2 -0.3z"/>
  <path d="M645 1365 c15.4 -2.2 15 -2.1 9 -0.5 -3 0.8 -7.5 1.4 -10 1.3 l-4.5 -0.1 5.5 -0.7z"/>
  <path d="M1107.8 1365.3 c1.2 -0.2 3 -0.2 4 0 0.9 0.3 -0.1 0.5 -2.3 0.4 -2.2 0 -3 -0.2 -1.7 -0.4z"/>
  <path d="M1145.8 1365.3 c1.2 -0.2 3 -0.2 4 0 0.9 0.3 -0.1 0.5 -2.3 0.4 -2.2 0 -3 -0.2 -1.7 -0.4z"/>
  <path d="M594 1364 c-1.7 -0.6 -0.9 -0.7 2.5 -0.3 2.8 0.3 5.2 0.7 5.4 0.9 0.8 0.7 -5.4 0.2 -7.9 -0.6z"/>
  <path d="M1093.5 1363.4 c-7.6 -1.8 -21.8 -6.5 -21.2 -7 0.2 -0.2 3.7 0.7 7.8 2.1 4.1 1.4 11.5 3.4 16.4 4.5 5 1 7.7 1.9 6 1.8 -1.6 0 -5.7 -0.6 -9 -1.4z"/>
  <path d="M1164.5 1362 c10.6 -2.9 12.3 -3.2 10.5 -2.1 -1.7 1 -14.4 4.2 -16.3 4 -0.7 0 2 -0.9 5.8 -1.9z"/>
  <path d="M582 1361 c-7.3 -2.4 -5.2 -2.5 3 -0.1 3.6 1.1 5.6 2 4.5 2 -1.1 0 -4.5 -0.8 -7.5 -1.9z"/>
  <path d="M667.5 1360.5 c4.4 -1.3 8.1 -2.2 8.3 -2 0.5 0.5 -12.7 4.5 -14.7 4.4 -0.9 0 2 -1.1 6.4 -2.4z"/>
  <path d="M571.5 1357.5 c-2.5 -1.2 -2.6 -1.4 -0.5 -0.9 2.8 0.7 6 2.3 4.5 2.3 -0.5 0 -2.3 -0.6 -4 -1.4z"/>
  <path d="M564 1354.5 c-1.4 -0.8 -2 -1.4 -1.5 -1.4 0.6 0 2.1 0.6 3.5 1.4 1.4 0.8 2.1 1.4 1.5 1.4 -0.5 0 -2.1 -0.6 -3.5 -1.4z"/>
  <path d="M683.1 1355.5 c0.9 -0.8 7.9 -3.5 7.9 -3 0 0.2 -1.6 1.2 -3.6 2 -3.7 1.5 -5.1 1.9 -4.3 1z"/>
  <path d="M1190 1353.6 c2.8 -1.7 5 -2.1 3.5 -0.7 -0.6 0.5 -2.1 1.2 -3.5 1.5 l-2.5 0.7 2.5 -1.5z"/>
  <path d="M1057.8 1350.4 c-3.8 -1.9 -6.8 -3.7 -6.8 -3.9 0 -0.5 13.9 6.2 14.9 7.1 1.4 1.3 -2.3 -0.2 -8.1 -3.2z"/>
  <path d="M550.5 1348.1 c-13.3 -7.2 -24.7 -15.4 -30.5 -21.7 -2.7 -3 -2.3 -2.7 2.1 1.1 7.3 6.6 18.9 14.5 29.1 20 4.6 2.5 7.9 4.5 7.3 4.5 -0.5 0 -4.1 -1.8 -8 -3.9z"/>
  <path d="M696.1 1349.6 c1 -0.9 6.9 -3.6 6.9 -3.2 0 0.6 -5.5 3.6 -6.6 3.6 -0.4 0 -0.5 -0.2 -0.3 -0.4z"/>
  <path d="M1203 1347.7 c0 -0.3 2.9 -2.1 6.4 -4.1 3.5 -1.9 9.6 -6.1 13.6 -9.1 3.9 -3.1 7.3 -5.5 7.5 -5.3 0.6 0.6 -15.9 12.5 -21.7 15.8 -3.2 1.7 -5.8 3 -5.8 2.7z"/>
  <path d="M704 1345.6 c0 -0.3 2.8 -2.1 6.2 -4.2 3.4 -2.1 8.6 -5.8 11.6 -8.2 2.9 -2.4 5.5 -4.2 5.7 -4 0.6 0.5 -13.1 10.9 -18.5 14 -2.7 1.5 -5 2.6 -5 2.4z"/>
  <path d="M1044.3 1343 c-3.4 -2 -4.7 -3.8 -1.5 -2.1 2.3 1.3 5.8 4 5.2 4.1 -0.3 0 -2 -0.9 -3.7 -2z"/>
  <path d="M1035.5 1336.9 c-5.9 -4.5 -6.7 -5.7 -1.2 -1.8 4.2 2.9 6.5 5 5.5 4.9 -0.2 0 -2.1 -1.4 -4.3 -3.1z"/>
  <path d="M1024.5 1327.8 l-4 -4.3 4.3 4 c3.9 3.6 4.7 4.5 3.9 4.5 -0.2 0 -2.1 -1.9 -4.2 -4.2z"/>
  <path d="M738 1318.5 c12.7 -13.5 12.6 -13.4 10.1 -10 -2.8 3.7 -9.6 10.8 -15.2 16 -2.4 2.2 -0.1 -0.5 5.1 -6z"/>
  <path d="M1240.5 1319 c5 -5.2 10.6 -11.3 12.4 -13.5 1.8 -2.2 2.4 -2.6 1.3 -1 -3 4.6 -11.1 13.4 -17.2 19 -3.2 2.9 -1.7 1 3.5 -4.5z"/>
  <path d="M98.7 1325.4 c-0.7 -0.7 6.9 -12 8.7 -13.2 0.6 -0.3 -1.1 2.4 -3.7 6.1 l-4.8 6.7 104.5 0 c82.7 0 104.5 -0.3 104.9 -1.2 0.2 -0.8 0.3 -0.7 0.3 0.2 -0.1 1.3 -12.6 1.5 -104.7 1.8 -57.5 0.1 -104.8 -0.1 -105.2 -0.4z"/>
  <path d="M1014.1 1318.4 c-5.7 -6.2 -10.4 -11.9 -14.6 -17.9 -4.1 -5.7 -1.4 -3.1 3.7 3.7 2.4 3.1 7.2 8.8 10.7 12.7 3.4 3.9 6.1 7.1 5.8 7.1 -0.3 0 -2.8 -2.5 -5.6 -5.6z"/>
  <path d="M510.4 1317.7 c-2.1 -2.3 -5.4 -6.3 -7.3 -8.7 -2.2 -3 -2.4 -3.5 -0.6 -1.5 1.5 1.7 4.9 5.4 7.6 8.4 2.8 2.9 4.8 5.5 4.6 5.7 -0.2 0.2 -2.1 -1.5 -4.3 -3.9z"/>
  <path d="M309.1 1320 c0 -0.8 0.4 -2.4 0.9 -3.5 0.5 -1.3 0.9 -1.4 0.9 -0.5 0 0.8 -0.4 2.4 -0.9 3.5 -0.5 1.3 -0.9 1.4 -0.9 0.5z"/>
  <path d="M312.1 1310 c0 -0.8 0.4 -2.4 0.9 -3.5 0.5 -1.3 0.9 -1.4 0.9 -0.5 0 0.8 -0.4 2.4 -0.9 3.5 -0.5 1.3 -0.9 1.4 -0.9 0.5z"/>
  <path d="M752.8 1301.3 c1.6 -2.1 4.8 -7.1 7.2 -11 5.1 -8.7 6.6 -9.8 2 -1.5 -3.4 6 -10.7 16.2 -11.6 16.2 -0.3 0 0.8 -1.7 2.4 -3.7z"/>
  <path d="M115 1301 c1.2 -1.6 2.4 -3 2.6 -3 0.3 0 -0.4 1.4 -1.6 3 -1.2 1.7 -2.4 3 -2.6 3 -0.3 0 0.4 -1.3 1.6 -3z"/>
  <path d="M494.2 1297.3 c-2.6 -3.8 -3.4 -5.3 -2.9 -5.3 0.2 0 1.6 1.8 3.1 4 2.9 4.5 2.8 5.6 -0.2 1.3z"/>
  <path d="M316.2 1296 c0 -0.8 0.6 -3.1 1.3 -5 0.7 -1.9 1.3 -2.8 1.3 -2 0 0.8 -0.6 3.1 -1.3 5 -0.7 1.9 -1.3 2.8 -1.3 2z"/>
  <path d="M992.7 1290.3 c-4.1 -6.8 -7.7 -13.9 -7.7 -15 0 -0.4 2 2.8 4.3 7.2 2.4 4.4 5.1 9.2 6.1 10.8 1 1.5 1.6 2.7 1.3 2.7 -0.3 0 -2.1 -2.6 -4 -5.7z"/>
  <path d="M1261.8 1292.3 c1.1 -1.6 3.1 -5.2 4.6 -8 1.4 -2.9 2.9 -5.3 3.2 -5.3 0.3 0 -1.4 3.6 -3.7 8 -2.4 4.4 -4.7 8 -5.2 8 -0.4 0 0 -1.2 1.1 -2.7z"/>
  <path d="M124 1288.5 c1.7 -2.5 3.3 -4.5 3.6 -4.5 0.3 0 -0.9 2 -2.6 4.5 -1.7 2.5 -3.3 4.5 -3.6 4.5 -0.3 0 0.9 -2 2.6 -4.5z"/>
  <path d="M483.9 1279.9 c-1.6 -3.4 -2.9 -6.3 -2.7 -6.5 0.2 -0.2 1.8 2.6 3.6 6.1 1.7 3.6 3 6.5 2.7 6.5 -0.3 0 -1.9 -2.7 -3.6 -6.1z"/>
  <path d="M766 1279.6 c0 -0.2 1.6 -3.7 3.5 -7.7 2 -4.1 3.3 -6.3 2.9 -4.9 -1.4 5.1 -6.4 15 -6.4 12.6z"/>
  <path d="M1270 1277.9 c0 -0.9 5.9 -13.5 6 -12.8 0.1 1.3 -2.4 7.5 -4.2 10.4 -1 1.7 -1.8 2.7 -1.8 2.4z"/>
  <path d="M322.1 1276 c0 -0.8 0.4 -2.4 0.9 -3.5 0.5 -1.3 0.9 -1.4 0.9 -0.5 0 0.8 -0.4 2.4 -0.9 3.5 -0.5 1.3 -0.9 1.4 -0.9 0.5z"/>
  <path d="M135 1273 c1.2 -1.6 2.4 -3 2.6 -3 0.3 0 -0.4 1.4 -1.6 3 -1.2 1.7 -2.4 3 -2.6 3 -0.3 0 0.4 -1.3 1.6 -3z"/>
  <path d="M142 1263.2 c2.4 -3.5 4.8 -6.6 5.4 -7 1.2 -0.7 -5.9 9.5 -8.2 11.8 -0.8 0.8 0.4 -1.3 2.8 -4.8z"/>
  <path d="M476.1 1261.9 c-0.6 -1.8 -1.1 -3.7 -1 -4.3 0 -0.6 0.7 0.7 1.5 2.8 0.8 2.2 1.2 4.1 1 4.3 -0.2 0.2 -0.9 -1 -1.5 -2.8z"/>
  <path d="M773.7 1262 c0.3 -1.4 1.2 -4.1 2 -6 1.1 -3 1.2 -3.1 0.8 -0.6 -0.4 1.6 -1.3 4.3 -2 6 -1.1 2.3 -1.3 2.5 -0.8 0.6z"/>
  <path d="M328.2 1255 c0 -0.8 0.6 -3.1 1.3 -5 0.7 -1.9 1.3 -2.8 1.3 -2 0 0.8 -0.6 3.1 -1.3 5 -0.7 1.9 -1.3 2.8 -1.3 2z"/>
  <path d="M976.6 1254.5 c-0.3 -0.9 -0.6 -2.4 -0.5 -3.3 0 -0.9 0.5 -0.4 1 1.2 0.9 3.2 0.6 4.8 -0.5 2.1z"/>
  <path d="M150 1252 c1.2 -1.6 2.4 -3 2.6 -3 0.3 0 -0.4 1.4 -1.6 3 -1.2 1.7 -2.4 3 -2.6 3 -0.3 0 0.4 -1.3 1.6 -3z"/>
  <path d="M472.5 1250 c-0.4 -1.7 -0.5 -3.4 -0.2 -3.6 0.2 -0.3 0.7 1 1.1 2.7 0.8 4.2 0 5 -0.9 0.9z"/>
  <path d="M973.6 1242.1 c-0.9 -3.8 -1.6 -7.8 -1.5 -8.8 0 -1 0.9 2 2 6.6 1 4.7 1.7 8.6 1.5 8.9 -0.2 0.2 -1.1 -2.8 -2 -6.7z"/>
  <path d="M155.9 1243.7 c1.7 -2.5 3.7 -4.9 4.3 -5.3 0.6 -0.4 -0.4 1.4 -2.2 4 -4.5 6.2 -6.3 7.3 -2.1 1.3z"/>
  <path d="M1282.2 1242.5 c0 -1.1 0.4 -3.3 0.8 -5 0.7 -2.7 0.8 -2.7 0.8 -0.5 0 1.4 -0.4 3.6 -0.8 5 -0.6 2 -0.8 2.1 -0.8 0.5z"/>
  <path d="M161.9 1235.3 c0.6 -1 2.2 -3.1 3.6 -4.8 2.2 -2.5 2.2 -2.3 -0.5 1.8 -3 4.5 -5.1 6.6 -3.1 3z"/>
  <path d="M334.1 1235 c0 -0.8 0.4 -2.4 0.9 -3.5 0.5 -1.3 0.9 -1.4 0.9 -0.5 0 0.8 -0.4 2.4 -0.9 3.5 -0.5 1.3 -0.9 1.4 -0.9 0.5z"/>
  <path d="M1284.2 1231 c0 -1.9 0.2 -2.7 0.5 -1.7 0.2 0.9 0.2 2.5 0 3.5 -0.3 0.9 -0.5 0.1 -0.5 -1.8z"/>
  <path d="M467.6 1222.9 c-0.3 -3.4 -0.5 -10.5 -0.4 -15.8 0.1 -8.3 0.2 -7.5 0.9 5.9 0.4 8.5 0.6 15.6 0.5 15.8 -0.2 0.1 -0.6 -2.5 -1 -5.9z"/>
  <path d="M971.2 1226 c0 -1.9 0.2 -2.7 0.5 -1.7 0.2 0.9 0.2 2.5 0 3.5 -0.3 0.9 -0.5 0.1 -0.5 -1.8z"/>
  <path d="M782.3 1224 c0 -2.5 0.2 -3.5 0.4 -2.2 0.2 1.2 0.2 3.2 0 4.5 -0.2 1.2 -0.4 0.2 -0.4 -2.3z"/>
  <path d="M172.1 1220.8 c2.4 -3.7 4.8 -6.7 5.2 -6.7 0.5 -0.1 -0.8 2.3 -2.9 5.2 -5.8 8 -7.2 9 -2.3 1.5z"/>
  <path d="M1285.3 1222.5 c0 -2.7 0.2 -3.8 0.4 -2.2 0.2 1.5 0.2 3.7 0 5 -0.2 1.2 -0.4 0 -0.4 -2.8z"/>
  <path d="M970.4 1209.5 c0 -5.5 0.1 -7.6 0.3 -4.7 0.2 2.9 0.2 7.4 0 10 -0.2 2.6 -0.3 0.2 -0.3 -5.3z"/>
  <path d="M1286.2 1210.9 c-0.1 -3.6 -0.4 -10.2 -0.7 -14.5 l-0.4 -7.9 1 7.5 c0.5 4.1 0.8 10.7 0.6 14.5 l-0.3 7 -0.2 -6.6z"/>
  <path d="M783.3 1209 c0 -4.1 0.2 -5.8 0.4 -3.7 0.2 2 0.2 5.4 0 7.5 -0.2 2 -0.4 0.3 -0.4 -3.8z"/>
  <path d="M181.9 1207.3 c2.2 -3.4 4.6 -6.5 5.3 -6.9 0.7 -0.5 -0.5 1.6 -2.6 4.6 -5.7 8 -7.6 9.5 -2.7 2.3z"/>
  <path d="M342.4 1206.8 c0.3 -1 1.5 -5.3 2.7 -9.8 1.2 -4.4 2.4 -7.8 2.6 -7.6 0.6 0.6 -3.6 15.7 -4.9 17.6 -0.8 1.2 -0.9 1.2 -0.4 -0.2z"/>
  <path d="M190 1196 c1.2 -1.6 2.4 -3 2.6 -3 0.3 0 -0.4 1.4 -1.6 3 -1.2 1.7 -2.4 3 -2.6 3 -0.3 0 0.4 -1.3 1.6 -3z"/>
  <path d="M782.3 1193.5 c0 -2.2 0.2 -3 0.4 -1.7 0.2 1.2 0.2 3 0 4 -0.3 0.9 -0.5 -0.1 -0.4 -2.3z"/>
  <path d="M468.3 1192 c0 -2.5 0.2 -3.5 0.4 -2.2 0.2 1.2 0.2 3.2 0 4.5 -0.2 1.2 -0.4 0.2 -0.4 -2.3z"/>
  <path d="M971.3 1191.5 c0 -2.2 0.2 -3 0.4 -1.7 0.2 1.2 0.2 3 0 4 -0.3 0.9 -0.5 -0.1 -0.4 -2.3z"/>
  <path d="M780.6 1183.4 c-0.3 -2.6 -0.4 -4.9 -0.2 -5.2 0.3 -0.2 0.8 1.7 1.1 4.3 0.4 2.5 0.5 4.8 0.3 5.1 -0.3 0.2 -0.8 -1.7 -1.2 -4.2z"/>
  <path d="M1284.2 1185 c0 -1.9 0.2 -2.7 0.5 -1.7 0.2 0.9 0.2 2.5 0 3.5 -0.3 0.9 -0.5 0.1 -0.5 -1.8z"/>
  <path d="M201 1180.5 c1.7 -2.5 3.3 -4.5 3.6 -4.5 0.3 0 -0.9 2 -2.6 4.5 -1.7 2.5 -3.3 4.5 -3.6 4.5 -0.3 0 0.9 -2 2.6 -4.5z"/>
  <path d="M349.1 1184 c0 -0.8 0.4 -2.4 0.9 -3.5 0.5 -1.3 0.9 -1.4 0.9 -0.5 0 0.8 -0.4 2.4 -0.9 3.5 -0.5 1.3 -0.9 1.4 -0.9 0.5z"/>
  <path d="M352.1 1174 c0 -0.8 0.4 -2.4 0.9 -3.5 0.5 -1.3 0.9 -1.4 0.9 -0.5 0 0.8 -0.4 2.4 -0.9 3.5 -0.5 1.3 -0.9 1.4 -0.9 0.5z"/>
  <path d="M974.2 1173.5 c0 -1.1 0.3 -2.9 0.8 -4 1.1 -2.5 1.1 0.1 0 3.5 -0.6 2 -0.8 2.1 -0.8 0.5z"/>
  <path d="M212.1 1164.8 c2.4 -3.7 4.8 -6.7 5.2 -6.7 0.5 -0.1 -0.8 2.3 -2.9 5.2 -5.8 8 -7.2 9 -2.3 1.5z"/>
  <path d="M775.8 1162.4 c-0.9 -3.2 -1.5 -6 -1.3 -6.2 0.5 -0.6 3.7 9.8 3.3 10.9 -0.2 0.7 -1.1 -1.5 -2 -4.7z"/>
  <path d="M473.6 1164.1 c0.6 -3.5 3.3 -10.4 3.3 -8.6 0 0.6 -0.8 3.5 -1.9 6.5 -1.3 3.5 -1.8 4.3 -1.4 2.1z"/>
  <path d="M355.7 1162 c0.6 -3.8 3.1 -11.1 3.2 -9.5 0 0.6 -0.8 3.7 -1.9 7 -1.1 3.3 -1.7 4.4 -1.3 2.5z"/>
  <path d="M1278.6 1162.4 c-0.4 -1.4 -0.5 -2.8 -0.3 -3.1 0.3 -0.2 0.8 0.8 1.1 2.3 0.4 1.4 0.5 2.8 0.3 3.1 -0.3 0.2 -0.8 -0.8 -1.1 -2.3z"/>
  <path d="M222 1151.1 c2.2 -3.3 4.4 -6.3 5 -6.6 0.6 -0.4 -1 2.3 -3.6 5.9 -2.5 3.6 -4.8 6.6 -5 6.6 -0.3 0 1.3 -2.7 3.6 -5.9z"/>
  <path d="M1274.2 1149.8 c-1.2 -2.8 -2 -5.3 -1.8 -5.5 0.2 -0.2 1.3 1.9 2.5 4.8 1.2 2.8 2.1 5.3 1.9 5.5 -0.3 0.2 -1.4 -2 -2.6 -4.8z"/>
  <path d="M771.2 1149.5 c-1.7 -3.7 -1.4 -4.5 0.4 -1.2 0.9 1.6 1.4 3.1 1.1 3.3 -0.2 0.2 -0.9 -0.7 -1.5 -2.1z"/>
  <path d="M981.6 1150 c0.3 -1.4 1.1 -3.2 1.6 -4 0.6 -1 0.7 -0.7 0.2 1 -0.3 1.4 -1.1 3.2 -1.6 4 -0.6 1 -0.7 0.7 -0.2 -1z"/>
  <path d="M480.1 1146.5 c0 -0.5 0.8 -2.6 1.9 -4.5 1.1 -1.9 1.9 -3 1.9 -2.5 0 0.6 -0.8 2.6 -1.9 4.5 -1.1 1.9 -1.9 3.1 -1.9 2.5z"/>
  <path d="M766.4 1138.8 c-1.6 -3.4 -5.5 -10.2 -8.7 -15.1 -3.2 -4.9 -5.3 -8.6 -4.7 -8.2 2.7 1.7 17.8 28 16.7 29.1 -0.2 0.2 -1.7 -2.4 -3.3 -5.8z"/>
  <path d="M230 1140 c1.2 -1.6 2.4 -3 2.6 -3 0.3 0 -0.4 1.4 -1.6 3 -1.2 1.7 -2.4 3 -2.6 3 -0.3 0 0.4 -1.3 1.6 -3z"/>
  <path d="M362.1 1140.5 c0 -0.5 0.8 -3.7 1.9 -7 1.1 -3.3 1.7 -4.4 1.3 -2.5 -0.6 3.8 -3.1 11.1 -3.2 9.5z"/>
  <path d="M1266.1 1132.7 c-1.6 -4.1 -12.8 -20.1 -19.8 -28.2 -7.9 -9.1 -20.4 -20 -31 -27 -4 -2.6 -7.3 -5 -7.3 -5.2 0 -0.2 0.6 -0.1 1.3 0.3 12.9 7.8 26.5 19 36.3 30 10.3 11.4 24.4 32.4 21.9 32.4 -0.3 0 -0.9 -1 -1.4 -2.3z"/>
  <path d="M490.1 1126.8 c7.3 -12.6 21.4 -29.1 32.4 -38.1 2.8 -2.2 0.6 0.1 -4.7 5.2 -9.7 9.2 -23 25.6 -26.8 33.1 -1.1 2.1 -2.4 4.2 -3 4.5 -0.6 0.3 0.4 -1.8 2.1 -4.7z"/>
  <path d="M238.9 1127.3 c0.6 -1 2.2 -3.1 3.6 -4.8 2 -2.3 1.9 -1.8 -0.6 1.8 -3.2 4.6 -4.9 6.3 -3 3z"/>
  <path d="M998 1119 c1.2 -1.6 2.4 -3 2.6 -3 0.3 0 -0.4 1.4 -1.6 3 -1.2 1.7 -2.4 3 -2.6 3 -0.3 0 0.4 -1.3 1.6 -3z"/>
  <path d="M252.9 1107.8 c2.8 -4.2 5.6 -8 6.2 -8.4 1.3 -0.8 -7.5 12.1 -9.9 14.6 -0.8 0.8 0.8 -2 3.7 -6.2z"/>
  <path d="M1002.9 1112.2 c1.1 -1.6 2.8 -3.5 3.8 -4.3 0.9 -0.8 0.2 0.5 -1.7 2.9 -3.8 4.8 -5.2 5.7 -2.1 1.4z"/>
  <path d="M748 1109.8 c-1.9 -2.3 -6.1 -7.2 -9.5 -10.9 -4 -4.5 -3.4 -4 1.9 1.5 7.2 7.4 12.3 13.6 11.3 13.6 -0.2 0 -1.9 -1.9 -3.7 -4.2z"/>
  <path d="M371.1 1109 c0 -0.8 0.4 -2.4 0.9 -3.5 0.5 -1.3 0.9 -1.4 0.9 -0.5 0 0.8 -0.4 2.4 -0.9 3.5 -0.5 1.3 -0.9 1.4 -0.9 0.5z"/>
  <path d="M1015.5 1098.2 c4.4 -4.6 10.7 -10.3 14 -12.8 4.3 -3.3 4.7 -3.5 1.5 -0.7 -2.5 2.1 -8.8 7.8 -14 12.8 l-9.5 9 8 -8.3z"/>
  <path d="M374.1 1099 c0 -0.8 0.4 -2.4 0.9 -3.5 0.5 -1.3 0.9 -1.4 0.9 -0.5 0 0.8 -0.4 2.4 -0.9 3.5 -0.5 1.3 -0.9 1.4 -0.9 0.5z"/>
  <path d="M262 1095.1 c1.1 -1.6 2.7 -4.5 3.5 -6.3 0.8 -1.8 1.4 -2.6 1.5 -1.7 0 1.6 -5.5 10.9 -6.5 10.9 -0.4 0 0.3 -1.3 1.5 -2.9z"/>
  <path d="M727.4 1088.9 c-3.7 -3.9 -18 -13.6 -27.5 -18.8 -4.1 -2.3 -6.9 -4.1 -6.4 -4.1 1.8 0 18.5 9.9 25.5 15 6 4.4 13.1 11 11.9 11 -0.3 0 -1.8 -1.4 -3.5 -3.1z"/>
  <path d="M532.9 1080.6 c1.3 -1.6 5.1 -4.1 5.1 -3.3 0 0.2 -1.5 1.4 -3.2 2.7 -2.1 1.5 -2.8 1.7 -1.9 0.6z"/>
  <path d="M1038.4 1078.6 c2.7 -2.2 11.8 -7.7 10.5 -6.3 -0.3 0.4 -3.4 2.5 -7 4.7 -3.5 2.2 -5.1 3 -3.5 1.6z"/>
  <path d="M381.6 1078.8 c3.2 -5.7 11.9 -13.8 14.7 -13.8 0.6 0 -1 1.3 -3.5 2.9 -2.5 1.6 -6 5 -7.8 7.5 -3.1 4.3 -5 6.2 -3.4 3.4z"/>
  <path d="M266.7 1072.8 c-0.4 -1.4 -1.9 -4.1 -3.4 -6 -2.3 -2.7 -2.3 -3 -0.4 -1.3 2.7 2.4 5.4 7.2 4.8 8.8 -0.2 0.7 -0.7 0 -1 -1.5z"/>
  <path d="M542.5 1074.2 c0.6 -0.6 4.4 -2.9 8.5 -5.1 l7.5 -4.1 -47.5 -0.2 -47.5 -0.3 49 -0.3 c26.9 -0.1 48.5 0.2 48 0.6 -1.6 1.4 -19.1 10.5 -18 9.4z"/>
  <path d="M1050.4 1071.2 c0.3 -0.5 2.4 -1.7 4.8 -2.8 4.2 -1.9 3.9 -1.9 -98.7 -2.4 l-103 -0.5 103.8 -0.3 c57 -0.1 103.7 0.2 103.7 0.6 0 0.4 -2.5 2 -5.6 3.5 -3 1.5 -5.3 2.4 -5 1.9z"/>
  <path d="M1304.3 1066.3 l96.7 -0.3 0 -15.3 0 -15.3 -7.1 -9.2 c-3.8 -5.1 -6.8 -9.2 -6.5 -9.2 0.3 0 3.7 4.2 7.6 9.2 l7 9.3 -0.2 15.5 -0.3 15.5 -97 0 -97 0 96.8 -0.2z"/>
  <path d="M826.3 1065.3 c1.5 -0.2 3.9 -0.2 5.5 0 1.5 0.2 0.2 0.4 -2.8 0.4 -3 0 -4.3 -0.2 -2.7 -0.4z"/>
  <path d="M842.8 1065.3 c1.7 -0.2 4.7 -0.2 6.5 0 1.7 0.2 0.3 0.4 -3.3 0.4 -3.6 0 -5 -0.2 -3.2 -0.4z"/>
  <path d="M254 1061.4 c-3 -1.3 -4.8 -2.3 -4 -2.3 1.8 -0.1 10 3.6 10 4.4 0 0.3 -0.1 0.4 -0.2 0.4 -0.2 -0.1 -2.8 -1.2 -5.8 -2.5z"/>
  <path d="M403.8 1063.3 c1.2 -0.2 3.2 -0.2 4.5 0 1.2 0.2 0.2 0.4 -2.3 0.4 -2.5 0 -3.5 -0.2 -2.2 -0.4z"/>
  <path d="M221.3 1050.4 c-6.2 -6.9 -11.1 -13.5 -7 -9.4 0.8 0.8 4.2 4.7 7.6 8.7 l6.1 7.2 6.3 0.4 6.2 0.3 -6.2 0.2 -6.2 0.2 -6.8 -7.6z"/>
  <path d="M207.4 1032.8 c-2.6 -3.5 -5.2 -6.9 -5.7 -7.5 -0.5 -0.7 -0.7 -1.3 -0.4 -1.3 0.2 0 3 3.4 6.1 7.5 3.1 4.1 5.4 7.5 5.2 7.5 -0.3 0 -2.6 -2.8 -5.2 -6.2z"/>
  <path d="M195.7 1016.3 c-5.7 -9 -5.9 -9.3 -5.3 -9.3 0.3 0 4.3 5.9 9.9 14.7 0.4 0.7 0.5 1.3 0.2 1.3 -0.3 0 -2.4 -3 -4.8 -6.7z"/>
  <path d="M1380.2 1007.3 c-4.7 -7.1 -8.9 -14.1 -7.5 -12.8 1.4 1.4 12.3 18.5 11.8 18.5 -0.2 0 -2.2 -2.6 -4.3 -5.7z"/>
  <path d="M184.9 998.8 c-7.3 -12.8 -7.9 -13.9 -7.9 -14.6 0 -1 2.4 2.7 6 9.3 1.8 3.3 4.1 7.5 5.2 9.3 1.1 1.7 1.7 3.2 1.4 3.2 -0.3 0 -2.4 -3.3 -4.7 -7.2z"/>
  <path d="M1365.5 983 c-1.4 -2.7 -2.3 -5 -2 -5 0.2 0 1.6 2.3 3 5 1.4 2.8 2.3 5 2 5 -0.2 0 -1.6 -2.2 -3 -5z"/>
  <path d="M174.5 979.9 c-0.9 -1.7 -1.5 -3.3 -1.3 -3.5 0.3 -0.2 1.2 1.2 2.1 3.1 2.1 4.3 1.3 4.7 -0.8 0.4z"/>
  <path d="M1355.2 963 c-2.3 -5 -4.2 -9.4 -4.1 -9.8 0 -0.4 2 3.5 4.5 8.7 2.4 5.2 4.3 9.6 4.1 9.8 -0.2 0.2 -2.3 -3.7 -4.5 -8.7z"/>
  <path d="M169.2 968.5 c-1.7 -3.7 -1.4 -4.5 0.4 -1.2 0.9 1.6 1.4 3.1 1.1 3.3 -0.2 0.2 -0.9 -0.7 -1.5 -2.1z"/>
  <path d="M166 961.6 c-1.5 -3.9 -1.2 -4.6 0.6 -1.3 0.9 1.6 1.3 3.1 1 3.4 -0.3 0.3 -1 -0.6 -1.6 -2.1z"/>
  <path d="M1348.1 947.1 c-2.9 -6.9 -2.6 -7.8 0.5 -1.2 1.3 3 2.3 5.6 2 5.8 -0.2 0.2 -1.3 -1.9 -2.5 -4.6z"/>
  <path d="M156 934 c-0.6 -2.3 -0.9 -4.4 -0.7 -4.6 0.2 -0.3 0.9 1.4 1.5 3.8 0.6 2.3 0.9 4.4 0.7 4.6 -0.2 0.2 -0.9 -1.5 -1.5 -3.8z"/>
  <path d="M1343.1 933.9 c-0.6 -1.8 -0.9 -3.4 -0.7 -3.6 0.2 -0.2 0.9 1 1.5 2.8 0.6 1.8 0.9 3.4 0.7 3.6 -0.2 0.2 -0.9 -1 -1.5 -2.8z"/>
  <path d="M153.6 925.4 c-0.4 -1.4 -0.5 -2.8 -0.3 -3.1 0.3 -0.2 0.8 0.8 1.1 2.3 0.4 1.4 0.5 2.8 0.3 3.1 -0.3 0.2 -0.8 -0.8 -1.1 -2.3z"/>
  <path d="M1337.6 917.4 c-0.4 -1.4 -0.5 -2.8 -0.3 -3.1 0.3 -0.2 0.8 0.8 1.1 2.3 0.4 1.4 0.5 2.8 0.3 3.1 -0.3 0.2 -0.8 -0.8 -1.1 -2.3z"/>
  <path d="M1334.5 906 c-0.4 -1.7 -0.5 -3.4 -0.2 -3.6 0.2 -0.3 0.7 1 1.1 2.7 0.8 4.2 0 5 -0.9 0.9z"/>
  <path d="M147.3 891.5 c0 -2.2 0.2 -3 0.4 -1.7 0.2 1.2 0.2 3 0 4 -0.3 0.9 -0.5 -0.1 -0.4 -2.3z"/>
  <path d="M146.4 868 c0 -9.6 0.2 -13.6 0.3 -8.7 0.2 4.8 0.2 12.6 0 17.5 -0.1 4.8 -0.3 0.8 -0.3 -8.8z"/>
  <path d="M1325.5 856.5 c-0.4 -4.2 -0.5 -7.9 -0.2 -8.1 0.2 -0.3 0.8 2.9 1.2 7.1 0.4 4.2 0.5 7.9 0.2 8.1 -0.2 0.3 -0.8 -2.9 -1.2 -7.1z"/>
  <path d="M147.3 846.5 c0 -2.2 0.2 -3 0.4 -1.7 0.2 1.2 0.2 3 0 4 -0.3 0.9 -0.5 -0.1 -0.4 -2.3z"/>
  <path d="M1324.3 838 c0 -4.7 0.2 -6.6 0.4 -4.2 0.2 2.3 0.2 6.1 0 8.5 -0.2 2.3 -0.4 0.4 -0.4 -4.3z"/>
  <path d="M1323.4 815.5 c0 -6.6 0.1 -9.2 0.3 -5.7 0.2 3.4 0.2 8.8 0 12 -0.2 3.1 -0.3 0.3 -0.3 -6.3z"/>
  <path d="M154.1 814.4 c-0.1 -1.5 3 -10.6 3.5 -10.1 0.2 0.2 -0.5 2.8 -1.5 5.8 -1.1 3 -2 4.9 -2 4.3z"/>
  <path d="M1324.3 792 c0 -4.7 0.2 -6.6 0.4 -4.2 0.2 2.3 0.2 6.1 0 8.5 -0.2 2.3 -0.4 0.4 -0.4 -4.3z"/>
  <path d="M164 788.6 c0 -1.1 6 -11.6 6.6 -11.6 0.5 0 -1.8 4.7 -4.7 9.4 -1 1.7 -1.9 2.7 -1.9 2.2z"/>
  <path d="M1325.3 778 c0 -3 0.2 -4.3 0.4 -2.7 0.2 1.5 0.2 3.9 0 5.5 -0.2 1.5 -0.4 0.2 -0.4 -2.8z"/>
  <path d="M171 775.5 c0 -0.5 1 -2.1 2.1 -3.5 1.3 -1.7 1.7 -1.8 1 -0.5 -1.7 3.3 -3.1 5.1 -3.1 4z"/>
  <path d="M1326.3 768 c0 -2.5 0.2 -3.5 0.4 -2.2 0.2 1.2 0.2 3.2 0 4.5 -0.2 1.2 -0.4 0.2 -0.4 -2.3z"/>
  <path d="M180.7 760.3 c4.6 -7.2 24.3 -30.3 25.8 -30.3 0.4 0 -2.5 3.5 -6.5 7.7 -4 4.2 -10.2 11.7 -13.8 16.5 -6.5 8.7 -8.8 11.3 -5.5 6.1z"/>
  <path d="M1327.2 760 c0 -1.9 0.2 -2.7 0.5 -1.7 0.2 0.9 0.2 2.5 0 3.5 -0.3 0.9 -0.5 0.1 -0.5 -1.8z"/>
  <path d="M215.7 721 c4 -4.1 7.4 -7.2 7.5 -7 0.2 0.3 -3 3.6 -7.2 7.5 l-7.5 6.9 7.2 -7.4z"/>
  <path d="M226 711.8 c1.3 -1.5 6.3 -1.8 40.3 -2.4 43.5 -0.8 43.4 -0.8 47.4 -7.9 1.3 -2.2 2.3 -3.5 2.3 -2.9 0 0.6 -1 2.6 -2.3 4.5 -4.3 6.5 -4.5 6.5 -47.4 7.3 -25.8 0.5 -39.3 1.1 -40.3 1.9 -1.3 1 -1.3 0.9 0 -0.5z"/>
  <path d="M871.5 711 c217.1 -0.5 224.2 -0.6 229 -2.4 6.4 -2.5 12.6 -6.9 14.8 -10.6 1 -1.6 2.2 -5.5 2.7 -8.7 l0.9 -5.8 -0.4 5.8 c-0.6 9.6 -6.1 15.8 -18 20.3 -4.9 1.8 -11.1 1.9 -229 1.9 l-224 0 224 -0.5z"/>
  <path d="M440.2 710 c-1.8 -0.4 -3.6 -1.1 -4 -1.5 -0.4 -0.5 0.2 -0.4 1.3 0.1 1.1 0.5 37.2 1.1 81.5 1.4 l79.5 0.5 -77.5 0.2 c-42.6 0 -79 -0.3 -80.8 -0.7z"/>
  <path d="M625.8 710.3 c1.2 -0.2 3.2 -0.2 4.5 0 1.2 0.2 0.2 0.4 -2.3 0.4 -2.5 0 -3.5 -0.2 -2.2 -0.4z"/>
  <path d="M424.1 699.4 c-1.7 -2.6 -3.1 -5.2 -3.1 -5.8 0.1 -0.6 0.8 0.3 1.7 1.9 0.8 1.7 2.5 4 3.6 5.2 1.1 1.3 1.8 2.5 1.5 2.8 -0.3 0.3 -2 -1.5 -3.7 -4.1z"/>
  <path d="M317.3 685.5 c0 -3.3 0.2 -4.5 0.4 -2.7 0.2 1.8 0.2 4.5 0 6 -0.2 1.5 -0.4 0 -0.4 -3.3z"/>
  <path d="M1342.2 688 c0 -0.8 0.6 -3.1 1.3 -5 0.7 -1.9 1.3 -2.8 1.3 -2 0 0.8 -0.6 3.1 -1.3 5 -0.7 1.9 -1.3 2.8 -1.3 2z"/>
  <path d="M419.3 682 c0 -2.5 0.2 -3.5 0.4 -2.2 0.2 1.2 0.2 3.2 0 4.5 -0.2 1.2 -0.4 0.2 -0.4 -2.3z"/>
  <path d="M1115.7 677.1 c-2.1 -6.7 -5 -11.4 -16.3 -27.3 -4.5 -6.2 -8.9 -12.6 -9.8 -14.3 -1.7 -3 -1.7 -3 0.1 -0.5 3.9 5.3 17.8 24.7 20.5 28.7 3.4 5 8 15.9 7.6 17.9 -0.2 0.7 -1.1 -1.3 -2.1 -4.5z"/>
  <path d="M1345.6 676 c0.4 -1.9 1 -4.2 1.5 -5 1.1 -1.8 0.1 3.4 -1.3 6.5 -0.5 1.3 -0.6 0.9 -0.2 -1.5z"/>
  <path d="M315.5 673.5 c-0.3 -2.6 -0.4 -4.9 -0.2 -5.2 0.3 -0.3 0.9 1.6 1.2 4.2 0.4 2.5 0.5 4.8 0.2 5.1 -0.2 0.3 -0.8 -1.6 -1.2 -4.1z"/>
  <path d="M420.1 672.9 c0 -1.3 0.4 -3.3 0.9 -4.4 0.7 -1.4 0.8 -0.8 0.3 2 -0.7 4.6 -1.3 5.9 -1.2 2.4z"/>
  <path d="M1348.1 668 c0 -0.8 0.4 -2.4 0.9 -3.5 0.5 -1.3 0.9 -1.4 0.9 -0.5 0 0.8 -0.4 2.4 -0.9 3.5 -0.5 1.3 -0.9 1.4 -0.9 0.5z"/>
  <path d="M1352 656 c0 -0.8 0.5 -2.2 1 -3 0.9 -1.3 1 -1.3 1 0 0 0.8 -0.5 2.2 -1 3 -0.9 1.3 -1 1.3 -1 0z"/>
  <path d="M425.2 655 c0 -0.8 0.6 -3.1 1.3 -5 0.7 -1.9 1.3 -2.8 1.3 -2 0 0.8 -0.6 3.1 -1.3 5 -0.7 1.9 -1.3 2.8 -1.3 2z"/>
  <path d="M310.6 652.4 c-0.4 -1.4 -0.5 -2.8 -0.3 -3.1 0.3 -0.2 0.8 0.8 1.1 2.3 0.4 1.4 0.5 2.8 0.3 3.1 -0.3 0.2 -0.8 -0.8 -1.1 -2.3z"/>
  <path d="M1354.1 650 c0 -0.8 0.9 -3.3 2 -5.5 1 -2.2 1.6 -2.9 1.3 -1.6 -1 3.7 -3.3 8.8 -3.3 7.1z"/>
  <path d="M308.1 644.9 c-0.6 -1.8 -1.1 -3.7 -1 -4.3 0 -0.6 0.7 0.7 1.5 2.8 0.8 2.2 1.2 4.1 1 4.3 -0.2 0.2 -0.9 -1 -1.5 -2.8z"/>
  <path d="M428.1 645 c0 -0.8 0.4 -2.4 0.9 -3.5 0.5 -1.3 0.9 -1.4 0.9 -0.5 0 0.8 -0.4 2.4 -0.9 3.5 -0.5 1.3 -0.9 1.4 -0.9 0.5z"/>
  <path d="M1359.4 635.3 c3.1 -8.3 6 -15.2 6.3 -15 0.5 0.5 -5.7 16.7 -6.4 16.7 -0.3 0 -0.2 -0.8 0.1 -1.7z"/>
  <path d="M303.2 629.7 c-0.6 -1.8 -1.2 -4 -1.1 -4.8 0 -0.8 0.7 0.4 1.5 2.5 0.8 2.2 1.3 4.4 1.1 4.9 -0.1 0.4 -0.8 -0.7 -1.5 -2.6z"/>
  <path d="M433.7 626 c0.6 -3.8 3.1 -11.1 3.2 -9.5 0 0.6 -0.8 3.7 -1.9 7 -1.1 3.3 -1.7 4.4 -1.3 2.5z"/>
  <path d="M1079.2 619.8 c-0.7 -0.7 -1.2 -1.5 -1.2 -1.9 0 -0.4 -1.8 -3.7 -4.1 -7.4 -2.2 -3.7 -3.8 -6.9 -3.6 -7.2 0.3 -0.2 1.8 2 3.4 4.9 1.6 2.9 4 7 5.2 9.1 2.3 3.8 2.4 4.6 0.3 2.5z"/>
  <path d="M1369.4 611 c0.9 -3.2 3.9 -10.1 4.3 -9.7 0.2 0.3 -0.8 2.9 -2.2 5.8 -1.4 3 -2.3 4.7 -2.1 3.9z"/>
  <path d="M441.2 600 c0 -0.8 0.6 -3.1 1.3 -5 0.7 -1.9 1.3 -2.8 1.3 -2 0 0.8 -0.6 3.1 -1.3 5 -0.7 1.9 -1.3 2.8 -1.3 2z"/>
  <path d="M1062.4 588.9 c-3 -6.1 -5.4 -11.3 -5.2 -11.5 0.2 -0.2 2.9 4.8 6.1 11.1 3.1 6.3 5.5 11.5 5.2 11.5 -0.3 0 -3 -5 -6.1 -11.1z"/>
  <path d="M1374.1 599.5 c0 -0.5 1.1 -3 2.4 -5.5 1.3 -2.5 2.4 -4 2.4 -3.5 0 0.6 -1.1 3 -2.4 5.5 -1.3 2.5 -2.4 4.1 -2.4 3.5z"/>
  <path d="M292.6 596.4 c-0.4 -1.4 -0.5 -2.8 -0.3 -3.1 0.3 -0.2 0.8 0.8 1.1 2.3 0.4 1.4 0.5 2.8 0.3 3.1 -0.3 0.2 -0.8 -0.8 -1.1 -2.3z"/>
  <path d="M444.1 590 c0 -0.8 0.4 -2.4 0.9 -3.5 0.5 -1.3 0.9 -1.4 0.9 -0.5 0 0.8 -0.4 2.4 -0.9 3.5 -0.5 1.3 -0.9 1.4 -0.9 0.5z"/>
  <path d="M1382.1 582.5 c0 -0.5 1.3 -3.5 2.9 -6.5 1.6 -3 2.9 -5 2.9 -4.5 0 0.6 -1.3 3.5 -2.9 6.5 -1.6 3 -2.9 5.1 -2.9 4.5z"/>
  <path d="M284.6 571.4 c-1 -3.1 -1.6 -5.8 -1.4 -6 0.3 -0.2 1.2 2.1 2.2 5.2 1 3.1 1.6 5.8 1.4 6 -0.3 0.2 -1.2 -2.1 -2.2 -5.2z"/>
  <path d="M1053.6 569.9 c-1.5 -3.4 -2.5 -6.3 -2.3 -6.5 0.2 -0.2 1.6 2.4 3 5.8 1.5 3.4 2.5 6.3 2.3 6.5 -0.2 0.2 -1.5 -2.4 -3 -5.8z"/>
  <path d="M1390.2 565.5 c0.8 -2.4 10.9 -21.5 11.3 -21.5 0.6 0 -8.8 18.7 -10.5 21 -0.6 0.8 -1 1.1 -0.8 0.5z"/>
  <path d="M453.1 559.5 c0 -0.5 1 -4.4 2.3 -8.5 1.3 -4.1 2.4 -7 2.5 -6.5 0 0.6 -1 4.4 -2.3 8.5 -1.3 4.1 -2.4 7.1 -2.5 6.5z"/>
  <path d="M1047.1 553.9 c-0.6 -1.8 -0.9 -3.4 -0.7 -3.6 0.2 -0.2 0.9 1 1.5 2.8 0.6 1.8 0.9 3.4 0.7 3.6 -0.2 0.2 -0.9 -1 -1.5 -2.8z"/>
  <path d="M274.6 540.4 c-0.4 -1.4 -0.5 -2.8 -0.3 -3.1 0.3 -0.2 0.8 0.8 1.1 2.3 0.4 1.4 0.5 2.8 0.3 3.1 -0.3 0.2 -0.8 -0.8 -1.1 -2.3z"/>
  <path d="M458.6 540 c0.4 -1.9 1.1 -4.4 1.5 -5.5 0.6 -1.4 0.7 -0.9 0.3 1.5 -0.4 1.9 -1.1 4.4 -1.5 5.5 -0.6 1.4 -0.7 0.9 -0.3 -1.5z"/>
  <path d="M1405.1 536.8 c3.6 -7 14.1 -24.8 14.6 -24.8 0.3 0 -0.4 1.5 -1.4 3.3 -1.1 1.7 -4.5 7.8 -7.7 13.5 -3.2 5.6 -6 10.2 -6.2 10.2 -0.3 0 0.1 -1 0.7 -2.2z"/>
  <path d="M462.2 528 c0 -0.8 0.6 -3.1 1.3 -5 0.7 -1.9 1.3 -2.8 1.3 -2 0 0.8 -0.6 3.1 -1.3 5 -0.7 1.9 -1.3 2.8 -1.3 2z"/>
  <path d="M1036.1 517 c-0.6 -2.8 -1.1 -5.9 -1 -6.8 0.1 -0.9 0.7 1.2 1.5 4.7 0.8 3.5 1.2 6.6 1 6.8 -0.2 0.3 -0.9 -1.9 -1.5 -4.7z"/>
  <path d="M465.6 516 c0.4 -1.9 1.1 -4.4 1.5 -5.5 0.6 -1.4 0.7 -0.9 0.3 1.5 -0.4 1.9 -1.1 4.4 -1.5 5.5 -0.6 1.4 -0.7 0.9 -0.3 -1.5z"/>
  <path d="M264.1 507.9 c-1.2 -3.9 -2.1 -7.2 -1.9 -7.5 0.2 -0.2 1.4 2.8 2.7 6.7 1.2 3.9 2.1 7.2 1.9 7.5 -0.2 0.2 -1.4 -2.8 -2.7 -6.7z"/>
  <path d="M1033.6 504.9 c-0.3 -1.7 -0.5 -4.3 -0.5 -5.8 0.1 -1.4 0.5 -0.2 1 2.8 1 5.8 0.6 8.3 -0.5 3z"/>
  <path d="M469.1 504 c0 -0.8 0.4 -2.4 0.9 -3.5 0.5 -1.3 0.9 -1.4 0.9 -0.5 0 0.8 -0.4 2.4 -0.9 3.5 -0.5 1.3 -0.9 1.4 -0.9 0.5z"/>
  <path d="M1426.6 499.8 c2.7 -5 11.7 -18.8 12.1 -18.8 0.3 0 -0.3 1.2 -1.3 2.8 -1 1.5 -2.3 3.6 -2.9 4.7 -2.2 4 -7.8 12.5 -8.2 12.5 -0.2 0 -0.1 -0.6 0.3 -1.2z"/>
  <path d="M471.1 497 c0 -0.8 0.4 -2.4 0.9 -3.5 0.5 -1.3 0.9 -1.4 0.9 -0.5 0 0.8 -0.4 2.4 -0.9 3.5 -0.5 1.3 -0.9 1.4 -0.9 0.5z"/>
  <path d="M1032.3 491.5 c0 -2.2 0.2 -3 0.4 -1.7 0.2 1.2 0.2 3 0 4 -0.3 0.9 -0.5 -0.1 -0.4 -2.3z"/>
  <path d="M474.1 487 c0 -0.8 0.4 -2.4 0.9 -3.5 0.5 -1.3 0.9 -1.4 0.9 -0.5 0 0.8 -0.4 2.4 -0.9 3.5 -0.5 1.3 -0.9 1.4 -0.9 0.5z"/>
  <path d="M1031.4 472 c0 -7.4 0.1 -10.5 0.3 -6.7 0.2 3.7 0.2 9.7 0 13.5 -0.2 3.7 -0.3 0.6 -0.3 -6.8z"/>
  <path d="M476.1 480 c0 -0.8 0.4 -2.4 0.9 -3.5 0.5 -1.3 0.9 -1.4 0.9 -0.5 0 0.8 -0.4 2.4 -0.9 3.5 -0.5 1.3 -0.9 1.4 -0.9 0.5z"/>
  <path d="M254.1 476.9 c-0.6 -1.8 -1.1 -3.7 -1 -4.3 0 -0.6 0.7 0.7 1.5 2.8 0.8 2.2 1.2 4.1 1 4.3 -0.2 0.2 -0.9 -1 -1.5 -2.8z"/>
  <path d="M1447 467.8 c3.9 -6 7.4 -10.8 7.7 -10.8 0.6 0 0 0.9 -6.5 10.5 -3 4.4 -6.2 8.7 -7 9.5 -0.8 0.8 1.8 -3.3 5.8 -9.2z"/>
  <path d="M483.1 456 c0 -0.8 0.4 -2.4 0.9 -3.5 0.5 -1.3 0.9 -1.4 0.9 -0.5 0 0.8 -0.4 2.4 -0.9 3.5 -0.5 1.3 -0.9 1.4 -0.9 0.5z"/>
  <path d="M1032.1 452.9 c0 -1.9 0.4 -5.2 0.9 -7.4 0.7 -3.1 0.7 -2.4 0.3 3 -0.6 7.4 -1.3 10.1 -1.2 4.4z"/>
  <path d="M1459.6 449.3 c4.7 -6.8 8.6 -11.6 6.8 -8.2 -1.6 2.8 -10.6 14.9 -11.1 14.9 -0.3 0 1.7 -3 4.3 -6.7z"/>
  <path d="M245.6 450.4 c-0.9 -2.6 -1.6 -5.2 -1.5 -5.8 0 -0.6 0.9 1.3 2 4.3 1 3 1.7 5.6 1.5 5.8 -0.2 0.2 -1.1 -1.7 -2 -4.3z"/>
  <path d="M487.1 442 c0 -0.8 0.4 -2.4 0.9 -3.5 0.5 -1.3 0.9 -1.4 0.9 -0.5 0 0.8 -0.4 2.4 -0.9 3.5 -0.5 1.3 -0.9 1.4 -0.9 0.5z"/>
  <path d="M241.1 436.4 c-0.6 -2.1 -0.9 -4 -0.6 -4.2 0.2 -0.2 0.8 1.3 1.4 3.4 0.6 2.1 0.9 4 0.6 4.2 -0.2 0.2 -0.8 -1.3 -1.4 -3.4z"/>
  <path d="M1035.2 434.5 c0 -1.1 0.3 -2.9 0.8 -4 1.1 -2.5 1.1 0.1 0 3.5 -0.6 2 -0.8 2.1 -0.8 0.5z"/>
  <path d="M1477.6 424.8 c3.1 -4.3 5.8 -7.8 6.1 -7.8 0.6 0 -5.4 8.2 -8.9 12.2 -1.6 1.8 -0.4 -0.2 2.8 -4.4z"/>
  <path d="M236.1 420.9 c-1.2 -3.5 -2.1 -6.8 -2 -7.3 0 -0.6 1.1 2 2.5 5.8 1.3 3.8 2.2 7.1 2 7.3 -0.2 0.2 -1.3 -2.4 -2.5 -5.8z"/>
  <path d="M492.1 425 c0 -0.8 0.4 -2.4 0.9 -3.5 0.5 -1.3 0.9 -1.4 0.9 -0.5 0 0.8 -0.4 2.4 -0.9 3.5 -0.5 1.3 -0.9 1.4 -0.9 0.5z"/>
  <path d="M494.2 418 c0 -0.8 0.6 -3.1 1.3 -5 0.7 -1.9 1.3 -2.8 1.3 -2 0 0.8 -0.6 3.1 -1.3 5 -0.7 1.9 -1.3 2.8 -1.3 2z"/>
  <path d="M1043.1 410.5 c0 -0.5 0.6 -2.1 1.4 -3.5 0.8 -1.4 1.4 -2 1.4 -1.5 0 0.6 -0.6 2.1 -1.4 3.5 -0.8 1.4 -1.4 2.1 -1.4 1.5z"/>
  <path d="M1495 402.3 c2.3 -2.9 4.6 -5.5 5.1 -5.9 0.5 -0.3 0.9 -17.2 0.9 -39.4 l0 -39 -38.7 -0.3 -38.8 -0.2 39 0 39 0 0.3 39 0.2 39 -5.6 6 c-5.6 6 -5.6 6 -1.4 0.8z"/>
  <path d="M230.6 403.4 c-0.4 -1.4 -0.5 -2.8 -0.3 -3.1 0.3 -0.2 0.8 0.8 1.1 2.3 0.4 1.4 0.5 2.8 0.3 3.1 -0.3 0.2 -0.8 -0.8 -1.1 -2.3z"/>
  <path d="M1050.4 395.5 c1.5 -2.8 3.8 -6.4 5.2 -8 1.3 -1.7 0.4 0.3 -2 4.4 -5.3 8.7 -7 10.6 -3.2 3.6z"/>
  <path d="M226.6 391.4 c-0.9 -2.6 -1.6 -5.2 -1.5 -5.8 0 -0.6 0.9 1.3 2 4.3 1 3 1.7 5.6 1.5 5.8 -0.2 0.2 -1.1 -1.7 -2 -4.3z"/>
  <path d="M501.1 394 c0 -0.8 0.4 -2.4 0.9 -3.5 0.5 -1.3 0.9 -1.4 0.9 -0.5 0 0.8 -0.4 2.4 -0.9 3.5 -0.5 1.3 -0.9 1.4 -0.9 0.5z"/>
  <path d="M1060 381 c1.1 -1.6 2.6 -3.3 3.2 -3.6 0.7 -0.4 -0.1 0.9 -1.6 2.9 -3.4 4.4 -4.6 5 -1.6 0.7z"/>
  <path d="M221.7 375.8 c-0.9 -2.9 -1.5 -5.4 -1.3 -5.6 0.2 -0.2 1.2 2 2.1 4.8 0.9 2.8 1.5 5.3 1.3 5.5 -0.2 0.3 -1.2 -1.9 -2.1 -4.7z"/>
  <path d="M506.1 377 c0 -0.8 0.4 -2.4 0.9 -3.5 0.5 -1.3 0.9 -1.4 0.9 -0.5 0 0.8 -0.4 2.4 -0.9 3.5 -0.5 1.3 -0.9 1.4 -0.9 0.5z"/>
  <path d="M1068.8 370.3 c2.7 -3.2 6.3 -6.9 7.8 -8.3 1.5 -1.4 -0.5 1.2 -4.6 5.8 -4.1 4.5 -7.6 8.2 -7.8 8.2 -0.2 0 1.9 -2.6 4.6 -5.7z"/>
  <path d="M218.1 364.9 c-0.6 -1.8 -1.1 -3.7 -1 -4.3 0 -0.6 0.7 0.7 1.5 2.8 0.8 2.2 1.2 4.1 1 4.3 -0.2 0.2 -0.9 -1 -1.5 -2.8z"/>
  <path d="M1082 356.9 c2.2 -2.1 9.5 -8.1 14.3 -11.8 0.9 -0.7 1.7 -1.1 1.7 -0.9 0 0.6 -14.8 13 -17 14.2 -0.8 0.4 -0.4 -0.2 1 -1.5z"/>
  <path d="M213.5 350.5 c-0.9 -3.1 -1.5 -5.8 -1.2 -6.1 0.2 -0.2 1.1 2.1 2 5.3 0.9 3.1 1.5 5.9 1.2 6.1 -0.2 0.2 -1.1 -2.1 -2 -5.3z"/>
  <path d="M515.1 346 c0 -0.8 0.4 -2.4 0.9 -3.5 0.5 -1.3 0.9 -1.4 0.9 -0.5 0 0.8 -0.4 2.4 -0.9 3.5 -0.5 1.3 -0.9 1.4 -0.9 0.5z"/>
  <path d="M1099 343.6 c0 -0.7 13.2 -9.7 13.6 -9.3 0.2 0.2 -2.7 2.5 -6.6 5.1 -3.8 2.5 -7 4.4 -7 4.2z"/>
  <path d="M1115.9 332.3 c3.3 -2.5 21.4 -12.2 22.6 -12.3 0.9 0 -3.6 2.6 -19.5 11.1 -3 1.6 -4.4 2.1 -3.1 1.2z"/>
  <path d="M205.1 324.4 c-1.2 -3.7 -1.9 -6.9 -1.7 -7.1 0.2 -0.2 1.3 2.6 2.4 6.4 1.2 3.7 1.9 6.9 1.7 7.1 -0.2 0.2 -1.3 -2.6 -2.4 -6.4z"/>
  <path d="M520.4 327.3 c0.2 -1 1 -3.7 1.7 -6.1 0.7 -2.3 1.4 -4 1.6 -3.8 0.5 0.5 -2.7 11.6 -3.3 11.6 -0.3 0 -0.3 -0.8 0 -1.7z"/>
  <path d="M1140 319.5 c0 -0.8 7.3 -3.6 7.8 -3 0.3 0.3 0.3 0.5 0 0.5 -0.3 0 -2.2 0.7 -4.2 1.5 -2 0.8 -3.6 1.3 -3.6 1z"/>
  <path d="M1261.8 316.3 c21 -0.2 55.4 -0.2 76.5 0 21 0.1 3.8 0.2 -38.3 0.2 -42.1 0 -59.3 -0.1 -38.2 -0.2z"/>
  <path d="M203.3 312.8 c1.9 -4.5 6.6 -13.4 6.7 -12.7 0 0.9 -7.1 15.9 -7.6 15.9 -0.2 0 0.2 -1.5 0.9 -3.2z"/>
  <path d="M526.1 307.9 c0 -0.8 -1.4 -3.6 -3.1 -6.2 -3.8 -6 -3.1 -6.1 1 -0.2 1.7 2.5 2.9 5.3 2.7 6.3 -0.4 1.3 -0.5 1.4 -0.6 0.1z"/>
  <path d="M518.4 294.8 c-0.4 -0.7 -2.3 -3.7 -4.1 -6.5 -1.9 -2.9 -3.1 -5.3 -2.9 -5.3 0.3 0 2 2.4 3.9 5.3 4.7 7.4 4.9 7.7 4.3 7.7 -0.3 0 -0.8 -0.6 -1.2 -1.2z"/>
  <path d="M212.1 294.5 c0 -0.5 0.8 -2.6 1.9 -4.5 1.1 -1.9 1.9 -3 1.9 -2.5 0 0.6 -0.8 2.6 -1.9 4.5 -1.1 1.9 -1.9 3.1 -1.9 2.5z"/>
  <path d="M509.4 280.8 c-0.4 -0.7 -1.4 -2.4 -2.2 -3.8 -1.4 -2.4 -1.3 -2.4 0.3 -0.5 2 2.4 3.7 5.5 3.1 5.5 -0.3 0 -0.8 -0.6 -1.2 -1.2z"/>
  <path d="M219.1 279.5 c0 -0.5 1.3 -3.5 2.9 -6.5 1.6 -3 2.9 -5 2.9 -4.5 0 0.6 -1.3 3.5 -2.9 6.5 -1.6 3 -2.9 5.1 -2.9 4.5z"/>
  <path d="M493.8 256.5 c-9.9 -15.5 -11.1 -17.5 -10.5 -17.5 0.3 0 4 5.5 8.3 12.3 4.2 6.7 8.4 13.2 9.2 14.5 0.8 1.2 1.2 2.2 0.9 2.2 -0.3 0 -3.8 -5.2 -7.9 -11.5z"/>
  <path d="M227 262.8 c0 -1.2 5.2 -11.9 5.7 -11.4 0.2 0.2 -0.9 3 -2.6 6.2 -1.6 3.3 -3 5.6 -3.1 5.2z"/>
  <path d="M234 247.6 c0 -1.1 5 -10.6 5.5 -10.6 0.3 0 -0.7 2.4 -2.1 5.3 -2.8 5.5 -3.4 6.5 -3.4 5.3z"/>
  <path d="M263.2 237.3 c5.9 -0.2 15.8 -0.2 22 0 6.2 0.1 1.4 0.3 -10.7 0.3 -12.1 0 -17.2 -0.2 -11.3 -0.3z"/>
  <path d="M318.3 236.3 c6.5 -0.2 16.8 -0.2 23 0 6.2 0.1 0.9 0.3 -11.8 0.3 -12.6 0 -17.7 -0.2 -11.2 -0.3z"/>
  <path d="M374.8 235.3 c6.1 -0.2 16.3 -0.2 22.5 0 6.1 0.1 1.1 0.3 -11.3 0.3 -12.4 0 -17.4 -0.2 -11.2 -0.3z"/>
  <path d="M427.3 234.3 c5.9 -0.2 15.5 -0.2 21.5 0 5.9 0.1 1 0.3 -10.8 0.3 -11.8 0 -16.7 -0.2 -10.7 -0.3z"/>
  <path d="M472.3 233.3 c1.5 -0.2 3.7 -0.2 5 0 1.2 0.2 0 0.4 -2.8 0.4 -2.7 0 -3.8 -0.2 -2.2 -0.4z"/>
 </g>
</svg>