<?xml version="1.0" encoding="UTF-8" standalone="no"?>
<svg
   version="1.0"
   width="1403.3453"
   height="1133.6469"
   viewBox="0 0 1403.3453 1133.6469"
   preserveAspectRatio="xMidYMid"
   id="svg239"
   sodipodi:docname="train.svg"
   inkscape:version="1.4.2 (ebf0e940d0, 2025-05-08)"
   xmlns:inkscape="http://www.inkscape.org/namespaces/inkscape"
   xmlns:sodipodi="http://sodipodi.sourceforge.net/DTD/sodipodi-0.dtd"
   xmlns="http://www.w3.org/2000/svg"
   xmlns:svg="http://www.w3.org/2000/svg">
  <defs
     id="defs239" />
  <sodipodi:namedview
     id="namedview239"
     pagecolor="#ffffff"
     bordercolor="#000000"
     borderopacity="0.25"
     inkscape:showpageshadow="2"
     inkscape:pageopacity="0.0"
     inkscape:pagecheckerboard="0"
     inkscape:deskcolor="#d1d1d1"
     inkscape:zoom="0.72681704"
     inkscape:cx="700.31379"
     inkscape:cy="565.47931"
     inkscape:window-width="2560"
     inkscape:window-height="1371"
     inkscape:window-x="0"
     inkscape:window-y="0"
     inkscape:window-maximized="1"
     inkscape:current-layer="svg239" />
  <g
     fill="#000000"
     id="g1"
     transform="translate(-98.654604,-233.15)">
    <path
       d="m 603,1365.6 c -17.3,-2.8 -28.7,-6.3 -45.4,-14 -28.6,-13.3 -52.2,-35.1 -69.2,-63.9 -3,-5 -6.1,-11.1 -7.1,-13.6 -0.9,-2.5 -2,-5.1 -2.4,-5.6 -3,-4 -9.1,-28.4 -11,-43.9 -2.1,-17.6 0.9,-47.3 6.7,-64.3 13.8,-40.6 43,-74.6 79.8,-93 l 3.9,-2 -79.2,-0.7 -79.2,-0.7 -5.2,2.9 c -3.3,1.8 -6.9,5.1 -9.9,9 -5.1,6.6 -6.6,10.8 -17.7,49.2 -3.2,11.3 -8,27.7 -10.6,36.5 -2.6,8.8 -6.7,22.5 -9,30.5 -2.4,8 -6.6,22.4 -9.5,32 -2.8,9.6 -7.3,24.9 -10,34 -2.6,9.1 -7.4,25.3 -10.5,36 -3.2,10.7 -6.5,22.2 -7.5,25.5 l -1.7,6 -103.9,0.3 c -57.1,0.1 -104.5,0 -105.2,-0.3 -1,-0.4 -0.3,-2 2.4,-5.8 2.1,-2.8 11.1,-15.3 19.9,-27.7 8.8,-12.4 21,-29.4 27,-37.8 6.1,-8.4 11.7,-16.3 12.5,-17.5 3.5,-5 15,-21.3 15.8,-22.2 0.4,-0.5 2.7,-3.7 5,-7 6.3,-9 24,-33.9 24.9,-35 0.5,-0.5 2.9,-3.9 5.3,-7.5 2.5,-3.6 4.7,-6.7 5,-7 0.3,-0.3 1.7,-2.1 3,-4 1.3,-1.9 4.7,-6.6 7.5,-10.5 2.9,-3.8 7.6,-10.5 10.6,-14.7 3,-4.3 8.7,-12.4 12.7,-18 12.9,-18.1 15.1,-21.8 16.3,-27.4 3.3,-14.7 -7.2,-23.7 -29.5,-25.2 l -10,-0.7 -7,-8.1 C 200.9,1026.8 182.8,998 167.7,965 c -7.8,-17 -14.8,-39.9 -18.8,-61.5 -2.6,-14 -3.7,-43.3 -2,-56 2,-14.9 7.3,-36.6 11.1,-45 1,-2.2 3.2,-7.2 4.8,-11.1 1.6,-3.9 4.2,-8.9 5.6,-11.2 1.4,-2.3 2.6,-4.4 2.6,-4.7 0,-1.4 12.1,-18.8 19.1,-27.5 7,-8.7 27,-29.2 34.5,-35.3 l 3,-2.6 38.8,-0.7 c 43.6,-0.8 43.4,-0.8 47.4,-8.2 4.1,-7.5 3.8,-24.6 -0.8,-40.7 -1.8,-6.4 -23.6,-74.8 -35,-110 -4.1,-12.6 -11.8,-36.7 -21.5,-67 -3.2,-9.9 -7.9,-24.5 -10.5,-32.5 -2.6,-8 -7.3,-22.6 -10.5,-32.5 -3.1,-9.9 -6.7,-21.1 -8,-25 -1.3,-3.8 -5.4,-16.4 -9,-28 -3.7,-11.5 -8.7,-27.1 -11.2,-34.5 -2.5,-7.4 -4.5,-14.4 -4.5,-15.5 0,-1.1 3.6,-9.6 8.1,-18.9 4.5,-9.2 8.1,-16.9 8.1,-17.1 0,-0.2 5.7,-12.3 15.6,-33.3 2.4,-5.1 4.7,-9.1 5.2,-8.8 0.4,0.2 20.3,0 44.2,-0.4 23.9,-0.5 56.1,-1.1 71.5,-1.4 15.4,-0.3 44.9,-0.8 65.5,-1.1 20.6,-0.3 42,-0.8 47.5,-1.1 7.4,-0.4 10.4,-0.2 11.6,0.8 0.9,0.7 6.7,9.4 12.9,19.3 14.3,22.6 25,39.3 30.2,46.9 l 4.1,5.8 -3.1,10.7 c -1.6,5.8 -5.1,17.8 -7.7,26.6 -2.7,8.8 -6.2,21.2 -8,27.5 -1.8,6.3 -6.3,21.9 -10,34.5 -11.6,39.6 -16.6,56.9 -17,58.5 -0.2,0.8 -2.2,7.6 -4.4,15 -8.1,27.8 -15.4,52.8 -18.2,62.8 -1.6,5.6 -4.5,15.5 -6.5,22 -2,6.4 -4.2,14.2 -5,17.2 -0.8,3 -3.2,11.4 -5.4,18.5 -2.1,7.2 -5.7,19.5 -8,27.5 -2.3,8 -6.3,21.5 -8.8,30 -4.2,13.7 -4.7,16.6 -4.7,25 0,7.9 0.4,10.2 2.2,13.5 3.1,5.7 6.6,9.1 12.1,11.7 l 4.7,2.3 83,0.5 c 45.7,0.3 193.3,0.6 328,0.5 238.4,0 245.1,-0.1 250,-1.9 15.4,-5.9 20.3,-15.6 15.5,-30.4 -2.5,-7.8 -5,-12.2 -16.6,-28.4 -6.9,-9.6 -17.3,-25.3 -20.9,-31.5 -0.6,-1 -2.7,-4.6 -4.7,-7.9 -10.9,-18.5 -26.4,-53.7 -31.4,-71.4 -1.4,-4.7 -3.3,-11.4 -4.3,-15 -7,-23.8 -8.9,-58.5 -4.6,-82 3.8,-20.4 14.3,-44.7 26.2,-60.5 7.2,-9.5 21.5,-24.4 29.8,-31.1 5.3,-4.3 22.3,-16.4 22.9,-16.4 0.2,0 3.3,-1.7 6.7,-3.9 3.5,-2.1 11.2,-6.1 17,-9 l 10.7,-5.1 105.3,0.1 c 58,0.1 137.8,0.4 177.4,0.8 l 72,0.6 0.3,39 0.2,39 -5.3,6 c -4.8,5.4 -25.4,32.4 -33.2,43.6 -17.2,24.6 -26.7,38.9 -29.5,44.4 -0.3,0.6 -2.6,4.2 -5.1,8 -6.2,9.4 -23.3,39.6 -30.4,53.6 -3.2,6.3 -6.1,11.9 -6.5,12.4 -1.2,1.5 -15.6,32.6 -20.6,44.2 -15.2,35.6 -28.2,75.2 -35.9,109.8 -7.9,35.7 -10.9,61.8 -10.9,97.5 0,35.3 2.7,58.7 10.6,89.5 10.9,42.7 31.5,85.2 58.4,120 l 8.4,10.9 -0.2,15.6 -0.3,15.5 h -101.7 c -55.9,0 -101.4,0.3 -101.1,0.8 0.2,0.4 0.9,0.7 1.5,0.7 2.4,0 20.1,11.5 28.9,18.8 29,24.1 48.6,58.2 55.6,96.6 2,11.1 2.2,35.7 0.4,47.1 -1.4,9.2 -5.2,23.7 -8.8,34.2 -2.3,6.7 -12.7,27.5 -15.2,30.5 -0.6,0.7 -3.5,4.5 -6.4,8.4 -22.2,30.5 -56.6,52.2 -95.7,60.6 -13.9,2.9 -44.3,3.2 -59,0.5 -13.6,-2.5 -29.7,-8.2 -43.7,-15.3 -47.8,-24.3 -79.9,-71.4 -85.4,-125.4 -2.8,-28.2 2.9,-59.3 15.8,-85.5 13.5,-27.5 37.3,-52.6 63.8,-67.4 l 9,-5.1 h -79 c -43.4,0 -126.2,-0.3 -184,-0.6 l -105,-0.7 7.7,4 c 28.1,14.7 53.1,40.1 67.2,68 13,26.1 19.2,57.4 16.7,84 -1.9,20.1 -8.7,45.1 -15.9,58.3 -1.3,2.5 -3.9,7.2 -5.7,10.5 -10.7,19.4 -34.6,43.3 -55,55.1 -15.9,9.2 -30.9,15.1 -48,19 -13.7,3.2 -41.8,4.1 -55.5,2 z"
       id="path1" />
  </g>
  <g
     fill="#ffffff"
     id="g239"
     transform="translate(-98.654604,-233.15)">
    <path
       d="m 607,1366.1 c -2.5,-0.4 3.4,-0.5 13,-0.3 9.6,0.2 18,0.5 18.5,0.7 1.8,0.6 -26.9,0.2 -31.5,-0.4 z"
       id="path2" />
    <path
       d="m 1121.8,1366.3 c 3.9,-0.2 10.5,-0.2 14.5,0 3.9,0.1 0.7,0.3 -7.3,0.3 -8,0 -11.2,-0.2 -7.2,-0.3 z"
       id="path3" />
    <path
       d="m 645,1365 c 15.4,-2.2 15,-2.1 9,-0.5 -3,0.8 -7.5,1.4 -10,1.3 l -4.5,-0.1 z"
       id="path4" />
    <path
       d="m 1107.8,1365.3 c 1.2,-0.2 3,-0.2 4,0 0.9,0.3 -0.1,0.5 -2.3,0.4 -2.2,0 -3,-0.2 -1.7,-0.4 z"
       id="path5" />
    <path
       d="m 1145.8,1365.3 c 1.2,-0.2 3,-0.2 4,0 0.9,0.3 -0.1,0.5 -2.3,0.4 -2.2,0 -3,-0.2 -1.7,-0.4 z"
       id="path6" />
    <path
       d="m 594,1364 c -1.7,-0.6 -0.9,-0.7 2.5,-0.3 2.8,0.3 5.2,0.7 5.4,0.9 0.8,0.7 -5.4,0.2 -7.9,-0.6 z"
       id="path7" />
    <path
       d="m 1093.5,1363.4 c -7.6,-1.8 -21.8,-6.5 -21.2,-7 0.2,-0.2 3.7,0.7 7.8,2.1 4.1,1.4 11.5,3.4 16.4,4.5 5,1 7.7,1.9 6,1.8 -1.6,0 -5.7,-0.6 -9,-1.4 z"
       id="path8" />
    <path
       d="m 1164.5,1362 c 10.6,-2.9 12.3,-3.2 10.5,-2.1 -1.7,1 -14.4,4.2 -16.3,4 -0.7,0 2,-0.9 5.8,-1.9 z"
       id="path9" />
    <path
       d="m 582,1361 c -7.3,-2.4 -5.2,-2.5 3,-0.1 3.6,1.1 5.6,2 4.5,2 -1.1,0 -4.5,-0.8 -7.5,-1.9 z"
       id="path10" />
    <path
       d="m 667.5,1360.5 c 4.4,-1.3 8.1,-2.2 8.3,-2 0.5,0.5 -12.7,4.5 -14.7,4.4 -0.9,0 2,-1.1 6.4,-2.4 z"
       id="path11" />
    <path
       d="m 571.5,1357.5 c -2.5,-1.2 -2.6,-1.4 -0.5,-0.9 2.8,0.7 6,2.3 4.5,2.3 -0.5,0 -2.3,-0.6 -4,-1.4 z"
       id="path12" />
    <path
       d="m 564,1354.5 c -1.4,-0.8 -2,-1.4 -1.5,-1.4 0.6,0 2.1,0.6 3.5,1.4 1.4,0.8 2.1,1.4 1.5,1.4 -0.5,0 -2.1,-0.6 -3.5,-1.4 z"
       id="path13" />
    <path
       d="m 683.1,1355.5 c 0.9,-0.8 7.9,-3.5 7.9,-3 0,0.2 -1.6,1.2 -3.6,2 -3.7,1.5 -5.1,1.9 -4.3,1 z"
       id="path14" />
    <path
       d="m 1190,1353.6 c 2.8,-1.7 5,-2.1 3.5,-0.7 -0.6,0.5 -2.1,1.2 -3.5,1.5 l -2.5,0.7 z"
       id="path15" />
    <path
       d="m 1057.8,1350.4 c -3.8,-1.9 -6.8,-3.7 -6.8,-3.9 0,-0.5 13.9,6.2 14.9,7.1 1.4,1.3 -2.3,-0.2 -8.1,-3.2 z"
       id="path16" />
    <path
       d="m 550.5,1348.1 c -13.3,-7.2 -24.7,-15.4 -30.5,-21.7 -2.7,-3 -2.3,-2.7 2.1,1.1 7.3,6.6 18.9,14.5 29.1,20 4.6,2.5 7.9,4.5 7.3,4.5 -0.5,0 -4.1,-1.8 -8,-3.9 z"
       id="path17" />
    <path
       d="m 696.1,1349.6 c 1,-0.9 6.9,-3.6 6.9,-3.2 0,0.6 -5.5,3.6 -6.6,3.6 -0.4,0 -0.5,-0.2 -0.3,-0.4 z"
       id="path18" />
    <path
       d="m 1203,1347.7 c 0,-0.3 2.9,-2.1 6.4,-4.1 3.5,-1.9 9.6,-6.1 13.6,-9.1 3.9,-3.1 7.3,-5.5 7.5,-5.3 0.6,0.6 -15.9,12.5 -21.7,15.8 -3.2,1.7 -5.8,3 -5.8,2.7 z"
       id="path19" />
    <path
       d="m 704,1345.6 c 0,-0.3 2.8,-2.1 6.2,-4.2 3.4,-2.1 8.6,-5.8 11.6,-8.2 2.9,-2.4 5.5,-4.2 5.7,-4 0.6,0.5 -13.1,10.9 -18.5,14 -2.7,1.5 -5,2.6 -5,2.4 z"
       id="path20" />
    <path
       d="m 1044.3,1343 c -3.4,-2 -4.7,-3.8 -1.5,-2.1 2.3,1.3 5.8,4 5.2,4.1 -0.3,0 -2,-0.9 -3.7,-2 z"
       id="path21" />
    <path
       d="m 1035.5,1336.9 c -5.9,-4.5 -6.7,-5.7 -1.2,-1.8 4.2,2.9 6.5,5 5.5,4.9 -0.2,0 -2.1,-1.4 -4.3,-3.1 z"
       id="path22" />
    <path
       d="m 1024.5,1327.8 -4,-4.3 4.3,4 c 3.9,3.6 4.7,4.5 3.9,4.5 -0.2,0 -2.1,-1.9 -4.2,-4.2 z"
       id="path23" />
    <path
       d="m 738,1318.5 c 12.7,-13.5 12.6,-13.4 10.1,-10 -2.8,3.7 -9.6,10.8 -15.2,16 -2.4,2.2 -0.1,-0.5 5.1,-6 z"
       id="path24" />
    <path
       d="m 1240.5,1319 c 5,-5.2 10.6,-11.3 12.4,-13.5 1.8,-2.2 2.4,-2.6 1.3,-1 -3,4.6 -11.1,13.4 -17.2,19 -3.2,2.9 -1.7,1 3.5,-4.5 z"
       id="path25" />
    <path
       d="m 98.7,1325.4 c -0.7,-0.7 6.9,-12 8.7,-13.2 0.6,-0.3 -1.1,2.4 -3.7,6.1 l -4.8,6.7 h 104.5 c 82.7,0 104.5,-0.3 104.9,-1.2 0.2,-0.8 0.3,-0.7 0.3,0.2 -0.1,1.3 -12.6,1.5 -104.7,1.8 -57.5,0.1 -104.8,-0.1 -105.2,-0.4 z"
       id="path26" />
    <path
       d="m 1014.1,1318.4 c -5.7,-6.2 -10.4,-11.9 -14.6,-17.9 -4.1,-5.7 -1.4,-3.1 3.7,3.7 2.4,3.1 7.2,8.8 10.7,12.7 3.4,3.9 6.1,7.1 5.8,7.1 -0.3,0 -2.8,-2.5 -5.6,-5.6 z"
       id="path27" />
    <path
       d="m 510.4,1317.7 c -2.1,-2.3 -5.4,-6.3 -7.3,-8.7 -2.2,-3 -2.4,-3.5 -0.6,-1.5 1.5,1.7 4.9,5.4 7.6,8.4 2.8,2.9 4.8,5.5 4.6,5.7 -0.2,0.2 -2.1,-1.5 -4.3,-3.9 z"
       id="path28" />
    <path
       d="m 309.1,1320 c 0,-0.8 0.4,-2.4 0.9,-3.5 0.5,-1.3 0.9,-1.4 0.9,-0.5 0,0.8 -0.4,2.4 -0.9,3.5 -0.5,1.3 -0.9,1.4 -0.9,0.5 z"
       id="path29" />
    <path
       d="m 312.1,1310 c 0,-0.8 0.4,-2.4 0.9,-3.5 0.5,-1.3 0.9,-1.4 0.9,-0.5 0,0.8 -0.4,2.4 -0.9,3.5 -0.5,1.3 -0.9,1.4 -0.9,0.5 z"
       id="path30" />
    <path
       d="m 752.8,1301.3 c 1.6,-2.1 4.8,-7.1 7.2,-11 5.1,-8.7 6.6,-9.8 2,-1.5 -3.4,6 -10.7,16.2 -11.6,16.2 -0.3,0 0.8,-1.7 2.4,-3.7 z"
       id="path31" />
    <path
       d="m 115,1301 c 1.2,-1.6 2.4,-3 2.6,-3 0.3,0 -0.4,1.4 -1.6,3 -1.2,1.7 -2.4,3 -2.6,3 -0.3,0 0.4,-1.3 1.6,-3 z"
       id="path32" />
    <path
       d="m 494.2,1297.3 c -2.6,-3.8 -3.4,-5.3 -2.9,-5.3 0.2,0 1.6,1.8 3.1,4 2.9,4.5 2.8,5.6 -0.2,1.3 z"
       id="path33" />
    <path
       d="m 316.2,1296 c 0,-0.8 0.6,-3.1 1.3,-5 0.7,-1.9 1.3,-2.8 1.3,-2 0,0.8 -0.6,3.1 -1.3,5 -0.7,1.9 -1.3,2.8 -1.3,2 z"
       id="path34" />
    <path
       d="m 992.7,1290.3 c -4.1,-6.8 -7.7,-13.9 -7.7,-15 0,-0.4 2,2.8 4.3,7.2 2.4,4.4 5.1,9.2 6.1,10.8 1,1.5 1.6,2.7 1.3,2.7 -0.3,0 -2.1,-2.6 -4,-5.7 z"
       id="path35" />
    <path
       d="m 1261.8,1292.3 c 1.1,-1.6 3.1,-5.2 4.6,-8 1.4,-2.9 2.9,-5.3 3.2,-5.3 0.3,0 -1.4,3.6 -3.7,8 -2.4,4.4 -4.7,8 -5.2,8 -0.4,0 0,-1.2 1.1,-2.7 z"
       id="path36" />
    <path
       d="m 124,1288.5 c 1.7,-2.5 3.3,-4.5 3.6,-4.5 0.3,0 -0.9,2 -2.6,4.5 -1.7,2.5 -3.3,4.5 -3.6,4.5 -0.3,0 0.9,-2 2.6,-4.5 z"
       id="path37" />
    <path
       d="m 483.9,1279.9 c -1.6,-3.4 -2.9,-6.3 -2.7,-6.5 0.2,-0.2 1.8,2.6 3.6,6.1 1.7,3.6 3,6.5 2.7,6.5 -0.3,0 -1.9,-2.7 -3.6,-6.1 z"
       id="path38" />
    <path
       d="m 766,1279.6 c 0,-0.2 1.6,-3.7 3.5,-7.7 2,-4.1 3.3,-6.3 2.9,-4.9 -1.4,5.1 -6.4,15 -6.4,12.6 z"
       id="path39" />
    <path
       d="m 1270,1277.9 c 0,-0.9 5.9,-13.5 6,-12.8 0.1,1.3 -2.4,7.5 -4.2,10.4 -1,1.7 -1.8,2.7 -1.8,2.4 z"
       id="path40" />
    <path
       d="m 322.1,1276 c 0,-0.8 0.4,-2.4 0.9,-3.5 0.5,-1.3 0.9,-1.4 0.9,-0.5 0,0.8 -0.4,2.4 -0.9,3.5 -0.5,1.3 -0.9,1.4 -0.9,0.5 z"
       id="path41" />
    <path
       d="m 135,1273 c 1.2,-1.6 2.4,-3 2.6,-3 0.3,0 -0.4,1.4 -1.6,3 -1.2,1.7 -2.4,3 -2.6,3 -0.3,0 0.4,-1.3 1.6,-3 z"
       id="path42" />
    <path
       d="m 142,1263.2 c 2.4,-3.5 4.8,-6.6 5.4,-7 1.2,-0.7 -5.9,9.5 -8.2,11.8 -0.8,0.8 0.4,-1.3 2.8,-4.8 z"
       id="path43" />
    <path
       d="m 476.1,1261.9 c -0.6,-1.8 -1.1,-3.7 -1,-4.3 0,-0.6 0.7,0.7 1.5,2.8 0.8,2.2 1.2,4.1 1,4.3 -0.2,0.2 -0.9,-1 -1.5,-2.8 z"
       id="path44" />
    <path
       d="m 773.7,1262 c 0.3,-1.4 1.2,-4.1 2,-6 1.1,-3 1.2,-3.1 0.8,-0.6 -0.4,1.6 -1.3,4.3 -2,6 -1.1,2.3 -1.3,2.5 -0.8,0.6 z"
       id="path45" />
    <path
       d="m 328.2,1255 c 0,-0.8 0.6,-3.1 1.3,-5 0.7,-1.9 1.3,-2.8 1.3,-2 0,0.8 -0.6,3.1 -1.3,5 -0.7,1.9 -1.3,2.8 -1.3,2 z"
       id="path46" />
    <path
       d="m 976.6,1254.5 c -0.3,-0.9 -0.6,-2.4 -0.5,-3.3 0,-0.9 0.5,-0.4 1,1.2 0.9,3.2 0.6,4.8 -0.5,2.1 z"
       id="path47" />
    <path
       d="m 150,1252 c 1.2,-1.6 2.4,-3 2.6,-3 0.3,0 -0.4,1.4 -1.6,3 -1.2,1.7 -2.4,3 -2.6,3 -0.3,0 0.4,-1.3 1.6,-3 z"
       id="path48" />
    <path
       d="m 472.5,1250 c -0.4,-1.7 -0.5,-3.4 -0.2,-3.6 0.2,-0.3 0.7,1 1.1,2.7 0.8,4.2 0,5 -0.9,0.9 z"
       id="path49" />
    <path
       d="m 973.6,1242.1 c -0.9,-3.8 -1.6,-7.8 -1.5,-8.8 0,-1 0.9,2 2,6.6 1,4.7 1.7,8.6 1.5,8.9 -0.2,0.2 -1.1,-2.8 -2,-6.7 z"
       id="path50" />
    <path
       d="m 155.9,1243.7 c 1.7,-2.5 3.7,-4.9 4.3,-5.3 0.6,-0.4 -0.4,1.4 -2.2,4 -4.5,6.2 -6.3,7.3 -2.1,1.3 z"
       id="path51" />
    <path
       d="m 1282.2,1242.5 c 0,-1.1 0.4,-3.3 0.8,-5 0.7,-2.7 0.8,-2.7 0.8,-0.5 0,1.4 -0.4,3.6 -0.8,5 -0.6,2 -0.8,2.1 -0.8,0.5 z"
       id="path52" />
    <path
       d="m 161.9,1235.3 c 0.6,-1 2.2,-3.1 3.6,-4.8 2.2,-2.5 2.2,-2.3 -0.5,1.8 -3,4.5 -5.1,6.6 -3.1,3 z"
       id="path53" />
    <path
       d="m 334.1,1235 c 0,-0.8 0.4,-2.4 0.9,-3.5 0.5,-1.3 0.9,-1.4 0.9,-0.5 0,0.8 -0.4,2.4 -0.9,3.5 -0.5,1.3 -0.9,1.4 -0.9,0.5 z"
       id="path54" />
    <path
       d="m 1284.2,1231 c 0,-1.9 0.2,-2.7 0.5,-1.7 0.2,0.9 0.2,2.5 0,3.5 -0.3,0.9 -0.5,0.1 -0.5,-1.8 z"
       id="path55" />
    <path
       d="m 467.6,1222.9 c -0.3,-3.4 -0.5,-10.5 -0.4,-15.8 0.1,-8.3 0.2,-7.5 0.9,5.9 0.4,8.5 0.6,15.6 0.5,15.8 -0.2,0.1 -0.6,-2.5 -1,-5.9 z"
       id="path56" />
    <path
       d="m 971.2,1226 c 0,-1.9 0.2,-2.7 0.5,-1.7 0.2,0.9 0.2,2.5 0,3.5 -0.3,0.9 -0.5,0.1 -0.5,-1.8 z"
       id="path57" />
    <path
       d="m 782.3,1224 c 0,-2.5 0.2,-3.5 0.4,-2.2 0.2,1.2 0.2,3.2 0,4.5 -0.2,1.2 -0.4,0.2 -0.4,-2.3 z"
       id="path58" />
    <path
       d="m 172.1,1220.8 c 2.4,-3.7 4.8,-6.7 5.2,-6.7 0.5,-0.1 -0.8,2.3 -2.9,5.2 -5.8,8 -7.2,9 -2.3,1.5 z"
       id="path59" />
    <path
       d="m 1285.3,1222.5 c 0,-2.7 0.2,-3.8 0.4,-2.2 0.2,1.5 0.2,3.7 0,5 -0.2,1.2 -0.4,0 -0.4,-2.8 z"
       id="path60" />
    <path
       d="m 970.4,1209.5 c 0,-5.5 0.1,-7.6 0.3,-4.7 0.2,2.9 0.2,7.4 0,10 -0.2,2.6 -0.3,0.2 -0.3,-5.3 z"
       id="path61" />
    <path
       d="m 1286.2,1210.9 c -0.1,-3.6 -0.4,-10.2 -0.7,-14.5 l -0.4,-7.9 1,7.5 c 0.5,4.1 0.8,10.7 0.6,14.5 l -0.3,7 z"
       id="path62" />
    <path
       d="m 783.3,1209 c 0,-4.1 0.2,-5.8 0.4,-3.7 0.2,2 0.2,5.4 0,7.5 -0.2,2 -0.4,0.3 -0.4,-3.8 z"
       id="path63" />
    <path
       d="m 181.9,1207.3 c 2.2,-3.4 4.6,-6.5 5.3,-6.9 0.7,-0.5 -0.5,1.6 -2.6,4.6 -5.7,8 -7.6,9.5 -2.7,2.3 z"
       id="path64" />
    <path
       d="m 342.4,1206.8 c 0.3,-1 1.5,-5.3 2.7,-9.8 1.2,-4.4 2.4,-7.8 2.6,-7.6 0.6,0.6 -3.6,15.7 -4.9,17.6 -0.8,1.2 -0.9,1.2 -0.4,-0.2 z"
       id="path65" />
    <path
       d="m 190,1196 c 1.2,-1.6 2.4,-3 2.6,-3 0.3,0 -0.4,1.4 -1.6,3 -1.2,1.7 -2.4,3 -2.6,3 -0.3,0 0.4,-1.3 1.6,-3 z"
       id="path66" />
    <path
       d="m 782.3,1193.5 c 0,-2.2 0.2,-3 0.4,-1.7 0.2,1.2 0.2,3 0,4 -0.3,0.9 -0.5,-0.1 -0.4,-2.3 z"
       id="path67" />
    <path
       d="m 468.3,1192 c 0,-2.5 0.2,-3.5 0.4,-2.2 0.2,1.2 0.2,3.2 0,4.5 -0.2,1.2 -0.4,0.2 -0.4,-2.3 z"
       id="path68" />
    <path
       d="m 971.3,1191.5 c 0,-2.2 0.2,-3 0.4,-1.7 0.2,1.2 0.2,3 0,4 -0.3,0.9 -0.5,-0.1 -0.4,-2.3 z"
       id="path69" />
    <path
       d="m 780.6,1183.4 c -0.3,-2.6 -0.4,-4.9 -0.2,-5.2 0.3,-0.2 0.8,1.7 1.1,4.3 0.4,2.5 0.5,4.8 0.3,5.1 -0.3,0.2 -0.8,-1.7 -1.2,-4.2 z"
       id="path70" />
    <path
       d="m 1284.2,1185 c 0,-1.9 0.2,-2.7 0.5,-1.7 0.2,0.9 0.2,2.5 0,3.5 -0.3,0.9 -0.5,0.1 -0.5,-1.8 z"
       id="path71" />
    <path
       d="m 201,1180.5 c 1.7,-2.5 3.3,-4.5 3.6,-4.5 0.3,0 -0.9,2 -2.6,4.5 -1.7,2.5 -3.3,4.5 -3.6,4.5 -0.3,0 0.9,-2 2.6,-4.5 z"
       id="path72" />
    <path
       d="m 349.1,1184 c 0,-0.8 0.4,-2.4 0.9,-3.5 0.5,-1.3 0.9,-1.4 0.9,-0.5 0,0.8 -0.4,2.4 -0.9,3.5 -0.5,1.3 -0.9,1.4 -0.9,0.5 z"
       id="path73" />
    <path
       d="m 352.1,1174 c 0,-0.8 0.4,-2.4 0.9,-3.5 0.5,-1.3 0.9,-1.4 0.9,-0.5 0,0.8 -0.4,2.4 -0.9,3.5 -0.5,1.3 -0.9,1.4 -0.9,0.5 z"
       id="path74" />
    <path
       d="m 974.2,1173.5 c 0,-1.1 0.3,-2.9 0.8,-4 1.1,-2.5 1.1,0.1 0,3.5 -0.6,2 -0.8,2.1 -0.8,0.5 z"
       id="path75" />
    <path
       d="m 212.1,1164.8 c 2.4,-3.7 4.8,-6.7 5.2,-6.7 0.5,-0.1 -0.8,2.3 -2.9,5.2 -5.8,8 -7.2,9 -2.3,1.5 z"
       id="path76" />
    <path
       d="m 775.8,1162.4 c -0.9,-3.2 -1.5,-6 -1.3,-6.2 0.5,-0.6 3.7,9.8 3.3,10.9 -0.2,0.7 -1.1,-1.5 -2,-4.7 z"
       id="path77" />
    <path
       d="m 473.6,1164.1 c 0.6,-3.5 3.3,-10.4 3.3,-8.6 0,0.6 -0.8,3.5 -1.9,6.5 -1.3,3.5 -1.8,4.3 -1.4,2.1 z"
       id="path78" />
    <path
       d="m 355.7,1162 c 0.6,-3.8 3.1,-11.1 3.2,-9.5 0,0.6 -0.8,3.7 -1.9,7 -1.1,3.3 -1.7,4.4 -1.3,2.5 z"
       id="path79" />
    <path
       d="m 1278.6,1162.4 c -0.4,-1.4 -0.5,-2.8 -0.3,-3.1 0.3,-0.2 0.8,0.8 1.1,2.3 0.4,1.4 0.5,2.8 0.3,3.1 -0.3,0.2 -0.8,-0.8 -1.1,-2.3 z"
       id="path80" />
    <path
       d="m 222,1151.1 c 2.2,-3.3 4.4,-6.3 5,-6.6 0.6,-0.4 -1,2.3 -3.6,5.9 -2.5,3.6 -4.8,6.6 -5,6.6 -0.3,0 1.3,-2.7 3.6,-5.9 z"
       id="path81" />
    <path
       d="m 1274.2,1149.8 c -1.2,-2.8 -2,-5.3 -1.8,-5.5 0.2,-0.2 1.3,1.9 2.5,4.8 1.2,2.8 2.1,5.3 1.9,5.5 -0.3,0.2 -1.4,-2 -2.6,-4.8 z"
       id="path82" />
    <path
       d="m 771.2,1149.5 c -1.7,-3.7 -1.4,-4.5 0.4,-1.2 0.9,1.6 1.4,3.1 1.1,3.3 -0.2,0.2 -0.9,-0.7 -1.5,-2.1 z"
       id="path83" />
    <path
       d="m 981.6,1150 c 0.3,-1.4 1.1,-3.2 1.6,-4 0.6,-1 0.7,-0.7 0.2,1 -0.3,1.4 -1.1,3.2 -1.6,4 -0.6,1 -0.7,0.7 -0.2,-1 z"
       id="path84" />
    <path
       d="m 480.1,1146.5 c 0,-0.5 0.8,-2.6 1.9,-4.5 1.1,-1.9 1.9,-3 1.9,-2.5 0,0.6 -0.8,2.6 -1.9,4.5 -1.1,1.9 -1.9,3.1 -1.9,2.5 z"
       id="path85" />
    <path
       d="m 766.4,1138.8 c -1.6,-3.4 -5.5,-10.2 -8.7,-15.1 -3.2,-4.9 -5.3,-8.6 -4.7,-8.2 2.7,1.7 17.8,28 16.7,29.1 -0.2,0.2 -1.7,-2.4 -3.3,-5.8 z"
       id="path86" />
    <path
       d="m 230,1140 c 1.2,-1.6 2.4,-3 2.6,-3 0.3,0 -0.4,1.4 -1.6,3 -1.2,1.7 -2.4,3 -2.6,3 -0.3,0 0.4,-1.3 1.6,-3 z"
       id="path87" />
    <path
       d="m 362.1,1140.5 c 0,-0.5 0.8,-3.7 1.9,-7 1.1,-3.3 1.7,-4.4 1.3,-2.5 -0.6,3.8 -3.1,11.1 -3.2,9.5 z"
       id="path88" />
    <path
       d="m 1266.1,1132.7 c -1.6,-4.1 -12.8,-20.1 -19.8,-28.2 -7.9,-9.1 -20.4,-20 -31,-27 -4,-2.6 -7.3,-5 -7.3,-5.2 0,-0.2 0.6,-0.1 1.3,0.3 12.9,7.8 26.5,19 36.3,30 10.3,11.4 24.4,32.4 21.9,32.4 -0.3,0 -0.9,-1 -1.4,-2.3 z"
       id="path89" />
    <path
       d="m 490.1,1126.8 c 7.3,-12.6 21.4,-29.1 32.4,-38.1 2.8,-2.2 0.6,0.1 -4.7,5.2 -9.7,9.2 -23,25.6 -26.8,33.1 -1.1,2.1 -2.4,4.2 -3,4.5 -0.6,0.3 0.4,-1.8 2.1,-4.7 z"
       id="path90" />
    <path
       d="m 238.9,1127.3 c 0.6,-1 2.2,-3.1 3.6,-4.8 2,-2.3 1.9,-1.8 -0.6,1.8 -3.2,4.6 -4.9,6.3 -3,3 z"
       id="path91" />
    <path
       d="m 998,1119 c 1.2,-1.6 2.4,-3 2.6,-3 0.3,0 -0.4,1.4 -1.6,3 -1.2,1.7 -2.4,3 -2.6,3 -0.3,0 0.4,-1.3 1.6,-3 z"
       id="path92" />
    <path
       d="m 252.9,1107.8 c 2.8,-4.2 5.6,-8 6.2,-8.4 1.3,-0.8 -7.5,12.1 -9.9,14.6 -0.8,0.8 0.8,-2 3.7,-6.2 z"
       id="path93" />
    <path
       d="m 1002.9,1112.2 c 1.1,-1.6 2.8,-3.5 3.8,-4.3 0.9,-0.8 0.2,0.5 -1.7,2.9 -3.8,4.8 -5.2,5.7 -2.1,1.4 z"
       id="path94" />
    <path
       d="m 748,1109.8 c -1.9,-2.3 -6.1,-7.2 -9.5,-10.9 -4,-4.5 -3.4,-4 1.9,1.5 7.2,7.4 12.3,13.6 11.3,13.6 -0.2,0 -1.9,-1.9 -3.7,-4.2 z"
       id="path95" />
    <path
       d="m 371.1,1109 c 0,-0.8 0.4,-2.4 0.9,-3.5 0.5,-1.3 0.9,-1.4 0.9,-0.5 0,0.8 -0.4,2.4 -0.9,3.5 -0.5,1.3 -0.9,1.4 -0.9,0.5 z"
       id="path96" />
    <path
       d="m 1015.5,1098.2 c 4.4,-4.6 10.7,-10.3 14,-12.8 4.3,-3.3 4.7,-3.5 1.5,-0.7 -2.5,2.1 -8.8,7.8 -14,12.8 l -9.5,9 z"
       id="path97" />
    <path
       d="m 374.1,1099 c 0,-0.8 0.4,-2.4 0.9,-3.5 0.5,-1.3 0.9,-1.4 0.9,-0.5 0,0.8 -0.4,2.4 -0.9,3.5 -0.5,1.3 -0.9,1.4 -0.9,0.5 z"
       id="path98" />
    <path
       d="m 262,1095.1 c 1.1,-1.6 2.7,-4.5 3.5,-6.3 0.8,-1.8 1.4,-2.6 1.5,-1.7 0,1.6 -5.5,10.9 -6.5,10.9 -0.4,0 0.3,-1.3 1.5,-2.9 z"
       id="path99" />
    <path
       d="m 727.4,1088.9 c -3.7,-3.9 -18,-13.6 -27.5,-18.8 -4.1,-2.3 -6.9,-4.1 -6.4,-4.1 1.8,0 18.5,9.9 25.5,15 6,4.4 13.1,11 11.9,11 -0.3,0 -1.8,-1.4 -3.5,-3.1 z"
       id="path100" />
    <path
       d="m 532.9,1080.6 c 1.3,-1.6 5.1,-4.1 5.1,-3.3 0,0.2 -1.5,1.4 -3.2,2.7 -2.1,1.5 -2.8,1.7 -1.9,0.6 z"
       id="path101" />
    <path
       d="m 1038.4,1078.6 c 2.7,-2.2 11.8,-7.7 10.5,-6.3 -0.3,0.4 -3.4,2.5 -7,4.7 -3.5,2.2 -5.1,3 -3.5,1.6 z"
       id="path102" />
    <path
       d="m 381.6,1078.8 c 3.2,-5.7 11.9,-13.8 14.7,-13.8 0.6,0 -1,1.3 -3.5,2.9 -2.5,1.6 -6,5 -7.8,7.5 -3.1,4.3 -5,6.2 -3.4,3.4 z"
       id="path103" />
    <path
       d="m 266.7,1072.8 c -0.4,-1.4 -1.9,-4.1 -3.4,-6 -2.3,-2.7 -2.3,-3 -0.4,-1.3 2.7,2.4 5.4,7.2 4.8,8.8 -0.2,0.7 -0.7,0 -1,-1.5 z"
       id="path104" />
    <path
       d="m 542.5,1074.2 c 0.6,-0.6 4.4,-2.9 8.5,-5.1 l 7.5,-4.1 -47.5,-0.2 -47.5,-0.3 49,-0.3 c 26.9,-0.1 48.5,0.2 48,0.6 -1.6,1.4 -19.1,10.5 -18,9.4 z"
       id="path105" />
    <path
       d="m 1050.4,1071.2 c 0.3,-0.5 2.4,-1.7 4.8,-2.8 4.2,-1.9 3.9,-1.9 -98.7,-2.4 l -103,-0.5 103.8,-0.3 c 57,-0.1 103.7,0.2 103.7,0.6 0,0.4 -2.5,2 -5.6,3.5 -3,1.5 -5.3,2.4 -5,1.9 z"
       id="path106" />
    <path
       d="m 1304.3,1066.3 96.7,-0.3 v -15.3 -15.3 l -7.1,-9.2 c -3.8,-5.1 -6.8,-9.2 -6.5,-9.2 0.3,0 3.7,4.2 7.6,9.2 l 7,9.3 -0.2,15.5 -0.3,15.5 h -97 -97 z"
       id="path107" />
    <path
       d="m 826.3,1065.3 c 1.5,-0.2 3.9,-0.2 5.5,0 1.5,0.2 0.2,0.4 -2.8,0.4 -3,0 -4.3,-0.2 -2.7,-0.4 z"
       id="path108" />
    <path
       d="m 842.8,1065.3 c 1.7,-0.2 4.7,-0.2 6.5,0 1.7,0.2 0.3,0.4 -3.3,0.4 -3.6,0 -5,-0.2 -3.2,-0.4 z"
       id="path109" />
    <path
       d="m 254,1061.4 c -3,-1.3 -4.8,-2.3 -4,-2.3 1.8,-0.1 10,3.6 10,4.4 0,0.3 -0.1,0.4 -0.2,0.4 -0.2,-0.1 -2.8,-1.2 -5.8,-2.5 z"
       id="path110" />
    <path
       d="m 403.8,1063.3 c 1.2,-0.2 3.2,-0.2 4.5,0 1.2,0.2 0.2,0.4 -2.3,0.4 -2.5,0 -3.5,-0.2 -2.2,-0.4 z"
       id="path111" />
    <path
       d="m 221.3,1050.4 c -6.2,-6.9 -11.1,-13.5 -7,-9.4 0.8,0.8 4.2,4.7 7.6,8.7 l 6.1,7.2 6.3,0.4 6.2,0.3 -6.2,0.2 -6.2,0.2 z"
       id="path112" />
    <path
       d="m 207.4,1032.8 c -2.6,-3.5 -5.2,-6.9 -5.7,-7.5 -0.5,-0.7 -0.7,-1.3 -0.4,-1.3 0.2,0 3,3.4 6.1,7.5 3.1,4.1 5.4,7.5 5.2,7.5 -0.3,0 -2.6,-2.8 -5.2,-6.2 z"
       id="path113" />
    <path
       d="m 195.7,1016.3 c -5.7,-9 -5.9,-9.3 -5.3,-9.3 0.3,0 4.3,5.9 9.9,14.7 0.4,0.7 0.5,1.3 0.2,1.3 -0.3,0 -2.4,-3 -4.8,-6.7 z"
       id="path114" />
    <path
       d="m 1380.2,1007.3 c -4.7,-7.1 -8.9,-14.1 -7.5,-12.8 1.4,1.4 12.3,18.5 11.8,18.5 -0.2,0 -2.2,-2.6 -4.3,-5.7 z"
       id="path115" />
    <path
       d="M 184.9,998.8 C 177.6,986 177,984.9 177,984.2 c 0,-1 2.4,2.7 6,9.3 1.8,3.3 4.1,7.5 5.2,9.3 1.1,1.7 1.7,3.2 1.4,3.2 -0.3,0 -2.4,-3.3 -4.7,-7.2 z"
       id="path116" />
    <path
       d="m 1365.5,983 c -1.4,-2.7 -2.3,-5 -2,-5 0.2,0 1.6,2.3 3,5 1.4,2.8 2.3,5 2,5 -0.2,0 -1.6,-2.2 -3,-5 z"
       id="path117" />
    <path
       d="m 174.5,979.9 c -0.9,-1.7 -1.5,-3.3 -1.3,-3.5 0.3,-0.2 1.2,1.2 2.1,3.1 2.1,4.3 1.3,4.7 -0.8,0.4 z"
       id="path118" />
    <path
       d="m 1355.2,963 c -2.3,-5 -4.2,-9.4 -4.1,-9.8 0,-0.4 2,3.5 4.5,8.7 2.4,5.2 4.3,9.6 4.1,9.8 -0.2,0.2 -2.3,-3.7 -4.5,-8.7 z"
       id="path119" />
    <path
       d="m 169.2,968.5 c -1.7,-3.7 -1.4,-4.5 0.4,-1.2 0.9,1.6 1.4,3.1 1.1,3.3 -0.2,0.2 -0.9,-0.7 -1.5,-2.1 z"
       id="path120" />
    <path
       d="m 166,961.6 c -1.5,-3.9 -1.2,-4.6 0.6,-1.3 0.9,1.6 1.3,3.1 1,3.4 -0.3,0.3 -1,-0.6 -1.6,-2.1 z"
       id="path121" />
    <path
       d="m 1348.1,947.1 c -2.9,-6.9 -2.6,-7.8 0.5,-1.2 1.3,3 2.3,5.6 2,5.8 -0.2,0.2 -1.3,-1.9 -2.5,-4.6 z"
       id="path122" />
    <path
       d="m 156,934 c -0.6,-2.3 -0.9,-4.4 -0.7,-4.6 0.2,-0.3 0.9,1.4 1.5,3.8 0.6,2.3 0.9,4.4 0.7,4.6 -0.2,0.2 -0.9,-1.5 -1.5,-3.8 z"
       id="path123" />
    <path
       d="m 1343.1,933.9 c -0.6,-1.8 -0.9,-3.4 -0.7,-3.6 0.2,-0.2 0.9,1 1.5,2.8 0.6,1.8 0.9,3.4 0.7,3.6 -0.2,0.2 -0.9,-1 -1.5,-2.8 z"
       id="path124" />
    <path
       d="m 153.6,925.4 c -0.4,-1.4 -0.5,-2.8 -0.3,-3.1 0.3,-0.2 0.8,0.8 1.1,2.3 0.4,1.4 0.5,2.8 0.3,3.1 -0.3,0.2 -0.8,-0.8 -1.1,-2.3 z"
       id="path125" />
    <path
       d="m 1337.6,917.4 c -0.4,-1.4 -0.5,-2.8 -0.3,-3.1 0.3,-0.2 0.8,0.8 1.1,2.3 0.4,1.4 0.5,2.8 0.3,3.1 -0.3,0.2 -0.8,-0.8 -1.1,-2.3 z"
       id="path126" />
    <path
       d="m 1334.5,906 c -0.4,-1.7 -0.5,-3.4 -0.2,-3.6 0.2,-0.3 0.7,1 1.1,2.7 0.8,4.2 0,5 -0.9,0.9 z"
       id="path127" />
    <path
       d="m 147.3,891.5 c 0,-2.2 0.2,-3 0.4,-1.7 0.2,1.2 0.2,3 0,4 -0.3,0.9 -0.5,-0.1 -0.4,-2.3 z"
       id="path128" />
    <path
       d="m 146.4,868 c 0,-9.6 0.2,-13.6 0.3,-8.7 0.2,4.8 0.2,12.6 0,17.5 -0.1,4.8 -0.3,0.8 -0.3,-8.8 z"
       id="path129" />
    <path
       d="m 1325.5,856.5 c -0.4,-4.2 -0.5,-7.9 -0.2,-8.1 0.2,-0.3 0.8,2.9 1.2,7.1 0.4,4.2 0.5,7.9 0.2,8.1 -0.2,0.3 -0.8,-2.9 -1.2,-7.1 z"
       id="path130" />
    <path
       d="m 147.3,846.5 c 0,-2.2 0.2,-3 0.4,-1.7 0.2,1.2 0.2,3 0,4 -0.3,0.9 -0.5,-0.1 -0.4,-2.3 z"
       id="path131" />
    <path
       d="m 1324.3,838 c 0,-4.7 0.2,-6.6 0.4,-4.2 0.2,2.3 0.2,6.1 0,8.5 -0.2,2.3 -0.4,0.4 -0.4,-4.3 z"
       id="path132" />
    <path
       d="m 1323.4,815.5 c 0,-6.6 0.1,-9.2 0.3,-5.7 0.2,3.4 0.2,8.8 0,12 -0.2,3.1 -0.3,0.3 -0.3,-6.3 z"
       id="path133" />
    <path
       d="m 154.1,814.4 c -0.1,-1.5 3,-10.6 3.5,-10.1 0.2,0.2 -0.5,2.8 -1.5,5.8 -1.1,3 -2,4.9 -2,4.3 z"
       id="path134" />
    <path
       d="m 1324.3,792 c 0,-4.7 0.2,-6.6 0.4,-4.2 0.2,2.3 0.2,6.1 0,8.5 -0.2,2.3 -0.4,0.4 -0.4,-4.3 z"
       id="path135" />
    <path
       d="m 164,788.6 c 0,-1.1 6,-11.6 6.6,-11.6 0.5,0 -1.8,4.7 -4.7,9.4 -1,1.7 -1.9,2.7 -1.9,2.2 z"
       id="path136" />
    <path
       d="m 1325.3,778 c 0,-3 0.2,-4.3 0.4,-2.7 0.2,1.5 0.2,3.9 0,5.5 -0.2,1.5 -0.4,0.2 -0.4,-2.8 z"
       id="path137" />
    <path
       d="m 171,775.5 c 0,-0.5 1,-2.1 2.1,-3.5 1.3,-1.7 1.7,-1.8 1,-0.5 -1.7,3.3 -3.1,5.1 -3.1,4 z"
       id="path138" />
    <path
       d="m 1326.3,768 c 0,-2.5 0.2,-3.5 0.4,-2.2 0.2,1.2 0.2,3.2 0,4.5 -0.2,1.2 -0.4,0.2 -0.4,-2.3 z"
       id="path139" />
    <path
       d="m 180.7,760.3 c 4.6,-7.2 24.3,-30.3 25.8,-30.3 0.4,0 -2.5,3.5 -6.5,7.7 -4,4.2 -10.2,11.7 -13.8,16.5 -6.5,8.7 -8.8,11.3 -5.5,6.1 z"
       id="path140" />
    <path
       d="m 1327.2,760 c 0,-1.9 0.2,-2.7 0.5,-1.7 0.2,0.9 0.2,2.5 0,3.5 -0.3,0.9 -0.5,0.1 -0.5,-1.8 z"
       id="path141" />
    <path
       d="m 215.7,721 c 4,-4.1 7.4,-7.2 7.5,-7 0.2,0.3 -3,3.6 -7.2,7.5 l -7.5,6.9 z"
       id="path142" />
    <path
       d="m 226,711.8 c 1.3,-1.5 6.3,-1.8 40.3,-2.4 43.5,-0.8 43.4,-0.8 47.4,-7.9 1.3,-2.2 2.3,-3.5 2.3,-2.9 0,0.6 -1,2.6 -2.3,4.5 -4.3,6.5 -4.5,6.5 -47.4,7.3 -25.8,0.5 -39.3,1.1 -40.3,1.9 -1.3,1 -1.3,0.9 0,-0.5 z"
       id="path143" />
    <path
       d="m 871.5,711 c 217.1,-0.5 224.2,-0.6 229,-2.4 6.4,-2.5 12.6,-6.9 14.8,-10.6 1,-1.6 2.2,-5.5 2.7,-8.7 l 0.9,-5.8 -0.4,5.8 c -0.6,9.6 -6.1,15.8 -18,20.3 -4.9,1.8 -11.1,1.9 -229,1.9 h -224 z"
       id="path144" />
    <path
       d="m 440.2,710 c -1.8,-0.4 -3.6,-1.1 -4,-1.5 -0.4,-0.5 0.2,-0.4 1.3,0.1 1.1,0.5 37.2,1.1 81.5,1.4 l 79.5,0.5 -77.5,0.2 c -42.6,0 -79,-0.3 -80.8,-0.7 z"
       id="path145" />
    <path
       d="m 625.8,710.3 c 1.2,-0.2 3.2,-0.2 4.5,0 1.2,0.2 0.2,0.4 -2.3,0.4 -2.5,0 -3.5,-0.2 -2.2,-0.4 z"
       id="path146" />
    <path
       d="m 424.1,699.4 c -1.7,-2.6 -3.1,-5.2 -3.1,-5.8 0.1,-0.6 0.8,0.3 1.7,1.9 0.8,1.7 2.5,4 3.6,5.2 1.1,1.3 1.8,2.5 1.5,2.8 -0.3,0.3 -2,-1.5 -3.7,-4.1 z"
       id="path147" />
    <path
       d="m 317.3,685.5 c 0,-3.3 0.2,-4.5 0.4,-2.7 0.2,1.8 0.2,4.5 0,6 -0.2,1.5 -0.4,0 -0.4,-3.3 z"
       id="path148" />
    <path
       d="m 1342.2,688 c 0,-0.8 0.6,-3.1 1.3,-5 0.7,-1.9 1.3,-2.8 1.3,-2 0,0.8 -0.6,3.1 -1.3,5 -0.7,1.9 -1.3,2.8 -1.3,2 z"
       id="path149" />
    <path
       d="m 419.3,682 c 0,-2.5 0.2,-3.5 0.4,-2.2 0.2,1.2 0.2,3.2 0,4.5 -0.2,1.2 -0.4,0.2 -0.4,-2.3 z"
       id="path150" />
    <path
       d="m 1115.7,677.1 c -2.1,-6.7 -5,-11.4 -16.3,-27.3 -4.5,-6.2 -8.9,-12.6 -9.8,-14.3 -1.7,-3 -1.7,-3 0.1,-0.5 3.9,5.3 17.8,24.7 20.5,28.7 3.4,5 8,15.9 7.6,17.9 -0.2,0.7 -1.1,-1.3 -2.1,-4.5 z"
       id="path151" />
    <path
       d="m 1345.6,676 c 0.4,-1.9 1,-4.2 1.5,-5 1.1,-1.8 0.1,3.4 -1.3,6.5 -0.5,1.3 -0.6,0.9 -0.2,-1.5 z"
       id="path152" />
    <path
       d="m 315.5,673.5 c -0.3,-2.6 -0.4,-4.9 -0.2,-5.2 0.3,-0.3 0.9,1.6 1.2,4.2 0.4,2.5 0.5,4.8 0.2,5.1 -0.2,0.3 -0.8,-1.6 -1.2,-4.1 z"
       id="path153" />
    <path
       d="m 420.1,672.9 c 0,-1.3 0.4,-3.3 0.9,-4.4 0.7,-1.4 0.8,-0.8 0.3,2 -0.7,4.6 -1.3,5.9 -1.2,2.4 z"
       id="path154" />
    <path
       d="m 1348.1,668 c 0,-0.8 0.4,-2.4 0.9,-3.5 0.5,-1.3 0.9,-1.4 0.9,-0.5 0,0.8 -0.4,2.4 -0.9,3.5 -0.5,1.3 -0.9,1.4 -0.9,0.5 z"
       id="path155" />
    <path
       d="m 1352,656 c 0,-0.8 0.5,-2.2 1,-3 0.9,-1.3 1,-1.3 1,0 0,0.8 -0.5,2.2 -1,3 -0.9,1.3 -1,1.3 -1,0 z"
       id="path156" />
    <path
       d="m 425.2,655 c 0,-0.8 0.6,-3.1 1.3,-5 0.7,-1.9 1.3,-2.8 1.3,-2 0,0.8 -0.6,3.1 -1.3,5 -0.7,1.9 -1.3,2.8 -1.3,2 z"
       id="path157" />
    <path
       d="m 310.6,652.4 c -0.4,-1.4 -0.5,-2.8 -0.3,-3.1 0.3,-0.2 0.8,0.8 1.1,2.3 0.4,1.4 0.5,2.8 0.3,3.1 -0.3,0.2 -0.8,-0.8 -1.1,-2.3 z"
       id="path158" />
    <path
       d="m 1354.1,650 c 0,-0.8 0.9,-3.3 2,-5.5 1,-2.2 1.6,-2.9 1.3,-1.6 -1,3.7 -3.3,8.8 -3.3,7.1 z"
       id="path159" />
    <path
       d="m 308.1,644.9 c -0.6,-1.8 -1.1,-3.7 -1,-4.3 0,-0.6 0.7,0.7 1.5,2.8 0.8,2.2 1.2,4.1 1,4.3 -0.2,0.2 -0.9,-1 -1.5,-2.8 z"
       id="path160" />
    <path
       d="m 428.1,645 c 0,-0.8 0.4,-2.4 0.9,-3.5 0.5,-1.3 0.9,-1.4 0.9,-0.5 0,0.8 -0.4,2.4 -0.9,3.5 -0.5,1.3 -0.9,1.4 -0.9,0.5 z"
       id="path161" />
    <path
       d="m 1359.4,635.3 c 3.1,-8.3 6,-15.2 6.3,-15 0.5,0.5 -5.7,16.7 -6.4,16.7 -0.3,0 -0.2,-0.8 0.1,-1.7 z"
       id="path162" />
    <path
       d="m 303.2,629.7 c -0.6,-1.8 -1.2,-4 -1.1,-4.8 0,-0.8 0.7,0.4 1.5,2.5 0.8,2.2 1.3,4.4 1.1,4.9 -0.1,0.4 -0.8,-0.7 -1.5,-2.6 z"
       id="path163" />
    <path
       d="m 433.7,626 c 0.6,-3.8 3.1,-11.1 3.2,-9.5 0,0.6 -0.8,3.7 -1.9,7 -1.1,3.3 -1.7,4.4 -1.3,2.5 z"
       id="path164" />
    <path
       d="m 1079.2,619.8 c -0.7,-0.7 -1.2,-1.5 -1.2,-1.9 0,-0.4 -1.8,-3.7 -4.1,-7.4 -2.2,-3.7 -3.8,-6.9 -3.6,-7.2 0.3,-0.2 1.8,2 3.4,4.9 1.6,2.9 4,7 5.2,9.1 2.3,3.8 2.4,4.6 0.3,2.5 z"
       id="path165" />
    <path
       d="m 1369.4,611 c 0.9,-3.2 3.9,-10.1 4.3,-9.7 0.2,0.3 -0.8,2.9 -2.2,5.8 -1.4,3 -2.3,4.7 -2.1,3.9 z"
       id="path166" />
    <path
       d="m 441.2,600 c 0,-0.8 0.6,-3.1 1.3,-5 0.7,-1.9 1.3,-2.8 1.3,-2 0,0.8 -0.6,3.1 -1.3,5 -0.7,1.9 -1.3,2.8 -1.3,2 z"
       id="path167" />
    <path
       d="m 1062.4,588.9 c -3,-6.1 -5.4,-11.3 -5.2,-11.5 0.2,-0.2 2.9,4.8 6.1,11.1 3.1,6.3 5.5,11.5 5.2,11.5 -0.3,0 -3,-5 -6.1,-11.1 z"
       id="path168" />
    <path
       d="m 1374.1,599.5 c 0,-0.5 1.1,-3 2.4,-5.5 1.3,-2.5 2.4,-4 2.4,-3.5 0,0.6 -1.1,3 -2.4,5.5 -1.3,2.5 -2.4,4.1 -2.4,3.5 z"
       id="path169" />
    <path
       d="m 292.6,596.4 c -0.4,-1.4 -0.5,-2.8 -0.3,-3.1 0.3,-0.2 0.8,0.8 1.1,2.3 0.4,1.4 0.5,2.8 0.3,3.1 -0.3,0.2 -0.8,-0.8 -1.1,-2.3 z"
       id="path170" />
    <path
       d="m 444.1,590 c 0,-0.8 0.4,-2.4 0.9,-3.5 0.5,-1.3 0.9,-1.4 0.9,-0.5 0,0.8 -0.4,2.4 -0.9,3.5 -0.5,1.3 -0.9,1.4 -0.9,0.5 z"
       id="path171" />
    <path
       d="m 1382.1,582.5 c 0,-0.5 1.3,-3.5 2.9,-6.5 1.6,-3 2.9,-5 2.9,-4.5 0,0.6 -1.3,3.5 -2.9,6.5 -1.6,3 -2.9,5.1 -2.9,4.5 z"
       id="path172" />
    <path
       d="m 284.6,571.4 c -1,-3.1 -1.6,-5.8 -1.4,-6 0.3,-0.2 1.2,2.1 2.2,5.2 1,3.1 1.6,5.8 1.4,6 -0.3,0.2 -1.2,-2.1 -2.2,-5.2 z"
       id="path173" />
    <path
       d="m 1053.6,569.9 c -1.5,-3.4 -2.5,-6.3 -2.3,-6.5 0.2,-0.2 1.6,2.4 3,5.8 1.5,3.4 2.5,6.3 2.3,6.5 -0.2,0.2 -1.5,-2.4 -3,-5.8 z"
       id="path174" />
    <path
       d="m 1390.2,565.5 c 0.8,-2.4 10.9,-21.5 11.3,-21.5 0.6,0 -8.8,18.7 -10.5,21 -0.6,0.8 -1,1.1 -0.8,0.5 z"
       id="path175" />
    <path
       d="m 453.1,559.5 c 0,-0.5 1,-4.4 2.3,-8.5 1.3,-4.1 2.4,-7 2.5,-6.5 0,0.6 -1,4.4 -2.3,8.5 -1.3,4.1 -2.4,7.1 -2.5,6.5 z"
       id="path176" />
    <path
       d="m 1047.1,553.9 c -0.6,-1.8 -0.9,-3.4 -0.7,-3.6 0.2,-0.2 0.9,1 1.5,2.8 0.6,1.8 0.9,3.4 0.7,3.6 -0.2,0.2 -0.9,-1 -1.5,-2.8 z"
       id="path177" />
    <path
       d="m 274.6,540.4 c -0.4,-1.4 -0.5,-2.8 -0.3,-3.1 0.3,-0.2 0.8,0.8 1.1,2.3 0.4,1.4 0.5,2.8 0.3,3.1 -0.3,0.2 -0.8,-0.8 -1.1,-2.3 z"
       id="path178" />
    <path
       d="m 458.6,540 c 0.4,-1.9 1.1,-4.4 1.5,-5.5 0.6,-1.4 0.7,-0.9 0.3,1.5 -0.4,1.9 -1.1,4.4 -1.5,5.5 -0.6,1.4 -0.7,0.9 -0.3,-1.5 z"
       id="path179" />
    <path
       d="m 1405.1,536.8 c 3.6,-7 14.1,-24.8 14.6,-24.8 0.3,0 -0.4,1.5 -1.4,3.3 -1.1,1.7 -4.5,7.8 -7.7,13.5 -3.2,5.6 -6,10.2 -6.2,10.2 -0.3,0 0.1,-1 0.7,-2.2 z"
       id="path180" />
    <path
       d="m 462.2,528 c 0,-0.8 0.6,-3.1 1.3,-5 0.7,-1.9 1.3,-2.8 1.3,-2 0,0.8 -0.6,3.1 -1.3,5 -0.7,1.9 -1.3,2.8 -1.3,2 z"
       id="path181" />
    <path
       d="m 1036.1,517 c -0.6,-2.8 -1.1,-5.9 -1,-6.8 0.1,-0.9 0.7,1.2 1.5,4.7 0.8,3.5 1.2,6.6 1,6.8 -0.2,0.3 -0.9,-1.9 -1.5,-4.7 z"
       id="path182" />
    <path
       d="m 465.6,516 c 0.4,-1.9 1.1,-4.4 1.5,-5.5 0.6,-1.4 0.7,-0.9 0.3,1.5 -0.4,1.9 -1.1,4.4 -1.5,5.5 -0.6,1.4 -0.7,0.9 -0.3,-1.5 z"
       id="path183" />
    <path
       d="m 264.1,507.9 c -1.2,-3.9 -2.1,-7.2 -1.9,-7.5 0.2,-0.2 1.4,2.8 2.7,6.7 1.2,3.9 2.1,7.2 1.9,7.5 -0.2,0.2 -1.4,-2.8 -2.7,-6.7 z"
       id="path184" />
    <path
       d="m 1033.6,504.9 c -0.3,-1.7 -0.5,-4.3 -0.5,-5.8 0.1,-1.4 0.5,-0.2 1,2.8 1,5.8 0.6,8.3 -0.5,3 z"
       id="path185" />
    <path
       d="m 469.1,504 c 0,-0.8 0.4,-2.4 0.9,-3.5 0.5,-1.3 0.9,-1.4 0.9,-0.5 0,0.8 -0.4,2.4 -0.9,3.5 -0.5,1.3 -0.9,1.4 -0.9,0.5 z"
       id="path186" />
    <path
       d="m 1426.6,499.8 c 2.7,-5 11.7,-18.8 12.1,-18.8 0.3,0 -0.3,1.2 -1.3,2.8 -1,1.5 -2.3,3.6 -2.9,4.7 -2.2,4 -7.8,12.5 -8.2,12.5 -0.2,0 -0.1,-0.6 0.3,-1.2 z"
       id="path187" />
    <path
       d="m 471.1,497 c 0,-0.8 0.4,-2.4 0.9,-3.5 0.5,-1.3 0.9,-1.4 0.9,-0.5 0,0.8 -0.4,2.4 -0.9,3.5 -0.5,1.3 -0.9,1.4 -0.9,0.5 z"
       id="path188" />
    <path
       d="m 1032.3,491.5 c 0,-2.2 0.2,-3 0.4,-1.7 0.2,1.2 0.2,3 0,4 -0.3,0.9 -0.5,-0.1 -0.4,-2.3 z"
       id="path189" />
    <path
       d="m 474.1,487 c 0,-0.8 0.4,-2.4 0.9,-3.5 0.5,-1.3 0.9,-1.4 0.9,-0.5 0,0.8 -0.4,2.4 -0.9,3.5 -0.5,1.3 -0.9,1.4 -0.9,0.5 z"
       id="path190" />
    <path
       d="m 1031.4,472 c 0,-7.4 0.1,-10.5 0.3,-6.7 0.2,3.7 0.2,9.7 0,13.5 -0.2,3.7 -0.3,0.6 -0.3,-6.8 z"
       id="path191" />
    <path
       d="m 476.1,480 c 0,-0.8 0.4,-2.4 0.9,-3.5 0.5,-1.3 0.9,-1.4 0.9,-0.5 0,0.8 -0.4,2.4 -0.9,3.5 -0.5,1.3 -0.9,1.4 -0.9,0.5 z"
       id="path192" />
    <path
       d="m 254.1,476.9 c -0.6,-1.8 -1.1,-3.7 -1,-4.3 0,-0.6 0.7,0.7 1.5,2.8 0.8,2.2 1.2,4.1 1,4.3 -0.2,0.2 -0.9,-1 -1.5,-2.8 z"
       id="path193" />
    <path
       d="m 1447,467.8 c 3.9,-6 7.4,-10.8 7.7,-10.8 0.6,0 0,0.9 -6.5,10.5 -3,4.4 -6.2,8.7 -7,9.5 -0.8,0.8 1.8,-3.3 5.8,-9.2 z"
       id="path194" />
    <path
       d="m 483.1,456 c 0,-0.8 0.4,-2.4 0.9,-3.5 0.5,-1.3 0.9,-1.4 0.9,-0.5 0,0.8 -0.4,2.4 -0.9,3.5 -0.5,1.3 -0.9,1.4 -0.9,0.5 z"
       id="path195" />
    <path
       d="m 1032.1,452.9 c 0,-1.9 0.4,-5.2 0.9,-7.4 0.7,-3.1 0.7,-2.4 0.3,3 -0.6,7.4 -1.3,10.1 -1.2,4.4 z"
       id="path196" />
    <path
       d="m 1459.6,449.3 c 4.7,-6.8 8.6,-11.6 6.8,-8.2 -1.6,2.8 -10.6,14.9 -11.1,14.9 -0.3,0 1.7,-3 4.3,-6.7 z"
       id="path197" />
    <path
       d="m 245.6,450.4 c -0.9,-2.6 -1.6,-5.2 -1.5,-5.8 0,-0.6 0.9,1.3 2,4.3 1,3 1.7,5.6 1.5,5.8 -0.2,0.2 -1.1,-1.7 -2,-4.3 z"
       id="path198" />
    <path
       d="m 487.1,442 c 0,-0.8 0.4,-2.4 0.9,-3.5 0.5,-1.3 0.9,-1.4 0.9,-0.5 0,0.8 -0.4,2.4 -0.9,3.5 -0.5,1.3 -0.9,1.4 -0.9,0.5 z"
       id="path199" />
    <path
       d="m 241.1,436.4 c -0.6,-2.1 -0.9,-4 -0.6,-4.2 0.2,-0.2 0.8,1.3 1.4,3.4 0.6,2.1 0.9,4 0.6,4.2 -0.2,0.2 -0.8,-1.3 -1.4,-3.4 z"
       id="path200" />
    <path
       d="m 1035.2,434.5 c 0,-1.1 0.3,-2.9 0.8,-4 1.1,-2.5 1.1,0.1 0,3.5 -0.6,2 -0.8,2.1 -0.8,0.5 z"
       id="path201" />
    <path
       d="m 1477.6,424.8 c 3.1,-4.3 5.8,-7.8 6.1,-7.8 0.6,0 -5.4,8.2 -8.9,12.2 -1.6,1.8 -0.4,-0.2 2.8,-4.4 z"
       id="path202" />
    <path
       d="m 236.1,420.9 c -1.2,-3.5 -2.1,-6.8 -2,-7.3 0,-0.6 1.1,2 2.5,5.8 1.3,3.8 2.2,7.1 2,7.3 -0.2,0.2 -1.3,-2.4 -2.5,-5.8 z"
       id="path203" />
    <path
       d="m 492.1,425 c 0,-0.8 0.4,-2.4 0.9,-3.5 0.5,-1.3 0.9,-1.4 0.9,-0.5 0,0.8 -0.4,2.4 -0.9,3.5 -0.5,1.3 -0.9,1.4 -0.9,0.5 z"
       id="path204" />
    <path
       d="m 494.2,418 c 0,-0.8 0.6,-3.1 1.3,-5 0.7,-1.9 1.3,-2.8 1.3,-2 0,0.8 -0.6,3.1 -1.3,5 -0.7,1.9 -1.3,2.8 -1.3,2 z"
       id="path205" />
    <path
       d="m 1043.1,410.5 c 0,-0.5 0.6,-2.1 1.4,-3.5 0.8,-1.4 1.4,-2 1.4,-1.5 0,0.6 -0.6,2.1 -1.4,3.5 -0.8,1.4 -1.4,2.1 -1.4,1.5 z"
       id="path206" />
    <path
       d="m 1495,402.3 c 2.3,-2.9 4.6,-5.5 5.1,-5.9 0.5,-0.3 0.9,-17.2 0.9,-39.4 v -39 l -38.7,-0.3 -38.8,-0.2 h 39 39 l 0.3,39 0.2,39 -5.6,6 c -5.6,6 -5.6,6 -1.4,0.8 z"
       id="path207" />
    <path
       d="m 230.6,403.4 c -0.4,-1.4 -0.5,-2.8 -0.3,-3.1 0.3,-0.2 0.8,0.8 1.1,2.3 0.4,1.4 0.5,2.8 0.3,3.1 -0.3,0.2 -0.8,-0.8 -1.1,-2.3 z"
       id="path208" />
    <path
       d="m 1050.4,395.5 c 1.5,-2.8 3.8,-6.4 5.2,-8 1.3,-1.7 0.4,0.3 -2,4.4 -5.3,8.7 -7,10.6 -3.2,3.6 z"
       id="path209" />
    <path
       d="m 226.6,391.4 c -0.9,-2.6 -1.6,-5.2 -1.5,-5.8 0,-0.6 0.9,1.3 2,4.3 1,3 1.7,5.6 1.5,5.8 -0.2,0.2 -1.1,-1.7 -2,-4.3 z"
       id="path210" />
    <path
       d="m 501.1,394 c 0,-0.8 0.4,-2.4 0.9,-3.5 0.5,-1.3 0.9,-1.4 0.9,-0.5 0,0.8 -0.4,2.4 -0.9,3.5 -0.5,1.3 -0.9,1.4 -0.9,0.5 z"
       id="path211" />
    <path
       d="m 1060,381 c 1.1,-1.6 2.6,-3.3 3.2,-3.6 0.7,-0.4 -0.1,0.9 -1.6,2.9 -3.4,4.4 -4.6,5 -1.6,0.7 z"
       id="path212" />
    <path
       d="m 221.7,375.8 c -0.9,-2.9 -1.5,-5.4 -1.3,-5.6 0.2,-0.2 1.2,2 2.1,4.8 0.9,2.8 1.5,5.3 1.3,5.5 -0.2,0.3 -1.2,-1.9 -2.1,-4.7 z"
       id="path213" />
    <path
       d="m 506.1,377 c 0,-0.8 0.4,-2.4 0.9,-3.5 0.5,-1.3 0.9,-1.4 0.9,-0.5 0,0.8 -0.4,2.4 -0.9,3.5 -0.5,1.3 -0.9,1.4 -0.9,0.5 z"
       id="path214" />
    <path
       d="m 1068.8,370.3 c 2.7,-3.2 6.3,-6.9 7.8,-8.3 1.5,-1.4 -0.5,1.2 -4.6,5.8 -4.1,4.5 -7.6,8.2 -7.8,8.2 -0.2,0 1.9,-2.6 4.6,-5.7 z"
       id="path215" />
    <path
       d="m 218.1,364.9 c -0.6,-1.8 -1.1,-3.7 -1,-4.3 0,-0.6 0.7,0.7 1.5,2.8 0.8,2.2 1.2,4.1 1,4.3 -0.2,0.2 -0.9,-1 -1.5,-2.8 z"
       id="path216" />
    <path
       d="m 1082,356.9 c 2.2,-2.1 9.5,-8.1 14.3,-11.8 0.9,-0.7 1.7,-1.1 1.7,-0.9 0,0.6 -14.8,13 -17,14.2 -0.8,0.4 -0.4,-0.2 1,-1.5 z"
       id="path217" />
    <path
       d="m 213.5,350.5 c -0.9,-3.1 -1.5,-5.8 -1.2,-6.1 0.2,-0.2 1.1,2.1 2,5.3 0.9,3.1 1.5,5.9 1.2,6.1 -0.2,0.2 -1.1,-2.1 -2,-5.3 z"
       id="path218" />
    <path
       d="m 515.1,346 c 0,-0.8 0.4,-2.4 0.9,-3.5 0.5,-1.3 0.9,-1.4 0.9,-0.5 0,0.8 -0.4,2.4 -0.9,3.5 -0.5,1.3 -0.9,1.4 -0.9,0.5 z"
       id="path219" />
    <path
       d="m 1099,343.6 c 0,-0.7 13.2,-9.7 13.6,-9.3 0.2,0.2 -2.7,2.5 -6.6,5.1 -3.8,2.5 -7,4.4 -7,4.2 z"
       id="path220" />
    <path
       d="m 1115.9,332.3 c 3.3,-2.5 21.4,-12.2 22.6,-12.3 0.9,0 -3.6,2.6 -19.5,11.1 -3,1.6 -4.4,2.1 -3.1,1.2 z"
       id="path221" />
    <path
       d="m 205.1,324.4 c -1.2,-3.7 -1.9,-6.9 -1.7,-7.1 0.2,-0.2 1.3,2.6 2.4,6.4 1.2,3.7 1.9,6.9 1.7,7.1 -0.2,0.2 -1.3,-2.6 -2.4,-6.4 z"
       id="path222" />
    <path
       d="m 520.4,327.3 c 0.2,-1 1,-3.7 1.7,-6.1 0.7,-2.3 1.4,-4 1.6,-3.8 0.5,0.5 -2.7,11.6 -3.3,11.6 -0.3,0 -0.3,-0.8 0,-1.7 z"
       id="path223" />
    <path
       d="m 1140,319.5 c 0,-0.8 7.3,-3.6 7.8,-3 0.3,0.3 0.3,0.5 0,0.5 -0.3,0 -2.2,0.7 -4.2,1.5 -2,0.8 -3.6,1.3 -3.6,1 z"
       id="path224" />
    <path
       d="m 1261.8,316.3 c 21,-0.2 55.4,-0.2 76.5,0 21,0.1 3.8,0.2 -38.3,0.2 -42.1,0 -59.3,-0.1 -38.2,-0.2 z"
       id="path225" />
    <path
       d="m 203.3,312.8 c 1.9,-4.5 6.6,-13.4 6.7,-12.7 0,0.9 -7.1,15.9 -7.6,15.9 -0.2,0 0.2,-1.5 0.9,-3.2 z"
       id="path226" />
    <path
       d="m 526.1,307.9 c 0,-0.8 -1.4,-3.6 -3.1,-6.2 -3.8,-6 -3.1,-6.1 1,-0.2 1.7,2.5 2.9,5.3 2.7,6.3 -0.4,1.3 -0.5,1.4 -0.6,0.1 z"
       id="path227" />
    <path
       d="m 518.4,294.8 c -0.4,-0.7 -2.3,-3.7 -4.1,-6.5 -1.9,-2.9 -3.1,-5.3 -2.9,-5.3 0.3,0 2,2.4 3.9,5.3 4.7,7.4 4.9,7.7 4.3,7.7 -0.3,0 -0.8,-0.6 -1.2,-1.2 z"
       id="path228" />
    <path
       d="m 212.1,294.5 c 0,-0.5 0.8,-2.6 1.9,-4.5 1.1,-1.9 1.9,-3 1.9,-2.5 0,0.6 -0.8,2.6 -1.9,4.5 -1.1,1.9 -1.9,3.1 -1.9,2.5 z"
       id="path229" />
    <path
       d="m 509.4,280.8 c -0.4,-0.7 -1.4,-2.4 -2.2,-3.8 -1.4,-2.4 -1.3,-2.4 0.3,-0.5 2,2.4 3.7,5.5 3.1,5.5 -0.3,0 -0.8,-0.6 -1.2,-1.2 z"
       id="path230" />
    <path
       d="m 219.1,279.5 c 0,-0.5 1.3,-3.5 2.9,-6.5 1.6,-3 2.9,-5 2.9,-4.5 0,0.6 -1.3,3.5 -2.9,6.5 -1.6,3 -2.9,5.1 -2.9,4.5 z"
       id="path231" />
    <path
       d="M 493.8,256.5 C 483.9,241 482.7,239 483.3,239 c 0.3,0 4,5.5 8.3,12.3 4.2,6.7 8.4,13.2 9.2,14.5 0.8,1.2 1.2,2.2 0.9,2.2 -0.3,0 -3.8,-5.2 -7.9,-11.5 z"
       id="path232" />
    <path
       d="m 227,262.8 c 0,-1.2 5.2,-11.9 5.7,-11.4 0.2,0.2 -0.9,3 -2.6,6.2 -1.6,3.3 -3,5.6 -3.1,5.2 z"
       id="path233" />
    <path
       d="m 234,247.6 c 0,-1.1 5,-10.6 5.5,-10.6 0.3,0 -0.7,2.4 -2.1,5.3 -2.8,5.5 -3.4,6.5 -3.4,5.3 z"
       id="path234" />
    <path
       d="m 263.2,237.3 c 5.9,-0.2 15.8,-0.2 22,0 6.2,0.1 1.4,0.3 -10.7,0.3 -12.1,0 -17.2,-0.2 -11.3,-0.3 z"
       id="path235" />
    <path
       d="m 318.3,236.3 c 6.5,-0.2 16.8,-0.2 23,0 6.2,0.1 0.9,0.3 -11.8,0.3 -12.6,0 -17.7,-0.2 -11.2,-0.3 z"
       id="path236" />
    <path
       d="m 374.8,235.3 c 6.1,-0.2 16.3,-0.2 22.5,0 6.1,0.1 1.1,0.3 -11.3,0.3 -12.4,0 -17.4,-0.2 -11.2,-0.3 z"
       id="path237" />
    <path
       d="m 427.3,234.3 c 5.9,-0.2 15.5,-0.2 21.5,0 5.9,0.1 1,0.3 -10.8,0.3 -11.8,0 -16.7,-0.2 -10.7,-0.3 z"
       id="path238" />
    <path
       d="m 472.3,233.3 c 1.5,-0.2 3.7,-0.2 5,0 1.2,0.2 0,0.4 -2.8,0.4 -2.7,0 -3.8,-0.2 -2.2,-0.4 z"
       id="path239" />
  </g>
</svg>
