<?xml version="1.0" encoding="UTF-8" standalone="no"?>
<svg
   version="1.0"
   viewBox="0 0 696 527"
   preserveAspectRatio="xMidYMid meet"
   id="svg66"
   sodipodi:docname="treasure_chest.svg"
   inkscape:version="1.4.2 (ebf0e940d0, 2025-05-08)"
   xmlns:inkscape="http://www.inkscape.org/namespaces/inkscape"
   xmlns:sodipodi="http://sodipodi.sourceforge.net/DTD/sodipodi-0.dtd"
   xmlns="http://www.w3.org/2000/svg"
   xmlns:svg="http://www.w3.org/2000/svg">
  <defs
     id="defs66" />
  <sodipodi:namedview
     id="namedview66"
     pagecolor="#ffffff"
     bordercolor="#000000"
     borderopacity="0.25"
     inkscape:showpageshadow="2"
     inkscape:pageopacity="0.0"
     inkscape:pagecheckerboard="0"
     inkscape:deskcolor="#d1d1d1"
     inkscape:zoom="2.2011385"
     inkscape:cx="348.00173"
     inkscape:cy="263.5"
     inkscape:window-width="2560"
     inkscape:window-height="1371"
     inkscape:window-x="0"
     inkscape:window-y="0"
     inkscape:window-maximized="1"
     inkscape:current-layer="svg66" />
  <g
     fill="#000101"
     id="g66"
     style="display:inline;fill:#999999;opacity:0.4">
    <path
       d="m 335.07,516.47 c -3.06,-0.76 -14.17,-3.64 -24.69,-6.41 -10.52,-2.76 -26.22,-6.94 -34.98,-9.23 -15.23,-4 -51.26,-13.34 -77.89,-20.22 -11.46,-2.94 -55.08,-14.23 -83.18,-21.51 -6.11,-1.59 -16.34,-4.23 -22.63,-5.82 -40.09,-10.23 -63.78,-16.81 -69.13,-19.16 -5.17,-2.29 -5,-1.06 -5.64,-35.56 -0.71,-38.44 -0.24,-138.96 0.65,-145.78 1.47,-10.82 2.59,-12.34 9.76,-13.46 4.35,-0.71 30.33,-5.94 77.59,-15.58 10.35,-2.12 28.98,-6.41 41.44,-9.46 12.46,-3.06 30.04,-7.35 39.09,-9.46 23.04,-5.35 36.21,-8.94 37.45,-10.05 1.41,-1.23 1.35,-1.88 -0.41,-6.05 -1.94,-4.53 -1.88,-6.35 0.35,-10.76 4.76,-9.41 27.63,-48.14 52.85,-89.47 5.88,-9.7 13.34,-21.93 16.52,-27.16 3.17,-5.17 10.58,-17.22 16.46,-26.75 5.88,-9.46 11.82,-19.16 13.17,-21.46 1.35,-2.35 2.82,-4.7 3.29,-5.23 0.76,-0.94 3.23,-0.94 30.8,-0.65 16.46,0.18 46.15,0.88 65.84,1.53 36.09,1.23 83.88,2.47 135.5,3.59 51.49,1.12 93.94,2.53 98.82,3.29 1.82,0.24 3,1.29 7.88,6.76 9.41,10.46 21.57,27.33 25.34,35.04 l 1.59,3.23 -1,3.23 c -3.82,12.05 -24.16,46.38 -74.48,125.39 -17.87,28.04 -23.28,36.92 -29.69,48.67 -2.76,5.06 -5.58,9.88 -6.29,10.64 -2.29,2.47 -5.53,3.53 -10.99,3.59 -6.53,0.06 -8.99,0.88 -9.46,3.23 -0.88,4.11 -0.18,46.79 1.82,106.1 0.76,23.51 0.76,49.67 -0.06,52.61 -1.41,5.17 -7.76,8.82 -31.39,18.22 -7.11,2.82 -13.99,5.64 -15.28,6.23 -1.29,0.59 -5.94,2.59 -10.29,4.53 -4.35,1.94 -10.05,4.59 -12.64,5.94 -2.59,1.29 -5,2.41 -5.35,2.41 -0.29,0 -1.82,0.76 -3.35,1.76 -1.53,0.94 -3.47,1.94 -4.41,2.12 -1.23,0.35 -53.96,26.22 -57.73,28.39 -0.47,0.29 -9.88,4.88 -20.87,10.23 -21.4,10.46 -34.45,16.4 -46.03,21.04 -8.35,3.35 -9.93,3.47 -18.34,1.47 z m 2.59,-8.7 c 0.59,-1 0.94,-4.29 1.18,-12.23 0.65,-20.05 1.06,-129.62 0.65,-155.78 l -0.47,-25.92 -2.35,-1.18 c -2.76,-1.41 -11.64,-3.76 -16.28,-4.29 -4.11,-0.47 -5.94,0.41 -6.94,3.41 -0.47,1.41 -0.82,7.7 -1.06,17.28 -0.35,17.34 -0.82,20.75 -3,22.46 -3.47,2.7 -7.58,2.35 -38.15,-3.23 -11.58,-2.17 -26.92,-4.94 -34.04,-6.23 -14.05,-2.59 -17.11,-3.59 -18.99,-6.29 -2.7,-3.76 -3.17,-7.47 -3.47,-26.45 -0.29,-17.52 -0.35,-17.87 -1.59,-18.34 -5.7,-2.41 -44.91,-8.82 -53.85,-8.82 -5.82,0 -6.23,1.12 -6.11,17.05 0.12,10.82 0.65,14.46 2.17,13.99 0.35,-0.18 2.65,-2.76 5,-5.82 11.23,-14.52 15.87,-18.16 23.1,-18.16 6.64,0 10.58,2.35 11.99,7.23 0.59,2.06 2.06,4.47 4.53,7.47 1.94,2.41 4.41,6.11 5.41,8.23 1.7,3.64 1.82,4.17 1.76,10.58 -0.06,4.82 -0.71,10.58 -2.23,19.93 -1.82,10.93 -2.06,13.34 -1.41,13.99 1.94,1.88 45.97,11.46 75.42,16.4 24.51,4.11 27.28,4.94 31.33,9.29 1.7,1.82 2.53,3.41 3,5.58 0.76,3.59 0.88,60.96 0.12,73.89 -0.53,9.35 -1.06,10.82 -3.59,10.82 -7.41,0 -57.2,-12.17 -186.34,-45.62 -11.82,-3.06 -32.74,-8.35 -46.5,-11.82 l -25.04,-6.23 -0.41,-4.41 c -0.65,-7.82 -0.41,-61.9 0.29,-64.49 0.88,-3.06 3.82,-5.88 7.05,-6.76 3.59,-1 8.64,-0.47 18.75,2 8.17,2 38.68,7 47.38,7.76 l 4.17,0.41 2.82,-6.7 c 3.7,-8.82 4.41,-10.93 4.41,-12.93 0,-2.35 2.41,-1.82 -42.15,-8.99 -12.99,-2.12 -25.39,-4.23 -27.57,-4.76 -7.94,-1.82 -11.52,-4.23 -14.17,-9.35 -1.41,-2.82 -1.47,-3.17 -1.65,-18.63 -0.12,-9.82 -0.47,-16.17 -0.82,-16.93 -0.47,-0.82 -2.41,-1.76 -6.11,-2.94 -12.05,-3.82 -14.75,-3.7 -16.64,0.71 -0.94,2.12 -1.06,4.94 -1.29,20.99 -0.47,37.92 2.12,142.32 3.59,143.79 0.18,0.18 13.34,3.59 29.33,7.58 27.22,6.76 43.26,10.93 73.36,19.1 6.94,1.82 16.34,4.35 20.87,5.58 4.53,1.18 13.4,3.59 19.69,5.29 6.29,1.76 18.46,5.06 27.04,7.35 27.28,7.35 63.25,17.22 95.52,26.16 41.44,11.52 40.74,11.4 42.27,8.99 z m 22.57,-5.82 c 13.23,-5.64 40.38,-17.81 59.78,-26.69 5.17,-2.35 15.75,-7.23 23.51,-10.76 47.26,-21.63 105.87,-49.97 106.52,-51.61 0.41,-1.06 -0.65,-91.59 -1.65,-138.96 -0.41,-20.63 -0.82,-30.51 -1.29,-31.1 -1,-1.18 -5.76,-0.53 -10.99,1.53 -5.58,2.12 -6.76,3.76 -7.41,10.05 -0.24,2.47 -0.12,31.27 0.29,63.9 0.35,32.68 0.65,63.72 0.65,68.95 v 9.64 l -1.7,1.59 c -3.35,3.17 -66.95,32.63 -112.63,52.26 -23.34,9.99 -32.63,13.64 -35.04,13.64 -1.18,0 -2,-0.47 -2.7,-1.59 -1.18,-1.76 -1.23,-2.29 -2.82,-56.9 -1.53,-54.2 -3.29,-96.93 -4.11,-100.64 -0.41,-1.82 -3.06,-1.76 -10.11,0.12 -6.58,1.76 -10.58,3.59 -11.7,5.35 -1.47,2.23 -2,11.35 -2.59,46.67 -0.76,49.38 0.47,125.91 2.35,142.73 0.53,4.59 0.88,6 1.53,6 0.18,0 4.7,-1.88 10.11,-4.17 z m -56.2,-39.44 c 1.06,-1.94 1.12,-71.13 0.06,-73.54 -0.94,-2.06 -1.65,-2.29 -15.4,-5.41 -16.28,-3.64 -85.65,-17.34 -87.82,-17.34 -0.24,0 -3.12,2.17 -6.41,4.88 -13.46,10.88 -16.05,12.29 -25.1,13.34 -12.81,1.59 -25.81,-2.88 -34.86,-11.87 -3.59,-3.64 -5.64,-7.23 -7.58,-13.11 -1.06,-3.06 -2.06,-5.06 -3,-5.76 -0.88,-0.65 -4.53,-1.65 -9.64,-2.53 -4.47,-0.82 -16.11,-3.06 -25.81,-4.94 -25.69,-5.06 -26.16,-5.11 -27.69,-1.41 -1.41,3.35 -2.23,24.16 -1.53,38.5 1.06,20.69 2.12,22.16 18.63,25.75 4.53,1 10.46,2.47 13.23,3.29 2.76,0.82 11.87,3.23 20.28,5.29 159.95,39.74 164.42,40.85 179.88,44.09 11.35,2.41 11.82,2.41 12.76,0.76 z m 96.7,-11.52 c 4.11,-1.94 13.64,-6.41 21.04,-9.99 7.47,-3.59 17.52,-7.99 22.34,-9.82 12.17,-4.59 24.57,-9.52 29.1,-11.64 2.12,-0.94 9.05,-4.06 15.46,-6.94 14.34,-6.41 19.28,-9.05 28.33,-15.34 l 7.05,-4.94 0.18,-14.05 c 0.24,-15.93 -0.71,-50.03 -1.94,-74.66 -1.7,-32.98 -2.82,-45.62 -4.17,-47.73 -1.06,-1.65 -3.47,-1.76 -8.7,-0.41 -15.87,4.06 -111.81,37.09 -125.33,43.21 l -3.76,1.65 v 13.4 c 0,7.35 0.29,25.57 0.59,40.44 1.23,61.08 3.7,93.88 7.41,99.58 1.29,1.94 3.17,1.53 12.4,-2.76 z m -228.79,-73.3 c 5.11,-1.35 8.7,-3.59 13.81,-8.52 10.99,-10.7 15.46,-22.69 10.05,-26.86 -1.41,-1.12 -4.59,-0.94 -5.88,0.35 -0.59,0.59 -1.82,3.29 -2.7,6 -2.53,7.58 -4.11,10.35 -8.99,15.17 -8.52,8.46 -12.64,10.4 -7,3.35 4.11,-5.17 6.05,-9.05 6.94,-14.11 0.82,-4.88 0.41,-10.99 -0.88,-12.99 -0.53,-0.76 -2.47,-2.47 -4.29,-3.76 -1.88,-1.29 -5.94,-4.47 -8.99,-7.05 -5.88,-5 -9.41,-7.11 -11.82,-7.11 -0.82,0 -2.82,0.71 -4.53,1.53 -7.64,3.82 -13.05,14.52 -13.05,25.98 0,5.58 1.06,10.4 3.53,15.87 3.17,6.94 6.94,10.17 14.17,12.11 4.35,1.18 15.23,1.18 19.63,0.06 z M 303.5,337.6 c 0.53,-10.17 0.47,-29.1 -0.06,-29.98 -0.53,-0.88 -2.7,-1.35 -20.1,-4.53 -27.57,-5.06 -50.32,-8.58 -55.32,-8.58 -1.35,0 -2.47,0.41 -3.17,1.18 -1,1.06 -1.06,2.17 -0.71,13.99 0.41,13.93 1.06,19.1 2.53,20.75 2.41,2.65 13.93,5.64 38.44,9.93 7.58,1.35 15.28,2.76 17.05,3.23 4.59,1.18 5.94,1.29 13.87,1.41 l 7.11,0.06 0.35,-7.47 z m -109.81,-4.41 c 4.82,-5.64 6.58,-12.87 4.23,-17.34 -1.76,-3.35 -9.64,-9.93 -11.23,-9.41 -0.35,0.12 -0.71,1.12 -0.82,2.23 -0.12,1.59 0.29,2.65 2,4.82 2.7,3.41 3.12,6.76 2.06,15.4 -0.41,3.06 -0.59,5.82 -0.35,6.17 0.71,1.18 2,0.59 4.11,-1.88 z m -9.76,-3.76 c 0.47,-0.41 0.65,-1 0.41,-1.23 -0.59,-0.59 -9.46,-1 -10.76,-0.53 -0.88,0.35 -0.88,0.47 0,1.35 1.88,1.88 8.52,2.17 10.35,0.41 z m -3.29,-9.7 c 0.47,-0.71 0.29,-1.41 -0.71,-2.76 -1.76,-2.53 -3,-6.29 -3,-9.29 0,-3.41 1.59,-5.11 6.7,-7.11 4.47,-1.82 5.76,-3.06 4.7,-4.7 -0.82,-1.29 -6,-1.7 -9.23,-0.76 -3,0.88 -6.23,3.88 -7.64,7 -1.29,3 -1.59,9.29 -0.47,12.52 1.06,3.12 4.94,6.47 7.23,6.23 1,-0.12 2.12,-0.59 2.41,-1.12 z m -43.44,-8.52 c 4.94,-1.94 6.58,-3.76 7.35,-8.11 0.71,-3.94 0.88,-19.1 0.18,-20.1 -1.06,-1.59 -6.58,-3.23 -22.57,-6.7 -17.75,-3.88 -53.67,-9.99 -58.55,-9.99 -3.23,0 -3.35,0.59 -3.29,15.81 0,16.22 0.41,18.52 3.47,19.81 2.94,1.23 14.52,3.35 37.92,7 11.46,1.82 21.16,3.41 21.46,3.53 0.35,0.12 2.76,0.24 5.41,0.24 3.94,0.06 5.58,-0.24 8.64,-1.47 z m 203.86,-7.29 c 4.47,-0.65 8.58,-1.94 27.8,-8.82 15.17,-5.41 26.92,-9.41 73.36,-25.04 30.92,-10.4 78.01,-26.75 95.35,-33.1 9.35,-3.41 11.46,-4.94 10.52,-7.52 -0.82,-2.35 -4,-3.94 -7.58,-3.94 -4,0.06 -8.11,1.53 -27.04,9.35 -28.51,11.82 -43.85,17.34 -102.58,36.97 -61.49,20.52 -66.19,21.81 -80.24,21.81 -8.64,-0.06 -10.4,-0.24 -21.75,-2.47 -6.76,-1.35 -15.52,-3 -19.4,-3.64 -15.7,-2.65 -113.39,-17.4 -157.83,-23.87 -35.62,-5.17 -65.07,-10.4 -68.25,-12.11 -0.65,-0.29 -1.12,-1.06 -1.12,-1.7 0,-1.65 4.53,-2.88 26.57,-7.41 18.52,-3.76 24.4,-5.11 73.66,-16.69 51.32,-12.05 55.37,-13.11 68.48,-17.75 12.7,-4.47 17.28,-7.05 16.93,-9.46 -0.18,-1.12 -0.65,-1.35 -3.12,-1.47 -3.76,-0.29 -6.58,0.35 -22.34,4.88 -17.4,5.06 -22.69,6.35 -36.15,8.82 -12.93,2.35 -34.74,7.29 -49.67,11.17 -5.47,1.41 -17.28,4.29 -26.16,6.41 -48.09,11.4 -75.71,18.22 -79.53,19.69 -8.29,3.17 14.81,7.88 125.97,25.63 13.4,2.12 33.8,5.47 45.26,7.41 11.46,1.94 28.69,4.82 38.21,6.47 9.52,1.59 20.28,3.41 23.81,4.06 22.75,4 43.97,7.94 52.61,9.7 8.99,1.88 15.81,3 19.1,3.17 0.65,0 2.94,-0.24 5.11,-0.53 z m 0.59,-18.52 c 8.99,-2.29 12.99,-4 14.11,-5.94 0.53,-0.94 2.76,-10.58 4.94,-21.4 3.59,-18.05 4.41,-21.34 5.23,-20.52 0.12,0.18 0.53,7.88 0.88,17.16 0.35,9.29 0.76,17.34 1,17.87 0.65,2 2.7,3.7 4.35,3.7 0.88,0 7,-1.88 13.52,-4.17 6.58,-2.23 17.05,-5.58 23.28,-7.35 6.23,-1.7 12.81,-3.82 14.7,-4.64 4.53,-2 7.23,-4.64 7.23,-7.05 0,-3.29 -3.17,-17.11 -5.17,-22.46 -0.12,-0.41 0.12,-0.76 0.65,-0.76 1.53,0 7.99,8.94 11.35,15.75 2.12,4.35 3.7,6.82 4.47,7.11 1.7,0.59 5.58,-0.18 16.34,-3.29 12.17,-3.47 19.93,-6.58 21.4,-8.58 1.12,-1.47 1.12,-1.88 0.41,-5.29 -1,-4.94 -4.64,-13.58 -8.11,-19.34 -3.47,-5.82 -10.93,-13.58 -16.34,-17.11 -2.29,-1.41 -7.82,-4.47 -12.34,-6.76 -4.53,-2.23 -11.05,-5.82 -14.52,-7.94 -8.64,-5.29 -9.58,-5.58 -12.64,-4 -3.17,1.59 -6.41,4.94 -7.35,7.64 -1.18,3.17 -0.76,11.58 0.94,21.81 1.7,9.99 2.65,25.51 1.59,27.04 -1.29,1.88 -2.53,-1.47 -5.94,-16.05 -3.47,-14.93 -6.53,-20.4 -13.29,-23.69 -4.59,-2.23 -8.23,-2.17 -13.4,0.24 -2.17,1.06 -4.35,1.88 -4.76,1.88 -0.35,0 -1.53,-0.76 -2.53,-1.76 -2.35,-2.23 -3.94,-2.23 -8.64,0.06 -3.47,1.65 -3.82,1.7 -5.7,0.94 -1.18,-0.53 -3.59,-2.7 -5.88,-5.47 -2.12,-2.59 -5.17,-6.05 -6.7,-7.82 l -2.88,-3.12 -5.94,7.52 c -3.29,4.17 -10.4,12.76 -15.81,19.05 -25.57,29.92 -32.98,42.79 -34.98,61.02 -0.65,5.88 -0.35,7.99 1.23,9.35 1.53,1.23 7.88,3 14.4,4 6,0.94 6.64,0.94 8.35,0.06 2.53,-1.29 3.12,-2.7 5.94,-13.76 2.53,-10.05 3.82,-13.4 5.47,-14.46 2,-1.23 2.06,-0.41 1.35,13.76 -0.47,9.35 -0.41,9.82 0.88,12.81 2,4.59 3.35,5.41 8.82,5.41 2.94,0 6.53,-0.53 10.11,-1.47 z m -69.84,-9.99 c 1.53,-4.11 0.65,-12.7 -1.7,-16.28 -1.82,-2.76 -5.58,-5.58 -8.64,-6.35 -1.23,-0.35 -2.23,-0.88 -2.23,-1.12 0,-0.29 2,-4.59 4.41,-9.52 2.41,-4.94 4.59,-9.88 4.76,-10.93 0.82,-4.47 -1.06,-6.76 -8.58,-10.4 -4.47,-2.17 -5.47,-2.41 -9.41,-2.41 -3.88,0 -4.76,0.24 -7.29,1.76 -6.7,4.11 -5.7,3.88 -15.34,3.47 -8.82,-0.35 -8.82,-0.35 -13.64,1.47 -2.65,0.94 -8.46,2.47 -12.93,3.29 -9.82,1.94 -13.46,3.23 -15.99,5.82 l -1.88,1.94 6.05,6.88 c 3.35,3.82 6.17,7.17 6.23,7.47 0.12,0.29 -2.53,3.17 -5.88,6.35 -4.06,3.88 -5.88,6 -5.47,6.41 1.18,1.23 25.57,5.47 57.61,10.05 20.81,3 19.16,2.82 24.75,2.94 3.76,0.06 4.88,-0.12 5.17,-0.82 z m 6.23,-27.33 c 0.59,-0.29 4.06,-5 7.7,-10.4 7.41,-11.05 11.87,-16.64 18.46,-23.1 8.46,-8.35 8.23,-11.11 -1.18,-13.52 -11.82,-3 -35.21,-4.35 -39.8,-2.23 -1.82,0.82 -2.23,1.29 -2.23,2.65 0,2.59 1.7,4.76 8.76,11.4 10.99,10.23 12.11,13.87 6.82,22.63 -1.76,2.94 -2.06,3.88 -2.06,7.17 0,5.29 0.94,6.76 3.53,5.41 z m 297.68,-11.82 c 1.88,-2.17 6.64,-10.17 9.52,-15.93 l 2.06,-4.11 -7.82,-7.94 c -4.29,-4.41 -8.99,-8.7 -10.4,-9.64 -5.11,-3.29 -9.46,-1.88 -14.52,4.82 -7.58,9.88 -6.82,14.52 4,25.39 9.46,9.41 13.87,11.35 17.16,7.41 z m -41.38,-22.34 c 5.17,-1.53 8.94,-6.11 21.75,-26.1 22.69,-35.33 77.89,-126.56 92,-151.96 4.7,-8.52 6.23,-13.58 4.41,-14.7 -2.53,-1.53 -65.01,-3.17 -155.78,-4.11 -74.07,-0.76 -141.9,-2.35 -160.01,-3.82 -3.64,-0.29 -4.06,-0.18 -5.82,1.29 -5.35,4.53 -10.29,12.05 -39.74,60.72 -55.67,91.82 -63.6,105.4 -62.9,107.22 0.18,0.47 1.06,1 2,1.18 6,1.18 57.43,6.76 73.95,7.99 15.11,1.12 18.16,0.76 20.1,-2.17 0.76,-1.18 0.71,-1.35 -0.59,-2.17 -2.35,-1.59 -19.63,-3.76 -51.55,-6.53 -22.51,-1.94 -26.39,-2.65 -28.98,-5.23 -2.53,-2.53 -2.88,-1.82 28.69,-54.43 24.63,-40.97 29.69,-49.26 38.21,-62.31 6.29,-9.64 9.05,-14.28 15.05,-25.16 2.7,-4.94 5.76,-9.93 6.7,-11.05 l 1.76,-2.06 31.74,0.65 c 17.46,0.35 47.73,1 67.31,1.47 50.26,1.23 107.4,2.53 143.43,3.23 38.86,0.82 60.37,1.59 61.72,2.35 3,1.59 2,4.23 -8.35,21.75 -14.17,24.04 -55.32,91 -69.25,112.57 -4.94,7.7 -11.23,17.69 -22.51,36.09 -1.7,2.7 -3.64,5.17 -4.35,5.53 -1.29,0.59 -4.76,0.35 -44.26,-3.12 -15.23,-1.35 -19.4,-1.47 -19.4,-0.53 0,0.35 1.53,2.17 3.41,4.06 4.41,4.41 5.94,4.88 23.63,7.05 29.22,3.7 32.27,3.88 37.62,2.29 z m 62.9,-8.88 c 4.17,-4.53 27.98,-40.91 27.28,-41.62 -22.46,-20.4 -25.1,-22.4 -27.8,-20.75 -2,1.18 -17.4,25.1 -22.81,35.33 -1.35,2.65 -2.53,5.58 -2.53,6.53 0,1.06 0.94,3 2.53,5.17 4.41,6 17.64,17.16 20.28,17.22 0.82,0 2.06,-0.76 3.06,-1.88 z m -66.78,-5.23 c 1.23,-0.35 3,-1.41 3.88,-2.41 0.88,-0.94 4.59,-7.23 8.23,-13.93 12.93,-23.63 26.39,-46.32 43.5,-73.24 2.65,-4.17 5.94,-9.35 7.29,-11.46 2.47,-3.94 4.82,-7.41 14.17,-21.16 3,-4.35 6,-9.05 6.7,-10.4 1.65,-3.35 1.65,-6.35 -0.12,-7.47 -2.94,-1.94 -24.81,-3.29 -88,-5.35 -137.02,-4.47 -158.19,-4.88 -171.65,-3.47 -3,0.35 -3.47,0.65 -6.47,3.7 -3.53,3.64 -4.82,5.76 -39.97,64.13 -26.34,43.68 -27.39,45.5 -28.92,49.79 -1.94,5.64 -1.53,5.82 26.57,9.05 14.46,1.65 23.28,1.76 25.45,0.35 3.7,-2.41 2.41,-4.53 -5.53,-9.29 -3,-1.82 -6.29,-4.23 -7.17,-5.41 -2.88,-3.47 -2.88,-9.41 -0.06,-12.46 1.47,-1.59 1.59,-1.65 6.7,-1.23 l 5.23,0.41 2.23,-2 c 3.41,-3.06 4.35,-3.35 10.4,-3.35 6.41,0 7.41,-0.29 10.88,-3.17 3.06,-2.59 4.29,-2.65 7.64,-0.35 5.23,3.53 7.82,3 14.46,-2.94 2.53,-2.23 5.47,-4.47 6.53,-5 2.88,-1.35 7.58,-1.12 11.7,0.65 11.4,4.88 16.93,4.94 27.63,0.47 2.53,-1.12 5,-2 5.47,-2 1.41,0 3.64,2.82 3.64,4.59 0,3.17 -2.47,4.47 -11.29,5.94 -3.64,0.65 -7.82,1.59 -9.23,2.06 -4.06,1.47 -5.94,1.18 -9.99,-1.41 -9.64,-6.23 -12.11,-6.29 -20.1,-0.18 -7.82,6 -12.64,7.41 -18.87,5.47 -4.17,-1.29 -4.47,-1.23 -8.94,1.41 -2.82,1.7 -2.94,1.7 -6.94,1.06 -7.11,-1.23 -9.93,-0.76 -17.52,3.12 -3.88,1.94 -4.29,3.53 -1.59,5.82 2.12,1.88 10.88,7.7 15.58,10.46 3.41,1.94 10.7,3.35 20.1,3.82 l 7.05,0.35 v -1.35 c 0,-0.76 -0.53,-3.35 -1.23,-5.7 -1.53,-5.58 -1.76,-10.93 -0.47,-11.23 0.65,-0.12 2.17,2 5.23,7.35 6.41,11.29 7.64,12.52 12.64,12.52 7.23,0 9.99,-2.12 14.75,-11.29 5.11,-9.82 8.99,-13.52 9.99,-9.52 0.35,1.41 -0.18,3.82 -2.35,10.99 -0.59,1.88 -0.71,2.76 -0.24,2.76 0.94,0 11.35,-5.64 15.28,-8.29 7,-4.76 14.11,-13.87 14.87,-18.99 0.53,-3.59 -0.53,-6.82 -3.29,-9.93 -3.53,-4.06 -4.76,-4.29 -19.22,-3.47 -13.81,0.71 -16.52,0.47 -21.93,-2.23 -5.47,-2.76 -8.35,-2.41 -17.69,2.17 -8.58,4.23 -10.58,4.7 -21.34,5.47 -9.82,0.65 -13.05,1.47 -21.4,5.29 -7,3.23 -7.23,3.29 -8.23,2.12 -1,-1.18 2.29,-5.29 5.94,-7.35 3.88,-2.23 8.46,-3.29 19.28,-4.41 11.52,-1.23 13.81,-1.76 22.34,-5.41 12.7,-5.41 16.64,-5.94 25.1,-3.41 4.88,1.47 6,1.59 20.75,1.82 15.11,0.29 15.64,0.35 18.05,1.7 3.17,1.82 6.76,7.23 8.11,12.23 1.47,5.29 1,11.93 -1,15.93 -1.7,3.35 -9.99,11.64 -15.58,15.58 -2.17,1.53 -3.7,3 -3.7,3.64 0,3 8.23,8.99 21.46,15.46 14.23,7 18.05,7.88 47.32,10.88 9.88,1 19.63,2.06 21.75,2.35 4.47,0.59 12.81,0.29 16.11,-0.65 z M 384.03,188.35 c 7.05,-0.71 16.87,-4 21.63,-7.11 4.41,-2.88 2.23,-3.29 -6.88,-1.23 -7.94,1.82 -26.86,1.88 -37.56,0.18 -7.7,-1.23 -12.52,-1.47 -12.76,-0.65 -0.12,0.29 1.76,1.12 4.11,1.88 2.41,0.71 5.88,2.23 7.7,3.41 4.64,2.88 6.17,3.41 10.93,3.88 4,0.41 6.47,0.35 12.81,-0.35 z M 267.23,172.3 c 1.29,-0.59 3.17,-2.12 4.17,-3.35 3.06,-3.88 12.4,-18.46 25.57,-39.91 23.04,-37.56 32.1,-52.91 41.74,-70.66 3.59,-6.53 7.05,-12.46 7.7,-13.17 l 1.18,-1.29 17.69,0.41 c 19.63,0.47 51.14,1.41 118.8,3.59 85.77,2.76 101.75,3.23 118.16,3.23 15.34,0 16.58,-0.06 18.34,-1.18 3.41,-2.06 8.41,-10.17 8.41,-13.7 0,-2.94 13.52,-2.29 -114.92,-5.41 -143.02,-3.47 -170.47,-3.88 -175,-2.65 -3.7,1.06 -3.94,1.41 -31.51,46.73 -58.67,96.64 -54.2,89 -54.2,92.17 0,2.53 2,4.47 5.7,5.47 3.88,1 5.35,1 8.17,-0.29 z m 359.29,-20.87 c 3,-1.59 7.17,-6.88 10.35,-13.11 1.82,-3.7 1.88,-5.11 0.29,-7.76 -1.7,-2.82 -14.23,-15.52 -18.34,-18.63 -4.94,-3.7 -5.53,-3.53 -9.52,2.41 -4.94,7.35 -7.35,12.46 -7.35,15.46 0,2.41 0.29,2.88 4,6.7 4.41,4.59 14.81,13.93 16.75,14.99 1.65,0.94 1.94,0.94 3.82,-0.06 z m 19.69,-27.33 c 3.64,-4.06 7.99,-11.05 14.28,-22.98 3.35,-6.41 6.11,-11.87 6.11,-12.17 0,-0.76 -20.99,-20.28 -23.22,-21.63 -1.7,-1 -2.06,-1.06 -3,-0.29 -2.53,2.12 -16.75,25.63 -18.52,30.63 -1.29,3.82 -0.94,4.35 13.81,20.4 4.23,4.59 7.82,8.35 8.05,8.35 0.24,0 1.29,-1 2.47,-2.29 z m 27.28,-46.32 c 2.82,-3.06 6.47,-9.88 7.29,-13.52 0.88,-3.7 0.24,-6.35 -2.59,-10.93 -3.94,-6.58 -15.17,-20.34 -17.58,-21.63 -1.53,-0.82 -2.94,0.47 -6.58,5.94 -4.76,7.11 -7.47,12.64 -7.82,16.17 -0.29,2.82 -0.12,3.53 1.18,5.47 2.76,4.23 21.28,20.69 23.22,20.69 0.47,0 1.76,-1 2.88,-2.17 z"
       id="path27"
       style="fill:#999999" />
    <path
       d="m 320.96,494.37 c -1.53,-1.53 -1.47,-1.88 0.35,-4.06 2.47,-2.94 6.23,-2.29 7.47,1.29 0.29,0.71 -0.12,1.53 -1.06,2.53 -1.82,1.82 -5.06,1.94 -6.76,0.24 z"
       id="path28"
       style="fill:#999999" />
    <path
       d="m 278.05,483.2 c -4.64,-1.12 -4.64,-6.47 0,-6.47 3.12,0 6.35,5.7 3.76,6.7 -1.06,0.41 -1,0.41 -3.76,-0.24 z"
       id="path29"
       style="fill:#999999" />
    <path
       d="m 233.2,470.74 c -2.47,-1.35 0.59,-4.59 4.35,-4.59 1.82,0 2.29,0.24 2.29,1.06 0,2.23 -4.64,4.7 -6.64,3.53 z"
       id="path30"
       style="fill:#999999" />
    <path
       d="m 187.05,459.51 c -2.35,-2.53 -1.12,-5.7 2.23,-5.7 1.82,0 3.53,1.76 3.53,3.64 0,1.23 -2.23,3.41 -3.53,3.41 -0.53,0 -1.53,-0.59 -2.23,-1.35 z"
       id="path31"
       style="fill:#999999" />
    <path
       d="m 132.97,445.76 c -1.82,-1.65 -2.06,-3.29 -0.65,-5.06 2.47,-3.17 7.17,-1.41 7.17,2.65 0,3.17 -3.94,4.59 -6.53,2.41 z"
       id="path32"
       style="fill:#999999" />
    <path
       d="m 82.41,433.88 c -0.47,-0.24 -0.71,-1.12 -0.59,-1.88 0.35,-2.65 5.76,-2.06 5.76,0.65 0,1.59 -3.35,2.41 -5.17,1.23 z"
       id="path33"
       style="fill:#999999" />
    <path
       d="m 325.43,429.94 c -1.41,-1.35 -1.18,-3.12 0.53,-3.88 1.65,-0.71 2.94,0 3.53,1.94 0.76,2.41 -2.23,3.82 -4.06,1.94 z"
       id="path34"
       style="fill:#999999" />
    <path
       d="m 38.27,422.3 c -1.35,-1.12 -1.82,-2 -1.82,-3.41 0,-2.53 0.94,-3.29 3.82,-3.29 3,0 5,1.82 5,4.53 0,3.76 -3.76,4.94 -7,2.17 z"
       id="path35"
       style="fill:#999999" />
    <path
       d="m 323.49,372.69 c -3.17,-1.29 -0.94,-5.88 2.82,-5.88 2.23,0 3.88,2.29 2.88,4.06 -1.12,2.17 -3.17,2.82 -5.7,1.82 z"
       id="path36"
       style="fill:#999999" />
    <path
       d="m 36.68,371.81 c -0.71,-0.47 -1.59,-1.59 -1.94,-2.59 -1.65,-3.88 2.29,-5.76 5.41,-2.53 3.47,3.59 0.53,7.94 -3.47,5.11 z"
       id="path37"
       style="fill:#999999" />
    <path
       d="m 266.53,363.05 c -0.18,-0.47 -0.24,-1.47 -0.12,-2.23 0.24,-1.7 3.35,-2.23 4.59,-0.76 1.29,1.53 -0.12,3.82 -2.35,3.82 -1,0 -1.94,-0.35 -2.12,-0.82 z"
       id="path38"
       style="fill:#999999" />
    <path
       d="m 221.61,354.17 c -0.59,-0.71 -0.59,-1.23 -0.06,-2.41 0.53,-1.23 1,-1.47 2.53,-1.29 2.35,0.24 2.82,1.65 1.12,3.35 -1.47,1.47 -2.59,1.59 -3.59,0.35 z"
       id="path39"
       style="fill:#999999" />
    <path
       d="m 118.27,333.77 c -1,-1 -0.88,-1.88 0.41,-3.06 1.59,-1.47 5,-1.06 5.23,0.59 0.35,2.53 -3.76,4.35 -5.64,2.47 z"
       id="path40"
       style="fill:#999999" />
    <path
       d="m 326.31,331.07 c -0.41,-0.82 -0.35,-1.47 0.29,-2.41 1.23,-1.7 4,-1.53 4.23,0.29 0.35,2.59 -3.35,4.29 -4.53,2.12 z"
       id="path41"
       style="fill:#999999" />
    <path
       d="m 78.59,327.07 c -1.65,-1.65 1,-4.29 3.17,-3.17 1.88,1 1.29,3.17 -0.94,3.41 -1,0.12 -2,0 -2.23,-0.24 z"
       id="path42"
       style="fill:#999999" />
    <path
       d="m 37.97,324.72 c -0.94,-0.94 -1.18,-1.94 -0.94,-4.06 0.18,-1.88 1.18,-2.65 3.29,-2.65 3.23,0 4.82,3.53 2.82,6.35 -1.06,1.53 -3.82,1.76 -5.17,0.35 z"
       id="path43"
       style="fill:#999999" />
    <path
       d="m 205.98,296.56 c -0.24,-0.53 -0.12,-1.23 0.24,-1.59 0.94,-0.94 2.76,-0.29 2.76,1 0,1.53 -2.47,2 -3,0.59 z"
       id="path44"
       style="fill:#999999" />
    <path
       d="m 159.42,289.69 c -1.53,-1.53 -0.47,-3.41 1.94,-3.41 1.12,0 2.17,2 1.7,3.17 -0.41,1.12 -2.65,1.23 -3.64,0.24 z"
       id="path45"
       style="fill:#999999" />
    <path
       d="m 36.27,282.87 c -2.59,-2.82 0.47,-8.11 3.17,-5.64 1.41,1.29 1.47,4.47 0.06,5.7 -1.41,1.29 -2.06,1.23 -3.23,-0.06 z"
       id="path46"
       style="fill:#999999" />
    <path
       d="m 359.93,487.2 c -2.23,-2.35 -1.7,-5.23 1.12,-6.7 2.23,-1.18 4.82,-0.59 6.35,1.35 1.53,1.94 1.47,2.7 -0.18,4.59 -0.82,1 -2.12,1.65 -3.64,1.88 -1.94,0.24 -2.59,0.06 -3.64,-1.12 z"
       id="path47"
       style="fill:#999999" />
    <path
       d="m 412.43,465.45 c -2.12,-3 -0.29,-6.94 3.12,-6.94 1.88,0 3.59,1.76 3.59,3.7 0,1.47 -3.12,4.53 -4.64,4.53 -0.65,0 -1.59,-0.59 -2.06,-1.29 z"
       id="path48"
       style="fill:#999999" />
    <path
       d="m 456.87,445.46 c -1.18,-1.18 -0.82,-3.29 0.94,-5.11 2.17,-2.35 3.88,-2.76 5.35,-1.29 1.82,1.82 0.29,4.76 -3.29,6.29 -2.29,1 -2.12,1 -3,0.12 z"
       id="path49"
       style="fill:#999999" />
    <path
       d="m 359.29,428.42 c -0.76,-0.76 -0.94,-3.29 -0.35,-4.82 0.24,-0.59 1.06,-0.94 2.06,-0.94 1.29,0 1.88,0.41 2.41,1.53 1.29,2.82 -2.06,6.29 -4.11,4.23 z"
       id="path50"
       style="fill:#999999" />
    <path
       d="m 502.37,424.65 c -0.59,-1.59 -0.41,-2.53 0.82,-3.76 1.41,-1.41 2.53,-1.47 3.76,-0.24 1.23,1.23 1.18,2.35 -0.24,3.76 -1.41,1.41 -3.82,1.53 -4.35,0.24 z"
       id="path51"
       style="fill:#999999" />
    <path
       d="m 537.22,409.19 c -1.59,-1.29 -1.06,-3.41 1,-3.94 1.88,-0.47 3.29,0.71 3.06,2.59 -0.24,2 -2.35,2.7 -4.06,1.35 z"
       id="path52"
       style="fill:#999999" />
    <path
       d="m 356.46,373.57 c -2.23,-2.23 -1.65,-5.82 1.29,-7.7 1.53,-1.06 1.59,-1 2.65,0.29 1.35,1.65 1.41,2.88 0.18,5.88 -1.18,2.94 -2.29,3.35 -4.11,1.53 z"
       id="path53"
       style="fill:#999999" />
    <path
       d="m 536.81,356.7 c -1.88,-1.88 0.24,-5.11 2.82,-4.29 1.47,0.47 2.17,2.94 1.18,4.11 -0.88,1.06 -3,1.18 -4,0.18 z"
       id="path54"
       style="fill:#999999" />
    <path
       d="m 357.52,329.07 c -1.06,-1.06 -0.88,-2.47 0.41,-3.64 1.59,-1.47 3.23,-1 3.47,0.94 0.12,1.06 -0.24,1.82 -1.18,2.47 -1.59,1.12 -1.82,1.12 -2.7,0.24 z"
       id="path55"
       style="fill:#999999" />
    <path
       d="m 535.87,305.91 c -1.23,-1.18 -1.18,-1.59 0.24,-2.88 1.41,-1.29 3.88,-0.76 4.41,0.94 0.82,2.47 -2.7,3.94 -4.64,1.94 z"
       id="path56"
       style="fill:#999999" />
    <path
       d="m 535.87,265 c -1.12,-1.59 -0.35,-3.23 1.76,-3.76 2.59,-0.65 4.88,2.53 3.06,4.35 -1.18,1.18 -3.82,0.82 -4.82,-0.59 z"
       id="path57"
       style="fill:#999999" />
    <path
       d="m 425.54,375.98 c -5.17,-1.82 -8.52,-4.94 -10.88,-10.05 -1.94,-4.06 -1.88,-10.35 0.06,-18.4 0.82,-3.35 1.47,-6.7 1.47,-7.47 0,-0.76 -0.76,-3.06 -1.76,-5.11 -2.12,-4.41 -2.29,-7.88 -0.59,-10.05 1.53,-1.94 6.88,-4.11 27.33,-11.11 30.33,-10.4 43.85,-13.76 46.44,-11.64 0.47,0.41 1.76,2.35 2.76,4.23 1.35,2.47 3.59,5.11 7.7,8.88 7.41,6.94 8.05,7.94 8.05,13.23 0,8.99 -3.41,19.52 -7.47,23.04 -2.88,2.53 -4.76,3.41 -21.63,9.7 -19.99,7.47 -38.15,13.46 -44.32,14.64 -2.7,0.53 -4.94,0.94 -5,0.94 0,-0.06 -1,-0.41 -2.17,-0.82 z m 14.28,-9.11 c 25.16,-7.35 44.09,-14.99 52.38,-21.16 5.17,-3.88 8.23,-13.23 6.29,-19.1 -1,-3.17 -7.11,-9.46 -10.29,-10.7 -4.41,-1.65 -10.88,0.12 -10.88,3 0,1.76 1.53,2.65 4.47,2.65 5.47,0 10.76,5.17 10.05,9.76 -1.41,8.52 -24.81,21.75 -46.26,26.1 -9.76,2 -14.11,1.35 -16.46,-2.47 -1.59,-2.59 -1.47,-5.06 0.29,-9.29 1.7,-4.06 1.82,-5.7 0.53,-7.52 -2.17,-3.12 -5.29,-0.53 -7.52,6.23 -4.17,12.64 -2.88,20.16 4.06,23.92 2.29,1.23 5.41,0.88 13.34,-1.41 z m 8.7,-16.87 c 11.87,-3.41 21.28,-8.41 23.04,-12.29 0.76,-1.76 0,-2.82 -4.35,-6.47 -3.7,-3 -4.59,-4.64 -3.29,-6 0.71,-0.65 1.41,-0.71 3.41,-0.24 2.59,0.59 5.29,0 5.29,-1.06 0,-0.35 -0.76,-1.41 -1.76,-2.41 -0.94,-1 -1.76,-2.17 -1.76,-2.59 0,-1.7 2.7,-4.06 6.76,-5.94 4,-1.82 7.05,-4.47 6.58,-5.82 -0.47,-1.53 -4.53,-0.76 -18.05,3.41 -15.99,4.88 -37.15,11.93 -41.74,13.93 -2.76,1.18 -3,1.41 -2.82,3.12 0.29,2.94 2.94,2.82 8.88,-0.41 6.88,-3.7 12.17,-5.35 17.22,-5.41 3.35,0 4.47,0.24 5.47,1.12 3.06,2.76 3.06,9.46 0,12.99 -1,1.12 -4.29,3.41 -7.41,5.11 -6.29,3.47 -8.99,6.11 -8.99,8.7 0,3.53 1.88,3.53 13.52,0.24 z m -8.35,-14.46 c 1.7,-1.7 0.06,-5.76 -2.35,-5.76 -1.29,0 -3.41,2 -3.41,3.23 0,2.35 4.11,4.17 5.76,2.53 z m 8.23,-5.35 c -0.12,-0.94 -0.59,-1.29 -1.65,-1.29 -1.65,0 -2.29,1.59 -1.18,2.94 1.06,1.23 3.06,0.06 2.82,-1.65 z"
       id="path58"
       style="fill:#999999" />
    <path
       d="m 148.19,364.93 c -0.29,-0.82 -0.35,-2.53 0,-4.17 0.71,-3.82 5.58,-15.17 7.05,-16.4 2.41,-2.06 7,-1 7,1.59 0,2.88 -7.52,14.87 -11.99,19.05 l -1.47,1.41 -0.59,-1.47 z"
       id="path59"
       style="fill:#999999" />
    <path
       d="m 251.89,262.94 c -1.59,-3 -4.23,-5.94 -6.23,-7 -0.94,-0.47 -1.7,-1.29 -1.7,-1.82 0,-1.41 6.64,-7.82 8.11,-7.82 1.65,0 1.65,0.82 0.06,3.35 -1.65,2.65 -1.53,5.41 0.29,10.35 0.82,2.17 1.53,4.23 1.53,4.53 0,1.23 -0.94,0.47 -2.06,-1.59 z"
       id="path60"
       style="fill:#999999" />
    <path
       d="m 211.03,258.3 c -4.17,-0.53 -8.23,-1.53 -8.23,-2 0,-1.41 2.94,-1.76 15.4,-1.7 14.23,0.06 19.34,0.47 19.69,1.47 0.53,1.53 -3.7,2.17 -14.23,2.35 -5.82,0.06 -11.52,0 -12.64,-0.12 z"
       id="path61"
       style="fill:#999999" />
    <path
       d="m 253.95,242.48 c -0.59,-0.71 -0.53,-1.18 0.24,-2.41 0.59,-0.82 1.35,-1.35 1.7,-1.23 1,0.29 1.23,2.65 0.41,3.7 -0.94,1.06 -1.41,1.06 -2.35,-0.06 z"
       id="path62"
       style="fill:#999999" />
    <path
       d="m 201.75,237.9 c -1.18,-1.41 1,-2.65 7.29,-4.35 5.17,-1.35 7.11,-1.53 17.52,-1.7 l 11.64,-0.24 5.17,-2.35 c 2.88,-1.29 6.53,-2.53 8.11,-2.76 3.12,-0.35 7.17,0.18 7.17,0.88 0,0.29 -1.53,0.76 -3.41,1.18 -2.17,0.47 -5.23,1.76 -8.11,3.53 -2.59,1.59 -5.58,3.17 -6.64,3.53 -2.65,0.94 -7.11,0.88 -11.82,-0.18 -5.82,-1.29 -9.52,-1.06 -15.52,0.82 -7,2.17 -10.52,2.7 -11.4,1.65 z"
       id="path63"
       style="fill:#999999" />
    <path
       d="m 562.21,217.79 c -1.94,-2.94 0.12,-8.52 3.12,-8.52 0.47,0 1.65,0.76 2.59,1.7 3.29,3.35 1.7,8.29 -2.7,8.29 -1.53,0 -2.29,-0.35 -3,-1.47 z"
       id="path64"
       style="fill:#999999" />
    <path
       d="m 615.11,133.73 c -1.23,-1.29 -1.35,-1.65 -0.76,-2.76 0.41,-0.76 1.12,-1.65 1.65,-2.06 1.23,-0.94 5.47,-1 6.41,-0.06 1.23,1.23 0.82,3.82 -0.82,5.11 -2.12,1.65 -4.64,1.59 -6.47,-0.24 z"
       id="path65"
       style="fill:#999999" />
    <path
       d="m 661.08,56.31 c -2,-2.82 -0.59,-7.52 2.17,-7.52 2.17,0 3.47,4.06 2.12,6.64 -1.35,2.53 -2.94,2.82 -4.29,0.88 z"
       id="path66"
       style="fill:#999999" />
  </g>
</svg>
