<?xml version="1.0" encoding="UTF-8"?>
<!DOCTYPE svg PUBLIC "-//W3C//DTD SVG 1.1//EN" "http://www.w3.org/Graphics/SVG/1.1/DTD/svg11.dtd">
<svg xmlns="http://www.w3.org/2000/svg" version="1.1" width="1600px" height="1600px" style="shape-rendering:geometricPrecision; text-rendering:geometricPrecision; image-rendering:optimizeQuality; fill-rule:evenodd; clip-rule:evenodd" xmlns:xlink="http://www.w3.org/1999/xlink">
<g><path style="opacity:1" fill="#c3c3c3" d="M 839.5,261.5 C 846.655,260.345 853.988,260.178 861.5,261C 863.974,261.037 865.974,261.87 867.5,263.5C 858.248,261.875 848.915,261.208 839.5,261.5 Z"/></g>
<g><path style="opacity:1" fill="#020202" d="M 839.5,261.5 C 848.915,261.208 858.248,261.875 867.5,263.5C 879.463,266.065 889.963,271.398 899,279.5C 904.13,287.959 903.297,295.792 896.5,303C 893.309,305.426 889.975,307.593 886.5,309.5C 885.957,309.56 885.624,309.893 885.5,310.5C 891.128,311.495 896.794,311.829 902.5,311.5C 902.5,321.5 902.5,331.5 902.5,341.5C 932.174,341.833 961.841,341.5 991.5,340.5C 1010.66,302.753 1041.32,286.92 1083.5,293C 1090.33,294.539 1097,296.373 1103.5,298.5C 1106.98,301.623 1110.98,303.957 1115.5,305.5C 1146.21,328.789 1157.71,359.456 1150,397.5C 1146.2,407.767 1141.37,417.434 1135.5,426.5C 1133.41,427.585 1132.08,429.251 1131.5,431.5C 1100.32,461.766 1064.99,467.599 1025.5,449C 1014.28,441.612 1004.95,432.445 997.5,421.5C 997.586,420.504 997.252,419.671 996.5,419C 965.168,418.5 933.835,418.333 902.5,418.5C 902.5,450.5 902.5,482.5 902.5,514.5C 911.5,514.5 920.5,514.5 929.5,514.5C 929.811,515.478 930.478,516.145 931.5,516.5C 932.333,530.154 932.833,543.821 933,557.5C 956.96,577.124 980.627,597.124 1004,617.5C 1006.83,621.155 1008.99,625.155 1010.5,629.5C 1012.64,635.4 1012.98,641.4 1011.5,647.5C 1009.27,650.889 1006.27,653.389 1002.5,655C 995.327,657.147 987.994,658.313 980.5,658.5C 980.319,670.147 984.652,679.647 993.5,687C 1008.74,688.468 1024.07,688.968 1039.5,688.5C 1065.99,689.608 1092.66,690.275 1119.5,690.5C 1138.16,691.233 1156.82,691.566 1175.5,691.5C 1187.33,692.386 1199.33,693.052 1211.5,693.5C 1282.76,701.382 1342.6,731.715 1391,784.5C 1419.7,820.921 1437.2,862.254 1443.5,908.5C 1443.44,916.766 1444.44,924.766 1446.5,932.5C 1448.42,1050.8 1449.75,1169.14 1450.5,1287.5C 1450.5,1303.83 1450.5,1320.17 1450.5,1336.5C 1401.5,1336.5 1352.5,1336.5 1303.5,1336.5C 1280.83,1336.5 1258.17,1336.5 1235.5,1336.5C 1235.59,1319.65 1234.93,1302.98 1233.5,1286.5C 1232.11,1225.5 1230.78,1164.5 1229.5,1103.5C 1228.97,1082.17 1228.47,1060.84 1228,1039.5C 1227.67,1035.26 1226.83,1031.26 1225.5,1027.5C 1217.39,986.556 1193.39,960.056 1153.5,948C 1143.62,945.684 1133.62,944.017 1123.5,943C 1103.5,942.5 1083.5,942.333 1063.5,942.5C 1024.34,941.501 985.004,941.168 945.5,941.5C 945.5,943.167 945.5,944.833 945.5,946.5C 942.143,958.524 934.476,966.19 922.5,969.5C 918.858,970.08 915.191,970.58 911.5,971C 834.818,971.815 758.152,971.649 681.5,970.5C 677.958,969.46 674.625,968.126 671.5,966.5C 669.223,961.223 665.556,957.223 660.5,954.5C 659.89,953.609 659.557,952.609 659.5,951.5C 659.244,947.731 659.577,944.064 660.5,940.5C 661.922,940.25 662.922,939.417 663.5,938C 662.333,937.5 661.5,936.667 661,935.5C 658.26,936.282 655.426,936.782 652.5,937C 629.502,937.5 606.502,937.667 583.5,937.5C 528,936.561 472.667,936.561 417.5,937.5C 405.864,965.107 391.364,991.107 374,1015.5C 360.757,1032.08 345.591,1046.58 328.5,1059C 323.086,1062.37 317.419,1065.21 311.5,1067.5C 308.654,1067.55 306.32,1068.55 304.5,1070.5C 301.455,1070.51 298.455,1070.84 295.5,1071.5C 285.484,1071.55 275.484,1071.21 265.5,1070.5C 243.565,1063.44 224.732,1051.44 209,1034.5C 192.846,1017.18 180.512,997.517 172,975.5C 148.731,909.516 142.231,841.849 152.5,772.5C 154.054,768.433 154.72,764.1 154.5,759.5C 156.102,746.586 158.436,733.919 161.5,721.5C 162.768,719.095 163.435,716.428 163.5,713.5C 165.976,701.926 168.976,690.593 172.5,679.5C 174.277,676.495 175.277,673.162 175.5,669.5C 185.271,636.644 197.771,604.978 213,574.5C 227.711,551.622 246.544,532.956 269.5,518.5C 271.967,518.245 273.967,517.245 275.5,515.5C 282.378,511.768 289.711,508.934 297.5,507C 322.633,501.251 347.299,502.751 371.5,511.5C 381.112,515.973 390.445,520.973 399.5,526.5C 429.494,549.809 446.494,580.476 450.5,618.5C 450.465,623.683 450.132,628.85 449.5,634C 450.094,652.661 450.761,671.161 451.5,689.5C 534.504,690.769 617.504,690.436 700.5,688.5C 709.583,685.023 714.249,678.357 714.5,668.5C 715.479,665.375 715.813,662.042 715.5,658.5C 712.167,658.5 708.833,658.5 705.5,658.5C 690.184,657.867 684.684,650.2 689,635.5C 695.875,621.95 705.042,610.117 716.5,600C 732.641,585.862 748.808,571.696 765,557.5C 765.333,544.167 765.667,530.833 766,517.5C 766.759,515.937 767.926,514.937 769.5,514.5C 777.5,514.5 785.5,514.5 793.5,514.5C 793.832,482.662 793.498,450.996 792.5,419.5C 767.491,419.167 742.491,419.5 717.5,420.5C 716.048,421.94 715.048,423.606 714.5,425.5C 684.509,459.411 648.843,466.911 607.5,448C 572.544,424.823 559.711,392.656 569,351.5C 571.876,341.303 576.71,332.303 583.5,324.5C 585.587,323.415 586.92,321.749 587.5,319.5C 598.72,307.224 612.386,299.057 628.5,295C 632.813,294.265 637.147,293.765 641.5,293.5C 648.862,293.365 656.196,293.698 663.5,294.5C 691.105,300.436 711.105,316.103 723.5,341.5C 746.327,342.498 769.327,342.831 792.5,342.5C 792.172,331.986 792.506,321.653 793.5,311.5C 798.179,311.666 802.845,311.499 807.5,311C 806.956,310.283 806.289,309.783 805.5,309.5C 797.079,305.575 791.746,299.075 789.5,290C 790.153,282.357 793.819,276.69 800.5,273C 812.405,265.605 825.405,261.772 839.5,261.5 Z"/></g>
<g><path style="opacity:1" fill="#999999" d="M 641.5,293.5 C 647.987,292.346 654.654,292.179 661.5,293C 662.416,293.278 663.082,293.778 663.5,294.5C 656.196,293.698 648.862,293.365 641.5,293.5 Z"/></g>
<g><path style="opacity:1" fill="#b7b7b7" d="M 1103.5,298.5 C 1106.32,299.945 1109.32,301.111 1112.5,302C 1113.71,303.039 1114.71,304.206 1115.5,305.5C 1110.98,303.957 1106.98,301.623 1103.5,298.5 Z"/></g>
<g><path style="opacity:1" fill="#727272" d="M 805.5,309.5 C 806.289,309.783 806.956,310.283 807.5,311C 802.845,311.499 798.179,311.666 793.5,311.5C 793.5,311.167 793.5,310.833 793.5,310.5C 797.702,310.817 801.702,310.483 805.5,309.5 Z"/></g>
<g><path style="opacity:1" fill="#6f6f6f" d="M 886.5,309.5 C 891.833,310.167 897.167,310.833 902.5,311.5C 896.794,311.829 891.128,311.495 885.5,310.5C 885.624,309.893 885.957,309.56 886.5,309.5 Z"/></g>
<g><path style="opacity:1" fill="#f7f7f7" d="M 1076.5,319.5 C 1099.3,323.124 1114.8,335.79 1123,357.5C 1123.83,360.793 1124.33,364.126 1124.5,367.5C 1124.69,375.201 1124.36,382.868 1123.5,390.5C 1112.34,421.262 1090.34,435.095 1057.5,432C 1040.86,428.858 1028.19,420.025 1019.5,405.5C 1019.57,403.973 1018.91,402.973 1017.5,402.5C 1005.55,375.404 1010.22,351.571 1031.5,331C 1034.22,328.642 1037.22,326.809 1040.5,325.5C 1045.81,323.852 1051.14,322.185 1056.5,320.5C 1063.14,319.619 1069.8,319.286 1076.5,319.5 Z"/></g>
<g><path style="opacity:1" fill="#f7f7f7" d="M 703.5,367.5 C 703.683,374.868 703.35,382.201 702.5,389.5C 695.211,412.79 679.545,426.456 655.5,430.5C 648.786,430.637 642.12,430.137 635.5,429C 632.407,427.304 629.407,425.47 626.5,423.5C 625.264,424.246 623.93,424.579 622.5,424.5C 622.5,423.5 622.5,422.5 622.5,421.5C 620.097,421.552 617.764,421.219 615.5,420.5C 614.415,418.413 612.749,417.08 610.5,416.5C 602.085,409.012 596.752,399.679 594.5,388.5C 593.167,379.5 593.167,370.5 594.5,361.5C 596.144,355.204 598.644,349.204 602,343.5C 626.291,315.526 653.791,312.026 684.5,333C 694.924,342.255 701.257,353.755 703.5,367.5 Z"/></g>
<g><path style="opacity:1" fill="#636363" d="M 587.5,319.5 C 586.92,321.749 585.587,323.415 583.5,324.5C 584.08,322.251 585.413,320.585 587.5,319.5 Z"/></g>
<g><path style="opacity:1" fill="#bcbcbc" d="M 1076.5,319.5 C 1069.8,319.286 1063.14,319.619 1056.5,320.5C 1051.14,322.185 1045.81,323.852 1040.5,325.5C 1051.76,318.956 1063.76,316.956 1076.5,319.5 Z"/></g>
<g><path style="opacity:1" fill="#f7f7f7" d="M 891.5,373.5 C 891.908,379.951 890.908,386.118 888.5,392C 889.056,392.383 889.389,392.883 889.5,393.5C 882.571,413.059 868.571,423.059 847.5,423.5C 843.475,423.332 839.475,422.999 835.5,422.5C 833.967,420.755 831.967,419.755 829.5,419.5C 817.013,413.19 809.346,403.19 806.5,389.5C 806.5,382.167 806.5,374.833 806.5,367.5C 816.884,341.283 835.884,331.783 863.5,339C 876.028,344.294 884.861,353.127 890,365.5C 891.079,368.063 891.579,370.729 891.5,373.5 Z"/></g>
<g><path style="opacity:1" fill="#d8d8d8" d="M 793.5,310.5 C 793.5,310.833 793.5,311.167 793.5,311.5C 792.506,321.653 792.172,331.986 792.5,342.5C 769.327,342.831 746.327,342.498 723.5,341.5C 746.167,341.5 768.833,341.5 791.5,341.5C 790.858,330.779 791.525,320.446 793.5,310.5 Z"/></g>
<g><path style="opacity:1" fill="#b7b7b7" d="M 594.5,361.5 C 593.167,370.5 593.167,379.5 594.5,388.5C 591.874,379.506 591.874,370.506 594.5,361.5 Z"/></g>
<g><path style="opacity:1" fill="#8c8c8c" d="M 1124.5,367.5 C 1125.65,373.987 1125.82,380.654 1125,387.5C 1124.77,388.737 1124.27,389.737 1123.5,390.5C 1124.36,382.868 1124.69,375.201 1124.5,367.5 Z"/></g>
<g><path style="opacity:1" fill="#c2c2c2" d="M 806.5,367.5 C 806.5,374.833 806.5,382.167 806.5,389.5C 805.03,386.114 804.363,382.447 804.5,378.5C 804.363,374.553 805.03,370.886 806.5,367.5 Z"/></g>
<g><path style="opacity:1" fill="#b3b3b3" d="M 891.5,373.5 C 892.643,376.976 892.81,380.642 892,384.5C 891.943,387.851 891.109,390.851 889.5,393.5C 889.389,392.883 889.056,392.383 888.5,392C 890.908,386.118 891.908,379.951 891.5,373.5 Z"/></g>
<g><path style="opacity:1" fill="#4d4d4d" d="M 703.5,367.5 C 704.653,373.653 704.82,379.986 704,386.5C 703.768,387.737 703.268,388.737 702.5,389.5C 703.35,382.201 703.683,374.868 703.5,367.5 Z"/></g>
<g><path style="opacity:1" fill="#767676" d="M 1017.5,402.5 C 1018.91,402.973 1019.57,403.973 1019.5,405.5C 1018.09,405.027 1017.43,404.027 1017.5,402.5 Z"/></g>
<g><path style="opacity:1" fill="#9a9a9a" d="M 610.5,416.5 C 612.749,417.08 614.415,418.413 615.5,420.5C 613.251,419.92 611.585,418.587 610.5,416.5 Z"/></g>
<g><path style="opacity:1" fill="#616161" d="M 829.5,419.5 C 831.967,419.755 833.967,420.755 835.5,422.5C 833.033,422.245 831.033,421.245 829.5,419.5 Z"/></g>
<g><path style="opacity:1" fill="#d7d7d7" d="M 792.5,419.5 C 792.832,451.004 792.498,482.338 791.5,513.5C 791.5,482.5 791.5,451.5 791.5,420.5C 767.167,420.5 742.833,420.5 718.5,420.5C 718.226,422.981 716.893,424.647 714.5,425.5C 715.048,423.606 716.048,421.94 717.5,420.5C 742.491,419.5 767.491,419.167 792.5,419.5 Z"/></g>
<g><path style="opacity:1" fill="#c7c7c7" d="M 615.5,420.5 C 617.764,421.219 620.097,421.552 622.5,421.5C 622.5,422.5 622.5,423.5 622.5,424.5C 623.93,424.579 625.264,424.246 626.5,423.5C 629.407,425.47 632.407,427.304 635.5,429C 642.12,430.137 648.786,430.637 655.5,430.5C 640.705,433.126 627.372,429.793 615.5,420.5 Z"/></g>
<g><path style="opacity:1" fill="#939393" d="M 1135.5,426.5 C 1134.92,428.749 1133.59,430.415 1131.5,431.5C 1132.08,429.251 1133.41,427.585 1135.5,426.5 Z"/></g>
<g><path style="opacity:1" fill="#f3f3f3" d="M 863.5,534.5 C 852.116,534.79 840.783,534.457 829.5,533.5C 828.336,501.336 828.169,469.003 829,436.5C 834.59,435.191 840.423,434.525 846.5,434.5C 852.548,434.52 858.548,434.854 864.5,435.5C 865.667,467.828 865.833,500.162 865,532.5C 864.283,533.044 863.783,533.711 863.5,534.5 Z"/></g>
<g><path style="opacity:1" fill="#a9a9a9" d="M 997.5,421.5 C 966.24,420.508 934.907,420.175 903.5,420.5C 903.5,451.5 903.5,482.5 903.5,513.5C 912.349,513.174 921.016,513.507 929.5,514.5C 920.5,514.5 911.5,514.5 902.5,514.5C 902.5,482.5 902.5,450.5 902.5,418.5C 933.835,418.333 965.168,418.5 996.5,419C 997.252,419.671 997.586,420.504 997.5,421.5 Z"/></g>
<g><path style="opacity:1" fill="#7e7e7e" d="M 792.5,419.5 C 793.498,450.996 793.832,482.662 793.5,514.5C 785.5,514.5 777.5,514.5 769.5,514.5C 776.648,513.508 783.981,513.175 791.5,513.5C 792.498,482.338 792.832,451.004 792.5,419.5 Z"/></g>
<g><path style="opacity:1" fill="#808080" d="M 275.5,515.5 C 273.967,517.245 271.967,518.245 269.5,518.5C 271.033,516.755 273.033,515.755 275.5,515.5 Z"/></g>
<g><path style="opacity:1" fill="#d6d6d6" d="M 371.5,511.5 C 375.748,511.698 379.748,512.698 383.5,514.5C 383.262,510.901 384.262,510.567 386.5,513.5C 386.291,514.086 385.957,514.586 385.5,515C 387.473,515.495 389.473,515.662 391.5,515.5C 391.64,517.124 390.973,518.29 389.5,519C 392.382,520.52 395.382,521.853 398.5,523C 398.619,524.145 398.952,525.312 399.5,526.5C 390.445,520.973 381.112,515.973 371.5,511.5 Z"/></g>
<g><path style="opacity:1" fill="#9e9e9e" d="M 829.5,533.5 C 840.783,534.457 852.116,534.79 863.5,534.5C 852.674,535.659 841.674,535.826 830.5,535C 829.944,534.617 829.611,534.117 829.5,533.5 Z"/></g>
<g><path style="opacity:1" fill="#f7f7f7" d="M 403.5,609.5 C 403.259,611.898 403.926,613.898 405.5,615.5C 408.059,624.188 409.559,633.188 410,642.5C 410.751,658.21 410.251,673.877 408.5,689.5C 390.83,689.333 373.164,689.5 355.5,690C 325.979,718.546 309.479,753.38 306,794.5C 303.949,826.508 306.283,858.175 313,889.5C 316.731,905.339 320.898,921.005 325.5,936.5C 339.849,936.167 354.182,936.501 368.5,937.5C 363.233,949.47 358.067,961.47 353,973.5C 343.82,990.327 332.32,1005.49 318.5,1019C 306.882,1028.16 293.882,1031.66 279.5,1029.5C 275.332,1027.93 270.999,1026.6 266.5,1025.5C 249.567,1015.73 236.067,1002.4 226,985.5C 211.231,957.08 201.398,927.08 196.5,895.5C 196.76,889.806 195.76,884.473 193.5,879.5C 190.056,850.196 189.723,820.863 192.5,791.5C 194.55,784.787 195.55,777.787 195.5,770.5C 197.366,751.304 200.533,732.304 205,713.5C 213.699,681.118 224.365,649.451 237,618.5C 246.534,600.595 259.034,585.095 274.5,572C 278.071,569.579 281.738,567.413 285.5,565.5C 289.524,565.127 292.857,563.46 295.5,560.5C 316.573,553.01 337.907,552.51 359.5,559C 382.244,568.904 396.911,585.737 403.5,609.5 Z"/></g>
<g><path style="opacity:1" fill="#aeaeae" d="M 295.5,560.5 C 292.857,563.46 289.524,565.127 285.5,565.5C 288.357,562.999 291.691,561.332 295.5,560.5 Z"/></g>
<g><path style="opacity:1" fill="#030303" d="M 288.5,682.5 C 284.748,690.47 281.748,698.803 279.5,707.5C 279.5,707.833 279.5,708.167 279.5,708.5C 278.076,710.515 277.41,712.848 277.5,715.5C 276.566,716.568 276.232,717.901 276.5,719.5C 275.132,723.298 274.132,727.298 273.5,731.5C 269.864,748.65 267.531,765.984 266.5,783.5C 264.906,789.594 264.239,795.928 264.5,802.5C 264.333,828.169 264.5,853.835 265,879.5C 265.172,886.013 265.672,892.347 266.5,898.5C 266.5,903.5 266.5,908.5 266.5,913.5C 266.376,919.069 267.043,924.402 268.5,929.5C 270.287,939.171 275.62,946.171 284.5,950.5C 286.019,951.41 287.685,952.243 289.5,953C 299.51,953.5 309.51,953.333 319.5,952.5C 324.765,953.676 327.098,957.01 326.5,962.5C 324.482,974.354 317.482,981.52 305.5,984C 279.206,989.575 259.04,981.075 245,958.5C 237.202,944.268 231.702,929.268 228.5,913.5C 227.618,902.973 226.285,892.64 224.5,882.5C 223.086,862.852 222.086,843.186 221.5,823.5C 221.361,810.731 222.028,798.065 223.5,785.5C 224.957,780.402 225.624,775.069 225.5,769.5C 226.552,754.627 228.885,739.96 232.5,725.5C 234.074,723.898 234.741,721.898 234.5,719.5C 244.942,673.101 266.942,633.268 300.5,600C 302.594,599.555 304.094,600.388 305,602.5C 311.4,612.057 317.567,621.723 323.5,631.5C 317.569,637.604 311.736,643.937 306,650.5C 298.858,660.452 293.024,671.118 288.5,682.5 Z"/></g>
<g><path style="opacity:1" fill="#909090" d="M 403.5,609.5 C 405.074,611.102 405.741,613.102 405.5,615.5C 403.926,613.898 403.259,611.898 403.5,609.5 Z"/></g>
<g><path style="opacity:1" fill="#242424" d="M 450.5,618.5 C 451.498,641.661 451.831,664.994 451.5,688.5C 451.5,688.833 451.5,689.167 451.5,689.5C 450.761,671.161 450.094,652.661 449.5,634C 450.132,628.85 450.465,623.683 450.5,618.5 Z"/></g>
<g><path style="opacity:1" fill="#c3c3c3" d="M 1010.5,629.5 C 1013.28,631.505 1014.62,634.339 1014.5,638C 1014.31,640.355 1013.98,642.688 1013.5,645C 1013.32,646.376 1012.65,647.209 1011.5,647.5C 1012.98,641.4 1012.64,635.4 1010.5,629.5 Z"/></g>
<g><path style="opacity:1" fill="#a5a5a5" d="M 705.5,658.5 C 708.833,658.5 712.167,658.5 715.5,658.5C 715.813,662.042 715.479,665.375 714.5,668.5C 714.5,665.5 714.5,662.5 714.5,659.5C 711.287,659.81 708.287,659.477 705.5,658.5 Z"/></g>
<g><path style="opacity:1" fill="#4e4e4e" d="M 175.5,669.5 C 175.277,673.162 174.277,676.495 172.5,679.5C 172.723,675.838 173.723,672.505 175.5,669.5 Z"/></g>
<g><path style="opacity:1" fill="#454545" d="M 451.5,688.5 C 534.5,688.5 617.5,688.5 700.5,688.5C 617.504,690.436 534.504,690.769 451.5,689.5C 451.5,689.167 451.5,688.833 451.5,688.5 Z"/></g>
<g><path style="opacity:1" fill="#9a9a9a" d="M 1039.5,688.5 C 1066.36,688.057 1093.02,688.724 1119.5,690.5C 1092.66,690.275 1065.99,689.608 1039.5,688.5 Z"/></g>
<g><path style="opacity:1" fill="#b5b5b5" d="M 1175.5,691.5 C 1184.84,691.334 1194.17,691.5 1203.5,692C 1206.36,692.183 1209.03,692.683 1211.5,693.5C 1199.33,693.052 1187.33,692.386 1175.5,691.5 Z"/></g>
<g><path style="opacity:1" fill="#c8c8c8" d="M 288.5,682.5 C 288.414,683.496 288.748,684.329 289.5,685C 288.572,685.388 287.905,686.055 287.5,687C 286.268,694.607 283.601,701.44 279.5,707.5C 281.748,698.803 284.748,690.47 288.5,682.5 Z"/></g>
<g><path style="opacity:1" fill="#9a9a9a" d="M 279.5,708.5 C 279.59,711.152 278.924,713.485 277.5,715.5C 277.41,712.848 278.076,710.515 279.5,708.5 Z"/></g>
<g><path style="opacity:1" fill="#585858" d="M 163.5,713.5 C 163.435,716.428 162.768,719.095 161.5,721.5C 161.294,718.505 161.96,715.838 163.5,713.5 Z"/></g>
<g><path style="opacity:1" fill="#5e5e5e" d="M 234.5,719.5 C 234.741,721.898 234.074,723.898 232.5,725.5C 232.259,723.102 232.926,721.102 234.5,719.5 Z"/></g>
<g><path style="opacity:1" fill="#adadad" d="M 276.5,719.5 C 277.114,724.069 276.114,728.069 273.5,731.5C 274.132,727.298 275.132,723.298 276.5,719.5 Z"/></g>
<g><path style="opacity:1" fill="#d6d6d6" d="M 756.5,729.5 C 818.167,729.5 879.833,729.5 941.5,729.5C 941.5,741.5 941.5,753.5 941.5,765.5C 940.776,763.782 940.109,761.948 939.5,760C 940.65,751.245 940.816,742.412 940,733.5C 939.444,735.595 938.944,735.762 938.5,734C 939.022,733.05 939.689,732.216 940.5,731.5C 879.504,730.5 818.504,730.167 757.5,730.5C 757.827,740.681 757.494,750.681 756.5,760.5C 756.5,750.167 756.5,739.833 756.5,729.5 Z"/></g>
<g><path style="opacity:1" fill="#f9f9f9" d="M 941.5,765.5 C 946.032,765.818 950.366,765.485 954.5,764.5C 961.867,757.131 969.534,750.131 977.5,743.5C 979.886,742.627 981.886,741.127 983.5,739C 1020.83,738.833 1058.17,738.667 1095.5,738.5C 1133.44,738.509 1171.27,739.176 1209,740.5C 1211.77,739.652 1214.6,739.319 1217.5,739.5C 1220.17,739.5 1222.83,739.5 1225.5,739.5C 1300.88,752.427 1353.38,794.094 1383,864.5C 1392.77,888.984 1399.6,914.317 1403.5,940.5C 1403.92,954.001 1404.58,967.334 1405.5,980.5C 1406.27,1016.16 1406.61,1051.83 1406.5,1087.5C 1406.32,1152.34 1406.99,1217.01 1408.5,1281.5C 1408.5,1287.5 1408.5,1293.5 1408.5,1299.5C 1364.16,1299.41 1319.83,1299.07 1275.5,1298.5C 1274.7,1212.16 1273.2,1125.82 1271,1039.5C 1264.15,974.245 1229.65,931.412 1167.5,911C 1157.62,908.197 1147.62,906.03 1137.5,904.5C 1134.51,902.86 1131.18,902.026 1127.5,902C 1095.32,901.169 1063.32,901.669 1031.5,903.5C 997.837,904.357 964.17,904.524 930.5,904C 928.673,894.346 924.006,886.346 916.5,880C 912.5,877.333 908.5,874.667 904.5,872C 895.834,868.968 891.001,872.134 890,881.5C 889.383,888.869 889.717,896.202 891,903.5C 896.391,910.559 901.391,917.893 906,925.5C 906.667,927.833 906.667,930.167 906,932.5C 905.292,933.381 904.458,934.047 903.5,934.5C 901.821,934.892 900.154,935.392 898.5,936C 884.171,936.5 869.837,936.667 855.5,936.5C 807.827,936.086 760.16,935.253 712.5,934C 708.184,930.615 707.35,926.448 710,921.5C 716.667,913.5 723.333,905.5 730,897.5C 730.876,888.77 730.542,880.104 729,871.5C 726.37,863.936 721.203,861.436 713.5,864C 707.709,866.98 702.543,870.813 698,875.5C 694.752,881.664 691.252,887.664 687.5,893.5C 664.833,893.833 642.167,894.167 619.5,894.5C 533.167,893.904 446.834,893.404 360.5,893C 353.737,857.161 353.904,821.327 361,785.5C 365.113,771.152 370.78,757.485 378,744.5C 380.65,740.025 383.817,736.025 387.5,732.5C 498.207,732.171 608.874,732.504 719.5,733.5C 728.446,741.779 737.113,750.446 745.5,759.5C 748.962,760.482 752.629,760.815 756.5,760.5C 757.494,750.681 757.827,740.681 757.5,730.5C 818.504,730.167 879.504,730.5 940.5,731.5C 939.689,732.216 939.022,733.05 938.5,734C 938.944,735.762 939.444,735.595 940,733.5C 940.816,742.412 940.65,751.245 939.5,760C 940.109,761.948 940.776,763.782 941.5,765.5 Z"/></g>
<g><path style="opacity:1" fill="#e0e0e0" d="M 387.5,732.5 C 497.666,731.334 607.999,731.167 718.5,732C 719.056,732.383 719.389,732.883 719.5,733.5C 608.874,732.504 498.207,732.171 387.5,732.5 Z"/></g>
<g><path style="opacity:1" fill="#393939" d="M 756.5,729.5 C 756.5,739.833 756.5,750.167 756.5,760.5C 752.629,760.815 748.962,760.482 745.5,759.5C 748.833,759.5 752.167,759.5 755.5,759.5C 755.173,749.319 755.506,739.319 756.5,729.5 Z"/></g>
<g><path style="opacity:1" fill="#4f4f4f" d="M 941.5,729.5 C 942.495,740.988 942.828,752.655 942.5,764.5C 946.5,764.5 950.5,764.5 954.5,764.5C 950.366,765.485 946.032,765.818 941.5,765.5C 941.5,753.5 941.5,741.5 941.5,729.5 Z"/></g>
<g><path style="opacity:1" fill="#d1d1d1" d="M 1209.5,737.5 C 1212.17,738.167 1214.83,738.833 1217.5,739.5C 1214.6,739.319 1211.77,739.652 1209,740.5C 1171.27,739.176 1133.44,738.509 1095.5,738.5C 1058.17,738.667 1020.83,738.833 983.5,739C 981.886,741.127 979.886,742.627 977.5,743.5C 978.96,741.537 980.627,739.704 982.5,738C 1058.17,737.5 1133.83,737.333 1209.5,737.5 Z"/></g>
<g><path style="opacity:1" fill="#444444" d="M 1209.5,737.5 C 1215.07,737.376 1220.4,738.043 1225.5,739.5C 1222.83,739.5 1220.17,739.5 1217.5,739.5C 1214.83,738.833 1212.17,738.167 1209.5,737.5 Z"/></g>
<g><path style="opacity:1" fill="#505050" d="M 154.5,759.5 C 154.72,764.1 154.054,768.433 152.5,772.5C 152.156,767.878 152.823,763.545 154.5,759.5 Z"/></g>
<g><path style="opacity:1" fill="#b1b1b1" d="M 195.5,770.5 C 195.55,777.787 194.55,784.787 192.5,791.5C 192.847,784.269 193.847,777.269 195.5,770.5 Z"/></g>
<g><path style="opacity:1" fill="#393939" d="M 225.5,769.5 C 225.624,775.069 224.957,780.402 223.5,785.5C 223.255,779.916 223.922,774.583 225.5,769.5 Z"/></g>
<g><path style="opacity:1" fill="#4d4d4d" d="M 266.5,783.5 C 265.986,789.822 265.653,796.155 265.5,802.5C 265.167,802.5 264.833,802.5 264.5,802.5C 264.239,795.928 264.906,789.594 266.5,783.5 Z"/></g>
<g><path style="opacity:1" fill="#cdcdcd" d="M 264.5,802.5 C 264.833,802.5 265.167,802.5 265.5,802.5C 265.342,834.507 265.676,866.507 266.5,898.5C 265.672,892.347 265.172,886.013 265,879.5C 264.5,853.835 264.333,828.169 264.5,802.5 Z"/></g>
<g><path style="opacity:1" fill="#a8a8a8" d="M 193.5,879.5 C 195.76,884.473 196.76,889.806 196.5,895.5C 195.087,890.37 194.087,885.037 193.5,879.5 Z"/></g>
<g><path style="opacity:1" fill="#b0b0b0" d="M 1137.5,904.5 C 1126.72,903.158 1115.88,902.491 1105,902.5C 1080.51,903.307 1056.01,903.64 1031.5,903.5C 1063.32,901.669 1095.32,901.169 1127.5,902C 1131.18,902.026 1134.51,902.86 1137.5,904.5 Z"/></g>
<g><path style="opacity:1" fill="#c0c0c0" d="M 224.5,882.5 C 226.285,892.64 227.618,902.973 228.5,913.5C 227.252,910.058 226.419,906.392 226,902.5C 225.351,905.937 224.851,906.104 224.5,903C 225.356,896.187 225.356,889.354 224.5,882.5 Z"/></g>
<g><path style="opacity:1" fill="#535353" d="M 1443.5,908.5 C 1445.23,916.273 1446.23,924.273 1446.5,932.5C 1444.44,924.766 1443.44,916.766 1443.5,908.5 Z"/></g>
<g><path style="opacity:1" fill="#393939" d="M 266.5,913.5 C 268.078,918.583 268.745,923.916 268.5,929.5C 267.043,924.402 266.376,919.069 266.5,913.5 Z"/></g>
<g><path style="opacity:1" fill="#626262" d="M 903.5,934.5 C 902.653,935.966 901.32,936.8 899.5,937C 884.661,937.828 869.994,937.661 855.5,936.5C 869.837,936.667 884.171,936.5 898.5,936C 900.154,935.392 901.821,934.892 903.5,934.5 Z"/></g>
<g><path style="opacity:1" fill="#888888" d="M 417.5,937.5 C 472.667,936.561 528,936.561 583.5,937.5C 583.5,937.833 583.5,938.167 583.5,938.5C 528.168,938.011 472.834,937.677 417.5,937.5 Z"/></g>
<g><path style="opacity:1" fill="#2a2a2a" d="M 660.5,940.5 C 653.913,938.539 646.913,937.872 639.5,938.5C 620.833,938.5 602.167,938.5 583.5,938.5C 583.5,938.167 583.5,937.833 583.5,937.5C 606.502,937.667 629.502,937.5 652.5,937C 655.426,936.782 658.26,936.282 661,935.5C 661.5,936.667 662.333,937.5 663.5,938C 662.922,939.417 661.922,940.25 660.5,940.5 Z"/></g>
<g><path style="opacity:1" fill="#b1b1b1" d="M 639.5,938.5 C 646.913,937.872 653.913,938.539 660.5,940.5C 659.577,944.064 659.244,947.731 659.5,951.5C 658.179,947.767 658.179,943.934 659.5,940C 652.654,939.828 645.987,939.328 639.5,938.5 Z"/></g>
<g><path style="opacity:1" fill="#696969" d="M 1063.5,942.5 C 1024.5,942.5 985.5,942.5 946.5,942.5C 946.768,944.099 946.434,945.432 945.5,946.5C 945.5,944.833 945.5,943.167 945.5,941.5C 985.004,941.168 1024.34,941.501 1063.5,942.5 Z"/></g>
<g><path style="opacity:1" fill="#727272" d="M 284.5,950.5 C 289.383,951.869 294.383,952.536 299.5,952.5C 306.338,951.583 313.004,951.583 319.5,952.5C 309.51,953.333 299.51,953.5 289.5,953C 287.685,952.243 286.019,951.41 284.5,950.5 Z"/></g>
<g><path style="opacity:1" fill="#343434" d="M 660.5,954.5 C 665.556,957.223 669.223,961.223 671.5,966.5C 666.453,963.72 662.786,959.72 660.5,954.5 Z"/></g>
<g><path style="opacity:1" fill="#aaaaaa" d="M 1403.5,940.5 C 1404.31,942.292 1404.81,944.292 1405,946.5C 1405.5,957.828 1405.67,969.162 1405.5,980.5C 1404.58,967.334 1403.92,954.001 1403.5,940.5 Z"/></g>
<g><path style="opacity:1" fill="#dfdfdf" d="M 922.5,969.5 C 922.389,970.117 922.056,970.617 921.5,971C 918.833,971.333 916.167,971.667 913.5,972C 837.5,972.667 761.5,972.667 685.5,972C 683.942,971.79 682.609,971.29 681.5,970.5C 758.152,971.649 834.818,971.815 911.5,971C 915.191,970.58 918.858,970.08 922.5,969.5 Z"/></g>
<g><path style="opacity:1" fill="#4b4b4b" d="M 891.5,998.5 C 835.428,998.171 779.428,998.504 723.5,999.5C 751.159,998.167 779.159,997.5 807.5,997.5C 835.669,997.5 863.669,997.833 891.5,998.5 Z"/></g>
<g><path style="opacity:1" fill="#040404" d="M 891.5,998.5 C 892.458,1010.12 892.791,1021.78 892.5,1033.5C 892.389,1034.12 892.056,1034.62 891.5,1035C 835.833,1035.67 780.167,1035.67 724.5,1035C 724,1034.5 723.5,1034 723,1033.5C 722.174,1021.99 722.341,1010.66 723.5,999.5C 779.428,998.504 835.428,998.171 891.5,998.5 Z"/></g>
<g><path style="opacity:1" fill="#2f2f2f" d="M 891.5,998.5 C 892.117,998.611 892.617,998.944 893,999.5C 893.826,1011.01 893.659,1022.34 892.5,1033.5C 892.791,1021.78 892.458,1010.12 891.5,998.5 Z"/></g>
<g><path style="opacity:1" fill="#a2a2a2" d="M 266.5,1025.5 C 270.999,1026.6 275.332,1027.93 279.5,1029.5C 274.588,1029.75 270.255,1028.42 266.5,1025.5 Z"/></g>
<g><path style="opacity:1" fill="#797979" d="M 311.5,1067.5 C 309.491,1069.07 307.157,1070.07 304.5,1070.5C 306.32,1068.55 308.654,1067.55 311.5,1067.5 Z"/></g>
<g><path style="opacity:1" fill="#2f2f2f" d="M 265.5,1070.5 C 275.484,1071.21 285.484,1071.55 295.5,1071.5C 291.681,1072.17 287.681,1072.5 283.5,1072.5C 277.26,1072.67 271.26,1072 265.5,1070.5 Z"/></g>
<g><path style="opacity:1" fill="#d9d9d9" d="M 1225.5,1027.5 C 1226.83,1031.26 1227.67,1035.26 1228,1039.5C 1228.47,1060.84 1228.97,1082.17 1229.5,1103.5C 1228.39,1097.82 1227.39,1091.99 1226.5,1086C 1227.99,1066.46 1227.66,1046.96 1225.5,1027.5 Z"/></g>
<g><path style="opacity:1" fill="#8c8c8c" d="M 1406.5,1087.5 C 1407.67,1152 1408.34,1216.66 1408.5,1281.5C 1406.99,1217.01 1406.32,1152.34 1406.5,1087.5 Z"/></g>
<g><path style="opacity:1" fill="#333333" d="M 1233.5,1286.5 C 1234.93,1302.98 1235.59,1319.65 1235.5,1336.5C 1258.17,1336.5 1280.83,1336.5 1303.5,1336.5C 1280.67,1337.5 1257.67,1337.83 1234.5,1337.5C 1234.19,1320.5 1233.86,1303.5 1233.5,1286.5 Z"/></g>
<g><path style="opacity:1" fill="#b2b2b2" d="M 1450.5,1287.5 C 1451.5,1303.99 1451.83,1320.66 1451.5,1337.5C 1379,1337.93 1306.66,1337.93 1234.5,1337.5C 1257.67,1337.83 1280.67,1337.5 1303.5,1336.5C 1352.5,1336.5 1401.5,1336.5 1450.5,1336.5C 1450.5,1320.17 1450.5,1303.83 1450.5,1287.5 Z"/></g>
</svg>
