<?xml version="1.0" encoding="UTF-8" standalone="no"?>
<svg
   version="1.1"
   width="1303.84"
   height="1077.335"
   style="clip-rule:evenodd;fill-rule:evenodd;image-rendering:optimizeQuality;shape-rendering:geometricPrecision;text-rendering:geometricPrecision"
   id="svg81"
   sodipodi:docname="wasserwerk.svg"
   inkscape:version="1.4.2 (ebf0e940d0, 2025-05-08)"
   xmlns:inkscape="http://www.inkscape.org/namespaces/inkscape"
   xmlns:sodipodi="http://sodipodi.sourceforge.net/DTD/sodipodi-0.dtd"
   xmlns="http://www.w3.org/2000/svg"
   xmlns:svg="http://www.w3.org/2000/svg">
  <defs
     id="defs81" />
  <sodipodi:namedview
     id="namedview81"
     pagecolor="#ffffff"
     bordercolor="#000000"
     borderopacity="0.25"
     inkscape:showpageshadow="2"
     inkscape:pageopacity="0.0"
     inkscape:pagecheckerboard="0"
     inkscape:deskcolor="#d1d1d1"
     inkscape:zoom="0.725"
     inkscape:cx="652.41379"
     inkscape:cy="208.27586"
     inkscape:window-width="2560"
     inkscape:window-height="1371"
     inkscape:window-x="0"
     inkscape:window-y="0"
     inkscape:window-maximized="1"
     inkscape:current-layer="svg81" />
  <g
     id="g1"
     transform="translate(-147.7836,-260.48753)">
    <path
       style="opacity:1"
       fill="#c3c3c3"
       d="m 839.5,261.5 c 7.155,-1.155 14.488,-1.322 22,-0.5 2.474,0.037 4.474,0.87 6,2.5 -9.252,-1.625 -18.585,-2.292 -28,-2 z"
       id="path1" />
  </g>
  <g
     id="g2"
     transform="translate(-147.7836,-260.48753)">
    <path
       style="opacity:1"
       fill="#020202"
       d="m 839.5,261.5 c 9.415,-0.292 18.748,0.375 28,2 11.963,2.565 22.463,7.898 31.5,16 5.13,8.459 4.297,16.292 -2.5,23.5 -3.191,2.426 -6.525,4.593 -10,6.5 -0.543,0.06 -0.876,0.393 -1,1 5.628,0.995 11.294,1.329 17,1 0,10 0,20 0,30 29.674,0.333 59.341,0 89,-1 19.16,-37.747 49.82,-53.58 92,-47.5 6.83,1.539 13.5,3.373 20,5.5 3.48,3.123 7.48,5.457 12,7 30.71,23.289 42.21,53.956 34.5,92 -3.8,10.267 -8.63,19.934 -14.5,29 -2.09,1.085 -3.42,2.751 -4,5 -31.18,30.266 -66.51,36.099 -106,17.5 -11.22,-7.388 -20.55,-16.555 -28,-27.5 0.086,-0.996 -0.248,-1.829 -1,-2.5 -31.332,-0.5 -62.665,-0.667 -94,-0.5 0,32 0,64 0,96 9,0 18,0 27,0 0.311,0.978 0.978,1.645 2,2 0.833,13.654 1.333,27.321 1.5,41 23.96,19.624 47.627,39.624 71,60 2.83,3.655 4.99,7.655 6.5,12 2.14,5.9 2.48,11.9 1,18 -2.23,3.389 -5.23,5.889 -9,7.5 -7.173,2.147 -14.506,3.313 -22,3.5 -0.181,11.647 4.152,21.147 13,28.5 15.24,1.468 30.57,1.968 46,1.5 26.49,1.108 53.16,1.775 80,2 18.66,0.733 37.32,1.066 56,1 11.83,0.886 23.83,1.552 36,2 71.26,7.882 131.1,38.215 179.5,91 28.7,36.421 46.2,77.754 52.5,124 -0.06,8.266 0.94,16.266 3,24 1.92,118.3 3.25,236.64 4,355 0,16.33 0,32.67 0,49 -49,0 -98,0 -147,0 -22.67,0 -45.33,0 -68,0 0.09,-16.85 -0.57,-33.52 -2,-50 -1.39,-61 -2.72,-122 -4,-183 -0.53,-21.33 -1.03,-42.66 -1.5,-64 -0.33,-4.24 -1.17,-8.24 -2.5,-12 -8.11,-40.944 -32.11,-67.444 -72,-79.5 -9.88,-2.316 -19.88,-3.983 -30,-5 -20,-0.5 -40,-0.667 -60,-0.5 -39.16,-0.999 -78.496,-1.332 -118,-1 0,1.667 0,3.333 0,5 -3.357,12.024 -11.024,19.69 -23,23 -3.642,0.58 -7.309,1.08 -11,1.5 -76.682,0.815 -153.348,0.649 -230,-0.5 -3.542,-1.04 -6.875,-2.374 -10,-4 -2.277,-5.277 -5.944,-9.277 -11,-12 -0.61,-0.891 -0.943,-1.891 -1,-3 -0.256,-3.769 0.077,-7.436 1,-11 1.422,-0.25 2.422,-1.083 3,-2.5 -1.167,-0.5 -2,-1.333 -2.5,-2.5 -2.74,0.782 -5.574,1.282 -8.5,1.5 -22.998,0.5 -45.998,0.667 -69,0.5 -55.5,-0.939 -110.833,-0.939 -166,0 -11.636,27.607 -26.136,53.607 -43.5,78 -13.243,16.58 -28.409,31.08 -45.5,43.5 -5.414,3.37 -11.081,6.21 -17,8.5 -2.846,0.05 -5.18,1.05 -7,3 -3.045,0.01 -6.045,0.34 -9,1 -10.016,0.05 -20.016,-0.29 -30,-1 -21.935,-7.06 -40.768,-19.06 -56.5,-36 -16.154,-17.32 -28.488,-36.983 -37,-59 -23.269,-65.984 -29.769,-133.651 -19.5,-203 1.554,-4.067 2.22,-8.4 2,-13 1.602,-12.914 3.936,-25.581 7,-38 1.268,-2.405 1.935,-5.072 2,-8 2.476,-11.574 5.476,-22.907 9,-34 1.777,-3.005 2.777,-6.338 3,-10 9.771,-32.856 22.271,-64.522 37.5,-95 14.711,-22.878 33.544,-41.544 56.5,-56 2.467,-0.255 4.467,-1.255 6,-3 6.878,-3.732 14.211,-6.566 22,-8.5 25.133,-5.749 49.799,-4.249 74,4.5 9.612,4.473 18.945,9.473 28,15 29.994,23.309 46.994,53.976 51,92 -0.035,5.183 -0.368,10.35 -1,15.5 0.594,18.661 1.261,37.161 2,55.5 83.004,1.269 166.004,0.936 249,-1 9.083,-3.477 13.749,-10.143 14,-20 0.979,-3.125 1.313,-6.458 1,-10 -3.333,0 -6.667,0 -10,0 -15.316,-0.633 -20.816,-8.3 -16.5,-23 6.875,-13.55 16.042,-25.383 27.5,-35.5 16.141,-14.138 32.308,-28.304 48.5,-42.5 0.333,-13.333 0.667,-26.667 1,-40 0.759,-1.563 1.926,-2.563 3.5,-3 8,0 16,0 24,0 0.332,-31.838 -0.002,-63.504 -1,-95 -25.009,-0.333 -50.009,0 -75,1 -1.452,1.44 -2.452,3.106 -3,5 -29.991,33.911 -65.657,41.411 -107,22.5 -34.956,-23.177 -47.789,-55.344 -38.5,-96.5 2.876,-10.197 7.71,-19.197 14.5,-27 2.087,-1.085 3.42,-2.751 4,-5 11.22,-12.276 24.886,-20.443 41,-24.5 4.313,-0.735 8.647,-1.235 13,-1.5 7.362,-0.135 14.696,0.198 22,1 27.605,5.936 47.605,21.603 60,47 22.827,0.998 45.827,1.331 69,1 -0.328,-10.514 0.006,-20.847 1,-31 4.679,0.166 9.345,-10e-4 14,-0.5 -0.544,-0.717 -1.211,-1.217 -2,-1.5 -8.421,-3.925 -13.754,-10.425 -16,-19.5 0.653,-7.643 4.319,-13.31 11,-17 11.905,-7.395 24.905,-11.228 39,-11.5 z"
       id="path2" />
  </g>
  <g
     id="g3"
     transform="translate(-147.7836,-260.48753)">
    <path
       style="opacity:1"
       fill="#999999"
       d="m 641.5,293.5 c 6.487,-1.154 13.154,-1.321 20,-0.5 0.916,0.278 1.582,0.778 2,1.5 -7.304,-0.802 -14.638,-1.135 -22,-1 z"
       id="path3" />
  </g>
  <g
     id="g4"
     transform="translate(-147.7836,-260.48753)">
    <path
       style="opacity:1"
       fill="#b7b7b7"
       d="m 1103.5,298.5 c 2.82,1.445 5.82,2.611 9,3.5 1.21,1.039 2.21,2.206 3,3.5 -4.52,-1.543 -8.52,-3.877 -12,-7 z"
       id="path4" />
  </g>
  <g
     id="g5"
     transform="translate(-147.7836,-260.48753)">
    <path
       style="opacity:1"
       fill="#727272"
       d="m 805.5,309.5 c 0.789,0.283 1.456,0.783 2,1.5 -4.655,0.499 -9.321,0.666 -14,0.5 0,-0.333 0,-0.667 0,-1 4.202,0.317 8.202,-0.017 12,-1 z"
       id="path5" />
  </g>
  <g
     id="g6"
     transform="translate(-147.7836,-260.48753)">
    <path
       style="opacity:1"
       fill="#6f6f6f"
       d="m 886.5,309.5 c 5.333,0.667 10.667,1.333 16,2 -5.706,0.329 -11.372,-0.005 -17,-1 0.124,-0.607 0.457,-0.94 1,-1 z"
       id="path6" />
  </g>
  <g
     id="g7"
     transform="translate(-147.7836,-260.48753)">
    <path
       style="opacity:1"
       fill="#f7f7f7"
       d="m 1076.5,319.5 c 22.8,3.624 38.3,16.29 46.5,38 0.83,3.293 1.33,6.626 1.5,10 0.19,7.701 -0.14,15.368 -1,23 -11.16,30.762 -33.16,44.595 -66,41.5 -16.64,-3.142 -29.31,-11.975 -38,-26.5 0.07,-1.527 -0.59,-2.527 -2,-3 -11.95,-27.096 -7.28,-50.929 14,-71.5 2.72,-2.358 5.72,-4.191 9,-5.5 5.31,-1.648 10.64,-3.315 16,-5 6.64,-0.881 13.3,-1.214 20,-1 z"
       id="path7" />
  </g>
  <g
     id="g8"
     transform="translate(-147.7836,-260.48753)">
    <path
       style="opacity:1"
       fill="#f7f7f7"
       d="m 703.5,367.5 c 0.183,7.368 -0.15,14.701 -1,22 -7.289,23.29 -22.955,36.956 -47,41 -6.714,0.137 -13.38,-0.363 -20,-1.5 -3.093,-1.696 -6.093,-3.53 -9,-5.5 -1.236,0.746 -2.57,1.079 -4,1 0,-1 0,-2 0,-3 -2.403,0.052 -4.736,-0.281 -7,-1 -1.085,-2.087 -2.751,-3.42 -5,-4 -8.415,-7.488 -13.748,-16.821 -16,-28 -1.333,-9 -1.333,-18 0,-27 1.644,-6.296 4.144,-12.296 7.5,-18 24.291,-27.974 51.791,-31.474 82.5,-10.5 10.424,9.255 16.757,20.755 19,34.5 z"
       id="path8" />
  </g>
  <g
     id="g9"
     transform="translate(-147.7836,-260.48753)">
    <path
       style="opacity:1"
       fill="#636363"
       d="m 587.5,319.5 c -0.58,2.249 -1.913,3.915 -4,5 0.58,-2.249 1.913,-3.915 4,-5 z"
       id="path9" />
  </g>
  <g
     id="g10"
     transform="translate(-147.7836,-260.48753)">
    <path
       style="opacity:1"
       fill="#bcbcbc"
       d="m 1076.5,319.5 c -6.7,-0.214 -13.36,0.119 -20,1 -5.36,1.685 -10.69,3.352 -16,5 11.26,-6.544 23.26,-8.544 36,-6 z"
       id="path10" />
  </g>
  <g
     id="g11"
     transform="translate(-147.7836,-260.48753)">
    <path
       style="opacity:1"
       fill="#f7f7f7"
       d="m 891.5,373.5 c 0.408,6.451 -0.592,12.618 -3,18.5 0.556,0.383 0.889,0.883 1,1.5 -6.929,19.559 -20.929,29.559 -42,30 -4.025,-0.168 -8.025,-0.501 -12,-1 -1.533,-1.745 -3.533,-2.745 -6,-3 -12.487,-6.31 -20.154,-16.31 -23,-30 0,-7.333 0,-14.667 0,-22 10.384,-26.217 29.384,-35.717 57,-28.5 12.528,5.294 21.361,14.127 26.5,26.5 1.079,2.563 1.579,5.229 1.5,8 z"
       id="path11" />
  </g>
  <g
     id="g12"
     transform="translate(-147.7836,-260.48753)">
    <path
       style="opacity:1"
       fill="#d8d8d8"
       d="m 793.5,310.5 c 0,0.333 0,0.667 0,1 -0.994,10.153 -1.328,20.486 -1,31 -23.173,0.331 -46.173,-0.002 -69,-1 22.667,0 45.333,0 68,0 -0.642,-10.721 0.025,-21.054 2,-31 z"
       id="path12" />
  </g>
  <g
     id="g13"
     transform="translate(-147.7836,-260.48753)">
    <path
       style="opacity:1"
       fill="#b7b7b7"
       d="m 594.5,361.5 c -1.333,9 -1.333,18 0,27 -2.626,-8.994 -2.626,-17.994 0,-27 z"
       id="path13" />
  </g>
  <g
     id="g14"
     transform="translate(-147.7836,-260.48753)">
    <path
       style="opacity:1"
       fill="#8c8c8c"
       d="m 1124.5,367.5 c 1.15,6.487 1.32,13.154 0.5,20 -0.23,1.237 -0.73,2.237 -1.5,3 0.86,-7.632 1.19,-15.299 1,-23 z"
       id="path14" />
  </g>
  <g
     id="g15"
     transform="translate(-147.7836,-260.48753)">
    <path
       style="opacity:1"
       fill="#c2c2c2"
       d="m 806.5,367.5 c 0,7.333 0,14.667 0,22 -1.47,-3.386 -2.137,-7.053 -2,-11 -0.137,-3.947 0.53,-7.614 2,-11 z"
       id="path15" />
  </g>
  <g
     id="g16"
     transform="translate(-147.7836,-260.48753)">
    <path
       style="opacity:1"
       fill="#b3b3b3"
       d="m 891.5,373.5 c 1.143,3.476 1.31,7.142 0.5,11 -0.057,3.351 -0.891,6.351 -2.5,9 -0.111,-0.617 -0.444,-1.117 -1,-1.5 2.408,-5.882 3.408,-12.049 3,-18.5 z"
       id="path16" />
  </g>
  <g
     id="g17"
     transform="translate(-147.7836,-260.48753)">
    <path
       style="opacity:1"
       fill="#4d4d4d"
       d="m 703.5,367.5 c 1.153,6.153 1.32,12.486 0.5,19 -0.232,1.237 -0.732,2.237 -1.5,3 0.85,-7.299 1.183,-14.632 1,-22 z"
       id="path17" />
  </g>
  <g
     id="g18"
     transform="translate(-147.7836,-260.48753)">
    <path
       style="opacity:1"
       fill="#767676"
       d="m 1017.5,402.5 c 1.41,0.473 2.07,1.473 2,3 -1.41,-0.473 -2.07,-1.473 -2,-3 z"
       id="path18" />
  </g>
  <g
     id="g19"
     transform="translate(-147.7836,-260.48753)">
    <path
       style="opacity:1"
       fill="#9a9a9a"
       d="m 610.5,416.5 c 2.249,0.58 3.915,1.913 5,4 -2.249,-0.58 -3.915,-1.913 -5,-4 z"
       id="path19" />
  </g>
  <g
     id="g20"
     transform="translate(-147.7836,-260.48753)">
    <path
       style="opacity:1"
       fill="#616161"
       d="m 829.5,419.5 c 2.467,0.255 4.467,1.255 6,3 -2.467,-0.255 -4.467,-1.255 -6,-3 z"
       id="path20" />
  </g>
  <g
     id="g21"
     transform="translate(-147.7836,-260.48753)">
    <path
       style="opacity:1"
       fill="#d7d7d7"
       d="m 792.5,419.5 c 0.332,31.504 -0.002,62.838 -1,94 0,-31 0,-62 0,-93 -24.333,0 -48.667,0 -73,0 -0.274,2.481 -1.607,4.147 -4,5 0.548,-1.894 1.548,-3.56 3,-5 24.991,-1 49.991,-1.333 75,-1 z"
       id="path21" />
  </g>
  <g
     id="g22"
     transform="translate(-147.7836,-260.48753)">
    <path
       style="opacity:1"
       fill="#c7c7c7"
       d="m 615.5,420.5 c 2.264,0.719 4.597,1.052 7,1 0,1 0,2 0,3 1.43,0.079 2.764,-0.254 4,-1 2.907,1.97 5.907,3.804 9,5.5 6.62,1.137 13.286,1.637 20,1.5 -14.795,2.626 -28.128,-0.707 -40,-10 z"
       id="path22" />
  </g>
  <g
     id="g23"
     transform="translate(-147.7836,-260.48753)">
    <path
       style="opacity:1"
       fill="#939393"
       d="m 1135.5,426.5 c -0.58,2.249 -1.91,3.915 -4,5 0.58,-2.249 1.91,-3.915 4,-5 z"
       id="path23" />
  </g>
  <g
     id="g24"
     transform="translate(-147.7836,-260.48753)">
    <path
       style="opacity:1"
       fill="#f3f3f3"
       d="m 863.5,534.5 c -11.384,0.29 -22.717,-0.043 -34,-1 -1.164,-32.164 -1.331,-64.497 -0.5,-97 5.59,-1.309 11.423,-1.975 17.5,-2 6.048,0.02 12.048,0.354 18,1 1.167,32.328 1.333,64.662 0.5,97 -0.717,0.544 -1.217,1.211 -1.5,2 z"
       id="path24" />
  </g>
  <g
     id="g25"
     transform="translate(-147.7836,-260.48753)">
    <path
       style="opacity:1"
       fill="#a9a9a9"
       d="m 997.5,421.5 c -31.26,-0.992 -62.593,-1.325 -94,-1 0,31 0,62 0,93 8.849,-0.326 17.516,0.007 26,1 -9,0 -18,0 -27,0 0,-32 0,-64 0,-96 31.335,-0.167 62.668,0 94,0.5 0.752,0.671 1.086,1.504 1,2.5 z"
       id="path25" />
  </g>
  <g
     id="g26"
     transform="translate(-147.7836,-260.48753)">
    <path
       style="opacity:1"
       fill="#7e7e7e"
       d="m 792.5,419.5 c 0.998,31.496 1.332,63.162 1,95 -8,0 -16,0 -24,0 7.148,-0.992 14.481,-1.325 22,-1 0.998,-31.162 1.332,-62.496 1,-94 z"
       id="path26" />
  </g>
  <g
     id="g27"
     transform="translate(-147.7836,-260.48753)">
    <path
       style="opacity:1"
       fill="#808080"
       d="m 275.5,515.5 c -1.533,1.745 -3.533,2.745 -6,3 1.533,-1.745 3.533,-2.745 6,-3 z"
       id="path27" />
  </g>
  <g
     id="g28"
     transform="translate(-147.7836,-260.48753)">
    <path
       style="opacity:1"
       fill="#d6d6d6"
       d="m 371.5,511.5 c 4.248,0.198 8.248,1.198 12,3 -0.238,-3.599 0.762,-3.933 3,-1 -0.209,0.586 -0.543,1.086 -1,1.5 1.973,0.495 3.973,0.662 6,0.5 0.14,1.624 -0.527,2.79 -2,3.5 2.882,1.52 5.882,2.853 9,4 0.119,1.145 0.452,2.312 1,3.5 -9.055,-5.527 -18.388,-10.527 -28,-15 z"
       id="path28" />
  </g>
  <g
     id="g29"
     transform="translate(-147.7836,-260.48753)">
    <path
       style="opacity:1"
       fill="#9e9e9e"
       d="m 829.5,533.5 c 11.283,0.957 22.616,1.29 34,1 -10.826,1.159 -21.826,1.326 -33,0.5 -0.556,-0.383 -0.889,-0.883 -1,-1.5 z"
       id="path29" />
  </g>
  <g
     id="g30"
     transform="translate(-147.7836,-260.48753)">
    <path
       style="opacity:1"
       fill="#f7f7f7"
       d="m 403.5,609.5 c -0.241,2.398 0.426,4.398 2,6 2.559,8.688 4.059,17.688 4.5,27 0.751,15.71 0.251,31.377 -1.5,47 -17.67,-0.167 -35.336,0 -53,0.5 -29.521,28.546 -46.021,63.38 -49.5,104.5 -2.051,32.008 0.283,63.675 7,95 3.731,15.839 7.898,31.505 12.5,47 14.349,-0.333 28.682,10e-4 43,1 -5.267,11.97 -10.433,23.97 -15.5,36 -9.18,16.827 -20.68,31.99 -34.5,45.5 -11.618,9.16 -24.618,12.66 -39,10.5 -4.168,-1.57 -8.501,-2.9 -13,-4 -16.933,-9.77 -30.433,-23.1 -40.5,-40 -14.769,-28.42 -24.602,-58.42 -29.5,-90 0.26,-5.694 -0.74,-11.027 -3,-16 -3.444,-29.304 -3.777,-58.637 -1,-88 2.05,-6.713 3.05,-13.713 3,-21 1.866,-19.196 5.033,-38.196 9.5,-57 8.699,-32.382 19.365,-64.049 32,-95 9.534,-17.905 22.034,-33.405 37.5,-46.5 3.571,-2.421 7.238,-4.587 11,-6.5 4.024,-0.373 7.357,-2.04 10,-5 21.073,-7.49 42.407,-7.99 64,-1.5 22.744,9.904 37.411,26.737 44,50.5 z"
       id="path30" />
  </g>
  <g
     id="g31"
     transform="translate(-147.7836,-260.48753)">
    <path
       style="opacity:1"
       fill="#aeaeae"
       d="m 295.5,560.5 c -2.643,2.96 -5.976,4.627 -10,5 2.857,-2.501 6.191,-4.168 10,-5 z"
       id="path31" />
  </g>
  <g
     id="g32"
     transform="translate(-147.7836,-260.48753)">
    <path
       style="opacity:1"
       fill="#030303"
       d="m 288.5,682.5 c -3.752,7.97 -6.752,16.303 -9,25 0,0.333 0,0.667 0,1 -1.424,2.015 -2.09,4.348 -2,7 -0.934,1.068 -1.268,2.401 -1,4 -1.368,3.798 -2.368,7.798 -3,12 -3.636,17.15 -5.969,34.484 -7,52 -1.594,6.094 -2.261,12.428 -2,19 -0.167,25.669 0,51.335 0.5,77 0.172,6.513 0.672,12.847 1.5,19 0,5 0,10 0,15 -0.124,5.569 0.543,10.902 2,16 1.787,9.671 7.12,16.671 16,21 1.519,0.91 3.185,1.743 5,2.5 10.01,0.5 20.01,0.333 30,-0.5 5.265,1.176 7.598,4.51 7,10 -2.018,11.854 -9.018,19.02 -21,21.5 -26.294,5.575 -46.46,-2.925 -60.5,-25.5 -7.798,-14.232 -13.298,-29.232 -16.5,-45 -0.882,-10.527 -2.215,-20.86 -4,-31 -1.414,-19.648 -2.414,-39.314 -3,-59 -0.139,-12.769 0.528,-25.435 2,-38 1.457,-5.098 2.124,-10.431 2,-16 1.052,-14.873 3.385,-29.54 7,-44 1.574,-1.602 2.241,-3.602 2,-6 10.442,-46.399 32.442,-86.232 66,-119.5 2.094,-0.445 3.594,0.388 4.5,2.5 6.4,9.557 12.567,19.223 18.5,29 -5.931,6.104 -11.764,12.437 -17.5,19 -7.142,9.952 -12.976,20.618 -17.5,32 z"
       id="path32" />
  </g>
  <g
     id="g33"
     transform="translate(-147.7836,-260.48753)">
    <path
       style="opacity:1"
       fill="#909090"
       d="m 403.5,609.5 c 1.574,1.602 2.241,3.602 2,6 -1.574,-1.602 -2.241,-3.602 -2,-6 z"
       id="path33" />
  </g>
  <g
     id="g34"
     transform="translate(-147.7836,-260.48753)">
    <path
       style="opacity:1"
       fill="#242424"
       d="m 450.5,618.5 c 0.998,23.161 1.331,46.494 1,70 0,0.333 0,0.667 0,1 -0.739,-18.339 -1.406,-36.839 -2,-55.5 0.632,-5.15 0.965,-10.317 1,-15.5 z"
       id="path34" />
  </g>
  <g
     id="g35"
     transform="translate(-147.7836,-260.48753)">
    <path
       style="opacity:1"
       fill="#c3c3c3"
       d="m 1010.5,629.5 c 2.78,2.005 4.12,4.839 4,8.5 -0.19,2.355 -0.52,4.688 -1,7 -0.18,1.376 -0.85,2.209 -2,2.5 1.48,-6.1 1.14,-12.1 -1,-18 z"
       id="path35" />
  </g>
  <g
     id="g36"
     transform="translate(-147.7836,-260.48753)">
    <path
       style="opacity:1"
       fill="#a5a5a5"
       d="m 705.5,658.5 c 3.333,0 6.667,0 10,0 0.313,3.542 -0.021,6.875 -1,10 0,-3 0,-6 0,-9 -3.213,0.31 -6.213,-0.023 -9,-1 z"
       id="path36" />
  </g>
  <g
     id="g37"
     transform="translate(-147.7836,-260.48753)">
    <path
       style="opacity:1"
       fill="#4e4e4e"
       d="m 175.5,669.5 c -0.223,3.662 -1.223,6.995 -3,10 0.223,-3.662 1.223,-6.995 3,-10 z"
       id="path37" />
  </g>
  <g
     id="g38"
     transform="translate(-147.7836,-260.48753)">
    <path
       style="opacity:1"
       fill="#454545"
       d="m 451.5,688.5 c 83,0 166,0 249,0 -82.996,1.936 -165.996,2.269 -249,1 0,-0.333 0,-0.667 0,-1 z"
       id="path38" />
  </g>
  <g
     id="g39"
     transform="translate(-147.7836,-260.48753)">
    <path
       style="opacity:1"
       fill="#9a9a9a"
       d="m 1039.5,688.5 c 26.86,-0.443 53.52,0.224 80,2 -26.84,-0.225 -53.51,-0.892 -80,-2 z"
       id="path39" />
  </g>
  <g
     id="g40"
     transform="translate(-147.7836,-260.48753)">
    <path
       style="opacity:1"
       fill="#b5b5b5"
       d="m 1175.5,691.5 c 9.34,-0.166 18.67,0 28,0.5 2.86,0.183 5.53,0.683 8,1.5 -12.17,-0.448 -24.17,-1.114 -36,-2 z"
       id="path40" />
  </g>
  <g
     id="g41"
     transform="translate(-147.7836,-260.48753)">
    <path
       style="opacity:1"
       fill="#c8c8c8"
       d="m 288.5,682.5 c -0.086,0.996 0.248,1.829 1,2.5 -0.928,0.388 -1.595,1.055 -2,2 -1.232,7.607 -3.899,14.44 -8,20.5 2.248,-8.697 5.248,-17.03 9,-25 z"
       id="path41" />
  </g>
  <g
     id="g42"
     transform="translate(-147.7836,-260.48753)">
    <path
       style="opacity:1"
       fill="#9a9a9a"
       d="m 279.5,708.5 c 0.09,2.652 -0.576,4.985 -2,7 -0.09,-2.652 0.576,-4.985 2,-7 z"
       id="path42" />
  </g>
  <g
     id="g43"
     transform="translate(-147.7836,-260.48753)">
    <path
       style="opacity:1"
       fill="#585858"
       d="m 163.5,713.5 c -0.065,2.928 -0.732,5.595 -2,8 -0.206,-2.995 0.46,-5.662 2,-8 z"
       id="path43" />
  </g>
  <g
     id="g44"
     transform="translate(-147.7836,-260.48753)">
    <path
       style="opacity:1"
       fill="#5e5e5e"
       d="m 234.5,719.5 c 0.241,2.398 -0.426,4.398 -2,6 -0.241,-2.398 0.426,-4.398 2,-6 z"
       id="path44" />
  </g>
  <g
     id="g45"
     transform="translate(-147.7836,-260.48753)">
    <path
       style="opacity:1"
       fill="#adadad"
       d="m 276.5,719.5 c 0.614,4.569 -0.386,8.569 -3,12 0.632,-4.202 1.632,-8.202 3,-12 z"
       id="path45" />
  </g>
  <g
     id="g46"
     transform="translate(-147.7836,-260.48753)">
    <path
       style="opacity:1"
       fill="#d6d6d6"
       d="m 756.5,729.5 c 61.667,0 123.333,0 185,0 0,12 0,24 0,36 -0.724,-1.718 -1.391,-3.552 -2,-5.5 1.15,-8.755 1.316,-17.588 0.5,-26.5 -0.556,2.095 -1.056,2.262 -1.5,0.5 0.522,-0.95 1.189,-1.784 2,-2.5 -60.996,-1 -121.996,-1.333 -183,-1 0.327,10.181 -0.006,20.181 -1,30 0,-10.333 0,-20.667 0,-31 z"
       id="path46" />
  </g>
  <g
     id="g47"
     transform="translate(-147.7836,-260.48753)">
    <path
       style="opacity:1"
       fill="#f9f9f9"
       d="m 941.5,765.5 c 4.532,0.318 8.866,-0.015 13,-1 7.367,-7.369 15.034,-14.369 23,-21 2.386,-0.873 4.386,-2.373 6,-4.5 37.33,-0.167 74.67,-0.333 112,-0.5 37.94,0.009 75.77,0.676 113.5,2 2.77,-0.848 5.6,-1.181 8.5,-1 2.67,0 5.33,0 8,0 75.38,12.927 127.88,54.594 157.5,125 9.77,24.484 16.6,49.817 20.5,76 0.42,13.501 1.08,26.834 2,40 0.77,35.66 1.11,71.33 1,107 -0.18,64.84 0.49,129.51 2,194 0,6 0,12 0,18 -44.34,-0.09 -88.67,-0.43 -133,-1 -0.8,-86.34 -2.3,-172.68 -4.5,-259 -6.85,-65.255 -41.35,-108.088 -103.5,-128.5 -9.88,-2.803 -19.88,-4.97 -30,-6.5 -2.99,-1.64 -6.32,-2.474 -10,-2.5 -32.18,-0.831 -64.18,-0.331 -96,1.5 -33.663,0.857 -67.33,1.024 -101,0.5 -1.827,-9.654 -6.494,-17.654 -14,-24 -4,-2.667 -8,-5.333 -12,-8 -8.666,-3.032 -13.499,0.134 -14.5,9.5 -0.617,7.369 -0.283,14.702 1,22 5.391,7.059 10.391,14.393 15,22 0.667,2.333 0.667,4.667 0,7 -0.708,0.881 -1.542,1.547 -2.5,2 -1.679,0.392 -3.346,0.892 -5,1.5 -14.329,0.5 -28.663,0.667 -43,0.5 -47.673,-0.414 -95.34,-1.247 -143,-2.5 -4.316,-3.385 -5.15,-7.552 -2.5,-12.5 6.667,-8 13.333,-16 20,-24 0.876,-8.73 0.542,-17.396 -1,-26 -2.63,-7.564 -7.797,-10.064 -15.5,-7.5 -5.791,2.98 -10.957,6.813 -15.5,11.5 -3.248,6.164 -6.748,12.164 -10.5,18 -22.667,0.333 -45.333,0.667 -68,1 -86.333,-0.596 -172.666,-1.096 -259,-1.5 -6.763,-35.839 -6.596,-71.673 0.5,-107.5 4.113,-14.348 9.78,-28.015 17,-41 2.65,-4.475 5.817,-8.475 9.5,-12 110.707,-0.329 221.374,0.004 332,1 8.946,8.279 17.613,16.946 26,26 3.462,0.982 7.129,1.315 11,1 0.994,-9.819 1.327,-19.819 1,-30 61.004,-0.333 122.004,0 183,1 -0.811,0.716 -1.478,1.55 -2,2.5 0.444,1.762 0.944,1.595 1.5,-0.5 0.816,8.912 0.65,17.745 -0.5,26.5 0.609,1.948 1.276,3.782 2,5.5 z"
       id="path47" />
  </g>
  <g
     id="g48"
     transform="translate(-147.7836,-260.48753)">
    <path
       style="opacity:1"
       fill="#e0e0e0"
       d="m 387.5,732.5 c 110.166,-1.166 220.499,-1.333 331,-0.5 0.556,0.383 0.889,0.883 1,1.5 -110.626,-0.996 -221.293,-1.329 -332,-1 z"
       id="path48" />
  </g>
  <g
     id="g49"
     transform="translate(-147.7836,-260.48753)">
    <path
       style="opacity:1"
       fill="#393939"
       d="m 756.5,729.5 c 0,10.333 0,20.667 0,31 -3.871,0.315 -7.538,-0.018 -11,-1 3.333,0 6.667,0 10,0 -0.327,-10.181 0.006,-20.181 1,-30 z"
       id="path49" />
  </g>
  <g
     id="g50"
     transform="translate(-147.7836,-260.48753)">
    <path
       style="opacity:1"
       fill="#4f4f4f"
       d="m 941.5,729.5 c 0.995,11.488 1.328,23.155 1,35 4,0 8,0 12,0 -4.134,0.985 -8.468,1.318 -13,1 0,-12 0,-24 0,-36 z"
       id="path50" />
  </g>
  <g
     id="g51"
     transform="translate(-147.7836,-260.48753)">
    <path
       style="opacity:1"
       fill="#d1d1d1"
       d="m 1209.5,737.5 c 2.67,0.667 5.33,1.333 8,2 -2.9,-0.181 -5.73,0.152 -8.5,1 -37.73,-1.324 -75.56,-1.991 -113.5,-2 -37.33,0.167 -74.67,0.333 -112,0.5 -1.614,2.127 -3.614,3.627 -6,4.5 1.46,-1.963 3.127,-3.796 5,-5.5 75.67,-0.5 151.33,-0.667 227,-0.5 z"
       id="path51" />
  </g>
  <g
     id="g52"
     transform="translate(-147.7836,-260.48753)">
    <path
       style="opacity:1"
       fill="#444444"
       d="m 1209.5,737.5 c 5.57,-0.124 10.9,0.543 16,2 -2.67,0 -5.33,0 -8,0 -2.67,-0.667 -5.33,-1.333 -8,-2 z"
       id="path52" />
  </g>
  <g
     id="g53"
     transform="translate(-147.7836,-260.48753)">
    <path
       style="opacity:1"
       fill="#505050"
       d="m 154.5,759.5 c 0.22,4.6 -0.446,8.933 -2,13 -0.344,-4.622 0.323,-8.955 2,-13 z"
       id="path53" />
  </g>
  <g
     id="g54"
     transform="translate(-147.7836,-260.48753)">
    <path
       style="opacity:1"
       fill="#b1b1b1"
       d="m 195.5,770.5 c 0.05,7.287 -0.95,14.287 -3,21 0.347,-7.231 1.347,-14.231 3,-21 z"
       id="path54" />
  </g>
  <g
     id="g55"
     transform="translate(-147.7836,-260.48753)">
    <path
       style="opacity:1"
       fill="#393939"
       d="m 225.5,769.5 c 0.124,5.569 -0.543,10.902 -2,16 -0.245,-5.584 0.422,-10.917 2,-16 z"
       id="path55" />
  </g>
  <g
     id="g56"
     transform="translate(-147.7836,-260.48753)">
    <path
       style="opacity:1"
       fill="#4d4d4d"
       d="m 266.5,783.5 c -0.514,6.322 -0.847,12.655 -1,19 -0.333,0 -0.667,0 -1,0 -0.261,-6.572 0.406,-12.906 2,-19 z"
       id="path56" />
  </g>
  <g
     id="g57"
     transform="translate(-147.7836,-260.48753)">
    <path
       style="opacity:1"
       fill="#cdcdcd"
       d="m 264.5,802.5 c 0.333,0 0.667,0 1,0 -0.158,32.007 0.176,64.007 1,96 -0.828,-6.153 -1.328,-12.487 -1.5,-19 -0.5,-25.665 -0.667,-51.331 -0.5,-77 z"
       id="path57" />
  </g>
  <g
     id="g58"
     transform="translate(-147.7836,-260.48753)">
    <path
       style="opacity:1"
       fill="#a8a8a8"
       d="m 193.5,879.5 c 2.26,4.973 3.26,10.306 3,16 -1.413,-5.13 -2.413,-10.463 -3,-16 z"
       id="path58" />
  </g>
  <g
     id="g59"
     transform="translate(-147.7836,-260.48753)">
    <path
       style="opacity:1"
       fill="#b0b0b0"
       d="m 1137.5,904.5 c -10.78,-1.342 -21.62,-2.009 -32.5,-2 -24.49,0.807 -48.99,1.14 -73.5,1 31.82,-1.831 63.82,-2.331 96,-1.5 3.68,0.026 7.01,0.86 10,2.5 z"
       id="path59" />
  </g>
  <g
     id="g60"
     transform="translate(-147.7836,-260.48753)">
    <path
       style="opacity:1"
       fill="#c0c0c0"
       d="m 224.5,882.5 c 1.785,10.14 3.118,20.473 4,31 -1.248,-3.442 -2.081,-7.108 -2.5,-11 -0.649,3.437 -1.149,3.604 -1.5,0.5 0.856,-6.813 0.856,-13.646 0,-20.5 z"
       id="path60" />
  </g>
  <g
     id="g61"
     transform="translate(-147.7836,-260.48753)">
    <path
       style="opacity:1"
       fill="#535353"
       d="m 1443.5,908.5 c 1.73,7.773 2.73,15.773 3,24 -2.06,-7.734 -3.06,-15.734 -3,-24 z"
       id="path61" />
  </g>
  <g
     id="g62"
     transform="translate(-147.7836,-260.48753)">
    <path
       style="opacity:1"
       fill="#393939"
       d="m 266.5,913.5 c 1.578,5.083 2.245,10.416 2,16 -1.457,-5.098 -2.124,-10.431 -2,-16 z"
       id="path62" />
  </g>
  <g
     id="g63"
     transform="translate(-147.7836,-260.48753)">
    <path
       style="opacity:1"
       fill="#626262"
       d="m 903.5,934.5 c -0.847,1.466 -2.18,2.3 -4,2.5 -14.839,0.828 -29.506,0.661 -44,-0.5 14.337,0.167 28.671,0 43,-0.5 1.654,-0.608 3.321,-1.108 5,-1.5 z"
       id="path63" />
  </g>
  <g
     id="g64"
     transform="translate(-147.7836,-260.48753)">
    <path
       style="opacity:1"
       fill="#888888"
       d="m 417.5,937.5 c 55.167,-0.939 110.5,-0.939 166,0 0,0.333 0,0.667 0,1 -55.332,-0.489 -110.666,-0.823 -166,-1 z"
       id="path64" />
  </g>
  <g
     id="g65"
     transform="translate(-147.7836,-260.48753)">
    <path
       style="opacity:1"
       fill="#2a2a2a"
       d="m 660.5,940.5 c -6.587,-1.961 -13.587,-2.628 -21,-2 -18.667,0 -37.333,0 -56,0 0,-0.333 0,-0.667 0,-1 23.002,0.167 46.002,0 69,-0.5 2.926,-0.218 5.76,-0.718 8.5,-1.5 0.5,1.167 1.333,2 2.5,2.5 -0.578,1.417 -1.578,2.25 -3,2.5 z"
       id="path65" />
  </g>
  <g
     id="g66"
     transform="translate(-147.7836,-260.48753)">
    <path
       style="opacity:1"
       fill="#b1b1b1"
       d="m 639.5,938.5 c 7.413,-0.628 14.413,0.039 21,2 -0.923,3.564 -1.256,7.231 -1,11 -1.321,-3.733 -1.321,-7.566 0,-11.5 -6.846,-0.172 -13.513,-0.672 -20,-1.5 z"
       id="path66" />
  </g>
  <g
     id="g67"
     transform="translate(-147.7836,-260.48753)">
    <path
       style="opacity:1"
       fill="#696969"
       d="m 1063.5,942.5 c -39,0 -78,0 -117,0 0.268,1.599 -0.066,2.932 -1,4 0,-1.667 0,-3.333 0,-5 39.504,-0.332 78.84,10e-4 118,1 z"
       id="path67" />
  </g>
  <g
     id="g68"
     transform="translate(-147.7836,-260.48753)">
    <path
       style="opacity:1"
       fill="#727272"
       d="m 284.5,950.5 c 4.883,1.369 9.883,2.036 15,2 6.838,-0.917 13.504,-0.917 20,0 -9.99,0.833 -19.99,1 -30,0.5 -1.815,-0.757 -3.481,-1.59 -5,-2.5 z"
       id="path68" />
  </g>
  <g
     id="g69"
     transform="translate(-147.7836,-260.48753)">
    <path
       style="opacity:1"
       fill="#343434"
       d="m 660.5,954.5 c 5.056,2.723 8.723,6.723 11,12 -5.047,-2.78 -8.714,-6.78 -11,-12 z"
       id="path69" />
  </g>
  <g
     id="g70"
     transform="translate(-147.7836,-260.48753)">
    <path
       style="opacity:1"
       fill="#aaaaaa"
       d="m 1403.5,940.5 c 0.81,1.792 1.31,3.792 1.5,6 0.5,11.328 0.67,22.662 0.5,34 -0.92,-13.166 -1.58,-26.499 -2,-40 z"
       id="path70" />
  </g>
  <g
     id="g71"
     transform="translate(-147.7836,-260.48753)">
    <path
       style="opacity:1"
       fill="#dfdfdf"
       d="m 922.5,969.5 c -0.111,0.617 -0.444,1.117 -1,1.5 -2.667,0.333 -5.333,0.667 -8,1 -76,0.667 -152,0.667 -228,0 -1.558,-0.21 -2.891,-0.71 -4,-1.5 76.652,1.149 153.318,1.315 230,0.5 3.691,-0.42 7.358,-0.92 11,-1.5 z"
       id="path71" />
  </g>
  <g
     id="g72"
     transform="translate(-147.7836,-260.48753)">
    <path
       style="opacity:1"
       fill="#4b4b4b"
       d="m 891.5,998.5 c -56.072,-0.329 -112.072,0.004 -168,1 27.659,-1.333 55.659,-2 84,-2 28.169,0 56.169,0.333 84,1 z"
       id="path72" />
  </g>
  <g
     id="g73"
     transform="translate(-147.7836,-260.48753)">
    <path
       style="opacity:1"
       fill="#040404"
       d="m 891.5,998.5 c 0.958,11.62 1.291,23.28 1,35 -0.111,0.62 -0.444,1.12 -1,1.5 -55.667,0.67 -111.333,0.67 -167,0 -0.5,-0.5 -1,-1 -1.5,-1.5 -0.826,-11.51 -0.659,-22.84 0.5,-34 55.928,-0.996 111.928,-1.329 168,-1 z"
       id="path73" />
  </g>
  <g
     id="g74"
     transform="translate(-147.7836,-260.48753)">
    <path
       style="opacity:1"
       fill="#2f2f2f"
       d="m 891.5,998.5 c 0.617,0.111 1.117,0.444 1.5,1 0.826,11.51 0.659,22.84 -0.5,34 0.291,-11.72 -0.042,-23.38 -1,-35 z"
       id="path74" />
  </g>
  <g
     id="g75"
     transform="translate(-147.7836,-260.48753)">
    <path
       style="opacity:1"
       fill="#a2a2a2"
       d="m 266.5,1025.5 c 4.499,1.1 8.832,2.43 13,4 -4.912,0.25 -9.245,-1.08 -13,-4 z"
       id="path75" />
  </g>
  <g
     id="g76"
     transform="translate(-147.7836,-260.48753)">
    <path
       style="opacity:1"
       fill="#797979"
       d="m 311.5,1067.5 c -2.009,1.57 -4.343,2.57 -7,3 1.82,-1.95 4.154,-2.95 7,-3 z"
       id="path76" />
  </g>
  <g
     id="g77"
     transform="translate(-147.7836,-260.48753)">
    <path
       style="opacity:1"
       fill="#2f2f2f"
       d="m 265.5,1070.5 c 9.984,0.71 19.984,1.05 30,1 -3.819,0.67 -7.819,1 -12,1 -6.24,0.17 -12.24,-0.5 -18,-2 z"
       id="path77" />
  </g>
  <g
     id="g78"
     transform="translate(-147.7836,-260.48753)">
    <path
       style="opacity:1"
       fill="#d9d9d9"
       d="m 1225.5,1027.5 c 1.33,3.76 2.17,7.76 2.5,12 0.47,21.34 0.97,42.67 1.5,64 -1.11,-5.68 -2.11,-11.51 -3,-17.5 1.49,-19.54 1.16,-39.04 -1,-58.5 z"
       id="path78" />
  </g>
  <g
     id="g79"
     inkscape:label="g79"
     transform="translate(-147.7836,-260.48753)">
    <path
       style="opacity:1"
       fill="#8c8c8c"
       d="m 1406.5,1087.5 c 1.17,64.5 1.84,129.16 2,194 -1.51,-64.49 -2.18,-129.16 -2,-194 z"
       id="path79" />
  </g>
  <g
     id="g80"
     transform="translate(-147.7836,-260.48753)">
    <path
       style="opacity:1"
       fill="#333333"
       d="m 1233.5,1286.5 c 1.43,16.48 2.09,33.15 2,50 22.67,0 45.33,0 68,0 -22.83,1 -45.83,1.33 -69,1 -0.31,-17 -0.64,-34 -1,-51 z"
       id="path80" />
  </g>
  <g
     id="g81"
     transform="translate(-147.7836,-260.48753)">
    <path
       style="opacity:1"
       fill="#b2b2b2"
       d="m 1450.5,1287.5 c 1,16.49 1.33,33.16 1,50 -72.5,0.43 -144.84,0.43 -217,0 23.17,0.33 46.17,0 69,-1 49,0 98,0 147,0 0,-16.33 0,-32.67 0,-49 z"
       id="path81" />
  </g>
</svg>
