<svg xmlns="http://www.w3.org/2000/svg" viewBox="0 0 725.91 696.2"><path fill="#57191f" d="M511.5 164.5a10 10 0 0 1-2 3.5q.66 2.64 1.5-.5a4.3 4.3 0 0 1 0 4q-.97-1.8-1.5 0 2.76 1.4 1 3.5a23 23 0 0 1 5 4q-6.58 1.15-13-.5-1.2.45-2 1.5-18.31.04-36 2.5a29 29 0 0 1-10 1q.16-.93 1-1.5 5.4-.04 10-2.5a11 11 0 0 1-2.5-3q-1.35 1.81-2.5 0 5.18-1.47 1-4.5l5-1a193 193 0 0 1-3-4 296 296 0 0 1 48-2.5" style="opacity:1" transform="translate(-148.5 -163.43)"/><path fill="#5d181c" d="M511.5 164.5h22a3.1 3.1 0 0 1-1 3q-1.8-.52 0-1.5a6.5 6.5 0 0 0-5 0l3 1-7 1 2 1a193 193 0 0 0-3 4q2.1.9 4-.5 2.1 3.25-1 5.5a265 265 0 0 0 33 3.5h-41q-26.52-.2-53 1a265 265 0 0 1 36-2.5q.8-1.05 2-1.5a30 30 0 0 0 13 .5 23 23 0 0 0-5-4q1.76-2.1-1-3.5.53-1.8 1.5 0a4.3 4.3 0 0 0 0-4q-.84 3.14-1.5.5 1.4-1.62 2-3.5" style="opacity:1" transform="translate(-148.5 -163.43)"/><path fill="#652e31" d="M553.5 164.5q20.8-.35 41 2-20.81.63-41-2" style="opacity:1" transform="translate(-148.5 -163.43)"/><path fill="#51191e" d="M544.5 163.5a31 31 0 0 1-11 1h-22q-24.13-.7-48 2.5 1.34 1.83 3 4l-5 1q4.18 3.03-1 4.5 1.15 1.81 2.5 0a11 11 0 0 0 2.5 3 21 21 0 0 1-10 2.5q-.84.57-1 1.5h-9q-1.1-.2-2 .5a40 40 0 0 0 1 11.5q12.93 1.4 25 1-.57 2.14-3 2.5 2.82.3 5 1.5a783 783 0 0 0-108.5 12q-2.06.27-2.5 2-4.62-1.8-8.5 0-2.96-1.4-5.5-3.5 4.65-.58 8-3.5a484 484 0 0 1 84-12v-11a652 652 0 0 0-62 6 26.5 26.5 0 0 0-15 2q-3.7-3-6.5-7l-1 1a11.5 11.5 0 0 0-4.5-3.5 8.3 8.3 0 0 0-2.5-4.5l1 1a32.7 32.7 0 0 1 19.5-3 7 7 0 0 1 1.5 3q1.98-4.35 6.5-3.5-1.3 2.6.5 5.5l1-2q2.1 1.1 2.5 3.5-.91 2.3 0 4l-3 1q8.25 1.4 16-1.5 5.03 1.36 9-2.5l-2-1q-3.4.58-6.5.5a15 15 0 0 1-3.5-3q-.36 1.12-1 2.5-3.24.12-6 .5a11 11 0 0 1-2-2.5l6-2q-1.85-1.77 0-3.5.88.3 1.5 1 1.02-1.92-.5-3.5 26.51-2.58 53-6-3.97-.75-8-.5a519 519 0 0 1 38-2.5q37-.75 74-.5" style="opacity:1" transform="translate(-148.5 -163.43)"/><path fill="#672e30" d="M598.5 166.5q23.38.99 46 5-22.01-1.25-44-3.5a3.3 3.3 0 0 1-2-1.5" style="opacity:1" transform="translate(-148.5 -163.43)"/><path fill="#4a1a1e" d="M432.5 166.5q4.03-.25 8 .5a1673 1673 0 0 1-53 6q1.52 1.58.5 3.5-.62-.7-1.5-1-1.85 1.73 0 3.5l-6 2q.82 1.4 2 2.5 2.76-.38 6-.5.64-1.38 1-2.5a15 15 0 0 0 3.5 3q3.1.08 6.5-.5l2 1q-3.97 3.86-9 2.5a30.4 30.4 0 0 1-16 1.5l3-1q-.91-1.7 0-4a4.6 4.6 0 0 0-2.5-3.5l-1 2q-1.8-2.9-.5-5.5-4.52-.85-6.5 3.5a7 7 0 0 0-1.5-3 32.7 32.7 0 0 0-19.5 3l-1-1a8.3 8.3 0 0 1 2.5 4.5q2.69 1.18 4.5 3.5l1-1q2.8 4 6.5 7l-23 4a8 8 0 0 1 0-5.5 32 32 0 0 0-5-4.5q.53-1.8 1.5 0 .72-1.42.5-3a5 5 0 0 0 3-.5q-5.4 1.03-10-1.5a515 515 0 0 1 104-15" style="opacity:1" transform="translate(-148.5 -163.43)"/><path fill="#833d2b" d="M543.5 181.5h15q13.75.5 27 2a486 486 0 0 1-42-2" style="opacity:1" transform="translate(-148.5 -163.43)"/><path fill="#50181e" d="M328.5 181.5a14.5 14.5 0 0 0 10 1.5q-1.42.72-3 .5a5 5 0 0 1-.5 3q-.97-1.8-1.5 0a32 32 0 0 1 5 4.5 8 8 0 0 0 0 5.5 2.3 2.3 0 0 1-1.5-1 11 11 0 0 1-7 4 7 7 0 0 0-1.5-3q-1.81 1.15 0 2.5-2.6 1.79-5 3.5a19.5 19.5 0 0 1-13.5-6l-1 1a13.6 13.6 0 0 1 1.5-7.5q-2.35-.9-4-2.5a90 90 0 0 1 22-6" style="opacity:1" transform="translate(-148.5 -163.43)"/><path fill="#ab5d3e" d="M517.5 181.5v10q-21.36.48-42.5-1-1.6 1.05-3.5 1.5-12.53.5-25 1.5a6.9 6.9 0 0 0-1-5v-5h9q5.16.37 10-1 26.48-1.2 53-1" style="opacity:1" transform="translate(-148.5 -163.43)"/><path fill="#691a24" d="M544.5 163.5q4.65-.36 9 1a257 257 0 0 0 41 2h4a3.3 3.3 0 0 0 2 1.5 977 977 0 0 0 44 3.5 296 296 0 0 1 84 19.5 20 20 0 0 1 9 7.5 5.6 5.6 0 0 0 1 3 60 60 0 0 1-9.5 13q-1.92-.15-3.5 0a146 146 0 0 1-32 9 12 12 0 0 0 5-3 13.7 13.7 0 0 1-5-7l2-2a5.6 5.6 0 0 1-1-3 4.9 4.9 0 0 0 4-1q-.19-.9-1-1a39 39 0 0 1 5-2.5 38 38 0 0 0-10-4.5 7 7 0 0 0-2-2.5 720 720 0 0 0-44.5-8.5 6 6 0 0 0-3.5 1h-2a62 62 0 0 0-14.5-4 12 12 0 0 0-4-3q-13.74 4.33-27.5-2a6.7 6.7 0 0 0-3 4.5 34 34 0 0 1 1 10.5q-4.2-1.65-2-5.5l-2.5-3.5q-.3 3.3-1.5 6 .47-4.81-1-9-13.25-1.5-27-2a265 265 0 0 1-33-3.5q3.1-2.25 1-5.5a3.8 3.8 0 0 1-4 .5q1.34-1.83 3-4l-2-1 7-1-3-1a6.5 6.5 0 0 1 5 0q-1.8.98 0 1.5a3.1 3.1 0 0 0 1-3q5.8.47 11-1" style="opacity:1" transform="translate(-148.5 -163.43)"/><path fill="#6b201c" d="M640.5 189.5a390 390 0 0 0-47-5v11h-1q.33-5.34-1-10.5a6.7 6.7 0 0 1 3-4.5q13.76 6.33 27.5 2 2.3 1.08 4 3a62 62 0 0 1 14.5 4" style="opacity:1" transform="translate(-148.5 -163.43)"/><path fill="#581a20" d="M306.5 187.5q1.65 1.6 4 2.5a13.6 13.6 0 0 0-1.5 7.5l1-1a19.5 19.5 0 0 0 13.5 6v1a12 12 0 0 1-6.5-1q-1.23 1.95-1.5 4.5-3.85-.36-7 3 1.21.45 2 1.5-1.81 1.83 0 3.5-5.65 1.15.5 2.5 3-2.25 5 1 .72-1.42.5-3 2.71 0 5 1.5-2 1.5 0 3 4.94 0 8 3.5a105 105 0 0 1-29-9 66 66 0 0 0-5 15q-.1-4.07-1-8.5 1.1-2.1 1.5-4.5 1-2 2 0 .18-5.34-5.5-6.5l-5.5-6.5a30 30 0 0 1-5.5 6q2.22-13.47 15-18.5a62 62 0 0 1 10-3.5" style="opacity:1" transform="translate(-148.5 -163.43)"/><path fill="#d79765" d="M644.5 190.5q24.42 2.25 48 9a38 38 0 0 1 10 4.5 39 39 0 0 0-5 2.5q-7.2 1.6-14.5 3-4.44-.42-8.5-2-1.65-1.35 0-2.5a819 819 0 0 0-80-10.5v-8q24.1-.13 47.5 5a2.9 2.9 0 0 1 2.5-1" style="opacity:1" transform="translate(-148.5 -163.43)"/><path fill="#d89771" d="M517.5 181.5h26a486 486 0 0 0 42 2 21 21 0 0 1 1 9q-6.93 2-15 2-18-.79-36-1l-18-2z" style="opacity:1" transform="translate(-148.5 -163.43)"/><path fill="#d69663" d="M518.5 182.5q33.49 1.45 67 2 2.52 10-7.5 9-29.22-1.8-58.5-2.5a20 20 0 0 1-1-8.5" style="opacity:1" transform="translate(-148.5 -163.43)"/><path fill="#d69471" d="M640.5 189.5h2q1.5-.26 2 1-1.5-.13-2.5 1a216 216 0 0 0-47.5-5v8a819 819 0 0 1 80 10.5q-1.65 1.15 0 2.5a742 742 0 0 0-81-12v-11q23.66 1.07 47 5" style="opacity:1" transform="translate(-148.5 -163.43)"/><path fill="#541513" d="M376.5 190.5a341 341 0 0 0-53 13v-1q2.4-1.71 5-3.5-1.81-1.35 0-2.5a7 7 0 0 1 1.5 3q4.3-.7 7-4 .57.84 1.5 1l23-4a26.5 26.5 0 0 1 15-2" style="opacity:1" transform="translate(-148.5 -163.43)"/><path fill="#55181e" d="M533.5 200.5h-62q-2.18-1.2-5-1.5 2.43-.36 3-2.5a32 32 0 0 1 6-1.5q31-1 62 0-2 1 0 2-1.92 1.03-3.5-.5-.48 2.7-2 1a20 20 0 0 1-5.5 1.5q3.8.28 7 1.5" style="opacity:1" transform="translate(-148.5 -163.43)"/><path fill="#591919" d="M445.5 183.5v11q45-1.2 90-1 18 .21 36 1 8.07 0 15-2 1.2-2.7 1.5-6l2.5 3.5q-2.2 3.85 2 5.5h1q40.65 3.74 81 12a32 32 0 0 0 8.5 2q7.3-1.4 14.5-3 .81.1 1 1a4.9 4.9 0 0 1-4 1 6.3 6.3 0 0 0-2.5 4l-1.5-1.5-7-.5a64 64 0 0 0-9.5 1 5 5 0 0 1-.5-3q-5.27.3-10-2a5.7 5.7 0 0 0-3.5 3q-.93-1.42.5-2.5a357 357 0 0 1-30.5-6.5q-5.25-.4-11 1a70 70 0 0 0-25.5-3.5q-.64 1.38-1 2.5-6.06-3.94-2 2h-8v-1q3.29-1.3 3-5a588 588 0 0 1-33.5-2 30 30 0 0 1-5.5 4.5q-3.9-.65-7.5-.5a4.3 4.3 0 0 0-1.5 2h-4a25 25 0 0 0-7-1.5q2.9-.37 5.5-1.5 1.52 1.7 2-1 1.58 1.53 3.5.5-2-1 0-2a961 961 0 0 0-62 0 32 32 0 0 0-6 1.5q-12.07.4-25-1a40 40 0 0 1-1-11.5q.9-.7 2-.5" style="opacity:1" transform="translate(-148.5 -163.43)"/><path fill="#a65d47" d="M445.5 188.5a6.9 6.9 0 0 1 1 5q12.47-1 25-1.5 1.9-.45 3.5-1.5 21.14 1.48 42.5 1l18 2q-45-.2-90 1z" style="opacity:1" transform="translate(-148.5 -163.43)"/><path fill="#72271d" d="M642.5 189.5a6 6 0 0 1 3.5-1 720 720 0 0 1 44.5 8.5q1.32 1.05 2 2.5a260 260 0 0 0-48-9q-.5-1.26-2-1" style="opacity:1" transform="translate(-148.5 -163.43)"/><path fill="#a5573c" d="M354.5 207.5a46 46 0 0 1-17 1.5 348 348 0 0 0-12.5-3.5q-1.54-.5-1.5-2a341 341 0 0 1 53-13 652 652 0 0 1 62-6v11a484 484 0 0 0-84 12" style="opacity:1" transform="translate(-148.5 -163.43)"/><path fill="#56181f" d="M582.5 201.5a801 801 0 0 0-45-1 4.3 4.3 0 0 1 1.5-2q3.6-.15 7.5.5 3.04-1.95 5.5-4.5 16.64 1.47 33.5 2 .29 3.7-3 5" style="opacity:1" transform="translate(-148.5 -163.43)"/><path fill="#6f1924" d="M295.5 229.5a35 35 0 0 0-2 8q7.1 1.03 14 3a291 291 0 0 0 42 8q-.12 1.87-2 2.5 3.21 3.17 6-.5.88.3 1.5 1l1-4q.57.84 1.5 1v2q22.05 4.72 45 5h1a401 401 0 0 0 25 4 27 27 0 0 1 14.5 0l3-3 1-12a4.2 4.2 0 0 1 4.5-.5 45 45 0 0 0-1.5 14.5l2 2a20 20 0 0 1 8.5-1q40.25.5 80-1h7q4.82.47 9-1h19q-.72 1.38-1 3 2.1 17.94 3 36-64.71 2.25-129 3h-1q-3.75-1.5-7 0 .13-1.5-1-2.5a395 395 0 0 1-57-5q1.73-1.37-.5-2.5-1.6 1.05-3.5 1.5l3 1-4.5.5a405 405 0 0 1-22.5-4q-1.02.54-2 1a36 36 0 0 0-4.5-2q-4.72 4.4-8-1a49 49 0 0 1-18.5-2.5 27 27 0 0 0-2-3.5 8 8 0 0 1-6 2 80 80 0 0 1-26.5-7q-2.06.27-2.5 2a13 13 0 0 0-4 7 16 16 0 0 1-4.5 7q-.3 2.55 0 5-2.01-2.1-2.5 1 .82 2.46 1 5h-3q.25-2.55-.5-5-1.33 2.08-1.5-.5a4.7 4.7 0 0 1 2-3 11 11 0 0 1-3-4.5l-2 4a3.7 3.7 0 0 1-1.5-1 7 7 0 0 1-2.5 3.5q1.17 1.6-.5 3.5a19.6 19.6 0 0 1-1-12 25 25 0 0 0 2.5-10v-1q5.3-4.6 2-10.5 4.65-5.24 1-12l.5-1.5a3.3 3.3 0 0 0 3.5 2q-2.1-3.79 1-6.5-.7-.62-1-1.5a62 62 0 0 1 6.5-16 76 76 0 0 0 4.5-20v-1a30 30 0 0 0 5.5-6l5.5 6.5q5.68 1.16 5.5 6.5-1-2-2 0-.4 2.4-1.5 4.5.9 4.43 1 8.5" style="opacity:1" transform="translate(-148.5 -163.43)"/><path fill="#d69565" d="M544.5 201.5q.16.93 1 1.5 13.53.48 27 1.5a32 32 0 0 0 11 2.5 7 7 0 0 0-3.5 2.5q-2-4-4 0-5.34-5.2-11.5 0a7.3 7.3 0 0 1-3-2q-1.95 1.83-3-1-1.95.9-4 1.5 2.25 1.25 1.5 3.5-3.3-3.5-6 0-1.02-1.92.5-3.5-5.65-2.08 0-3-2.45-.75-5-.5a4.4 4.4 0 0 0 1 3.5q-2.1.9-4-.5a15 15 0 0 0-3.5 3l-3-2q.08 3.2-.5 6-2.8-.67-5.5-1a3.8 3.8 0 0 1-2.5 2q-11.44-2.54-22-5-2.57 1.76-2 5a7.1 7.1 0 0 1-6.5-2q-1.52 1.7-2-1-6.28 4.98-7.5-3-.1 1.3-1 3a3.1 3.1 0 0 1-3 1q-.15-5.72-2 0 .6-2.1-2.5-3-1 2-2 0-1.2 3.6-2.5-.5-1.9-.45-3.5-1.5l-1 1q-.47-1.86 1.5-3l-1-1a11 11 0 0 1-3.5 2q-2-2-4 0-2.75-.76-.5-2.5a361 361 0 0 0-52.5 3.5q-3.05 0-5.5-1a971 971 0 0 1 140-6" style="opacity:1" transform="translate(-148.5 -163.43)"/><path fill="#d4936e" d="M544.5 201.5q15 .63 30 1a576 576 0 0 1 87 11.5 693 693 0 0 1-57 6.5h-7a348 348 0 0 1 37.5-4q6.82-1.14 13.5-3l-1-1a500 500 0 0 0-75-8 670 670 0 0 0-27-1.5 2.3 2.3 0 0 1-1-1.5" style="opacity:1" transform="translate(-148.5 -163.43)"/><path fill="#d5955e" d="M572.5 204.5q37.86 1.17 75 8l1 1a132 132 0 0 1-13.5 3 348 348 0 0 0-37.5 4h-13a4498 4498 0 0 1-122 1q-11.04.12-22-1a113 113 0 0 1-14.5-4 32 32 0 0 1-9 2 8 8 0 0 1-5-2q-9 2.4-18.5-1a28 28 0 0 0 8.5-5l1 1q.72-1.42.5-3h-3a4.6 4.6 0 0 1 4-1q2.45 1 5.5 1a361 361 0 0 1 52.5-3.5q-2.25 1.74.5 2.5 2-2 4 0a11 11 0 0 0 3.5-2l1 1q-1.97 1.14-1.5 3l1-1q1.6 1.05 3.5 1.5 1.3 4.1 2.5.5 1 2 2 0 3.1.9 2.5 3 1.85-5.72 2 0a3.1 3.1 0 0 0 3-1q.9-1.7 1-3 1.22 7.98 7.5 3 .48 2.7 2 1a7.1 7.1 0 0 0 6.5 2q-.57-3.24 2-5 10.56 2.46 22 5a3.8 3.8 0 0 0 2.5-2q2.7.33 5.5 1 .58-2.8.5-6l3 2a15 15 0 0 1 3.5-3q1.9 1.4 4 .5a4.4 4.4 0 0 1-1-3.5q2.55-.25 5 .5-5.65.92 0 3-1.52 1.58-.5 3.5 2.7-3.5 6 0 .75-2.25-1.5-3.5 2.05-.6 4-1.5 1.05 2.83 3 1a7.3 7.3 0 0 0 3 2q6.16-5.2 11.5 0 2-4 4 0a7 7 0 0 1 3.5-2.5 32 32 0 0 1-11-2.5" style="opacity:1" transform="translate(-148.5 -163.43)"/><path fill="#5f1f16" d="M574.5 202.5h16a789 789 0 0 1 71.5 9q2.2-1.3 3.5 1.5l-.5 1.5q-2.43.9-4.5 2a1000 1000 0 0 1-33 3.5q-11.5.75-23 .5a693 693 0 0 0 57-6.5 576 576 0 0 0-87-11.5" style="opacity:1" transform="translate(-148.5 -163.43)"/><path fill="#5e1a21" d="M694.5 208.5a5.6 5.6 0 0 0 1 3l-2 2q1.36 4.3 5 7a12 12 0 0 1-5 3 180 180 0 0 0-23 6q-.81-.1-1-1l4-3q-4.05-4-9-3.5l-2-2q1.28-2.67-2-3.5 2.07-1.1 4.5-2l.5-1.5q-1.3-2.8-3.5-1.5a789 789 0 0 0-71.5-9q-4.06-5.94 2-2 .36-1.12 1-2.5 13.07-.63 25.5 3.5 5.75-1.4 11-1 14.97 3.9 30.5 6.5-1.43 1.08-.5 2.5a5.7 5.7 0 0 1 3.5-3 20 20 0 0 0 10 2 5 5 0 0 0 .5 3 64 64 0 0 1 9.5-1l7 .5 1.5 1.5a6.3 6.3 0 0 1 2.5-4" style="opacity:1" transform="translate(-148.5 -163.43)"/><path fill="#601a20" d="M323.5 203.5q-.04 1.5 1.5 2 6.29 1.64 12.5 3.5 8.64.84 17-1.5a14.7 14.7 0 0 1-8 3.5q2.54 2.1 5.5 3.5 3.88-1.8 8.5 0l2-1 2 2a622 622 0 0 0 55 6.5q13 .75 26 .5 6.77 1.25 14 2a71 71 0 0 1-4 2q3.63 3.31-2 3 .78 6.78-4 3 3.85-3.9-1-7-2.94 1.04-7 2a4.9 4.9 0 0 1-1 4 32 32 0 0 0-2.5-4q-1.94 2.03-.5 4 2.25 1.11 4.5 2l1-1q1.02 4.34 4.5 2a7 7 0 0 1 3 2 12 12 0 0 0-.5 6 13 13 0 0 1-3.5-6h-15a1934 1934 0 0 1-69-6v3q-2.75 7.29-5 15a2.3 2.3 0 0 1-1.5-1l-1 4q-.62-.7-1.5-1-2.79 3.66-6 .5 1.88-.63 2-2.5l4-14a16 16 0 0 1 2-5 959 959 0 0 0-26-6 10.2 10.2 0 0 0-8-3.5q-2-1.5 0-3a9 9 0 0 0-5-1.5 5 5 0 0 1-.5 3q-2-3.25-5-1-6.15-1.35-.5-2.5-1.81-1.67 0-3.5-.79-1.05-2-1.5 3.15-3.36 7-3 .27-2.55 1.5-4.5a12 12 0 0 0 6.5 1" style="opacity:1" transform="translate(-148.5 -163.43)"/><path fill="#511610" d="M471.5 200.5h66a801 801 0 0 1 45 1v1h-8q-15-.37-30-1a971 971 0 0 0-140 6 4.6 4.6 0 0 0-4 1 933 933 0 0 0-38 5l-2 1q.44-1.73 2.5-2a783 783 0 0 1 108.5-12" style="opacity:1" transform="translate(-148.5 -163.43)"/><path fill="#d28f65" d="M400.5 208.5h3a5 5 0 0 1-.5 3l-1-1a28 28 0 0 1-8.5 5q9.5 3.4 18.5 1a8 8 0 0 0 5 2q5.13-.45 9-2 7.12 2.49 14.5 4h-13a849 849 0 0 1-63-5l-2-2q18.95-2.9 38-5" style="opacity:1" transform="translate(-148.5 -163.43)"/><path fill="#eed7c6" d="M329.5 223.5a959 959 0 0 1 26 6 16 16 0 0 0-2 5h-2a259 259 0 0 1-37-7 22.3 22.3 0 0 0-5 13h-2q-6.9-1.97-14-3a35 35 0 0 1 2-8 66 66 0 0 1 5-15q13.86 6.62 29 9" style="opacity:1" transform="translate(-148.5 -163.43)"/><path fill="#55181e" d="M660.5 216.5q3.28.83 2 3.5l2 2q4.95-.5 9 3.5l-4 3q.19.9 1 1v1q-.36 2.95 1 5.5a7 7 0 0 0-4 2.5q-2.7-4.65-3-10a264 264 0 0 0-40 5h-2q-6.9.45-13.5-1a106 106 0 0 1-18 3q-4.65-1.43-9.5-2.5 1.14-2.04-1.5-3.5-2.62.51-5.5 3-4.08-4.9-9 0 2.37 1.2 5 1.5a23.6 23.6 0 0 1-15 2q-2.25-1.25-1.5-3.5 4.05 2.7 6-3a7.3 7.3 0 0 0 2 3q2.99-4.55-2-7-4.5 1.16-10.5 2l-1-.5a81 81 0 0 0 3-2.5q23.76-1.4 48-2.5.84-.57 1-1.5h4q11.5.25 23-.5 16.62-1.49 33-3.5" style="opacity:1" transform="translate(-148.5 -163.43)"/><path fill="#5a1610" d="M364.5 215.5a849 849 0 0 0 63 5l18 2q-13 .25-26-.5a622 622 0 0 1-55-6.5" style="opacity:1" transform="translate(-148.5 -163.43)"/><path fill="#b57256" d="M427.5 220.5h13q10.96 1.12 22 1v1h-17z" style="opacity:1" transform="translate(-148.5 -163.43)"/><path fill="#ce8c66" d="M584.5 220.5a1046 1046 0 0 1-122 2v-1q61 .33 122-1" style="opacity:1" transform="translate(-148.5 -163.43)"/><path fill="#5b1710" d="M584.5 220.5h16a2.3 2.3 0 0 1-1 1.5q-24.24 1.1-48 2.5h-92q-7.23-.75-14-2h17a1046 1046 0 0 0 122-2" style="opacity:1" transform="translate(-148.5 -163.43)"/><path fill="#641924" d="M459.5 224.5h74a9.8 9.8 0 0 1-6 2.5q2.45 2.48-1 3a5.9 5.9 0 0 1 .5 5.5 7.3 7.3 0 0 1-2-3q-1.02 1.92.5 3.5-2.96.75-6 .5-3.37-2-1-5.5-.9-2.74-2-5.5a7 7 0 0 0-2.5 2q-5.1-.75-10.5 0a6.4 6.4 0 0 1-5-2q-1.05.8-1.5 2l-1-1-11 2-4-2a28 28 0 0 0-10 3 7 7 0 0 0-2.5-2q-2 10-4 0a7 7 0 0 0-1.5 3q-2.57-2.14-4 1-7.77-2.4-1.5 2.5-2.9.19-4 2.5h-3a7 7 0 0 0-3-2q-3.48 2.34-4.5-2l-1 1q-2.25-.89-4.5-2-1.44-1.97.5-4 1.38 1.9 2.5 4a4.9 4.9 0 0 0 1-4q4.06-.96 7-2 4.85 3.1 1 7 4.78 3.78 4-3 5.63.31 2-3a71 71 0 0 0 4-2" style="opacity:1" transform="translate(-148.5 -163.43)"/><path fill="#ad633f" d="M725.5 214.5a263 263 0 0 1 5 22q-3.43.14-6 2a82 82 0 0 0-10 2 4.9 4.9 0 0 1-4-1l-4-11q-.8 6.08 2 12-.55 1.02-1 2a86 86 0 0 0-18 4q-6.61.66-13 0a222 222 0 0 0-6-16v-1q11.29-3.75 23-6a146 146 0 0 0 32-9" style="opacity:1" transform="translate(-148.5 -163.43)"/><path fill="#64181f" d="M519.5 236.5v1q-32.96-1.45-66-1 1.1-2.31 4-2.5-6.27-4.9 1.5-2.5 1.43-3.14 4-1a7 7 0 0 1 1.5-3q2 10 4 0a7 7 0 0 1 2.5 2 28 28 0 0 1 10-3l4 2 11-2 1 1q.45-1.2 1.5-2a6.4 6.4 0 0 0 5 2q5.4-.75 10.5 0a7 7 0 0 1 2.5-2q1.1 2.76 2 5.5-2.37 3.5 1 5.5" style="opacity:1" transform="translate(-148.5 -163.43)"/><path fill="#5c191c" d="M533.5 224.5h18q-1.4 1.23-3 2.5l1 .5q6-.84 10.5-2 4.99 2.45 2 7a7.3 7.3 0 0 1-2-3q-1.95 5.7-6 3-.75 2.25 1.5 3.5 7.92 1.45 15-2-2.63-.3-5-1.5 4.92-4.9 9 0 2.88-2.49 5.5-3 2.64 1.46 1.5 3.5 4.85 1.07 9.5 2.5 9.15-.72 18-3 6.6 1.45 13.5 1-21.5 2.1-43 4 2 9.4 3 19 5.2 1.48 11 1a23.5 23.5 0 0 1-13.5 0q-.67 2.59-2.5 2a549 549 0 0 0 1 37h-1q-.9-18.06-3-36 .28-1.62 1-3a145 145 0 0 0-4-19.5q-15-.75-30-.5h-22v-1q3.04.25 6-.5-1.52-1.58-.5-3.5a7.3 7.3 0 0 0 2 3 5.9 5.9 0 0 0-.5-5.5q3.45-.52 1-3a9.8 9.8 0 0 0 6-2.5" style="opacity:1" transform="translate(-148.5 -163.43)"/><path fill="#8e452a" d="M714.5 240.5q-3.24 1.35-7 2 .45-.98 1-2a21.2 21.2 0 0 1-2-12l4 11a4.9 4.9 0 0 0 4 1" style="opacity:1" transform="translate(-148.5 -163.43)"/><path fill="#d39561" d="M351.5 234.5a34 34 0 0 1-3 11l-5 1q-13.84-2.9-28-5.5a7 7 0 0 1-4.5-2.5 3.3 3.3 0 0 1-1.5 2q.46-7.4 5-13a259 259 0 0 0 37 7" style="opacity:1" transform="translate(-148.5 -163.43)"/><path fill="#eed4c2" d="M431.5 236.5a7 7 0 0 1-2 2.5q-27.51.15-55-1.5-5.97-.78-12-1v-6q34.46 3.62 69 6" style="opacity:1" transform="translate(-148.5 -163.43)"/><path fill="#ae623e" d="M593.5 257.5q-5.8.48-11-1h10q-.99-9.15-3.5-18a25 25 0 0 0-9.5-1q21.5-1.9 43-4h2q18.6-1.28 37-4 .88.3 1.5 1 3 9.46 5.5 19-37.72 4.12-75 8" style="opacity:1" transform="translate(-148.5 -163.43)"/><path fill="#a4675a" d="M436.5 236.5h10q.35 1.95-1 3v-1z" style="opacity:1" transform="translate(-148.5 -163.43)"/><path fill="#f1cfb3" d="M431.5 236.5h5l9 2a229 229 0 0 1-36 2 248 248 0 0 1-35-3q27.49 1.65 55 1.5a7 7 0 0 0 2-2.5" style="opacity:1" transform="translate(-148.5 -163.43)"/><path fill="#d28d6b" d="M351.5 234.5h2l-4 14a291 291 0 0 1-42-8h2a3.3 3.3 0 0 0 1.5-2 7 7 0 0 0 4.5 2.5q14.16 2.6 28 5.5l5-1a34 34 0 0 0 3-11" style="opacity:1" transform="translate(-148.5 -163.43)"/><path fill="#daa87f" d="M445.5 238.5v1q-1.15 3.9-1 8a14 14 0 0 0-3-5.5q-16.25-.25-32-1.5 18.1.42 36-2" style="opacity:1" transform="translate(-148.5 -163.43)"/><path fill="#d59563" d="M541.5 237.5q15-.25 30 .5a145 145 0 0 1 4 19.5h-25a51 51 0 0 0-3-15 42 42 0 0 0 0 16h-27q-.95-10.05-2-20 11.78.5 23-1" style="opacity:1" transform="translate(-148.5 -163.43)"/><path fill="#6a201a" d="M446.5 236.5a13 13 0 0 0 3.5 6 12 12 0 0 1 .5-6h3q33.04-.45 66 1h22q-11.22 1.5-23 1h-2q-31.51.3-63-1-1.5 9.95-2 20l9 2q-4.42-.41-8.5 1l-2-2q-.42-7.4 1.5-14.5a4.2 4.2 0 0 0-4.5.5l-1 12-3 3a27 27 0 0 0-14.5 0 401 401 0 0 1-25-4h12q11.25 1.27 23 2 2.8 0 5-1 0-4.56 1-9-.15-4.1 1-8 1.35-1.05 1-3" style="opacity:1" transform="translate(-148.5 -163.43)"/><path fill="#d6965d" d="M516.5 242.5v13a108 108 0 0 1-25 .5q3.96-4.1 2-9.5 4.78-6.69 10-2 1.8-.52 0-1.5 6.9-2.34 13-.5" style="opacity:1" transform="translate(-148.5 -163.43)"/><path fill="#d59764" d="M362.5 233.5v3q6.03.22 12 1a248 248 0 0 0 35 3q15.75 1.25 32 1.5a14 14 0 0 1 3 5.5q-1 4.44-1 9a295 295 0 0 0-28-1h-6a36 36 0 0 0 .5-13 55 55 0 0 0-2.5 12h-5a4120 4120 0 0 0-45-4v-2q2.25-7.71 5-15" style="opacity:1" transform="translate(-148.5 -163.43)"/><path fill="#d4955c" d="M383.5 240.5q12.5.43 25 1-2.53 11.25-14 11-9.6-.37-19-2.5 2.4-.4 4.5-1.5l1 1q-.09-4.9 4.5-6.5-1.88-.63-2-2.5" style="opacity:1" transform="translate(-148.5 -163.43)"/><path fill="#d69764" d="M516.5 238.5v4q-6.1-1.84-13 .5 1.8.98 0 1.5-5.22-4.69-10 2 1.96 5.4-2 9.5 12.62 1.2 25-.5v3h-34a38 38 0 0 0 0-17 7 7 0 0 0-1.5 3 85 85 0 0 0-.5 13h-29q.5-10.05 2-20 31.49 1.3 63 1" style="opacity:1" transform="translate(-148.5 -163.43)"/><path fill="#b67149" d="M482.5 258.5q-7.8.48-15-1h13q-.25-6.52.5-13a7 7 0 0 1 1.5-3 38 38 0 0 1 0 17" style="opacity:1" transform="translate(-148.5 -163.43)"/><path fill="#541814" d="M724.5 238.5a2.3 2.3 0 0 1-1 1.5 135 135 0 0 1-34 6.5 86 86 0 0 1 18-4q3.76-.65 7-2a82 82 0 0 1 10-2" style="opacity:1" transform="translate(-148.5 -163.43)"/><path fill="#d5915f" d="M579.5 237.5q4.91-.42 9.5 1 2.51 8.85 3.5 18h-10q-1-9.6-3-19" style="opacity:1" transform="translate(-148.5 -163.43)"/><path fill="#b46e44" d="M556.5 257.5a21 21 0 0 1-9 1 42 42 0 0 1 0-16 51 51 0 0 1 3 15z" style="opacity:1" transform="translate(-148.5 -163.43)"/><path fill="#6f2217" d="M357.5 250.5a4120 4120 0 0 1 45 4v1q-22.95-.28-45-5" style="opacity:1" transform="translate(-148.5 -163.43)"/><path fill="#ae6943" d="M409.5 255.5h-7v-1h5a55 55 0 0 1 2.5-12q.94 6.55-.5 13" style="opacity:1" transform="translate(-148.5 -163.43)"/><path fill="#561915" d="M670.5 230.5a222 222 0 0 1 6 16q6.39.66 13 0a75 75 0 0 1-13.5 3 4.3 4.3 0 0 0-4.5-2 4.4 4.4 0 0 1-1 3.5 1073 1073 0 0 1-77 6.5q37.28-3.88 75-8a407 407 0 0 0-5.5-19q-.62-.7-1.5-1a478 478 0 0 1-37 4 264 264 0 0 1 40-5q.3 5.35 3 10a7 7 0 0 1 4-2.5 9 9 0 0 1-1-5.5" style="opacity:1" transform="translate(-148.5 -163.43)"/><path fill="#b56f41" d="M516.5 238.5h2q1.05 9.95 2 20h-4v-20" style="opacity:1" transform="translate(-148.5 -163.43)"/><path fill="#651e26" d="M281.5 210.5a76 76 0 0 1-4.5 20 62 62 0 0 0-6.5 16q.3.88 1 1.5-3.1 2.71-1 6.5a3.3 3.3 0 0 1-3.5-2l-.5 1.5q3.64 6.76-1 12 3.3 5.9-2 10.5.6-2.2 1-4.5a43 43 0 0 1-3-8.5 114 114 0 0 1 9.5-29l4-4q2.85-10.3 6.5-20" style="opacity:1" transform="translate(-148.5 -163.43)"/><path fill="#c67f61" d="M415.5 255.5q14.03-.17 28 1-2.2 1-5 1-11.75-.73-23-2" style="opacity:1" transform="translate(-148.5 -163.43)"/><path fill="#7b2f1f" d="M451.5 257.5h16q7.2 1.48 15 1h58q-39.75 1.5-80 1z" style="opacity:1" transform="translate(-148.5 -163.43)"/><path fill="#e8b99c" d="M350.5 290.5a7 7 0 0 0 4 1 5.4 5.4 0 0 0 3 3.5q-4.3 1.2-8-.5a4.6 4.6 0 0 1 1-4" style="opacity:1" transform="translate(-148.5 -163.43)"/><path fill="#651d22" d="M352.5 289.5q-1.5-.26-2 1a4.6 4.6 0 0 0-1 4l-3 10a22 22 0 0 1-5 8.5 8 8 0 0 1 .5 6.5q-2.42-1.56-.5-3.5a5.6 5.6 0 0 1-3-6q2.38-6.9 4-14a12 12 0 0 0-2-4.5q-.57-2.14-3-2.5a379 379 0 0 1-53-11.5q.44-1.73 2.5-2a80 80 0 0 0 26.5 7q3.45.2 6-2 1.14 1.7 2 3.5a49 49 0 0 0 18.5 2.5q3.28 5.4 8 1 2.43.9 4.5 2" style="opacity:1" transform="translate(-148.5 -163.43)"/><path fill="#651512" d="M577.5 296.5h1v2q-11 .66-22 1h-108q64.29-.75 129-3" style="opacity:1" transform="translate(-148.5 -163.43)"/><path fill="#d49662" d="M411.5 297.5q13.98.94 28 1l-5 46q.25-2.55-.5-5-1.5 21.06-3.5 42a63.5 63.5 0 0 1-26-1 7 7 0 0 1 3-1.5 28 28 0 0 1-5-1.5 3.1 3.1 0 0 0-1 3h-7q6.86-41.36 12-83zM322.5 293.5q8.45 1.5 17 2a988 988 0 0 0-5 25 5 5 0 0 0-2.5 4 933 933 0 0 0-7.5 49q-10.95-1.5-22-2a121 121 0 0 1-29-6h3q7.7-38.62 17-77 14.8 1.85 29 5M497.5 300.5h23a655 655 0 0 0 9 85h-26q-4.58-42.4-6-85" style="opacity:1" transform="translate(-148.5 -163.43)"/><path fill="#efd8c5" d="M284.5 277.5a379 379 0 0 0 53 11.5q2.43.36 3 2.5l-1 4q-8.55-.5-17-2a308 308 0 0 0-29-5 1902 1902 0 0 0-17 77h-5q-.3-2.13-1.5-4-2.5 2-5 0-1.6-7.46 3.5-14a7 7 0 0 0-2-2.5q1.78-5.5 5-8 .28-2.8-1-6 .6-1.51 2-1.5-1.8-4.58 2-8a3.7 3.7 0 0 0-1-1.5 172 172 0 0 1 6-18.5l-1-2q4.9-4.76 2-11v-4q.9-4.2 4-7" style="opacity:1" transform="translate(-148.5 -163.43)"/><path fill="#d49561" d="M354.5 291.5q5.96 1 12 1a2117 2117 0 0 0-16.5 73 25 25 0 0 0 0 10 1427 1427 0 0 0 18-80q.63-1.88 2.5-2a1104 1104 0 0 0 33 3 1830 1830 0 0 0-13 84 169 169 0 0 0-19-1l-35-2a10.2 10.2 0 0 1-1.5-9 1540 1540 0 0 1 11.5-64l3-10a11.3 11.3 0 0 0 8 .5 5.4 5.4 0 0 1-3-3.5" style="opacity:1" transform="translate(-148.5 -163.43)"/><path fill="#d49562" d="M523.5 300.5h31q.23 32 1 64-4.98-1.46-2-4.5-2.88-2.55 0-6a15.5 15.5 0 0 0-4-5.5q1.32-4.38 0-8-4.4-1.8-6 3 1.05 3.6 3 0a6.6 6.6 0 0 1 .5 6l-2-2a7 7 0 0 1-2.5 4.5 4.5 4.5 0 0 1 0 5.5 4.9 4.9 0 0 1-1-4h-4a12 12 0 0 0-1-6.5 7.7 7.7 0 0 1 3-4 5 5 0 0 1 0-6 134 134 0 0 1-3.5-15.5 66 66 0 0 1-1.5 10q.8 1.88 2 3.5a27 27 0 0 1-7-2.5q-1.02 1.1-2 2a358 358 0 0 0-4-34" style="opacity:1" transform="translate(-148.5 -163.43)"/><path fill="#d59663" d="M447.5 299.5h8q19.74 1.5 40 1a329 329 0 0 0-.5 44 810 810 0 0 1 3.5 40h-28q.25-31.5-.5-63a1048 1048 0 0 0-3.5 62q-11.78-.45-24 0a455 455 0 0 0 3-50q.8-17 2-34" style="opacity:1" transform="translate(-148.5 -163.43)"/><path fill="#b67041" d="M538.5 301.5q2.32 1.1 2.5 4 1 17.5 0 35a204 204 0 0 1-2.5-39" style="opacity:1" transform="translate(-148.5 -163.43)"/><path fill="#5f1b19" d="M340.5 291.5a12 12 0 0 1 2 4.5q-1.62 7.1-4 14a5.6 5.6 0 0 0 3 6q-1.92 1.94.5 3.5 1.15-3.4-.5-6.5a22 22 0 0 0 5-8.5 1540 1540 0 0 0-11.5 64q-1.35 5.01 1.5 9h-3q.46-16.19 4-32-2.45-2.84 1-4.5-.7-.62-1-1.5.94-6.15 3-12a4 4 0 0 0-2-3.5l2-3a7 7 0 0 1-3.5-2.5q-.93 1.42.5 2.5a94 94 0 0 0-2.5 21.5l-1-7q-4.35 14.1-5.5 29-1.35 5.54-3 11 3.15-27.71 9-55a988 988 0 0 1 5-25z" style="opacity:1" transform="translate(-148.5 -163.43)"/><path fill="#d59261" d="M587.5 298.5q6.25-.82 11.5 2 3.82 24.5 7.5 49a60 60 0 0 1-4-12.5q-.1-3.7 0-7.5a18 18 0 0 0-2-3.5q2-3.94-2.5-7.5a7 7 0 0 1-2.5 4.5q2.16 3.12-2 2.5-.55 22.08 2 45a3.1 3.1 0 0 1 3 1q-.53 1.8-1.5 0-.75 5.48-.5 11h13q1 0 1 1h-15q.48-5.8-1-11-2.65-37.08-7-74" style="opacity:1" transform="translate(-148.5 -163.43)"/><path fill="#6a1c23" d="M263.5 277.5a25 25 0 0 1-2.5 10q-1.38 6.3 1 12 1.67-1.9.5-3.5a7 7 0 0 0 2.5-3.5q.62.7 1.5 1l2-4a11 11 0 0 0 3 4.5 4.7 4.7 0 0 0-2 3q.17 2.58 1.5.5.75 2.45.5 5h3q-.18-2.54-1-5 .49-3.1 2.5-1-.3-2.45 0-5a16 16 0 0 0 4.5-7v4q-7.23 24.45-14 49 .15-5.4 2-10.5-.45-4.32-3-2 .18 1.9 1 4-2.12 3.26-1.5 6.5-1-2-2 0-.93-1.42.5-2.5a10.7 10.7 0 0 0-4-3.5q1.5-5.78 2.5 0 2.62-3.51-.5-6a38 38 0 0 1 5.5-8q2.58 1.58 3-2l1 3q.36-3.4 1.5-6.5a10 10 0 0 1-1.5-2.5 5.9 5.9 0 0 1-3 4 1200 1200 0 0 0-9-8l-1-3a52 52 0 0 0-3 15 4.3 4.3 0 0 1-2.5 3q1.08-3.4 1-7a200 200 0 0 1 10-34" style="opacity:1" transform="translate(-148.5 -163.43)"/><path fill="#d59562" d="M557.5 300.5h20a282 282 0 0 0 5 38q1.72 20.48 3 41v5h-27q.3-42.01-1-84" style="opacity:1" transform="translate(-148.5 -163.43)"/><path fill="#d4945c" d="M606.5 349.5q2.85 16.35 3 33h-13q-.25-5.52.5-11 .97 1.8 1.5 0a3.1 3.1 0 0 0-3-1 334 334 0 0 1-2-45q4.16.62 2-2.5a7 7 0 0 0 2.5-4.5q4.5 3.56 2.5 7.5 1.2 1.63 2 3.5-.1 3.8 0 7.5 1.36 6.6 4 12.5" style="opacity:1" transform="translate(-148.5 -163.43)"/><path fill="#cd8c6b" d="M578.5 298.5a345 345 0 0 0 4 31v9a282 282 0 0 1-5-38h-20q-1 0-1-1 11-.34 22-1" style="opacity:1" transform="translate(-148.5 -163.43)"/><path fill="#b77142" d="M403.5 296.5q4.33-.45 8 1h-5a2023 2023 0 0 1-12 83h-4a1830 1830 0 0 1 13-84" style="opacity:1" transform="translate(-148.5 -163.43)"/><path fill="#9b4c2d" d="M649.5 293.5a21 21 0 0 1 9-1q9.45 38.94 16 78.5l-1 4.5a895 895 0 0 1-17-82z" style="opacity:1" transform="translate(-148.5 -163.43)"/><path fill="#6f1924" d="M266.5 337.5q-2.14 12.3-5 24.5a14.7 14.7 0 0 0 10 3.5h2a121 121 0 0 0 29 6 119 119 0 0 0 23 4q1.65-5.46 3-11-.25 4.03.5 8l1-1q0 4.14 3.5 6h2q8.04 1.03 16 4 3.92-.93 8-1a363 363 0 0 0 30 2.5 9.8 9.8 0 0 1 6.5 2.5q16.2-1.76 32.5 1 2.75-.12 4-2l2-1q3 4.34 4.5-1a4.3 4.3 0 0 0 2.5 3h27v1q22.55 1.04 45.5 2 36.2-2.15 72.5-2-.26 1.5 1 2-.09 20.52 1 41h-1q-3.97-1-8.5-1a9851 9851 0 0 1-89.5 3h-40a31 31 0 0 0-11-1 5.5 5.5 0 0 0-1.5 3 7.9 7.9 0 0 0-6.5-4 368 368 0 0 0-54-3 68 68 0 0 1-14-1 396 396 0 0 0-29-3q-2.5-2-5 0-2.34.03-4.5 1a5.9 5.9 0 0 1-3.5-4 69 69 0 0 0-22-3.5 76 76 0 0 1-13.5-4.5q-2.92.91-5.5 2l-26-5a9.6 9.6 0 0 1-1 6 130 130 0 0 0-4.5 26l-1-1q-1.23 9.94-1.5 0-4.1.81-5.5-3 .54 8.4.5 16.5-.92 3.22-2 6.5a7 7 0 0 1-2.5-2l-1 2a20 20 0 0 1-1-10l-3-2a31.5 31.5 0 0 1 3.5-20q.75-1.53 2-.5-1.87 2.25 0 4.5 1.35-3.96 2.5-8l1 8a32 32 0 0 1 3.5-4 21 21 0 0 1-3.5-9 7 7 0 0 1-1.5 3q-.36-2.97-4-5 1.63-.9 3.5 1a6.6 6.6 0 0 0-2-7l-1-10a7.8 7.8 0 0 1-2.5-7 136 136 0 0 0 3-23q2.5-3 3.5-7a26 26 0 0 1 4.5-4 33 33 0 0 1 2.5-6 406 406 0 0 1 6.5-35 4.3 4.3 0 0 0 2.5-3 52 52 0 0 1 3-15l1 3a1200 1200 0 0 1 9 8 5.9 5.9 0 0 0 3-4q.56 1.38 1.5 2.5a27 27 0 0 0-1.5 6.5l-1-3q-.42 3.58-3 2a38 38 0 0 0-5.5 8q3.12 2.49.5 6-1-5.78-2.5 0 2.32 1.14 4 3.5-1.43 1.08-.5 2.5 1-2 2 0-.62-3.24 1.5-6.5-.82-2.1-1-4 2.55-2.32 3 2-1.85 5.1-2 10.5" style="opacity:1" transform="translate(-148.5 -163.43)"/><path fill="#561915" d="M754.5 327.5q1.5-.13 2.5 1a7.6 7.6 0 0 1 .5 7.5 79 79 0 0 1 5 28.5h-4q1.05-1.35 3-1a231 231 0 0 0-7-36" style="opacity:1" transform="translate(-148.5 -163.43)"/><path fill="#b46f3e" d="M420.5 299.5a8 8 0 0 1 1 4q-2.1 19.65-5.5 39a414 414 0 0 1 4.5-43" style="opacity:1" transform="translate(-148.5 -163.43)"/><path fill="#541817" d="M691.5 286.5a9.6 9.6 0 0 1-6 1q2.95 15.3 7 30 4.92 28.43 9 57a454 454 0 0 0 49-9l8-1a2.3 2.3 0 0 1-1 1.5q-27.34 6-55 10.5a4 4 0 0 1-3.5-2q-.75-6.98-.5-14a5 5 0 0 1-3-.5q3-9.8-3.5-17.5a22 22 0 0 0-1.5 8.5q.57 6.75 1 13.5-6.92-35.85-14.5-72a5.6 5.6 0 0 0-5.5-2q.7-1.8 3-2a30 30 0 0 0 7 2q3.5-5.15 10-4" style="opacity:1" transform="translate(-148.5 -163.43)"/><path fill="#d3926d" d="M334.5 320.5q-5.85 27.3-9 55a119 119 0 0 1-23-4q11.05.5 22 2a933 933 0 0 1 7.5-49 5 5 0 0 1 2.5-4" style="opacity:1" transform="translate(-148.5 -163.43)"/><path fill="#b06540" d="M741.5 278.5q5.94 24.3 13 48v1a231 231 0 0 1 7 36q-1.95-.35-3 1l-8 1a13 13 0 0 1-5.5-1 41 41 0 0 1-10.5 3.5 452 452 0 0 0-31.5 5.5q-2.28-12.8-4.5-26.5a6.3 6.3 0 0 1 1-3 671 671 0 0 1-7-26.5q-4.05-14.7-7-30a9.6 9.6 0 0 0 6-1q23.9-2.4 47-9 1.62.28 3 1" style="opacity:1" transform="translate(-148.5 -163.43)"/><path fill="#95472a" d="M699.5 287.5q1.5-.04 2 1.5 9.11 35.2 17.5 70.5 1 3 0 6a667 667 0 0 1-19.5-78" style="opacity:1" transform="translate(-148.5 -163.43)"/><path fill="#99492c" d="M714.5 286.5q1.5-.04 2 1.5a697 697 0 0 1 19.5 68.5q1 3 0 6a548 548 0 0 1-21.5-76" style="opacity:1" transform="translate(-148.5 -163.43)"/><path fill="#eccfc5" d="M280.5 288.5q2.9 6.24-2 11l1 2a172 172 0 0 0-6 18.5q.7.62 1 1.5-3.8 3.42-2 8-1.4-.01-2 1.5a13 13 0 0 1 1 6q-3.22 2.5-5 8a7 7 0 0 1 2 2.5q-5.1 6.54-3.5 14 2.5 2 5 0 1.2 1.87 1.5 4a14.7 14.7 0 0 1-10-3.5q2.86-12.2 5-24.5 6.77-24.55 14-49" style="opacity:1" transform="translate(-148.5 -163.43)"/><path fill="#b0683a" d="M305.5 290.5a11.3 11.3 0 0 1 .5 8 1642 1642 0 0 1-17 67 553 553 0 0 1 16.5-75" style="opacity:1" transform="translate(-148.5 -163.43)"/><path fill="#571919" d="M668.5 290.5q-4.84 1.1-10 2-4.82-.47-9 1-7.4-.4-14 2h-2a549 549 0 0 0-46 3q4.35 36.92 7 74v12a2.3 2.3 0 0 1-1.5-1l-1-15a7.3 7.3 0 0 0-2-3 28 28 0 0 0-2.5 10q.59 6.8 0 13-1.26-.5-1-2 .45-3.84-1-7-1.28-20.52-3-41v-9q1 5.78 2 12 2.85-2.15 1-5a3.1 3.1 0 0 1 3-1q-.17-8.78-.5-18a37 37 0 0 0-3.5-15l1-2a20 20 0 0 1-4-3.5q.75-1.75 2.5-2.5 9.84-.25 20.5 1a216 216 0 0 0 30.5-3q8.78 1.23 17-3 8.1 1.45 16.5 1" style="opacity:1" transform="translate(-148.5 -163.43)"/><path fill="#612428" d="M253.5 311.5q.08 3.6-1 7a406 406 0 0 0-6.5 35 33 33 0 0 0-2.5 6 26 26 0 0 0-4.5 4q-1 4-3.5 7a15.7 15.7 0 0 1 6.5-12 348 348 0 0 1 11.5-47" style="opacity:1" transform="translate(-148.5 -163.43)"/><path fill="#b46c3e" d="M378.5 314.5q.97 1.15 1 3a578 578 0 0 1-15.5 60 254 254 0 0 1 14.5-63" style="opacity:1" transform="translate(-148.5 -163.43)"/><path fill="#b87142" d="M520.5 300.5h3a358 358 0 0 1 4 34q3.6 25.41 6 51h-4a655 655 0 0 1-9-85" style="opacity:1" transform="translate(-148.5 -163.43)"/><path fill="#b16a41" d="M455.5 299.5h101q0 1 1 1 1.3 41.99 1 84h27q-14.23 1.5-29 1a444 444 0 0 0-1-21 3793 3793 0 0 1-1-64h-59q-20.26.5-40-1" style="opacity:1" transform="translate(-148.5 -163.43)"/><path fill="#50191e" d="M737.5 198.5q3.3 2.1 4.5 6a232 232 0 0 1 7 25 40 40 0 0 1 7 8 83 83 0 0 1 6 29 24 24 0 0 1-2.5 6 614 614 0 0 1 22.5 85 30 30 0 0 1 6 7 90 90 0 0 1 4 34 10 10 0 0 1-2.5 5 53 53 0 0 1 2 13q3.55 34.37 5.5 69l1 6q.57.84 1.5 1 2.4 46.83-3 94-1.9 1.51-2 4.5a110 110 0 0 0-1 16.5 84 84 0 0 1-2 14.5 29 29 0 0 1 4 11.5q-1.3 13.8-5.5 27-3.05 5.03-6 10-5.64 29.1-14.5 57a31 31 0 0 0-2-5q-1.5.66 0 2a7.3 7.3 0 0 1-3 2 63 63 0 0 1-1.5-11q-4.38 6.74-9-1-.57.84-1.5 1 5.25-21.45 10-43-9.07 1.11-18 3-21.95 3.2-44 6-2.19-1.65-3 1.5.19 3.15 1 7a705 705 0 0 1-16 74.5q.19.9 1 1 0 1 1 1 0 1 1 1-3.04 1.15-5.5-2-1.67 1.2-3.5 2 1.31-6.95 2-14 4.4-14.9 8.5-30l6.5-39.5a13 13 0 0 0-6-1.5 45 45 0 0 1-21.5 1q-2.75 2.35-6.5 2.5-23.23 2.22-46 4.5a91 91 0 0 0-19 3 2.3 2.3 0 0 1-1.5-1q-.75 3.97-.5 8-1.71 2.4-3.5 5-1.05-.79-1.5-2 1-2.4 1-4.5a17 17 0 0 1-3-5.5q0-2-2-2 2.05-12.9 3.5-26 .75-8.49.5-17v-2q2.84-3.74 2-9 3.1 1.2 5 4a7.3 7.3 0 0 0 2 6.5q3.9.35 7.5 1.5a25 25 0 0 1 8.5-2.5 1624 1624 0 0 0 82.5-7.5q2.4.97 4.5-1.5-2.1-6.3.5-12.5 1.07-20 1.5-40v-2a6 6 0 0 0 2-5 2.3 2.3 0 0 0 1.5-1q.27 4.57 1.5 9a16.5 16.5 0 0 0-1-13q2.46-1.8 1-4l1.5-3q.69 5.03 1.5 10a303 303 0 0 0-1.5 22 4.3 4.3 0 0 0-2.5 3 16.4 16.4 0 0 1-1 13.5q3.7 3.12 0 6.5.68 8.16 0 16l3 1q24.5-4.4 50-8.5 1.56-2.42 3.5-.5a4.3 4.3 0 0 0 1.5-2 24 24 0 0 1 9-3v-3q1.87-.12 2.5-2 7-64.05 8-128l-1 1q-4.25-43.05-9.5-86-3.05-.25-6 .5-.84.57-1 1.5a44 44 0 0 0-18 3l-2-1a43 43 0 0 0-5.5 3 23 23 0 0 1-5-2 6.6 6.6 0 0 1-3 3l-3-1a184 184 0 0 1-21.5 6q-1.8.7-2 3a12.4 12.4 0 0 1-1 11.5 4.4 4.4 0 0 0 2 4q-1.38.56-2.5 1.5-.63-1.88-2.5-2l-2-3a114 114 0 0 0-1-13l-14 1q-10.5-.25-21 .5-32.9 3.5-65 6.5a45 45 0 0 1-6.5 15q-.63-1.88-2.5-2v-13a718 718 0 0 1-1-41q.59-6.2 0-13 .3-5.25 2.5-10a7.3 7.3 0 0 1 2 3l1 15q.57.84 1.5 1a9.6 9.6 0 0 0 6-1h15q20.57-.13 41-2.5 6.9-.22 13-2.5 11.3-1.41 23-3a49 49 0 0 1-1-11q-.43-6.75-1-13.5-.09-4.44 1.5-8.5 6.5 7.7 3.5 17.5 1.43.72 3 .5-.25 7.02.5 14a4 4 0 0 0 3.5 2q27.66-4.5 55-10.5.84-.57 1-1.5h4a79 79 0 0 0-5-28.5 7.6 7.6 0 0 0-.5-7.5 2.9 2.9 0 0 0-2.5-1v-1q.12-6.6-1.5-13a213 213 0 0 1-6.5-19q.3-.88 1-1.5a82 82 0 0 0-6-14.5q-1.38-.72-3-1-23.1 6.6-47 9-6.5-1.16-10 4-3.25-.47-7-2-2.3.2-3 2h-3q-8.4.45-16.5-1a28 28 0 0 1-17 3 216 216 0 0 1-30.5 3q-10.66-1.25-20.5-1-1.75.75-2.5 2.5a20 20 0 0 0 4 3.5l-1 2a37 37 0 0 1 3.5 15q.33 9.22.5 18a3.1 3.1 0 0 0-3 1q1.85 2.85-1 5-1-6.22-2-12a345 345 0 0 1-4-31v-2a549 549 0 0 1-1-37q1.83.59 2.5-2 6.9 1.98 13.5 0a1073 1073 0 0 0 77-6.5 4.4 4.4 0 0 0 1-3.5q2.93-.4 4.5 2 7.02-.9 13.5-3a135 135 0 0 0 34-6.5q.84-.57 1-1.5a10.8 10.8 0 0 1 6-2 263 263 0 0 0-5-22q1.58-.15 3.5 0a60 60 0 0 0 9.5-13 5.6 5.6 0 0 1-1-3" style="opacity:1" transform="translate(-148.5 -163.43)"/><path fill="#8c4125" d="M729.5 282.5a4.3 4.3 0 0 1 2.5 3 318 318 0 0 1 13 54 514 514 0 0 1-15.5-57" style="opacity:1" transform="translate(-148.5 -163.43)"/><path fill="#4b181c" d="M683.5 299.5q1.5-.13 2.5 1 1.4 4.97 2.5 10-1.57 4.86 2 9a26 26 0 0 1-3.5 5l-2-2a203 203 0 0 1-3.5-17.5q.4-3 2-5.5" style="opacity:1" transform="translate(-148.5 -163.43)"/><path fill="#521612" d="M741.5 278.5a82 82 0 0 1 6 14.5q-.7.62-1 1.5a213 213 0 0 0 6.5 19 50 50 0 0 1 1.5 13q-7.06-23.7-13-48" style="opacity:1" transform="translate(-148.5 -163.43)"/><path fill="#d4965e" d="M555.5 364.5q.75 10.49 1 21h-23q-2.4-25.59-6-51 .98-.9 2-2a27 27 0 0 0 7 2.5 18 18 0 0 1-2-3.5 66 66 0 0 0 1.5-10q1.3 7.9 3.5 15.5a5 5 0 0 0 0 6 7.7 7.7 0 0 0-3 4 12 12 0 0 1 1 6.5h4a4.9 4.9 0 0 0 1 4 4.5 4.5 0 0 0 0-5.5 7 7 0 0 0 2.5-4.5l2 2q1.2-3.12-.5-6-1.95 3.6-3 0 1.6-4.8 6-3 1.32 3.62 0 8a15.5 15.5 0 0 1 4 5.5q-2.88 3.45 0 6-2.98 3.04 2 4.5" style="opacity:1" transform="translate(-148.5 -163.43)"/><path fill="#af6640" d="M668.5 290.5h3q3.4-.54 5.5 2 7.58 36.15 14.5 72-.12 5.57 1 11-11.7 1.59-23 3a2501 2501 0 0 0-54 5h-5q0-1-1-1-.15-16.65-3-33a8645 8645 0 0 0-7.5-49 18.6 18.6 0 0 0-11.5-2 549 549 0 0 1 46-3 9.7 9.7 0 0 0-.5 7l14.5 77q2.17-1 2-3.5a968 968 0 0 0-14-80.5q6.6-2.4 14-2h7a895 895 0 0 0 17 82l1-4.5q-6.55-39.56-16-78.5 5.16-.9 10-2" style="opacity:1" transform="translate(-148.5 -163.43)"/><path fill="#9b4d2f" d="M617.5 297.5q1.87.12 2.5 2 6.99 34.41 13 69 1.24 6.06-.5 12a237 237 0 0 1-5.5-21 5994 5994 0 0 0-9.5-62" style="opacity:1" transform="translate(-148.5 -163.43)"/><path fill="#af683b" d="M366.5 292.5q2.4-.4 4 1-1.87.12-2.5 2a1427 1427 0 0 1-18 80 25 25 0 0 1 0-10 2117 2117 0 0 1 16.5-73" style="opacity:1" transform="translate(-148.5 -163.43)"/><path fill="#b36a3c" d="M322.5 293.5a2651 2651 0 0 1-16.5 70 7.3 7.3 0 0 1-2 3q-.5-6.04 1-12a845 845 0 0 1 14-56 7.7 7.7 0 0 1 3.5-5" style="opacity:1" transform="translate(-148.5 -163.43)"/><path fill="#621a21" d="M333.5 377.5q-3.5-1.86-3.5-6l-1 1q-.75-3.97-.5-8 1.15-14.9 5.5-29l1 7q.03-10.98 2.5-21.5-1.43-1.08-.5-2.5a7 7 0 0 0 3.5 2.5l-2 3q1.95 1.2 2 3.5a67 67 0 0 0-3 12q.3.88 1 1.5-3.45 1.66-1 4.5a168 168 0 0 0-4 32" style="opacity:1" transform="translate(-148.5 -163.43)"/><path fill="#b56e43" d="M495.5 300.5h2q1.42 42.6 6 85h42q-38.25 1.5-77 1v-1q16.13.5 30-1a810 810 0 0 0-3.5-40q-1.22-22.1.5-44" style="opacity:1" transform="translate(-148.5 -163.43)"/><path fill="#9a4c2e" d="M633.5 295.5h2a968 968 0 0 1 14 80.5q.17 2.5-2 3.5l-14.5-77a9.7 9.7 0 0 1 .5-7" style="opacity:1" transform="translate(-148.5 -163.43)"/><path fill="#6c2219" d="M440.5 299.5a1292 1292 0 0 0-6 84l-2 1a938 938 0 0 0 2-40l5-46q-14.02-.06-28-1a16.6 16.6 0 0 0-8-1 1104 1104 0 0 1-33-3 4.6 4.6 0 0 0-4-1q-6.04 0-12-1a7 7 0 0 1-4-1q.5-1.26 2-1 .98-.46 2-1a405 405 0 0 0 22.5 4l4.5-.5-3-1q1.9-.45 3.5-1.5 2.23 1.13.5 2.5a395 395 0 0 0 57 5q1.13 1 1 2.5" style="opacity:1" transform="translate(-148.5 -163.43)"/><path fill="#b97443" d="M470.5 384.5a4.6 4.6 0 0 1-4-1q.84-31.05 3.5-62 .75 31.5.5 63" style="opacity:1" transform="translate(-148.5 -163.43)"/><path fill="#631b20" d="M447.5 299.5a1456 1456 0 0 0-2 34 513 513 0 0 0-4 52 4.3 4.3 0 0 1-2.5-3q-1.5 5.34-4.5 1a1292 1292 0 0 1 6-84q3.25-1.5 7 0" style="opacity:1" transform="translate(-148.5 -163.43)"/><path fill="#ad674b" d="M692.5 317.5q3.2 13.2 7 26.5a6.3 6.3 0 0 0-1 3q2.22 13.7 4.5 26.5a452 452 0 0 1 31.5-5.5q5.5-1.04 10.5-3.5a13 13 0 0 0 5.5 1 454 454 0 0 1-49 9 1964 1964 0 0 0-9-57" style="opacity:1" transform="translate(-148.5 -163.43)"/><path fill="#d7936c" d="M434.5 344.5a938 938 0 0 1-2 40 610 610 0 0 1-61-5q9.54-.03 19 1h11a3.1 3.1 0 0 1 1-3q2.43.97 5 1.5a7 7 0 0 0-3 1.5 63.5 63.5 0 0 0 26 1q2-20.94 3.5-42 .75 2.45.5 5" style="opacity:1" transform="translate(-148.5 -163.43)"/><path fill="#581b13" d="M669.5 378.5a41 41 0 0 1-13 2.5 377 377 0 0 1-41 2.5q26.76-2.77 54-5" style="opacity:1" transform="translate(-148.5 -163.43)"/><path fill="#d3906b" d="M445.5 333.5a455 455 0 0 1-3 50q12.22-.45 24 0a4.6 4.6 0 0 0 4 1h28q-13.87 1.5-30 1h-27q.7-26.32 4-52" style="opacity:1" transform="translate(-148.5 -163.43)"/><path fill="#ad6e53" d="M594.5 372.5a31 31 0 0 1 1 11h5a9.6 9.6 0 0 1-6 1z" style="opacity:1" transform="translate(-148.5 -163.43)"/><path fill="#6c1d18" d="M335.5 377.5h1l35 2a610 610 0 0 0 61 5q-1.25 1.88-4 2a118 118 0 0 0-32.5-1 9.8 9.8 0 0 0-6.5-2.5 363 363 0 0 1-30-2.5q-4.08.07-8 1a72 72 0 0 0-16-4" style="opacity:1" transform="translate(-148.5 -163.43)"/><path fill="#63150f" d="M585.5 379.5q1.45 3.16 1 7-36.3-.15-72.5 2-22.95-.96-45.5-2 38.75.5 77-1h11q14.77.5 29-1z" style="opacity:1" transform="translate(-148.5 -163.43)"/><path fill="#541816" d="M764.5 408.5a269 269 0 0 1-37 8.5q-10.45 1.75-21 2.5a184 184 0 0 0 21.5-6l3 1a6.6 6.6 0 0 0 3-3 23 23 0 0 0 5 2 43 43 0 0 1 5.5-3l2 1a44 44 0 0 1 18-3" style="opacity:1" transform="translate(-148.5 -163.43)"/><path fill="#af6541" d="M764.5 408.5q3.4-.54 5.5 2a521 521 0 0 1 7.5 73 696 696 0 0 1-6 138 30.6 30.6 0 0 1-18 5l-2-2a841 841 0 0 0 7.5-144 367 367 0 0 0-12-65q-.1 14.1 2.5 28a6.5 6.5 0 0 1-4.5-1q-.25 4.25-4.5 4.5l-2 4q2.4-.93 4 1-1.95.74-4 .5a5 5 0 0 1-.5 3 4.4 4.4 0 0 0-3.5-1 486 486 0 0 0-6.5-34q1.93 27 4.5 54a6.9 6.9 0 0 1-3-4q.24-4.9 0-9.5-5.1-5.1-2 .5a47 47 0 0 1-5.5 6q-.45-1.2-1.5-2-2 2-4 0 .01 1.4-1.5 2a3.6 3.6 0 0 1-2-2q-.75 8.49-.5 17l-2-16q-1.35-23.55-4-47 10.55-.75 21-2.5a269 269 0 0 0 37-8.5" style="opacity:1" transform="translate(-148.5 -163.43)"/><path fill="#a66e6d" d="M333.5 422.5h-4q.36 1.95-1 3v-3q2.5-2 5 0" style="opacity:1" transform="translate(-148.5 -163.43)"/><path fill="#d3945d" d="M287.5 423.5q-2.32 1.1-2.5 4a616 616 0 0 0-3 31q-.45 52-1.5 104-2.12 2.31-1 5-.79 1.05-2 1.5 3.2 6.69-.5 13.5-1.08-1.43-2.5-.5a10 10 0 0 0 5 2l-2 1q.82 2.1 1 4l-1.5 1.5a23 23 0 0 0-2-5q-1.67 1.9-.5 3.5-3.08-.9-6 1.5a3.7 3.7 0 0 1-1.5-1 23 23 0 0 1 .5-11.5 4.6 4.6 0 0 1-2.5-2.5 640 640 0 0 1-2.5-57.5q.67-35.3 3-70.5.18-14.25 4-28 9.12 2.34 18 4" style="opacity:1" transform="translate(-148.5 -163.43)"/><path fill="#581a15" d="M771.5 621.5a696 696 0 0 0 6-138 521 521 0 0 0-7.5-73 5.6 5.6 0 0 0-5.5-2q.16-.93 1-1.5 2.95-.75 6-.5 5.25 42.95 9.5 86l1-1q-1 63.95-8 128-.63 1.88-2.5 2" style="opacity:1" transform="translate(-148.5 -163.43)"/><path fill="#edcfbc" d="M333.5 422.5q14.55.96 29 3 .16.93 1 1.5a47 47 0 0 1-20 2.5h-4a49 49 0 0 0-11-1v-3q1.36-1.05 1-3z" style="opacity:1" transform="translate(-148.5 -163.43)"/><path fill="#531612" d="M683.5 422.5v1q-18.15.4-36 3-5.8-.47-11 1a830 830 0 0 0-33 2h-6q32.1-3 65-6.5 10.5-.75 21-.5" style="opacity:1" transform="translate(-148.5 -163.43)"/><path fill="#b06641" d="M683.5 423.5h5a5 5 0 0 1-4 2.5q3.75 1.25.5 3.5-.75 3.46-.5 7a52 52 0 0 1-2.5-10q-.62-.7-1.5-1-1.38 6.46 0 13-1.5-.13-2.5 1a5.6 5.6 0 0 0-.5-3q-2.03 3.2-5 1-5.31 3.87-10.5 0l-1 1a23 23 0 0 1-4-5l-5 1q-.84 3.55.5 7 2.55 2.55 4 6-2-.45-4 1.5l3 1q-3.99 2.49 0 5a6.1 6.1 0 0 0 0 6.5l-2 3q1.1 3.72 2 7.5-.9 4.9-.5 10.5 1.35 1.81 2.5 0 .03-2.4-.5-5 1.8 3.04 4.5 1 1.1 2.55 3 4.5a6.6 6.6 0 0 1-5 3q1.72 2.61 4 .5 2.08 3.87 2.5-1l1.5 3q-1.71 1.4 0 2.5-2.4.4-4.5 1.5-.45-1.2-1.5-2-2.87 3.86-2 8-5.34 2.67 0 3 .75 5.69-2.5 2-.99 2.41 1.5 3.5a12.3 12.3 0 0 0-2 6.5q.05 3.4 1 6.5-3.82 3.6 0 7-3.48 3.18-2 7.5-1.56 8.28-3 16.5l1.5 1.5q3.85-5.72 5.5-.5-7.51 1.83 1 2.5v3q-3.82.17-7-2-2.37 3.68-1 7.5-5.46 4.33-1 10-1.2.45-2 1.5 1.66 2.1 4 3.5-2.04 2.52-4.5.5a537 537 0 0 1-3.5 17.5l1 3q-3.75.94 0 2.5-.3.88-1 1.5a7.3 7.3 0 0 1 3 2q.59 2.3 0 5 5.88 1.44 9.5-3.5 2.75 1.02 4.5 5-1.36 5.52 3.5 1 .48 2.7 2 1a7 7 0 0 0 3.5 4q-5.3 3.34 2 4h1q-1.25 8.97-.5 18a7.3 7.3 0 0 0 2-3q6.24-40.38 10.5-81 1.66 7.17 2.5 15a10 10 0 0 1 2.5-1.5l-1-1q6.74-1.58 2 4-2.6 2.78-3.5-.5a9.5 9.5 0 0 1-3.5 3 7 7 0 0 0 3 1.5 7.1 7.1 0 0 0-3.5 5.5 85 85 0 0 1-1.5 10.5l1 3a17 17 0 0 0-2 6.5 7 7 0 0 1 5 1q-1.6.6-4 0a80 80 0 0 1-2 9.5q1.8 2.55-1 4.5.67 2.8 1 5.5-4 3.5 0 7-5.05 3.57-1 8l-3 1q6.6 1.46 12-2.5 2.85 1.27 6 1a273 273 0 0 1 1.5-18 5.5 5.5 0 0 1 1.5-3q-.36 11.38-2 22.5a1164 1164 0 0 1-60 5.5q6.87-49.13 15.5-98a459 459 0 0 0-4.5-119q17.85-2.6 36-3" style="opacity:1" transform="translate(-148.5 -163.43)"/><path fill="#e4b793" d="M362.5 425.5a68 68 0 0 0 14 1q4.19 1.47 9 1v1a295 295 0 0 1-42 2v-1q10.34.9 20-2.5a2.3 2.3 0 0 1-1-1.5" style="opacity:1" transform="translate(-148.5 -163.43)"/><path fill="#d49663" d="M328.5 428.5q5.58-.12 11 1-2.4 32.02-4.5 64 4.45-31.56 8.5-63 21.13.5 42-2-3 29.4-1.5 59 3.15-29.46 4.5-59h11q15.01.8 30 2-1.37 22.99-2 46v2q-1.2 2.18-1.5 5-1 53 0 106a3.3 3.3 0 0 0 1.5 2v9q-.18 22.51 1 45h-12q-12.01-.22-24-1a958 958 0 0 0-12.5-101 706 706 0 0 0 9.5 99.5q-2.96.75-6 .5a55 55 0 0 1-18-2 487 487 0 0 1 .5-68q1-37.5 0-75-1.5-25.11-5-50-.15 45.75 1.5 91.5-1.04 35-2 70-.33 15.93 2 31.5a738 738 0 0 1-33-3l-1-2a1926 1926 0 0 1-5.5-91q-.82-31.5.5-63a43 43 0 0 0 1-13 9 9 0 0 0 1.5-4q.75-9 .5-18 .15-9.6 2-19" style="opacity:1" transform="translate(-148.5 -163.43)"/><path fill="#74251a" d="M587.5 429.5a447 447 0 0 1-41 2h-57q44.52-1.29 89.5-3 4.53 0 8.5 1" style="opacity:1" transform="translate(-148.5 -163.43)"/><path fill="#d49662" d="M449.5 431.5h19a404 404 0 0 0 9.5 98 423 423 0 0 1 14.5 118h-16q.85-54.9-21.5-105 7.68 33.25 14 67a613 613 0 0 1 2.5 37q-15.54.26-31-1a3569 3569 0 0 1-3-178v-4q1.2-2.18 1.5-5l1-26a25 25 0 0 1 9.5-1" style="opacity:1" transform="translate(-148.5 -163.43)"/><path fill="#cf8f6a" d="M304.5 426.5v-1q7.5.63 15 1a104 104 0 0 0-2 19 485 485 0 0 0-3.5 43q-.75 31.5-.5 63-3.2-61.96 4-124-6.57.2-13-1" style="opacity:1" transform="translate(-148.5 -163.43)"/><path fill="#a8634b" d="M698.5 434.5a471 471 0 0 1 3 40 3165 3165 0 0 1-6-51h-12v-1l14-1q.87 6.46 1 13" style="opacity:1" transform="translate(-148.5 -163.43)"/><path fill="#b36d3e" d="M339.5 429.5h4v1q-4.05 31.44-8.5 63 2.1-31.98 4.5-64" style="opacity:1" transform="translate(-148.5 -163.43)"/><path fill="#d08e6d" d="M438.5 430.5q5.8-.47 11 1-4.91-.42-9.5 1l-1 26q-.3 2.82-1.5 5 .34-16.5 1-33" style="opacity:1" transform="translate(-148.5 -163.43)"/><path fill="#994b2d" d="M751.5 624.5q-1-2.2-1-5 2.64-53.02 6-106a497 497 0 0 0-7-70 147 147 0 0 1-2.5-28 367 367 0 0 1 12 65 841 841 0 0 1-7.5 144" style="opacity:1" transform="translate(-148.5 -163.43)"/><path fill="#b67042" d="M385.5 427.5q7.3-.48 14 1h-11q-1.35 29.54-4.5 59-1.5-29.6 1.5-59z" style="opacity:1" transform="translate(-148.5 -163.43)"/><path fill="#b06942" d="M688.5 423.5h7q2.82 25.71 6 51a744 744 0 0 1 0 109v2a875 875 0 0 0-3 30 5.5 5.5 0 0 0-1.5 3 273 273 0 0 0-1.5 18q-3.15.27-6-1a14.3 14.3 0 0 1-12 2.5l3-1q-4.05-4.43 1-8-4-3.5 0-7-.33-2.7-1-5.5 2.8-1.95 1-4.5 1.3-4.7 2-9.5 2.4.6 4 0a7 7 0 0 0-5-1 17 17 0 0 1 2-6.5l-1-3a85 85 0 0 0 1.5-10.5 7.1 7.1 0 0 1 3.5-5.5 7 7 0 0 1-3-1.5 9.5 9.5 0 0 0 3.5-3q.9 3.28 3.5.5 4.74-5.58-2-4l1 1q-1.38.56-2.5 1.5-.84-7.83-2.5-15a188 188 0 0 0 3-39.5 807 807 0 0 0-1.5-41.5 730 730 0 0 1-3.5-38q-.25-3.54.5-7 3.25-2.25-.5-3.5a5 5 0 0 0 4-2.5" style="opacity:1" transform="translate(-148.5 -163.43)"/><path fill="#50272a" d="M791.5 416.5a564 564 0 0 1 8 76 2.3 2.3 0 0 1-1.5-1l-1-6q-1.95-34.63-5.5-69" style="opacity:1" transform="translate(-148.5 -163.43)"/><path fill="#6a1d25" d="M235.5 370.5a136 136 0 0 1-3 23 7.8 7.8 0 0 0 2.5 7l1 10a6.6 6.6 0 0 1 2 7q-1.87-1.9-3.5-1 3.64 2.03 4 5a7 7 0 0 0 1.5-3q.73 4.95 3.5 9a32 32 0 0 0-3.5 4l-1-8q-1.15 4.04-2.5 8-1.87-2.25 0-4.5-1.25-1.03-2 .5a31.5 31.5 0 0 0-3.5 20l3 2q-.8 4.9 1 10l1-2a7 7 0 0 0 2.5 2q1.08-3.28 2-6.5.04-8.1-.5-16.5 1.4 3.81 5.5 3 .27 9.94 1.5 0l1 1q1.11-14.27 4.5-26a928 928 0 0 0-8 102q.81 54.75 8 109-3-4.74-3.5-11a317 317 0 0 1-2.5-32h-3q.42 3.93 2 7.5a11.5 11.5 0 0 0-3.5 4.5l-1 10a27 27 0 0 1 1.5-15.5q-2.13-.06-3-3.5a10 10 0 0 0-6-1.5q2.52 6.07-2 2.5l-1 1.5q.5 4 0 8.5a380 380 0 0 0-4-31 654 654 0 0 1 8-162.5 15.7 15.7 0 0 1-4-8.5q1.55-12.39 5-24" style="opacity:1" transform="translate(-148.5 -163.43)"/><path fill="#c18064" d="M326.5 447.5q.25 9-.5 18a9 9 0 0 1-1.5 4q.33-11.28 2-22" style="opacity:1" transform="translate(-148.5 -163.43)"/><path fill="#d4955e" d="M589.5 523.5q.06 41-1 82a7.5 7.5 0 0 0-5 0 34 34 0 0 0-1-11q1.54.3 3-1.5a11 11 0 0 1-3-4.5 59 59 0 0 0 1-8.5q-5.58-2.95 0-5-3.58-1.46-3.5-5.5a16 16 0 0 1-6.5-5 14 14 0 0 0 4-5 658 658 0 0 0-1-83q2.99-.75 0-3.5a7.3 7.3 0 0 1 3-2q-2.49-1.09-1.5-3.5h4q.75-2.96.5-6 3.66.57 2-2 .83-2.75 2.5-5 1.22 10.87-.5 21.5a579 579 0 0 1 3 47.5" style="opacity:1" transform="translate(-148.5 -163.43)"/><path fill="#d49670" d="M597.5 429.5h14a43 43 0 0 1-13 1q1.35 22.5 2.5 45 .04 7.28 2.5 14-.48 40.96-3 81 .99-70.56-3-141" style="opacity:1" transform="translate(-148.5 -163.43)"/><path fill="#efd7c5" d="M279.5 413.5a418 418 0 0 0 40 7v6q-7.5-.37-15-1h-1a70 70 0 0 0-15-2h-1a275 275 0 0 1-18-4 109 109 0 0 0-4 28 713 713 0 0 0 4 180h-3q-7.05-.69-14-2a936 936 0 0 1-8-109 928 928 0 0 1 8-102 9.6 9.6 0 0 0 1-6z" style="opacity:1" transform="translate(-148.5 -163.43)"/><path fill="#d4955f" d="M611.5 429.5q7.2 49 6 99a901 901 0 0 1-2.5 75 478 478 0 0 0-5.5 42h-12v-5q1.65-35 3-70 2.52-40.04 3-81a41 41 0 0 1-2.5-14q-1.15-22.5-2.5-45 6.8.48 13-1" style="opacity:1" transform="translate(-148.5 -163.43)"/><path fill="#69231b" d="M376.5 426.5q27.2-.48 54 3 .6 26.05-1.5 52-.3-2.82-1.5-5 .63-23.01 2-46-14.99-1.2-30-2a50 50 0 0 0-14-1q-4.81.47-9-1" style="opacity:1" transform="translate(-148.5 -163.43)"/><path fill="#b06840" d="m680.5 438.5 5.5 51a484 484 0 0 1 0 44q-5.25 44.08-11.5 88h-1q-.75-3.49 0-6.5a3.6 3.6 0 0 0-2-2q2.7-.48 1-2a11 11 0 0 0 2-4 14 14 0 0 1-2.5-5.5q-1.62-2.85-4-1l-2.5-2.5q3.45 1.65 4.5-2.5a4.4 4.4 0 0 0 3.5 1 8.4 8.4 0 0 0-.5-4q-1.37 1.73-2.5-.5 3.4-2.7 5.5 1.5.4-4.09 1.5-8a3.7 3.7 0 0 0-1-1.5q2.7-3.15 3-7.5-.7-4.57-2.5-1a3.3 3.3 0 0 0-3.5-2 4.9 4.9 0 0 1 1-4q2.66-1.7 5-3a7 7 0 0 0-2-2.5q-3.26-.25-5.5-2.5-2.52 2.06-.5 4.5a41 41 0 0 0-5 12q2.45 2.47-1 3 .7.62 1 1.5a15 15 0 0 0-3 3.5 4.2 4.2 0 0 1 .5 4.5q-1.15-1.65-2.5 0 .49 1.97 2 2.5l-1 1.5q-2.1-.21-4.5 0-.69-1.87 1.5-2.5a20 20 0 0 1-1.5-5.5 10 10 0 0 0-2.5-1.5q1.92-1.02 3.5.5.38-2.9 1.5-5.5a7.3 7.3 0 0 0-3-2 5 5 0 0 1 3-.5q.01-3.07 1-6-1-3.8-2.5 0-3.6-4.59 1.5-3a17.5 17.5 0 0 1 3-6.5q.66-2.27-2-3.5l3-2q-3.24-2.4-.5-5l1 1q.6-2.05 1.5-4-.18-3.75-.5-8-1.05-.79-1.5-2 1.54.3 3-1.5-1.47-2.66 1-5-.7-.62-1-1.5 2.4-12.86 2-25.5.26-8.7-2.5-.5a66 66 0 0 1-7.5-6q-.87-4.14 2-8 1.05.8 1.5 2 2.1-1.1 4.5-1.5-1.71-1.1 0-2.5l-1.5-3q-.42 4.87-2.5 1-2.28 2.11-4-.5a6.6 6.6 0 0 0 5-3 15 15 0 0 1-3-4.5q-2.7 2.03-4.5-1 .53 2.6.5 5-1.15 1.81-2.5 0-.4-5.6.5-10.5-.9-3.78-2-7.5l2-3a6.1 6.1 0 0 1 0-6.5q-3.99-2.51 0-5l-3-1q2-1.95 4-1.5-1.45-3.45-4-6-1.34-3.45-.5-7l5-1a23 23 0 0 0 4 5l1-1q5.19 3.87 10.5 0 2.97 2.2 5-1 .62 1.14.5 3a2.9 2.9 0 0 1 2.5-1" style="opacity:1" transform="translate(-148.5 -163.43)"/><path fill="#d49562" d="M472.5 431.5h13q-.81 29.75 4.5 59a196 196 0 0 0 7 23 865 865 0 0 1-6.5-81h12q.15 9.54 1.5 19 6.3 40.03 13 80a853 853 0 0 1 3 29q1 44-.5 88h-24q3.53-42.3-4.5-84a911 911 0 0 1-16-82 389 389 0 0 1-2.5-51" style="opacity:1" transform="translate(-148.5 -163.43)"/><path fill="#6f1a24" d="M228.5 471.5q.75 3.5 3 6.5-.7.62-1 1.5a45 45 0 0 1 3 9q2.5-3.45 5.5 0a16 16 0 0 0 3-5 16.7 16.7 0 0 1 .5 10q1.42 35.99 1.5 72a10 10 0 0 1-6 4q-1-2-2 0-2.42-2.26 0-4a4.6 4.6 0 0 0 4.5 2 3.3 3.3 0 0 0-2-3.5q1.76-3 2-6.5-4.65.13-1-1.5-1.5-1-3 0-2 1 0 2l-4 3a4.4 4.4 0 0 1 1 3.5 3.3 3.3 0 0 1-3.5-2q-.75-3.97-.5-8a9 9 0 0 1 5 1l3-3a40 40 0 0 0-3-12q3.52-2.43 0-4.5a4.6 4.6 0 0 0 2.5-2.5q.72 1.43.5 3a3.1 3.1 0 0 0 3-1 43 43 0 0 1 0-7.5 59 59 0 0 1-1.5-7.5 4.4 4.4 0 0 0-3.5-1 18.4 18.4 0 0 1-4 9q2.83 1.05 1 3-2.55 1.1-4.5 3a94 94 0 0 1-1-25q1.5 2 3 0 .94 3.75 2.5 0a4.7 4.7 0 0 0 .5-5q-2.01 2.1-2.5-1 .36-3.84 1.5 0 1.8-3.27 1.5-7a3.1 3.1 0 0 1-3-1q-6.93-11.49-2-24" style="opacity:1" transform="translate(-148.5 -163.43)"/><path fill="#581b1f" d="M594.5 641.5a10.4 10.4 0 0 0-5-4q1.45-31.49 2.5-63 .4-2.4 1.5-4.5a251 251 0 0 1 0-40q-.97-9.4-2-18.5.35-25.51-1-51-.44-6.16 4-10a7 7 0 0 1 2.5 2q2.4 53.83 2.5 107.5-.68 6.62-2 13 1.73 14.64.5 29.5a245 245 0 0 1-3.5 39" style="opacity:1" transform="translate(-148.5 -163.43)"/><path fill="#55191d" d="M706.5 419.5q2.65 23.45 4 47-.1 31 1 62a956 956 0 0 1-2 48q-.82-4.97-1.5-10l-1.5 3q1.46 2.2-1 4a16.5 16.5 0 0 1 1 13 43 43 0 0 1-1.5-9q-.57.84-1.5 1 2.97-70.47-3-141 1.87.12 2.5 2a10 10 0 0 1 2.5-1.5 4.4 4.4 0 0 1-2-4 12.4 12.4 0 0 0 1-11.5q.2-2.3 2-3" style="opacity:1" transform="translate(-148.5 -163.43)"/><path fill="#b77140" d="M576.5 476.5a658 658 0 0 1 1 83 965 965 0 0 1-4.5-108q2.48 12.46 3.5 25" style="opacity:1" transform="translate(-148.5 -163.43)"/><path fill="#b77040" d="M268.5 449.5q1 4.72 1 10-1.9 44.55-3.5 89-3.75-26.85-2-54 1.88-22.54 4.5-45" style="opacity:1" transform="translate(-148.5 -163.43)"/><path fill="#af663f" d="M732.5 474.5a637 637 0 0 1 6 74q-1 4.78-2 10a15 15 0 0 1 0-13.5 14 14 0 0 0-4-7.5 20 20 0 0 1 4-3.5q-1.62-4.24-3.5-.5l-2.5-2.5q1.43-1.08.5-2.5a13 13 0 0 1-9 6 13 13 0 0 0 .5 8.5q-3.58.42-2 3a27 27 0 0 0-1.5 6.5 7 7 0 0 1-3.5 2.5q1.9.45 3.5 1.5a45.6 45.6 0 0 0 9.5 17.5q-1.1 3.03 2.5 4.5l2.5-3 1 1a21.4 21.4 0 0 0 0 12.5q-2.67 2.5-1 5.5l-3 2.5q2.94 3.18 1.5 7.5a10 10 0 0 0-1.5-2.5 11 11 0 0 1-6-2.5q-1.2 1.29 1 2.5a7 7 0 0 0-4 3.5q-1.8-.53 0-1.5-3.3-.56-6.5-1.5a19 19 0 0 1-4.5 3 39.5 39.5 0 0 0 1-17.5q3.13-42.55 4-85-1.65-9.38-3-18.5v-2q-.25-8.51.5-17 .59 1.4 2 2 1.51-.6 1.5-2 2 2 4 0 1.05.8 1.5 2a47 47 0 0 0 5.5-6q-3.1-5.6 2-.5.24 4.6 0 9.5a6.9 6.9 0 0 0 3 4" style="opacity:1" transform="translate(-148.5 -163.43)"/><path fill="#631e22" d="M328.5 422.5v6q-1.85 9.4-2 19a175 175 0 0 0-2 22q.48 6.8-1 13 .25-3.04-.5-6a941 941 0 0 0-1 83q2.33 36.5 4.5 73-2.64.87-6 0v-1a1146 1146 0 0 0-4.5-54 907 907 0 0 1-1-76 110 110 0 0 1 2.5-19.5q-1.14-18.15 0-36.5.13-9.66 2-19v-6a418 418 0 0 1-40-7q2.58-1.09 5.5-2a76 76 0 0 0 13.5 4.5 69 69 0 0 1 22 3.5 5.9 5.9 0 0 0 3.5 4q2.16-.97 4.5-1" style="opacity:1" transform="translate(-148.5 -163.43)"/><path fill="#b97443" d="M485.5 431.5h44a2986 2986 0 0 0 9.5 99q.84 24.01-1 48l-1-24q-6.2-61.01-12.5-122h-17a5679 5679 0 0 1 16.5 121 542 542 0 0 1-1.5 95h-3q1.5-44 .5-88a853 853 0 0 0-3-29q-6.7-39.97-13-80-1.35-9.46-1.5-19h-12q1.35 40.71 6.5 81a196 196 0 0 1-7-23 286 286 0 0 1-4.5-59" style="opacity:1" transform="translate(-148.5 -163.43)"/><path fill="#af6942" d="M777.5 483.5q.25 29.5-.5 59 .15 9.68-2.5 18.5a47 47 0 0 1 0 18.5h-3a8 8 0 0 1 2-5.5q-1.42-.93-2.5.5l-1-2q-1.09 2.49-3.5 1.5 1.71-1.1 0-2.5a10 10 0 0 1 4-1.5l-3-1q.65-2.47 4-4.5-1.15-1.82-2.5 0a5.3 5.3 0 0 0-3.5-3q-1.83 1.82-3.5 0-1.12 3.22-2.5.5a28 28 0 0 0 0-13.5q3.16-2.44 1-6 .26-3.5 2-6.5l-2-2q.6-8.95 3-17.5-.53-1.8-1.5 0l-.5-4.5q.2-2.97 2-5-1.2-.45-2-1.5 3.56-5.14 0-10.5.36-2.67 1-5.5a27.6 27.6 0 0 1-2-14q.33-2.16 1.5-4 .59 1.4 2 2 3.25-3.69 6 0 4.86-3.35-1.5-4.5a4.3 4.3 0 0 1 4 0 457 457 0 0 0 5 14.5" style="opacity:1" transform="translate(-148.5 -163.43)"/><path fill="#53150f" d="m698.5 434.5 2 3q5.97 70.53 3 141a6 6 0 0 1-2 5 744 744 0 0 0 0-109 471 471 0 0 0-3-40" style="opacity:1" transform="translate(-148.5 -163.43)"/><path fill="#b87342" d="M406.5 430.5q1 8.73 1 18-1.52 54.52-3.5 109a400 400 0 0 1-2.5-43 1675 1675 0 0 1 5-84" style="opacity:1" transform="translate(-148.5 -163.43)"/><path fill="#b97344" d="M468.5 431.5h4q-.42 25.59 2.5 51a911 911 0 0 0 16 82 308 308 0 0 1 4.5 84q-19.26.5-38-1h35a423 423 0 0 0-14.5-118 404 404 0 0 1-9.5-98" style="opacity:1" transform="translate(-148.5 -163.43)"/><path fill="#b36d3d" d="M303.5 425.5h1v1a1071 1071 0 0 0-5 84.5q1.83 57.33 5.5 114.5a302 302 0 0 1-5-41 979 979 0 0 1 0-139q1.5-10.1 3.5-20" style="opacity:1" transform="translate(-148.5 -163.43)"/><path fill="#581b16" d="m710.5 466.5 2 16v2q2.37 73.7-6 147l1 5q27.6-3.8 55-9a4.3 4.3 0 0 1-1.5 2q-1.94-1.92-3.5.5-25.5 4.1-50 8.5l-3-1q.68-7.84 0-16 3.7-3.38 0-6.5a16.4 16.4 0 0 0 1-13.5 4.3 4.3 0 0 1 2.5-3q.36-11.07 1.5-22a956 956 0 0 0 2-48 1629 1629 0 0 1-1-62" style="opacity:1" transform="translate(-148.5 -163.43)"/><path fill="#d29270" d="M589.5 478.5q1.5 46.25 1 93 .14 18.8-2 37v-3q1.06-41 1-82z" style="opacity:1" transform="translate(-148.5 -163.43)"/><path fill="#591c14" d="M597.5 429.5q3.99 70.44 3 141-1.35 35-3 70a9.6 9.6 0 0 0-1 6q6.3.48 12-1h1q12.15-.02 24-2h3q30.06-1.97 60-5.5 1.64-11.12 2-22.5a875 875 0 0 1 3-30q-.43 20-1.5 40a17.3 17.3 0 0 0-.5 12.5q-2.1 2.47-4.5 1.5a1624 1624 0 0 1-82.5 7.5 25 25 0 0 0-8.5 2.5q-3.6-1.15-7.5-1.5a7.3 7.3 0 0 1-2-6.5 245 245 0 0 0 3.5-39q1.23-14.86-.5-29.5 1.32-6.38 2-13-.1-53.67-2.5-107.5a7 7 0 0 0-2.5-2q-4.44 3.84-4 10 1.35 25.49 1 51 .5 30.25-1 60 .5-46.75-1-93a528 528 0 0 0-1-36q1.87.12 2.5 2a45 45 0 0 0 6.5-15" style="opacity:1" transform="translate(-148.5 -163.43)"/><path fill="#b77241" d="M365.5 641.5h-3a186 186 0 0 1-2-31.5q.96-35 2-70-1.65-45.75-1.5-91.5 3.5 24.89 5 50 1 37.5 0 75a487 487 0 0 0-.5 68" style="opacity:1" transform="translate(-148.5 -163.43)"/><path fill="#d49562" d="M587.5 429.5h1v13a528 528 0 0 1 1 36v45a579 579 0 0 0-3-47.5 79 79 0 0 0 .5-21.5 16 16 0 0 0-2.5 5q1.66 2.57-2 2 .25 3.04-.5 6h-4q-.99 2.41 1.5 3.5a7.3 7.3 0 0 0-3 2q2.99 2.75 0 3.5-1.02-12.54-3.5-25-.78 54.15 4.5 108a14 14 0 0 1-4 5q2.6 3.36 6.5 5-.08 4.04 3.5 5.5-5.58 2.05 0 5a59 59 0 0 1-1 8.5 11 11 0 0 0 3 4.5q-1.46 1.8-3 1.5a34 34 0 0 1 1 11 7.5 7.5 0 0 1 5 0v3q.05 19.02-1 38v1h-29q5.58-51.4.5-103a2340 2340 0 0 1-12.5-113q20.57-.06 41-2" style="opacity:1" transform="translate(-148.5 -163.43)"/><path fill="#d49561" d="M288.5 423.5q7.63.2 15 2-2 9.9-3.5 20a979 979 0 0 0 0 139q1.1 20.7 5 41a3557 3557 0 0 1-5.5-114.5q.83-42.38 5-84.5 6.43 1.2 13 1a742 742 0 0 0-4 124q1.7 33.53 4 67 .4 8.5 1 17h-8q-2.62-2.84-6-2a499 499 0 0 1-30-6q.24-5.45 3.5-1l1-2q3.15 1.12 6 1 1.6-1.05 3.5-1.5a68 68 0 0 1-1-6.5q-5.72-1.07-2.5-6a9 9 0 0 0 3 4 9.3 9.3 0 0 1 .5-6q1.4 2.76 3.5 1a6.9 6.9 0 0 1 3 5q1-3 0-6-1.98-.45-4.5-.5a21 21 0 0 1 2.5-3.5l1 2q1.6-1.05 3.5-1.5l-3-1q1.75-4.67-1.5-.5-1.02-1.92.5-3.5-3.6.75-6.5 1.5-.2-1.91 1.5-3.5-.85-3.28-4-2 .7.62 1 1.5a525 525 0 0 1-4 6 883 883 0 0 0 3.5-31l1-117q.66-11.25 1.5-22.5a27 27 0 0 0-1-7 3.3 3.3 0 0 0 2-3.5" style="opacity:1" transform="translate(-148.5 -163.43)"/><path fill="#b66f41" d="M287.5 423.5h1a3.3 3.3 0 0 1-2 3.5q.96 3.37 1 7-.84 11.25-1.5 22.5l-1 117a883 883 0 0 1-3.5 31q-1.5-20.73-1-42 1.05-52 1.5-104 1.11-15.54 3-31 .18-2.9 2.5-4" style="opacity:1" transform="translate(-148.5 -163.43)"/><path fill="#9c4d30" d="M661.5 590.5a4.6 4.6 0 0 1-1-3l8.5-48a293 293 0 0 0 0-58 418 418 0 0 1-5-34q9.5 22.49 11 47a225 225 0 0 1-3 55q-4.5 20.73-10.5 41" style="opacity:1" transform="translate(-148.5 -163.43)"/><path fill="#d49561" d="M529.5 431.5h13q2.91 54.3 11.5 108a467 467 0 0 1 .5 108q-16 .28-32 1a542 542 0 0 0 1.5-95 5679 5679 0 0 0-16.5-121h17q6.3 60.98 12.5 122l1 24a429 429 0 0 0 1-48 2986 2986 0 0 1-9.5-99" style="opacity:1" transform="translate(-148.5 -163.43)"/><path fill="#d08f6e" d="M427.5 478.5q-1.74 46.25 0 92v21a3.3 3.3 0 0 1-1.5-2q-1-53 0-106 .3-2.82 1.5-5" style="opacity:1" transform="translate(-148.5 -163.43)"/><path fill="#994c2e" d="M734.5 454.5a882 882 0 0 1 8 89 404 404 0 0 1-10.5 83 5 5 0 0 1-.5-3q.42-4.42-1-8.5l1.5-1.5a413 413 0 0 0 6.5-65 637 637 0 0 0-6-74q-2.57-27-4.5-54a486 486 0 0 1 6.5 34" style="opacity:1" transform="translate(-148.5 -163.43)"/><path fill="#af653f" d="M636.5 427.5h8q6 50.34 4.5 101l-1 15a2215 2215 0 0 0-14.5 100q-11.85 1.98-24 2a478 478 0 0 1 5.5-42 901 901 0 0 0 2.5-75q1.2-50-6-99h-8a830 830 0 0 1 33-2" style="opacity:1" transform="translate(-148.5 -163.43)"/><path fill="#994c2e" d="M627.5 429.5q1.5-.13 2.5 1 8.93 69.9-9 138 3.3-30.52 8-61 1.43-39.06-1.5-78" style="opacity:1" transform="translate(-148.5 -163.43)"/><path fill="#621c15" d="M317.5 445.5q-1.14 18.35 0 36.5a110 110 0 0 0-2.5 19.5q-1.1 38.02 1 76 2.9 26.96 4.5 54a120 120 0 0 1-3-13 3606 3606 0 0 1-4-67q-.25-31.5.5-63 .8-21.8 3.5-43" style="opacity:1" transform="translate(-148.5 -163.43)"/><path fill="#af693e" d="M659.5 498.5a66 66 0 0 0 7.5 6q2.76-8.2 2.5.5.4 12.64-2 25.5.3.88 1 1.5-2.47 2.34-1 5-1.46 1.8-3 1.5.45 1.21 1.5 2 .32 4.25.5 8-.9 1.95-1.5 4l-1-1q-2.74 2.6.5 5l-3 2q2.66 1.23 2 3.5a17.5 17.5 0 0 0-3 6.5q-5.1-1.59-1.5 3 1.5-3.8 2.5 0a19 19 0 0 0-1 6 5 5 0 0 0-3 .5 7.3 7.3 0 0 1 3 2 20 20 0 0 0-1.5 5.5q-1.58-1.52-3.5-.5 1.38.56 2.5 1.5.38 2.9 1.5 5.5-2.19.63-1.5 2.5 2.4-.21 4.5 0l1-1.5q-1.51-.53-2-2.5 1.35-1.65 2.5 0a4.2 4.2 0 0 0-.5-4.5 15 15 0 0 1 3-3.5 3.7 3.7 0 0 0-1-1.5q3.45-.53 1-3a41 41 0 0 1 5-12q-2.02-2.44.5-4.5a8.4 8.4 0 0 0 5.5 2.5 7 7 0 0 1 2 2.5q-2.34 1.3-5 3a4.9 4.9 0 0 0-1 4 3.3 3.3 0 0 1 3.5 2q1.8-3.57 2.5 1-.3 4.35-3 7.5.7.62 1 1.5a47 47 0 0 0-1.5 8q-2.1-4.2-5.5-1.5 1.13 2.23 2.5.5.74 1.95.5 4a4.4 4.4 0 0 1-3.5-1q-1.05 4.15-4.5 2.5l2.5 2.5q2.38-1.85 4 1a14 14 0 0 0 2.5 5.5 11 11 0 0 1-2 4q1.7 1.52-1 2 1.4.59 2 2-.75 3.01 0 6.5-7.3-.66-2-4a7 7 0 0 1-3.5-4q-1.52 1.7-2-1-4.86 4.52-3.5-1-1.75-3.98-4.5-5-3.62 4.94-9.5 3.5.59-2.7 0-5a7.3 7.3 0 0 0-3-2q.7-.62 1-1.5-3.75-1.56 0-2.5l-1-3a537 537 0 0 0 3.5-17.5q2.46 2.02 4.5-.5-2.34-1.4-4-3.5.8-1.05 2-1.5-4.46-5.67 1-10-1.37-3.82 1-7.5a11.2 11.2 0 0 0 7 2v-3q-8.51-.67-1-2.5-1.65-5.22-5.5.5l-1.5-1.5q1.44-8.22 3-16.5-1.48-4.32 2-7.5-3.82-3.4 0-7a23 23 0 0 1-1-6.5 12.3 12.3 0 0 1 2-6.5q-2.49-1.09-1.5-3.5 3.25 3.69 2.5-2-5.34-.33 0-3" style="opacity:1" transform="translate(-148.5 -163.43)"/><path fill="#b87343" d="M347.5 479.5a354 354 0 0 1-4.5 130q3.1-64.95 4.5-130" style="opacity:1" transform="translate(-148.5 -163.43)"/><path fill="#9b4d2f" d="M636.5 427.5a31 31 0 0 1 11-1 459 459 0 0 1 4.5 119 2785 2785 0 0 0-15.5 98h-3q6.1-50.14 14.5-100l1-15q1.5-50.66-4.5-101z" style="opacity:1" transform="translate(-148.5 -163.43)"/><path fill="#b97343" d="M476.5 647.5h-5v-1a613 613 0 0 0-2.5-37q-6.32-33.75-14-67a245 245 0 0 1 21.5 105" style="opacity:1" transform="translate(-148.5 -163.43)"/><path fill="#661d21" d="M430.5 429.5a7.9 7.9 0 0 1 6.5 4 5.5 5.5 0 0 1 1.5-3q-.66 16.5-1 33v4q-1.5 16.73-1 34-1.3 60.28-1 121-4.5 3.3-4.5 9-1.5-30.75-3.5-61-1.74-45.75 0-92v-2q1.2 2.18 1.5 5 2.1-25.95 1.5-52" style="opacity:1" transform="translate(-148.5 -163.43)"/><path fill="#d49270" d="M437.5 467.5q-.72 89.05 3 178 15.46 1.26 31 1v1h-32q.48-5.8-1-11a2859 2859 0 0 1-2-135q-.5-17.27 1-34" style="opacity:1" transform="translate(-148.5 -163.43)"/><path fill="#994c2d" d="M684.5 436.5q1.25 19.04 3.5 38a807 807 0 0 1 1.5 41.5 188 188 0 0 1-3 39.5 1675 1675 0 0 1-10.5 81 7.3 7.3 0 0 1-2 3q-.75-9.03.5-18 6.25-43.92 11.5-88a484 484 0 0 0 0-44l-5.5-51q-1.38-6.54 0-13 .88.3 1.5 1a52 52 0 0 0 2.5 10" style="opacity:1" transform="translate(-148.5 -163.43)"/><path fill="#b97142" d="M542.5 431.5h4a2340 2340 0 0 0 12.5 113 499 499 0 0 1-.5 103h-4a467 467 0 0 0-.5-108q-8.59-53.7-11.5-108" style="opacity:1" transform="translate(-148.5 -163.43)"/><path fill="#662016" d="M323.5 482.5q-1.32 31.5-.5 63 1.68 45.58 5.5 91l-2-4q-2.17-36.5-4.5-73a941 941 0 0 1 1-83q.75 2.96.5 6" style="opacity:1" transform="translate(-148.5 -163.43)"/><path fill="#701924" d="M252.5 625.5q6.95 1.31 14 2 21.65 4.95 44 8h2q3.68 1.45 8 1v-4q3.36.87 6 0l2 4 1 2q.16.93 1 1.5l9 1q2.15.7 3.5 2.5a30 30 0 0 1 7.5-1q15 1.2 30 2.5a4.6 4.6 0 0 0 3.5 2.5 199 199 0 0 1 37 0q5.13-.03 10-1 1.15-5.59-.5-11a24 24 0 0 0 5-3 42 42 0 0 1 2.5 13q.75-4.47.5-9a31 31 0 0 1 1 11 839 839 0 0 0 67 2q40.5-.3 81-1 .25 8.51-.5 17-1.45 13.1-3.5 26-70.52 1.2-142 0a15 15 0 0 0-3.5 3q-2.34-1.26-3 2a2.3 2.3 0 0 0-1.5-1q.35-1.95-1-3h-1a5.5 5.5 0 0 0-3-1.5 524 524 0 0 0-39-1.5 203 203 0 0 1-27-2 715 715 0 0 1-24.5-3 6 6 0 0 0-3.5 1 4.6 4.6 0 0 0-1 4 9 9 0 0 1-6.5-2q-.6.34-.5 1h-1v-6a121 121 0 0 1-23-3 557 557 0 0 1-38.5-7q-1.6.04-2.5 1a38 38 0 0 1-3 10q-1.81-1.15 0-2.5l-1.5-.5q-2.6 1.72-5 0a22 22 0 0 1-5.5 4 44 44 0 0 0-2-3 41 41 0 0 1-2.5-13q-10.45-12.6-8.5-28.5a4 4 0 0 1-2-3.5 50 50 0 0 0 1-20q-1.4-9.95-2-20 .5-4.5 0-8.5l1-1.5q4.53 3.57 2-2.5 3.12-.22 6 1.5.87 3.44 3 3.5a27 27 0 0 0-1.5 15.5l1-10a11.5 11.5 0 0 1 3.5-4.5 25 25 0 0 1-2-7.5h3q.45 16.07 2.5 32 .5 6.26 3.5 11" style="opacity:1" transform="translate(-148.5 -163.43)"/><path fill="#d29564" d="M265.5 447.5a1497 1497 0 0 0-3 70.5q-.05 28.81 2.5 57.5a4.6 4.6 0 0 0 2.5 2.5 23 23 0 0 0-.5 11.5q.62.7 1.5 1 2.92-2.4 6-1.5-1.17-1.6.5-3.5a23 23 0 0 1 2 5l1.5-1.5q-.18-1.9-1-4l2-1a10 10 0 0 1-5-2q1.42-.93 2.5.5 3.7-6.81.5-13.5 1.21-.45 2-1.5-1.12-2.69 1-5-.5 21.27 1 42 1.96-2.9 4-6a3.7 3.7 0 0 0-1-1.5q3.15-1.28 4 2-1.7 1.59-1.5 3.5 2.9-.75 6.5-1.5-1.52 1.58-.5 3.5 3.25-4.17 1.5.5l3 1q-1.9.45-3.5 1.5l-1-2a21 21 0 0 0-2.5 3.5q2.52.05 4.5.5 1 3 0 6a6.9 6.9 0 0 0-3-5q-2.1 1.76-3.5-1a9.3 9.3 0 0 0-.5 6 9 9 0 0 1-3-4q-3.22 4.93 2.5 6 .34 3.26 1 6.5-1.9.45-3.5 1.5-2.85.12-6-1l-1 2q-3.26-4.45-3.5 1h-5a713 713 0 0 1-4-180" style="opacity:1" transform="translate(-148.5 -163.43)"/><path fill="#573237" d="M796.5 586.5q-.75 10.8-3 21-.12-8.28 1-16.5.1-2.99 2-4.5" style="opacity:1" transform="translate(-148.5 -163.43)"/><path fill="#632d32" d="M226.5 565.5a380 380 0 0 1 4 31q.6 10.05 2 20v4a364 364 0 0 1-6-55" style="opacity:1" transform="translate(-148.5 -163.43)"/><path fill="#b06741" d="M749.5 443.5a497 497 0 0 1 7 70 7655 7655 0 0 0-6 106q0 2.8 1 5l2 2a227 227 0 0 0-21 5q-3.16-3.75-1-8a5 5 0 0 0 .5 3 404 404 0 0 0 10.5-83 882 882 0 0 0-8-89 4.4 4.4 0 0 1 3.5 1q.72-1.42.5-3 2.05.24 4-.5-1.6-1.93-4-1l2-4q4.25-.25 4.5-4.5a6.5 6.5 0 0 0 4.5 1" style="opacity:1" transform="translate(-148.5 -163.43)"/><path fill="#b97143" d="M392.5 644.5q-4.81.47-9-1 3.04.25 6-.5a706 706 0 0 1-9.5-99.5 958 958 0 0 1 12.5 101" style="opacity:1" transform="translate(-148.5 -163.43)"/><path fill="#a9644b" d="M712.5 484.5q1.35 9.12 3 18.5-.87 42.45-4 85 1.46 9.04-1 17.5a880 880 0 0 1-3 28.5q12.55-.38 25-2.5a227 227 0 0 1 21-5 30.6 30.6 0 0 0 18-5v3a24 24 0 0 0-9 3q-27.4 5.2-55 9l-1-5q8.37-73.3 6-147" style="opacity:1" transform="translate(-148.5 -163.43)"/><path fill="#581a14" d="M591.5 511.5q1.03 9.1 2 18.5a251 251 0 0 0 0 40q-1.1 2.1-1.5 4.5-1.05 31.51-2.5 63 .84 5.26-2 9 1.04-18.98 1-38a299 299 0 0 0 2-37q1.5-29.75 1-60" style="opacity:1" transform="translate(-148.5 -163.43)"/><path fill="#af6541" d="M738.5 548.5a413 413 0 0 1-6.5 65l-1.5 1.5a20 20 0 0 1 1 8.5q-2.16 4.25 1 8a182 182 0 0 1-25 2.5 880 880 0 0 0 3-28.5 19 19 0 0 0 4.5-3q3.2.94 6.5 1.5-1.8.97 0 1.5a7 7 0 0 1 4-3.5q-2.2-1.21-1-2.5a11 11 0 0 0 6 2.5 10 10 0 0 1 1.5 2.5q1.44-4.32-1.5-7.5l3-2.5q-1.67-3 1-5.5a21.4 21.4 0 0 1 0-12.5l-1-1-2.5 3q-3.6-1.47-2.5-4.5a45.6 45.6 0 0 1-9.5-17.5q-1.6-1.05-3.5-1.5a7 7 0 0 0 3.5-2.5q.36-3.4 1.5-6.5-1.58-2.58 2-3a13 13 0 0 1-.5-8.5 13 13 0 0 0 9-6q.93 1.42-.5 2.5l2.5 2.5q1.88-3.75 3.5.5a20 20 0 0 0-4 3.5 14 14 0 0 1 4 7.5 15 15 0 0 0 0 13.5q1-5.22 2-10" style="opacity:1" transform="translate(-148.5 -163.43)"/><path fill="#6f241e" d="M436.5 501.5q-.6 67.53 2 135 .25 4.53-.5 9-.22-6.74-2.5-13a24 24 0 0 1-5 3q1.65 5.41.5 11-4.87.97-10 1a199 199 0 0 0-37 0 4.6 4.6 0 0 1-3.5-2.5q-15-1.3-30-2.5a30 30 0 0 0-7.5 1 7 7 0 0 0-3.5-2.5l-9-1a2.3 2.3 0 0 1-1-1.5 738 738 0 0 0 33 3h3a55 55 0 0 0 18 2q4.19 1.47 9 1 11.99.78 24 1 6.2 1.48 13 1a688 688 0 0 0-2-46v-30q2 30.25 3.5 61 0-5.7 4.5-9-.3-60.72 1-121" style="opacity:1" transform="translate(-148.5 -163.43)"/><path fill="#d08a66" d="M266.5 627.5h8a499 499 0 0 0 30 6q3.38-.84 6 2a498 498 0 0 1-44-8" style="opacity:1" transform="translate(-148.5 -163.43)"/><path fill="#cf8769" d="M317.5 618.5q1.14 6.57 3 13v5q-4.32.45-8-1h6q-.6-8.5-1-17" style="opacity:1" transform="translate(-148.5 -163.43)"/><path fill="#ce8c69" d="M427.5 600.5a688 688 0 0 1 2 46q-6.8.48-13-1h12a749 749 0 0 1-1-45" style="opacity:1" transform="translate(-148.5 -163.43)"/><path fill="#9c5e49" d="M597.5 640.5v5h11a37 37 0 0 1-12 1 9.6 9.6 0 0 1 1-6" style="opacity:1" transform="translate(-148.5 -163.43)"/><path fill="#6e2117" d="M439.5 647.5h18a362 362 0 0 0 38 1h27q16-.72 32-1h33v1q-40.5.7-81 1-33.78.34-67-2" style="opacity:1" transform="translate(-148.5 -163.43)"/><path fill="#68292e" d="M232.5 616.5a50 50 0 0 1-1 20q.05 2.3 2 3.5-1.95 15.9 8.5 28.5.22 6.77 2.5 13v7a310 310 0 0 1-4.5-19 55 55 0 0 0-6-9 248 248 0 0 1-5.5-28q2.07-6.1 4-12z" style="opacity:1" transform="translate(-148.5 -163.43)"/><path fill="#af6440" d="M750.5 720.5a247 247 0 0 1-10.5 36q-3.13 1.34-6.5 2l-49 8q-1 0-1-1 2.38-6.34 4-13a2.3 2.3 0 0 0 1.5-1 117 117 0 0 1 8-27q1.37 1.73 2.5-.5a5 5 0 0 0-3-.5q-.72-4.77 2-8.5a6.3 6.3 0 0 1-1-3 58 58 0 0 0 2-15.5v-4a12.4 12.4 0 0 0 2.5-7q3.37-2.48 7-1 24.16-4.5 49-10 4.52.82.5 3.5.18 1.9 1 4a7 7 0 0 0-2.5 3.5 51 51 0 0 1-6 23q-.75 5.99-.5 12" style="opacity:1" transform="translate(-148.5 -163.43)"/><path fill="#a96449" d="m752.5 715.5-2 5q-.25-6.01.5-12a51 51 0 0 0 6-23 7 7 0 0 1 2.5-3.5q-.82-2.1-1-4 4.02-2.68-.5-3.5-24.84 5.5-49 10-3.63-1.48-7 1-.24 4.04-2.5 7 .82-4.95 1-10a319 319 0 0 0 44-7 213 213 0 0 1 18-3q-4.75 21.55-10 43" style="opacity:1" transform="translate(-148.5 -163.43)"/><path fill="#edc9b0" d="M302.5 679.5a121 121 0 0 0 23 3v6q-2.2 1-5 1a116 116 0 0 0-19-2q0-1-1-1-6.52-1.35-13-3 4.91-.42 9.5 1 2.13-1.44 4.5-2.5a2.9 2.9 0 0 0 1-2.5" style="opacity:1" transform="translate(-148.5 -163.43)"/><path fill="#531813" d="m678.5 753.5 4-24a610 610 0 0 0 7.5-35q.75-4.98.5-10a1019 1019 0 0 1-77 6q22.77-2.28 46-4.5 3.75-.15 6.5-2.5a45 45 0 0 0 21.5-1q3.2.03 6 1.5l-6.5 39.5a1366 1366 0 0 1-8.5 30" style="opacity:1" transform="translate(-148.5 -163.43)"/><path fill="#a76249" d="M682.5 729.5q1.15-5.37 0-10.5a8.4 8.4 0 0 0 2.5-5.5l4.5-26a33 33 0 0 0-19 2q-37.41.84-75 4-1.14 20.03-3 40-1.7 5.7 0 10.5a9 9 0 0 0-2 4.5 147 147 0 0 1-3 23.5 313 313 0 0 0 25 .5 317 317 0 0 1-26 2q4.21-40.47 8-81a91 91 0 0 1 19-3q38.61-1.55 77-6 .25 5.02-.5 10a610 610 0 0 1-7.5 35" style="opacity:1" transform="translate(-148.5 -163.43)"/><path fill="#6c1c24" d="M261.5 673.5q7.15 32.28 16 64a81 81 0 0 1-2.5-3 70 70 0 0 0-3.5-11q-.88.3-1.5 1l-1 9q-1.37-1.73-2.5.5 3.75 2.67 0 5 7.23 3.6.5 7.5a14.3 14.3 0 0 1-5-7 5.5 5.5 0 0 1-1.5 3q.55-3.75-2-2a463 463 0 0 1-14-52v-7q.99 1.35 2 3 3.1-1.6 5.5-4 2.4 1.72 5 0l1.5.5q-1.81 1.35 0 2.5a38 38 0 0 0 3-10" style="opacity:1" transform="translate(-148.5 -163.43)"/><path fill="#e3b390" d="M362.5 687.5a13.4 13.4 0 0 1-10 0q-7.47 3.9-17 3a21 21 0 0 0-1-5 6 6 0 0 1 3.5-1 715 715 0 0 0 24.5 3" style="opacity:1" transform="translate(-148.5 -163.43)"/><path fill="#7c2f1f" d="M389.5 689.5q19.53.03 39 1.5 1.86.35 3 1.5-19.5-.95-39-2h-2q-1 0-1-1" style="opacity:1" transform="translate(-148.5 -163.43)"/><path fill="#b06541" d="m682.5 729.5-4 24q-1.84 5.78-3.5 12a5 5 0 0 1-3.5 2.5 496 496 0 0 1-59 4.5 313 313 0 0 1-25-.5 147 147 0 0 0 3-23.5q3.47-1.34 1 2.5 1.11 4.4 3 .5a5.4 5.4 0 0 0 5 .5q-4.47-2.07-2-6.5.3 2.7 3.5 5a3.6 3.6 0 0 1 2-2 5.2 5.2 0 0 0 4.5.5q.72 1.5.5 3.5 1.5 2 3 0a5.7 5.7 0 0 0 3.5 5l-.5 1-6-2a5 5 0 0 0-.5 3q4.5-.37 7.5 3 4.24-3.3 1-8-1.7 1.65-2.5-1a92 92 0 0 0 4.5-3 81 81 0 0 0 3-19q-1.52 1.7-2-1a20 20 0 0 1-1.5 6q-2.01-2.1-2.5 1a21 21 0 0 1-6.5-3q2.37-.18 5-2.5-3.81-2.51-7.5.5l-1-2q-5.39 1.89-11.5 0 .36 1.95-1 3 1.86-19.97 3-40 37.59-3.16 75-4a33 33 0 0 1 19-2l-4.5 26q-.25 3.26-2.5 5.5 1.15 5.13 0 10.5" style="opacity:1" transform="translate(-148.5 -163.43)"/><path fill="#d7986a" d="M362.5 687.5a203 203 0 0 0 27 2q0 1 1 1v1a172 172 0 0 0-22-1q-1.05-1.36-3-1v6q-3.15.36-6-2.5-4.47-.75-9-.5-.1-.81-1-1a10 10 0 0 0-1 6 51 51 0 0 0-2.5-4 34 34 0 0 1-3.5 6q2.4 3.72-1.5 6a31.4 31.4 0 0 0 4 20q1.35-3.72 1-7a5.9 5.9 0 0 1 1.5 5h4q-.24-2.05.5-4 .57.84 1.5 1 1.25 5.45 2 11-1.35-1.65-2.5 0 1.24-3.62-.5-6l-2 6a7.5 7.5 0 0 1-.5-5l-2.5 3-3-2-1 1a776 776 0 0 1 8 38q13.96 1.6 28 2a8 8 0 0 0-2-5.5 2.9 2.9 0 0 0 1-2.5 109 109 0 0 0 4 9.5q-1.95.74-4 .5-7.97-.9-16-1a72 72 0 0 0-12-2q-8.7-38.28-15-77 9.53.9 17-3a13.4 13.4 0 0 0 10 0" style="opacity:1" transform="translate(-148.5 -163.43)"/><path fill="#9f563f" d="M441.5 692.5q4.81-.47 9 1h-8v8a21 21 0 0 1-1-9" style="opacity:1" transform="translate(-148.5 -163.43)"/><path fill="#6d1f17" d="M441.5 692.5v-1q71.48 1.2 142 0v1q-7.8-.48-15 1-24.99 1.1-50 1h-46q-10.72-1.49-22-1a21 21 0 0 0-9-1" style="opacity:1" transform="translate(-148.5 -163.43)"/><path fill="#d4955c" d="M348.5 697.5a701 701 0 0 1 5 23 2.3 2.3 0 0 1-1.5-1 8.4 8.4 0 0 0-.5 4h-4a5.9 5.9 0 0 0-1.5-5q.35 3.28-1 7a31.4 31.4 0 0 1-4-20q3.9-2.28 1.5-6a34 34 0 0 0 3.5-6q1.4 2.05 2.5 4" style="opacity:1" transform="translate(-148.5 -163.43)"/><path fill="#d59663" d="M472.5 694.5a9726 9726 0 0 1 6 80q-14.52-.03-29-1-.75-19.56-3-39 .81-5.5 1-10.5a8.4 8.4 0 0 1-2.5-5.5 290 290 0 0 1-1.5-24z" style="opacity:1" transform="translate(-148.5 -163.43)"/><path fill="#d59563" d="M392.5 690.5q19.5 1.05 39 2h1q2.34 40.1 7 80v1q-3.72 1-8 1a328 328 0 0 1-25-2q-3.63-25.5-7.5-51a390 390 0 0 0-6.5-31" style="opacity:1" transform="translate(-148.5 -163.43)"/><path fill="#d49560" d="M568.5 693.5h15v8a3759 3759 0 0 1-5 73q-1 0-1 1h-15l7.5-60q1-8.5 0-17a639 639 0 0 0-9.5 77h-15q4.72-39.97 9-80h-4a1050 1050 0 0 0-8 80q-18 .25-36-.5a413 413 0 0 1 7.5-42.5 2203 2203 0 0 0 4.5-38q25.01.1 50-1" style="opacity:1" transform="translate(-148.5 -163.43)"/><path fill="#d49661" d="M477.5 694.5h15q1.49 71.94 3 0h20q-5.25 35.05-11.5 70-.75 5.48-.5 11h-23q-.25-40.55-3-81" style="opacity:1" transform="translate(-148.5 -163.43)"/><path fill="#ac6751" d="M568.5 693.5q7.2-1.48 15-1 2 4.5 0 9v-8z" style="opacity:1" transform="translate(-148.5 -163.43)"/><path fill="#d59662" d="M368.5 690.5q11.04-.2 22 1a968 968 0 0 0 13 80h-18a1247 1247 0 0 1-17-81" style="opacity:1" transform="translate(-148.5 -163.43)"/><path fill="#541814" d="M744.5 675.5a319 319 0 0 1-44 7q-.18 5.05-1 10v4q-6.3 27.75-12 56a115 115 0 0 1-4 13q-.81-.1-1-1a705 705 0 0 0 16-74.5q-.81-3.85-1-7 .81-3.15 3-1.5 22.05-2.8 44-6" style="opacity:1" transform="translate(-148.5 -163.43)"/><path fill="#641b13" d="M432.5 692.5q1.35 1.05 1 3 3.03 36.01 7 72 0 2.8-1 5a1387 1387 0 0 1-7-80" style="opacity:1" transform="translate(-148.5 -163.43)"/><path fill="#b87143" d="M472.5 694.5h5q2.75 40.45 3 81h-2v-1a9726 9726 0 0 0-6-80" style="opacity:1" transform="translate(-148.5 -163.43)"/><path fill="#b77041" d="M492.5 694.5h3q-1.51 71.94-3 0" style="opacity:1" transform="translate(-148.5 -163.43)"/><path fill="#8c3f25" d="M723.5 686.5q.94.63 1 2a294 294 0 0 1-17.5 63 867 867 0 0 1 16.5-65" style="opacity:1" transform="translate(-148.5 -163.43)"/><path fill="#d49660" d="M301.5 687.5q9.58.21 19 2 2.8 0 5-1h1a529 529 0 0 0 7 45q.25 3.05-.5 6-1 2-2 0 .18 2.93-3 5a5 5 0 0 1-.5-3q-5.63-.32-2 3-.62 10.08-7 2a684 684 0 0 1-17-59" style="opacity:1" transform="translate(-148.5 -163.43)"/><path fill="#b66d3f" d="M300.5 686.5q1 0 1 1a684 684 0 0 0 17 59q6.65 27.18-4 1a466 466 0 0 1-16-58q.2-2.3 2-3" style="opacity:1" transform="translate(-148.5 -163.43)"/><path fill="#50191f" d="M585.5 693.5a17 17 0 0 0 3 5.5q0 2.1-1 4.5.45 1.21 1.5 2 1.79-2.6 3.5-5 .25 6.7-3 12.5 2.2 13.16-2 26a6.4 6.4 0 0 1-.5 6.5l-1 18a4 4 0 0 0-1.5 3q.8 4.93.5 10a814 814 0 0 0 90.5-7.5q.84-.57 1-1.5 1.83-.8 3.5-2 2.46 3.15 5.5 2 3.44-.38 6.5 1a8.4 8.4 0 0 1 5.5-2.5q17.5-2.55 34-5.5 1.82-.37 2-2 3.37-.66 6.5-2a247 247 0 0 0 10.5-36l2-5a2.3 2.3 0 0 0 1.5-1q4.62 7.74 9 1 .27 5.57 1.5 11a7.3 7.3 0 0 0 3-2q-1.5-1.34 0-2 1.23 2.45 2 5a84 84 0 0 1-5 17q-5.22 6.36-4.5 15 4.88 3.53-.5 6.5l1 1a88 88 0 0 0-3 5q.88 2.8-2 5 .93 2.1 1 4.5a83 83 0 0 1-2 10 13 13 0 0 1-4.5 6 159 159 0 0 1-11.5 29.5l122 1q19.7 5.65 11.5 24.5a15.6 15.6 0 0 1-6.5 5 4818 4818 0 0 1-192.5 0 6.1 6.1 0 0 1-5-3l-2.5 2.5q-8.05.48-16 1.5 0-2.7-1.5-5l-1 2q-2.1 0-4.5-1l-1 1a7 7 0 0 0 3 1.5 39 39 0 0 0-13.5.5 9 9 0 0 1-2.5-2q-1.8.53 0 1.5-1.9.45-3.5 1.5-90.9-.15-182.5 0a5.5 5.5 0 0 1 3-1.5q-1.75-4.67 1.5-.5 1.31-3.01 4 0 .75-2.45.5-5 4.4-1.18 9-2 2.9.06 5.5 1a92 92 0 0 1 13.5-5 661 661 0 0 1 10-4q21.24-1 42-2 19.26.5 38-1 2.43-1.64 2.5-5 .75-7.49.5-15v-3a374 374 0 0 0 6-38 2.3 2.3 0 0 0 1.5-1l4.5-47q-.07-2.4-1-4.5a242 242 0 0 0 2-31.5" style="opacity:1" transform="translate(-148.5 -163.43)"/><path fill="#d49660" d="M287.5 683.5q6.48 1.65 13 3-1.8.7-2 3a466 466 0 0 0 16 58 8.8 8.8 0 0 0 2 7 3.1 3.1 0 0 1-3 1 8.4 8.4 0 0 1-.5 4l-1-1a7 7 0 0 1-2.5 2q-6.1-2-12-4a1155 1155 0 0 1-19-74q4.53.3 9 1" style="opacity:1" transform="translate(-148.5 -163.43)"/><path fill="#994d2e" d="M629.5 692.5q1.91 1.8 2 5a413 413 0 0 1-12.5 73q-1.35 1.82-2.5 0 7.06-38.95 13-78" style="opacity:1" transform="translate(-148.5 -163.43)"/><path fill="#aa6549" d="M699.5 696.5a58 58 0 0 1-2 15.5 6.3 6.3 0 0 0 1 3 11 11 0 0 0-2 8.5 5 5 0 0 1 3 .5q-1.13 2.23-2.5.5a117 117 0 0 0-8 27q-.57.84-1.5 1 5.7-28.25 12-56" style="opacity:1" transform="translate(-148.5 -163.43)"/><path fill="#f1d8c5" d="M302.5 679.5q.13 1.5-1 2.5-2.37 1.06-4.5 2.5a25 25 0 0 0-9.5-1q-4.47-.7-9-1 8.28 37.35 19 74-1.02 2.51-4 2a35 35 0 0 1-9.5-2q-3.15-9.7-6.5-19a1224 1224 0 0 1-16-64q.9-.96 2.5-1a557 557 0 0 0 38.5 7" style="opacity:1" transform="translate(-148.5 -163.43)"/><path fill="#984b2c" d="M653.5 695.5q1.88 1.25 2 4-3.15 30.9-10.5 61a31 31 0 0 1-3.5 9l-1-1q7.22-36.38 13-73" style="opacity:1" transform="translate(-148.5 -163.43)"/><path fill="#b56e42" d="M515.5 694.5h3a2203 2203 0 0 1-4.5 38 413 413 0 0 0-7.5 42.5q18 .75 36 .5a466 466 0 0 1-61 0h22q-.25-5.52.5-11 6.25-34.95 11.5-70" style="opacity:1" transform="translate(-148.5 -163.43)"/><path fill="#701924" d="M277.5 737.5q3.35 9.3 6.5 19a35 35 0 0 0 9.5 2l17 4q14.35 3.52 29.5 5 3.05.22 5-2 .49 3.1 2.5 1a3.1 3.1 0 0 1 1 3h14q7.2 1.84 15 2.5l42 3a75 75 0 0 0 21-.5 18 18 0 0 0 6-3 3 3 0 0 0 2 2q-.26 1.5 1 2 35.47 2.18 71.5 2l43.5-.5q6.78-.25 13-1.5 0-1 1-1v3a374 374 0 0 1-6 38q-61 .14-122-1a16 16 0 0 0 1 6.5 3.4 3.4 0 0 1-1.5 2.5q-1.26-4.44-3-1l-1-1q-.15-3.77-1.5-5l-2-1a36 36 0 0 0-13-2.5q-32.25-1.89-64.5-4.5l-6.5 1q.19.9 1 1a87 87 0 0 0 5 14q.42 3.93 2 7.5 8.01.7 16 1.5 9.21 2.55 18.5 5a8 8 0 0 1 5.5 0 5 5 0 0 0 .5 3 6.6 6.6 0 0 1 3-3q13.63-.48 27.5 1a6.9 6.9 0 0 0 3 4.5q-2 2.76.5 1.5a4.6 4.6 0 0 0 2.5 2.5q-2.1.9-4-.5a63 63 0 0 1-5.5 3 32 32 0 0 0-10-1 20 20 0 0 0-3.5 2q-1.78 1.77-3.5 0l-1.5 1.5q-36.47 2.34-72.5 4.5a7 7 0 0 0-2.5-2q-15.8.99-31.5 2-1.75-1.6-2.5 1h-145q-5.28.36-8-4a25 25 0 0 1-2-19q1.62-5.1 7-6 64.6.5 127-1a227 227 0 0 1-11-32q.04-2.95 0-6a12 12 0 0 1-4-1q-3.27-3.33 0-6-2-3-5-5a87 87 0 0 1-2.5-7q-.25-10.56 1.5-20.5a11 11 0 0 1-4-8.5 5.5 5.5 0 0 0 1.5-3 14.3 14.3 0 0 0 5 7q6.73-3.9-.5-7.5 3.75-2.33 0-5 1.13-2.23 2.5-.5l1-9q.62-.7 1.5-1a70 70 0 0 1 3.5 11 81 81 0 0 0 2.5 3" style="opacity:1" transform="translate(-148.5 -163.43)"/><path fill="#b87241" d="M562.5 775.5h-2a639 639 0 0 1 9.5-77q1 8.5 0 17z" style="opacity:1" transform="translate(-148.5 -163.43)"/><path fill="#984a2c" d="M670.5 689.5q1.73.44 2 2.5a966 966 0 0 1-15 76.5l-1-1.5a1258 1258 0 0 1 14-77.5" style="opacity:1" transform="translate(-148.5 -163.43)"/><path fill="#661d1c" d="M334.5 685.5q.8 2.43 1 5 6.3 38.72 15 77 6.27.53 12 2h-14a3.1 3.1 0 0 0-1-3q-2.01 2.1-2.5-1a5.8 5.8 0 0 1-5 2 209 209 0 0 1-29.5-5 1966 1966 0 0 1 31 4 397 397 0 0 0-8-33 529 529 0 0 1-7-45q-.1-.66.5-1a9 9 0 0 0 6.5 2 4.6 4.6 0 0 1 1-4" style="opacity:1" transform="translate(-148.5 -163.43)"/><path fill="#641e23" d="M333.5 693.5q3.57 17.04 7 34.5-3.15 11.2-6-.5a10 10 0 0 1 1-3 10.5 10.5 0 0 1-3.5-5 110 110 0 0 0-2.5-15.5q1.88-3.3-1-6a4.6 4.6 0 0 0 2.5-2.5q.75 4.1 1.5 7a21 21 0 0 0 1-9" style="opacity:1" transform="translate(-148.5 -163.43)"/><path fill="#651b20" d="M441.5 691.5v1q-.47 4.82 1 9v31q-4.65-.13-1 1.5-1.52 1.58-.5 3.5 1-2 2 0a882 882 0 0 1 3.5 34 18 18 0 0 1-6 3q0-1-1-1v-1q1-2.2 1-5a2792 2792 0 0 1-7-72q.93.16 1.5 1 .66-3.26 3-2a15 15 0 0 1 3.5-3" style="opacity:1" transform="translate(-148.5 -163.43)"/><path fill="#893d23" d="M744.5 683.5q-3.75 34.27-16.5 67a6.5 6.5 0 0 1 0-5 1059 1059 0 0 0 16.5-62" style="opacity:1" transform="translate(-148.5 -163.43)"/><path fill="#b77041" d="M545.5 775.5h-3q2.47-40.17 8-80h4a7329 7329 0 0 1-9 80" style="opacity:1" transform="translate(-148.5 -163.43)"/><path fill="#b46e3e" d="M350.5 692.5a942 942 0 0 1 14.5 73 320 320 0 0 1-9.5-34q-.75-5.55-2-11a701 701 0 0 0-5-23q-.45-3.15 1-6 .9.19 1 1" style="opacity:1" transform="translate(-148.5 -163.43)"/><path fill="#d39463" d="M333.5 733.5a397 397 0 0 1 8 33 1966 1966 0 0 0-31-4l-17-4q2.98.51 4-2 5.9 2 12 4a7 7 0 0 0 2.5-2l1 1q.74-1.95.5-4a3.1 3.1 0 0 0 3-1 8.8 8.8 0 0 1-2-7q10.65 26.18 4-1 6.38 8.08 7-2-3.63-3.32 2-3a5 5 0 0 0 .5 3q3.18-2.07 3-5 1 2 2 0 .75-2.95.5-6" style="opacity:1" transform="translate(-148.5 -163.43)"/><path fill="#d9976f" d="M450.5 693.5q11.28-.49 22 1h-29q.25 12.03 1.5 24 .25 3.26 2.5 5.5a96 96 0 0 1-1 10.5q2.25 19.44 3 39 14.48.97 29 1v1h-29q-1.26-.5-1-2a4999 4999 0 0 0-6-65v-15z" style="opacity:1" transform="translate(-148.5 -163.43)"/><path fill="#b76f41" d="M390.5 690.5h2a390 390 0 0 1 6.5 31q3.87 25.5 7.5 51-4.81.47-9-1h6a968 968 0 0 1-13-80z" style="opacity:1" transform="translate(-148.5 -163.43)"/><path fill="#541814" d="M583.5 692.5v-1q2 0 2 2 .03 15.9-2 31.5.93 2.1 1 4.5l-4.5 47q-.57.84-1.5 1v-3a3759 3759 0 0 0 5-73q2-4.5 0-9" style="opacity:1" transform="translate(-148.5 -163.43)"/><path fill="#b77042" d="M368.5 690.5a1247 1247 0 0 0 17 81q-3.84.45-7-1 2.05.24 4-.5a109 109 0 0 1-4-9.5 623 623 0 0 1-13-65v-6q1.95-.36 3 1" style="opacity:1" transform="translate(-148.5 -163.43)"/><path fill="#b1693f" d="M590.5 748.5a9 9 0 0 1 2-4.5q-1.7-4.8 0-10.5 1.36-1.05 1-3 6.11 1.89 11.5 0l1 2q3.69-3.01 7.5-.5-2.63 2.32-5 2.5a21 21 0 0 0 6.5 3q.49-3.1 2.5-1a20 20 0 0 0 1.5-6q.48 2.7 2 1a81 81 0 0 1-3 19 92 92 0 0 1-4.5 3q.8 2.65 2.5 1 3.24 4.7-1 8a8.6 8.6 0 0 0-7.5-3 5 5 0 0 1 .5-3l6 2 .5-1a5.7 5.7 0 0 1-3.5-5q-1.5 2-3 0a6.3 6.3 0 0 0-.5-3.5 5.2 5.2 0 0 1-4.5-.5 3.6 3.6 0 0 0-2 2q-3.2-2.3-3.5-5-2.47 4.43 2 6.5-2.6.98-5-.5-1.89 3.9-3-.5 2.47-3.84-1-2.5" style="opacity:1" transform="translate(-148.5 -163.43)"/><path fill="#6b231b" d="M442.5 708.5a4999 4999 0 0 1 6 65 3 3 0 0 1-2-2 882 882 0 0 0-3.5-34q-1-2-2 0-1.02-1.92.5-3.5-3.65-1.63 1-1.5z" style="opacity:1" transform="translate(-148.5 -163.43)"/><path fill="#d59761" d="M350.5 692.5q4.53-.25 9 .5 2.85 2.86 6 2.5a623 623 0 0 0 13 65q.13 1.5-1 2.5a8 8 0 0 1 2 5.5q-14.04-.4-28-2a776 776 0 0 0-8-38l1-1 3 2 2.5-3a7.5 7.5 0 0 0 .5 5l2-6q1.74 2.38.5 6 1.15-1.65 2.5 0a320 320 0 0 0 9.5 34 942 942 0 0 0-14.5-73" style="opacity:1" transform="translate(-148.5 -163.43)"/><path fill="#b87141" d="M531.5 695.5h3a635 635 0 0 1-6.5 78 4.4 4.4 0 0 1-3.5 1 1159 1159 0 0 1 7-79" style="opacity:1" transform="translate(-148.5 -163.43)"/><path fill="#672a2e" d="M260.5 742.5q.15 5.22 4 8.5a103 103 0 0 0-1.5 20.5q1.1 3.55 2.5 7 3 2 5 5-3.27 2.67 0 6 2.22.92 4 1 .04 3.05 0 6-12.48-13.37-14-32-.18-4.64 3-8a111 111 0 0 1-5-16q2.55-1.75 2 2" style="opacity:1" transform="translate(-148.5 -163.43)"/><path fill="#591c16" d="M733.5 758.5q-.18 1.63-2 2-16.5 2.95-34 5.5-3.26.25-5.5 2.5a12 12 0 0 0-6.5-1q-1 0-1-1z" style="opacity:1" transform="translate(-148.5 -163.43)"/><path fill="#4c2023" d="M764.5 744.5q-1.35 5.77-3 11.5 3.1 5.34 2.5 11.5a81 81 0 0 1-9.5 24 83 83 0 0 0 2-10q-.07-2.4-1-4.5 2.88-2.2 2-5a88 88 0 0 1 3-5l-1-1q5.38-2.97.5-6.5-.72-8.64 4.5-15" style="opacity:1" transform="translate(-148.5 -163.43)"/><path fill="#581c15" d="M594.5 693.5q-3.79 40.53-8 81 13.25-.48 26-2a496 496 0 0 0 59-4.5 5 5 0 0 0 3.5-2.5q1.66-6.22 3.5-12-.69 7.05-2 14a2.3 2.3 0 0 1-1 1.5 814 814 0 0 1-90.5 7.5q.3-5.07-.5-10a4 4 0 0 1 1.5-3l1-18a6.4 6.4 0 0 0 .5-6.5 54 54 0 0 0 2-26 23 23 0 0 0 3-12.5q-.25-4.03.5-8 .57.84 1.5 1" style="opacity:1" transform="translate(-148.5 -163.43)"/><path fill="#6d1e17" d="M362.5 769.5q8.03.1 16 1 3.16 1.45 7 1h12q4.19 1.47 9 1 12.23 1.46 25 2 4.28 0 8-1 1 0 1 1a75 75 0 0 1-21 .5l-42-3a91 91 0 0 1-15-2.5" style="opacity:1" transform="translate(-148.5 -163.43)"/><path fill="#691713" d="M449.5 775.5h32a466 466 0 0 0 61 0h35a83 83 0 0 1-13 1.5l-43.5.5q-36.03.18-71.5-2" style="opacity:1" transform="translate(-148.5 -163.43)"/><path fill="#692022" d="M321.5 802.5h-12q-6.97-1.2-14-2a92 92 0 0 0 6.5 17q4.95 4.34 11.5 5-6.25 1.11-12-3-4.28-8.85-8-18a7 7 0 0 1 2-2.5q4.46-1.2 9-2-1.8-.97 0-1.5a15 15 0 0 0 6 3.5l-1 1q2.9.38 5.5 1.5l5-1a4.3 4.3 0 0 1 1.5 2" style="opacity:1" transform="translate(-148.5 -163.43)"/><path fill="#ad6340" d="M728.5 800.5a116 116 0 0 1-6.5 18 59 59 0 0 1-9.5 4 311 311 0 0 1-37 6q-2.84-.51-5-4a672 672 0 0 1 6-14.5q18.52-2.85 37-6 .84-.57 1-1.5a740 740 0 0 0 11.5-3q1.6.04 2.5 1" style="opacity:1" transform="translate(-148.5 -163.43)"/><path fill="#d49666" d="M309.5 802.5h2q19.26 3.21 39 6 1.25 3.45 2 7-.93.16-1.5 1-.75-2.45-.5-5a4.9 4.9 0 0 1-5-2.5 98 98 0 0 1-9-1.5q-4.57.7-1 2.5-1.42.72-3 .5a3.3 3.3 0 0 0 2 3.5 34 34 0 0 0-11 8 69 69 0 0 0 9.5 3.5 4.4 4.4 0 0 1 4-2 12 12 0 0 0 6.5 3q-.1-4.9 5-4.5-1.2-.45-2-1.5 1.83.59 2.5-2 1.2 4.11 3 8 1.35 1.82 2.5 0a15 15 0 0 1-3-3.5 12 12 0 0 0 1-6.5 74 74 0 0 1 4 13 260 260 0 0 1-26-3q-6.7-1.35-13-3-3.26-10.2-8-21" style="opacity:1" transform="translate(-148.5 -163.43)"/><path fill="#d4965d" d="M352.5 815.5v1a12 12 0 0 1-1 6.5 15 15 0 0 0 3 3.5q-1.15 1.82-2.5 0a58 58 0 0 1-3-8q-.67 2.59-2.5 2 .8 1.05 2 1.5-5.1-.4-5 4.5a12 12 0 0 1-6.5-3 4.4 4.4 0 0 0-4 2 69 69 0 0 1-9.5-3.5q4.65-5.1 11-8a3.3 3.3 0 0 1-2-3.5 5 5 0 0 0 3-.5q-3.57-1.8 1-2.5a98 98 0 0 0 9 1.5 4.9 4.9 0 0 0 5 2.5q-.25 2.55.5 5 .57-.84 1.5-1" style="opacity:1" transform="translate(-148.5 -163.43)"/><path fill="#f0d6c3" d="M309.5 802.5q4.74 10.8 8 21a7 7 0 0 1-4-1q-6.55-.66-11.5-5a92 92 0 0 1-6.5-17q7.03.8 14 2" style="opacity:1" transform="translate(-148.5 -163.43)"/><path fill="#d59966" d="M387.5 811.5q.91 1.35 1 3a51 51 0 0 0-8.5-1q-3.03.45-1.5 2.5-1.42.72-3 .5a73 73 0 0 1-8 13 27 27 0 0 0-3-5 87 87 0 0 1-5-14q2.2-1 5-1 11.46 1.62 23 2" style="opacity:1" transform="translate(-148.5 -163.43)"/><path fill="#772a1f" d="M442.5 815.5q-12.5-.29-25-1a16.6 16.6 0 0 0-8-1q-8.03-.1-16-1a9.6 9.6 0 0 0-6-1q-11.54-.38-23-2-2.8 0-5 1-.81-.1-1-1l6.5-1q32.25 2.61 64.5 4.5 6.94.07 13 2.5" style="opacity:1" transform="translate(-148.5 -163.43)"/><path fill="#551a15" d="m644.5 810.5-10 2q-26.6.84-53 4a100 100 0 0 0-3 22 55 55 0 0 1 2-23.5q5.96-1.28 12-2 26.05-.6 52-2.5" style="opacity:1" transform="translate(-148.5 -163.43)"/><path fill="#561b15" d="M712.5 822.5a59 59 0 0 0 9.5-4 116 116 0 0 0 6.5-18q1.3-1.44 2 0a116 116 0 0 1-6.5 18q-4.56 5.2-11.5 4" style="opacity:1" transform="translate(-148.5 -163.43)"/><path fill="#ad633f" d="M661.5 809.5q3.2 7.29-3 13.5 2.25 4.8-2.5 7.5-37.5 6-75.5 6-.25-9.66 2-19a1960 1960 0 0 1 51-3.5l3-1a2.4 2.4 0 0 0-2-.5l10-2q8.5-.4 17-1" style="opacity:1" transform="translate(-148.5 -163.43)"/><path fill="#b06a3b" d="M387.5 811.5a9.6 9.6 0 0 1 6 1 8.4 8.4 0 0 0-4 .5 43 43 0 0 1 4.5 17.5 151 151 0 0 1-5.5-16 5.7 5.7 0 0 0-1-3" style="opacity:1" transform="translate(-148.5 -163.43)"/><path fill="#d5955f" d="M478.5 816.5q1 10.47 1 21-11 .25-22-.5a19 19 0 0 0-3-5.5q-2.1-7.35-2-15z" style="opacity:1" transform="translate(-148.5 -163.43)"/><path fill="#d4955d" d="M481.5 818.5h34v20h-34z" style="opacity:1" transform="translate(-148.5 -163.43)"/><path fill="#d5965f" d="M393.5 812.5q7.97.9 16 1a37 37 0 0 0 5.5 19 45 45 0 0 0-3.5-17q7.17-.12 13.5 3l1.5-1.5q7.99-.75 16-.5 1.65 9.93 2 20-20.07.25-40-2a59 59 0 0 1-20.5-4q-1.84.9-4 1a98 98 0 0 1-12.5-2 73 73 0 0 0 8-13 5 5 0 0 0 3-.5q-1.53-2.05 1.5-2.5 4.26.15 8.5 1 2.31 8.2 5.5 16a43 43 0 0 0-4.5-17.5 8.4 8.4 0 0 1 4-.5" style="opacity:1" transform="translate(-148.5 -163.43)"/><path fill="#b66f42" d="M409.5 813.5q4.33-.45 8 1a9.6 9.6 0 0 0-6 1 45 45 0 0 1 3.5 17 37 37 0 0 1-5.5-19" style="opacity:1" transform="translate(-148.5 -163.43)"/><path fill="#d89768" d="M539.5 816.5h33v2a301 301 0 0 1-3 16v4q-26.11.48-52-1 .6-9.5 1-19h-37z" style="opacity:1" transform="translate(-148.5 -163.43)"/><path fill="#d4945d" d="M551.5 817.5q-1.65 9.45-1.5 19a36.4 36.4 0 0 0 3.5-19h17q-.95 8.47-1 17-1.36 1.05-1 3a851 851 0 0 0-35.5 0 7.5 7.5 0 0 1-6-2q-.9 3.28-3.5.5 1.7-6.13 6-2.5 3.84-.36 0-1.5 2.66-6.51 3.5 1.5a5 5 0 0 1 3.5-2.5 7.3 7.3 0 0 0-3-2q1.81-2.76 4-2.5a11 11 0 0 0-2.5-3l-4 4q-3-1.75-6.5-2 .3 3.12.5 6-3.55-4.18-4 1l-1-1q-.09-5.27 0-11a10 10 0 0 1 2.5-1.5q14.5-.7 29-1.5" style="opacity:1" transform="translate(-148.5 -163.43)"/><path fill="#b46e40" d="M551.5 817.5h2q.8 10.06-3.5 19-.15-9.55 1.5-19" style="opacity:1" transform="translate(-148.5 -163.43)"/><path fill="#b46f3d" d="M515.5 818.5h3q-.4 9.5-1 19l-2 1z" style="opacity:1" transform="translate(-148.5 -163.43)"/><path fill="#a66149" d="M714.5 802.5a2.3 2.3 0 0 1-1 1.5q-18.48 3.15-37 6a672 672 0 0 0-6 14.5q2.16 3.49 5 4a11.3 11.3 0 0 1-8 .5 167 167 0 0 0 6.5-19.5q8.34-2.25 16.5-4 12.1-.66 24-3" style="opacity:1" transform="translate(-148.5 -163.43)"/><path fill="#571b16" d="M690.5 805.5a318 318 0 0 0-16.5 4 167 167 0 0 1-6.5 19.5q4.3 1.2 8-.5a311 311 0 0 0 37-6 13.4 13.4 0 0 1-8 3.5 615 615 0 0 1-37 5q-.15-12.4 6-23.5a47 47 0 0 1 17-2" style="opacity:1" transform="translate(-148.5 -163.43)"/><path fill="#713437" d="M285.5 828.5q-62.4 1.5-127 1a9 9 0 0 1 4-1.5q61.6-1.24 123 .5" style="opacity:1" transform="translate(-148.5 -163.43)"/><path fill="#b66e48" d="M478.5 816.5h61l-58 2v20q-1.5.26-2-1 0-10.53-1-21" style="opacity:1" transform="translate(-148.5 -163.43)"/><path fill="#6e1e1b" d="M330.5 826.5a260 260 0 0 0 26 3 74 74 0 0 0-4-13v-1q-.75-3.55-2-7a1628 1628 0 0 1-39-6h10q3.44.38 6.5-1a197 197 0 0 0 23.5 6 58 58 0 0 0 8 16.5q-1.2.45-2 1.5 1.27 2.85 1 6a43 43 0 0 0-16.5 0 35 35 0 0 1-11.5-5" style="opacity:1" transform="translate(-148.5 -163.43)"/><path fill="#d38f68" d="M411.5 815.5a9.6 9.6 0 0 1 6-1q12.5.71 25 1l2 1q1.25 10.98 2 22a570 570 0 0 1-64-5q-7.99-.8-16-1.5a25 25 0 0 1-2-7.5 27 27 0 0 1 3 5q5.97 1.37 12.5 2a10 10 0 0 0 4-1 59 59 0 0 0 20.5 4 319 319 0 0 0 40 2q-.35-10.07-2-20-8.01-.25-16 .5l-1.5 1.5a29 29 0 0 0-13.5-3" style="opacity:1" transform="translate(-148.5 -163.43)"/><path fill="#612819" d="M572.5 818.5q.25 7.51-.5 15-.07 3.36-2.5 5v-4a301 301 0 0 0 3-16" style="opacity:1" transform="translate(-148.5 -163.43)"/><path fill="#a8644a" d="M661.5 809.5h4a415 415 0 0 0-6 22 800 800 0 0 1-81 7 100 100 0 0 1 3-22q26.41-3.16 53-4 1.1-.2 2 .5l-3 1a1960 1960 0 0 0-51 3.5 72 72 0 0 0-2 19q38 0 75.5-6 4.75-2.7 2.5-7.5 6.21-6.21 3-13.5" style="opacity:1" transform="translate(-148.5 -163.43)"/><path fill="#551a16" d="M659.5 831.5a7 7 0 0 1-2 2.5 2680 2680 0 0 0-42 4.5q-18.62.6-37 0 40.71-1.44 81-7" style="opacity:1" transform="translate(-148.5 -163.43)"/><path fill="#6a1c18" d="M572.5 815.5v1h-120q-.1 7.65 2 15v6q-1.38-3.83-5.5-8-.42 5.25-.5 10-5.43 1.23-11 0a194 194 0 0 0-27.5-1 6.6 6.6 0 0 0-3 3 5 5 0 0 1-.5-3 8 8 0 0 0-5.5 0q-9.29-2.45-18.5-5a570 570 0 0 0 64 5q-.75-11.02-2-22 1.35 1.23 1.5 5l1 1q1.74-3.44 3 1a3.4 3.4 0 0 0 1.5-2.5 16 16 0 0 1-1-6.5q61 1.14 122 1" style="opacity:1" transform="translate(-148.5 -163.43)"/><path fill="#681b22" d="M454.5 837.5a753 753 0 0 0 77 2q-20.76 1-42 2a661 661 0 0 0-10 4 298 298 0 0 0-29.5 5 8.4 8.4 0 0 0-4-1l-1.5 1.5q-4.4.33-8.5 1.5a63 63 0 0 0-15.5-1 20 20 0 0 1 3.5-2q5.25-.29 10 1a63 63 0 0 0 5.5-3q1.9 1.4 4 .5a4.6 4.6 0 0 1-2.5-2.5q-2.5 1.26-.5-1.5a6.9 6.9 0 0 1-3-4.5q5.57 1.23 11 0 .08-4.75.5-10 4.12 4.17 5.5 8" style="opacity:1" transform="translate(-148.5 -163.43)"/><path fill="#c1815e" d="M454.5 831.5a19 19 0 0 1 3 5.5q11 .75 22 .5.5 1.26 2 1h34l2-1q25.89 1.48 52 1a362 362 0 0 1-38 1q-38.84.97-77-2z" style="opacity:1" transform="translate(-148.5 -163.43)"/><path fill="#662b31" d="M151.5 835.5a25 25 0 0 0 2 19q-5.07-4.17-5-11-.12-4.74 3-8" style="opacity:1" transform="translate(-148.5 -163.43)"/><path fill="#5a1920" d="M479.5 845.5a92 92 0 0 0-13.5 5 17 17 0 0 0-5.5-1q-4.6.82-9 2 .25 2.55-.5 5-2.69-3.01-4 0-3.25-4.17-1.5.5a5.5 5.5 0 0 0-3 1.5h-5q.2-1.1-.5-2-1.77 1.85-3.5 0a10 10 0 0 1 4-1.5 55 55 0 0 1-8-2.5 6.7 6.7 0 0 0-6 3 7 7 0 0 1-2.5-2q-1.38.82-2.5 2 1.5 1.34 0 2l-6-3a9 9 0 0 1-2.5 2q-3.25-2.93-7-2-2.53 4.8-6 1-3.58 3.7-7 0a7 7 0 0 1-4.5 2.5q-39.5.75-79 .5.75-2.6 2.5-1 15.7-1.01 31.5-2a7 7 0 0 1 2.5 2q36.03-2.16 72.5-4.5l1.5-1.5q1.72 1.77 3.5 0a63 63 0 0 1 15.5 1 42 42 0 0 1 8.5-1.5l1.5-1.5q1.87-.06 4 1a298 298 0 0 1 29.5-5" style="opacity:1" transform="translate(-148.5 -163.43)"/><path fill="#541c23" d="M437.5 858.5a362 362 0 0 0-38 1q-119.25.5-238-1h145q39.5.25 79-.5a7 7 0 0 0 4.5-2.5q3.42 3.7 7 0 3.47 3.8 6-1 3.75-.93 7 2a9 9 0 0 0 2.5-2l6 3q1.5-.66 0-2 1.12-1.18 2.5-2a7 7 0 0 0 2.5 2 6.7 6.7 0 0 1 6-3 55 55 0 0 0 8 2.5q-2.16.33-4 1.5 1.73 1.85 3.5 0 .7.9.5 2" style="opacity:1" transform="translate(-148.5 -163.43)"/><path fill="#461c21" d="M865.5 857.5a3.3 3.3 0 0 1-2 1.5q-232 .75-464 .5a362 362 0 0 1 38-1h5q91.6-.15 182.5 0 1.6-1.05 3.5-1.5-1.8-.97 0-1.5a9 9 0 0 0 2.5 2 39 39 0 0 1 13.5-.5 7 7 0 0 1-3-1.5l1-1q2.4 1 4.5 1l1-2a9 9 0 0 1 1.5 5q7.95-1.02 16-1.5l2.5-2.5a6.1 6.1 0 0 0 5 3 4818 4818 0 0 0 192.5 0" style="opacity:1" transform="translate(-148.5 -163.43)"/></svg>